<?xml version="1.0" encoding="utf-8"?>
<!-- Generator: Adobe Illustrator 19.0.0, SVG Export Plug-In . SVG Version: 6.00 Build 0)  -->
<svg version="1.1" id="Ebene_1" xmlns="http://www.w3.org/2000/svg" xmlns:xlink="http://www.w3.org/1999/xlink" x="0px" y="0px" width="50px" height="50px"
	 viewBox="-212 70.8 141.7 141.7" style="enable-background:new -212 70.8 141.7 141.7;" xml:space="preserve">
<style type="text/css">
	.st0{fill:#FFFFFF;}
</style>
<g id="Ebene_6">
	<g id="XMLID_59_">
		<g id="XMLID_60_">
			<g id="XMLID_61_">
				<path id="XMLID_32_" class="st0" d="M-130.2,136.2c-1.7-1.3-4.1-1-5.5,0.7c-3.8,4.9-7,10.2-9.6,15.9c-0.9,2,0,4.3,1.9,5.1
					c0.5,0.2,1.1,0.4,1.6,0.4c1.5,0,2.9-0.8,3.5-2.3c2.3-5.1,5.3-9.9,8.7-14.3C-128.2,140-128.5,137.5-130.2,136.2z"/>
				<path id="XMLID_30_" class="st0" d="M-146.4,167.5c-0.6-0.1-1.3-0.1-1.8,0.1c-0.6-0.2-1.2-0.2-1.9-0.1c-2.1,0.5-3.4,2.5-3,4.6
					c0.5,2.4,0.9,4.8,1.1,7.2c0.2,2,1.9,3.5,3.9,3.5l0,0c2,0,3.7-1.6,3.8-3.6c0.2-2.4,0.5-4.9,0.9-7.3
					C-142.9,169.9-144.3,167.9-146.4,167.5z"/>
				<path id="XMLID_29_" class="st0" d="M-152,152.7c-2.8-5.4-6.4-10.7-10.6-15.6c-1.4-1.6-3.9-1.8-5.5-0.4
					c-1.6,1.4-1.8,3.8-0.4,5.5c3.8,4.5,7.1,9.2,9.6,14.1c0.7,1.3,2,2.1,3.4,2.1c0.6,0,1.2-0.1,1.8-0.4
					C-151.8,156.9-151,154.6-152,152.7z"/>
				<path id="XMLID_20_" class="st0" d="M-176.2,124.1c-3.9-3.1-6.7-4.7-6.8-4.8c-1.9-1.1-4.2-0.5-5.3,1.4c-1.1,1.8-0.5,4.2,1.4,5.3
					c0,0,2.4,1.4,5.9,4.2c0.7,0.6,1.6,0.8,2.4,0.8c1.2,0,2.3-0.5,3.1-1.5C-174.2,127.9-174.5,125.4-176.2,124.1z"/>
				<path id="XMLID_19_" class="st0" d="M-105.3,113c-4.4,0-8.1,3-9.3,7c-2.3,0.7-4.8,1.9-7.5,3.8c-1.8,1.2-2.2,3.6-1,5.4
					c0.8,1.1,2,1.7,3.2,1.7c0.8,0,1.5-0.2,2.2-0.7c1.8-1.2,3.2-1.9,4.2-2.4c1.7,2.7,4.7,4.6,8.2,4.6c5.4,0,9.7-4.4,9.7-9.7
					C-95.6,117.3-99.9,113-105.3,113z"/>
			</g>
		</g>
	</g>
</g>
</svg>
