<?xml version="1.0" encoding="utf-8"?>
<!-- Generator: Adobe Illustrator 19.0.0, SVG Export Plug-In . SVG Version: 6.00 Build 0)  -->
<svg version="1.1" id="Ebene_1" xmlns="http://www.w3.org/2000/svg" xmlns:xlink="http://www.w3.org/1999/xlink" x="0px" y="0px" width="50px" height="50px"
	 viewBox="-212 70.8 141.7 141.7" style="enable-background:new -212 70.8 141.7 141.7;" xml:space="preserve">
<style type="text/css">
	.st0{fill:#FFFFFF;}
	.st1{fill:none;stroke:#FFFFFF;stroke-width:3;stroke-miterlimit:10;}
</style>
<g id="Bullet">
	<g id="XMLID_8_">
		<g id="XMLID_9_">
			<g id="XMLID_27_">
				<path id="XMLID_6_" class="st0" d="M-135.6,171l17.4-41.5c0.3-0.8,0-1.6-0.8-2l-24.9-10.4c-0.8-0.3-1.6,0-2,0.8l-17.4,41.6
					c-0.3,0.8,0,1.6,0.8,2l-0.5,1.3c-0.8-0.3-1.6,0-2,0.8l-2.3,5.5c-0.3,0.8,0,1.6,0.8,2l24.9,10.4c0.8,0.3,1.6,0,2-0.8l2.3-5.5
					c0.3-0.8,0-1.6-0.8-2l0.6-1.4C-136.8,172.2-135.9,171.8-135.6,171z"/>
				<path id="XMLID_5_" class="st0" d="M-141.4,115l22.1,9.3c0.8,0.3,1.6,0,2-0.8l0.6-1.4c3.8-9.1,3.1-19.6-1.9-28.1
					c-0.3-0.6-1-0.9-1.7-0.7c-9.6,2.4-17.5,9.3-21.4,18.4l-0.6,1.4C-142.5,113.8-142.1,114.6-141.4,115z"/>
			</g>
		</g>
	</g>
	<line id="XMLID_7_" class="st1" x1="-165" y1="173.9" x2="-168" y2="181.2"/>
	<line id="XMLID_13_" class="st1" x1="-158.2" y1="176.8" x2="-164.8" y2="192.6"/>
	<line id="XMLID_16_" class="st1" x1="-151.9" y1="179.4" x2="-160" y2="198.8"/>
	<line id="XMLID_18_" class="st1" x1="-145.4" y1="182.1" x2="-150.6" y2="194.6"/>
</g>
</svg>
