<?xml version="1.0" encoding="utf-8"?>
<!-- Generator: Adobe Illustrator 19.0.0, SVG Export Plug-In . SVG Version: 6.00 Build 0)  -->
<svg version="1.1" id="Ebene_1" xmlns="http://www.w3.org/2000/svg" xmlns:xlink="http://www.w3.org/1999/xlink" x="0px" y="0px" width="50px" height="50px"
	 viewBox="-212 70.8 141.7 141.7" style="enable-background:new -212 70.8 141.7 141.7;" xml:space="preserve">
<style type="text/css">
	.st0{fill:#FFFFFF;}
</style>
<g>
	<g>
		<path class="st0" d="M-163.9,192.8l19.8-53.4l0.5,14.2c0,1.3,1.2,2.3,2.5,2.3c1.3-0.1,2.3-1.2,2.3-2.5l-0.5-14.2l11.8,25.9
			c0.5,1.2,2,1.7,3.1,1.2c1.2-0.5,1.7-2,1.2-3.1l-11.8-25.9l10.4,9.7c1,0.9,2.5,0.8,3.4-0.1c0.9-1,0.8-2.5-0.1-3.4l-10.4-9.7
			l26.7,9.9c1.2,0.5,2.6-0.2,3.1-1.4c0.5-1.2-0.2-2.6-1.4-3.1l-26.7-9.9l14.2-0.5c1.3,0,2.3-1.1,2.3-2.5c0-1.3-1.1-2.3-2.5-2.3
			l-14.2,0.5l25.8-11.8c1.2-0.5,1.7-2,1.2-3.1c-0.5-1.2-2-1.7-3.1-1.2l-25.9,11.8l9.7-10.4c0.9-1,0.8-2.5-0.1-3.4
			c-1-0.9-2.5-0.8-3.4,0.1l-9.7,10.4l9.9-26.7c0.5-1.2-0.2-2.6-1.4-3.1s-2.6,0.2-3.1,1.4l-9.9,26.7l-0.5-14.2c0-1.3-1.2-2.3-2.5-2.3
			c-1,0-1.8,0.7-2.1,1.5c-0.1,0.3-0.2,0.6-0.1,0.9l0.5,14.2l-11.8-25.9c-0.5-1.2-2-1.7-3.1-1.2c-0.6,0.3-1,0.8-1.2,1.3
			c-0.2,0.6-0.2,1.2,0.1,1.8l11.8,25.9l-10.4-9.7c-1-0.9-2.5-0.8-3.4,0.1c-0.2,0.2-0.4,0.5-0.5,0.8c-0.3,0.9-0.1,1.9,0.6,2.6
			l10.4,9.7l-26.7-9.9c-1.2-0.5-2.6,0.2-3.1,1.4c-0.5,1.2,0.2,2.6,1.4,3.1l26.7,9.9l-14.2,0.5c-1,0-1.8,0.7-2.1,1.5
			c-0.1,0.3-0.2,0.6-0.1,0.9c0,1.3,1.1,2.3,2.5,2.3l14.2-0.5l-25.8,11.8c-0.6,0.3-1,0.8-1.2,1.3c-0.2,0.6-0.2,1.2,0.1,1.8
			c0.5,1.2,2,1.7,3.1,1.2l25.9-11.8l-9.7,10.4c-0.2,0.2-0.4,0.5-0.5,0.8c-0.3,0.9-0.1,1.9,0.6,2.6c1,0.9,2.5,0.8,3.4-0.1l9.7-10.4
			l-19.8,53.4c-0.5,1.2,0.2,2.6,1.4,3.1S-164.3,194.1-163.9,192.8z M-146.6,125.8c-0.6,1.6-0.2,3.3,0.8,4.6l-0.9,2.5
			c-2.2-1.9-3.2-5-2.1-7.9c1.4-3.7,5.5-5.6,9.2-4.2s5.6,5.5,4.2,9.2c-1.1,2.9-3.9,4.7-6.8,4.6l0.9-2.5c1.6-0.3,3-1.3,3.6-2.9
			c0.9-2.5-0.3-5.2-2.8-6.1C-142.9,122.1-145.6,123.3-146.6,125.8z"/>
	</g>
</g>
</svg>
