<?xml version="1.0" encoding="utf-8"?>
<!-- Generator: Adobe Illustrator 19.0.0, SVG Export Plug-In . SVG Version: 6.00 Build 0)  -->
<svg version="1.1" id="Ebene_1" xmlns="http://www.w3.org/2000/svg" xmlns:xlink="http://www.w3.org/1999/xlink" x="0px" y="0px"
	 viewBox="-226 350.2 141.7 141.7" style="enable-background:new -226 350.2 141.7 141.7;" xml:space="preserve">
<style type="text/css">
	.st0{display:none;}
	.st1{display:inline;fill:#53A35C;}
	.st2{display:inline;}
	.st3{fill:#FFFFFF;}
	.st4{fill:none;stroke:#FFFFFF;stroke-width:4;stroke-miterlimit:10;}
	.st5{fill:none;stroke:#FFFFFF;stroke-width:4;stroke-miterlimit:10;stroke-dasharray:15.0534,1.5053;}
	.st6{display:inline;fill:none;stroke:#FFFFFF;stroke-width:3;stroke-miterlimit:10;}
</style>
<g id="Ebene_2" class="st0">
	<circle id="XMLID_1_" class="st1" cx="-155.1" cy="421.1" r="70.9"/>
</g>
<g id="Shotgun" class="st0">
	<g id="XMLID_23_" class="st2">
		<g id="XMLID_24_">
			<g id="XMLID_25_">
				<path id="XMLID_21_" class="st3" d="M-145.5,421.7v-28.2c0-0.5-0.4-0.9-0.9-0.9h-16.9c-0.5,0-0.9,0.4-0.9,0.9v28.2
					c0,0.5,0.4,0.9,0.9,0.9v0.9c-0.5,0-0.9,0.4-0.9,0.9v3.8c0,0.5,0.4,0.9,0.9,0.9h16.9c0.5,0,0.9-0.4,0.9-0.9v-3.8
					c0-0.5-0.4-0.9-0.9-0.9v-0.9C-145.9,422.6-145.5,422.2-145.5,421.7z"/>
				<path id="XMLID_17_" class="st3" d="M-162.4,390.7h15c0.5,0,0.9-0.4,0.9-0.9v-0.9c0-6.2-2.9-12.1-7.9-15.8
					c-0.3-0.3-0.8-0.3-1.1,0c-4.9,3.7-7.9,9.6-7.9,15.8v0.9C-163.3,390.3-162.9,390.7-162.4,390.7z"/>
			</g>
		</g>
		<g id="XMLID_2_">
			<g id="XMLID_54_">
				<line id="XMLID_57_" class="st4" x1="-154.9" y1="430.2" x2="-154.9" y2="445.2"/>
				<line id="XMLID_56_" class="st5" x1="-154.9" y1="446.7" x2="-154.9" y2="462.5"/>
				<line id="XMLID_55_" class="st4" x1="-154.9" y1="463.3" x2="-154.9" y2="478.3"/>
			</g>
		</g>
	</g>
	<g id="XMLID_3_" class="st2">
		<g id="XMLID_11_">
			<g id="XMLID_12_">
				<path id="XMLID_26_" class="st3" d="M-120.7,426l4.9-27.7c0.1-0.5-0.3-1-0.8-1.1l-16.6-2.9c-0.5-0.1-1,0.3-1.1,0.8l-4.9,27.7
					c-0.1,0.5,0.3,1,0.8,1.1l-0.2,0.9c-0.5-0.1-1,0.3-1.1,0.8l-0.6,3.6c-0.1,0.5,0.3,1,0.8,1.1l16.6,2.9c0.5,0.1,1-0.3,1.1-0.8
					l0.7-3.7c0.1-0.5-0.3-1-0.8-1.1l0.2-0.9C-121.3,426.9-120.8,426.5-120.7,426z"/>
				<path id="XMLID_22_" class="st3" d="M-131.9,392.6l14.8,2.6c0.5,0.1,1-0.3,1.1-0.8l0.2-0.9c1.1-6.1-0.8-12.4-5-16.9
					c-0.3-0.3-0.7-0.4-1.1-0.2c-5.5,2.8-9.4,8.1-10.5,14.2l-0.2,0.9C-132.8,392-132.5,392.5-131.9,392.6z"/>
			</g>
		</g>
		<g id="XMLID_4_">
			<g id="XMLID_49_">
				<line id="XMLID_52_" class="st4" x1="-131.4" y1="432.8" x2="-134" y2="447.5"/>
				<line id="XMLID_51_" class="st5" x1="-134.3" y1="449" x2="-137" y2="464.6"/>
				<line id="XMLID_50_" class="st4" x1="-137.1" y1="465.3" x2="-139.8" y2="480.1"/>
			</g>
		</g>
	</g>
	<g id="XMLID_34_" class="st2">
		<g id="XMLID_45_">
			<g id="XMLID_46_">
				<path id="XMLID_48_" class="st3" d="M-170.5,422.8l-4.9-27.7c-0.1-0.5-0.6-0.9-1.1-0.8l-16.6,2.9c-0.5,0.1-0.9,0.6-0.8,1.1
					l4.9,27.7c0.1,0.5,0.6,0.9,1.1,0.8l0.2,0.9c-0.5,0.1-0.9,0.6-0.8,1.1l0.7,3.7c0.1,0.5,0.6,0.9,1.1,0.8l16.6-2.9
					c0.5-0.1,0.9-0.6,0.8-1.1l-0.7-3.8c-0.1-0.5-0.6-0.9-1.1-0.8l-0.2-0.9C-170.7,423.7-170.4,423.3-170.5,422.8z"/>
				<path id="XMLID_47_" class="st3" d="M-192.5,395.2l14.8-2.6c0.5-0.1,0.9-0.6,0.8-1.1l-0.2-0.9c-1.1-6.1-5-11.4-10.5-14.2
					c-0.4-0.2-0.8-0.1-1.1,0.2c-4.2,4.5-6.1,10.8-5,16.9l0.2,0.9C-193.5,394.9-193,395.3-192.5,395.2z"/>
			</g>
		</g>
		<g id="XMLID_35_">
			<g id="XMLID_36_">
				<line id="XMLID_41_" class="st4" x1="-178.2" y1="432.8" x2="-175.6" y2="447.5"/>
				<line id="XMLID_38_" class="st5" x1="-175.4" y1="449" x2="-172.6" y2="464.6"/>
				<line id="XMLID_37_" class="st4" x1="-172.5" y1="465.3" x2="-169.9" y2="480.1"/>
			</g>
		</g>
	</g>
</g>
<g id="Lightning" class="st0">
	<g id="XMLID_14_" class="st2">
		<g id="XMLID_15_">
			<path id="XMLID_10_" class="st3" d="M-129.3,410.5c-0.2-0.5-0.8-0.9-1.4-0.9h-17.8l17.6-27.8c0.3-0.5,0.3-1.1,0-1.5
				c-0.3-0.5-0.8-0.8-1.3-0.8h-24.1c-0.6,0-1.1,0.3-1.3,0.8l-22.6,45.3c-0.2,0.5-0.2,1,0.1,1.5c0.3,0.4,0.8,0.7,1.3,0.7h15.5
				l-16.9,40.1c-0.3,0.7,0,1.5,0.6,1.9c0.2,0.1,0.5,0.2,0.8,0.2c0.4,0,0.9-0.2,1.2-0.5l48.2-57.3
				C-129.1,411.7-129,411.1-129.3,410.5z"/>
		</g>
	</g>
</g>
<g id="Bullet" class="st0">
	<g id="XMLID_8_" class="st2">
		<g id="XMLID_9_">
			<g id="XMLID_27_">
				<path id="XMLID_6_" class="st3" d="M-149.6,450.4l17.4-41.5c0.3-0.8,0-1.6-0.8-2l-24.9-10.4c-0.8-0.3-1.6,0-2,0.8l-17.4,41.6
					c-0.3,0.8,0,1.6,0.8,2l-0.5,1.3c-0.8-0.3-1.6,0-2,0.8l-2.3,5.5c-0.3,0.8,0,1.6,0.8,2l24.9,10.4c0.8,0.3,1.6,0,2-0.8l2.3-5.5
					c0.3-0.8,0-1.6-0.8-2l0.6-1.4C-150.8,451.6-149.9,451.2-149.6,450.4z"/>
				<path id="XMLID_5_" class="st3" d="M-155.4,394.4l22.1,9.3c0.8,0.3,1.6,0,2-0.8l0.6-1.4c3.8-9.1,3.1-19.6-1.9-28.1
					c-0.3-0.6-1-0.9-1.7-0.7c-9.6,2.4-17.5,9.3-21.4,18.4l-0.6,1.4C-156.5,393.2-156.1,394-155.4,394.4z"/>
			</g>
		</g>
	</g>
	<line id="XMLID_7_" class="st6" x1="-179" y1="453.3" x2="-182" y2="460.6"/>
	<line id="XMLID_13_" class="st6" x1="-172.2" y1="456.2" x2="-178.8" y2="472"/>
	<line id="XMLID_16_" class="st6" x1="-165.9" y1="458.8" x2="-174" y2="478.2"/>
	<line id="XMLID_18_" class="st6" x1="-159.4" y1="461.5" x2="-164.6" y2="474"/>
</g>
<g id="Bouncer" class="st0">
	<g id="XMLID_59_" class="st2">
		<g id="XMLID_60_">
			<g id="XMLID_61_">
				<path id="XMLID_32_" class="st3" d="M-144.2,415.6c-1.7-1.3-4.1-1-5.5,0.7c-3.8,4.9-7,10.2-9.6,15.9c-0.9,2,0,4.3,1.9,5.1
					c0.5,0.2,1.1,0.4,1.6,0.4c1.5,0,2.9-0.8,3.5-2.3c2.3-5.1,5.3-9.9,8.7-14.3C-142.2,419.4-142.5,416.9-144.2,415.6z"/>
				<path id="XMLID_30_" class="st3" d="M-160.4,446.9c-0.6-0.1-1.3-0.1-1.8,0.1c-0.6-0.2-1.2-0.2-1.9-0.1c-2.1,0.5-3.4,2.5-3,4.6
					c0.5,2.4,0.9,4.8,1.1,7.2c0.2,2,1.9,3.5,3.9,3.5l0,0c2,0,3.7-1.6,3.8-3.6c0.2-2.4,0.5-4.9,0.9-7.3
					C-156.9,449.3-158.3,447.3-160.4,446.9z"/>
				<path id="XMLID_29_" class="st3" d="M-166,432.1c-2.8-5.4-6.4-10.7-10.6-15.6c-1.4-1.6-3.9-1.8-5.5-0.4
					c-1.6,1.4-1.8,3.8-0.4,5.5c3.8,4.5,7.1,9.2,9.6,14.1c0.7,1.3,2,2.1,3.4,2.1c0.6,0,1.2-0.1,1.8-0.4
					C-165.8,436.3-165,434-166,432.1z"/>
				<path id="XMLID_20_" class="st3" d="M-190.2,403.5c-3.9-3.1-6.7-4.7-6.8-4.8c-1.9-1.1-4.2-0.5-5.3,1.4c-1.1,1.8-0.5,4.2,1.4,5.3
					c0,0,2.4,1.4,5.9,4.2c0.7,0.6,1.6,0.8,2.4,0.8c1.2,0,2.3-0.5,3.1-1.5C-188.2,407.3-188.5,404.8-190.2,403.5z"/>
				<path id="XMLID_19_" class="st3" d="M-119.3,392.4c-4.4,0-8.1,3-9.3,7c-2.3,0.7-4.8,1.9-7.5,3.8c-1.8,1.2-2.2,3.6-1,5.4
					c0.8,1.1,2,1.7,3.2,1.7c0.8,0,1.5-0.2,2.2-0.7c1.8-1.2,3.2-1.9,4.2-2.4c1.7,2.7,4.7,4.6,8.2,4.6c5.4,0,9.7-4.4,9.7-9.7
					C-109.6,396.7-113.9,392.4-119.3,392.4z"/>
			</g>
		</g>
	</g>
</g>
<g id="Slow" class="st0">
	<g id="XMLID_42_" class="st2">
		<g id="XMLID_43_">
			<path id="XMLID_31_" class="st3" d="M-118.2,438.1c-2.2,2.9-5,5.5-8.3,7.4c-4.2,2.5-8.9,3.8-13.6,3.8c-0.1,0-0.3,0-0.4,0
				c-5.9-0.1-11.6-2.4-16-6.1h-19.7c-1.2,0-2.2-0.7-2.6-1.8l-0.7-1.7v-0.1c-1.9-5.6-2.6-11.7-1.9-17.7c0.4-3.8,1.4-7.5,2.9-11
				c-1.2-1.7-2.9-3.1-4.7-4l4.4-17.7c0.4-1.5-0.5-3-2-3.4c-1.5-0.4-3,0.5-3.4,2l-3.7,14.4l-3.3-11.2c-0.4-1.5-2-2.3-3.5-1.9
				s-2.3,2-1.9,3.5l3.9,13.1c-6,1.4-10.5,6.9-10.5,13.3c0,3.2,2.6,5.8,5.8,5.8h1.1v6.7c0,13.7,11.2,24.9,24.9,24.9h61.7
				c1.6,0,2.8-1.3,2.8-2.8v-0.9C-107,445.7-111.7,439.8-118.2,438.1z"/>
		</g>
	</g>
	<g id="XMLID_39_" class="st2">
		<g id="XMLID_40_">
			<path id="XMLID_28_" class="st3" d="M-120.7,409.6c-4.3-9-14.1-15.1-24.4-15.3c-9.9-0.2-20,5.3-25.6,13.9
				c-5.5,8.3-6.8,19.5-3.5,29.3h13c-0.3-0.5-0.6-1.1-0.9-1.6c-1.9-4-2.6-8.7-1.8-13.3c0.8-4.7,3.1-8.8,6.4-11.8
				c3.5-3.1,8.1-4.9,12.6-4.8c4.9,0.1,9.5,2.4,12.3,6.2c2.6,3.4,3.5,7.8,2.4,11.7c-1.2,4.3-5,7.6-9.2,8.1c-3,0.3-5.7-0.8-7.2-2.9
				c-1.3-1.8-1.4-4.5-0.3-6.4c1-1.6,2.6-2.4,4.5-2.2c1.5,0.2,2.7,1.6,2.5,3.1c-0.1,0.6-0.3,1.2-0.7,1.6c-0.4,0.5-0.1,1.3,0.6,1.2
				l0,0c2-0.2,3.9-1.9,4.5-4.1c0.6-2.1,0-4.7-1.5-6.7c-1.8-2.3-4.8-3.9-8-3.9c-0.1,0-0.2,0-0.3,0c-3,0-6,1.2-8.4,3.3
				c-4.9,4.4-6.3,12.3-3.3,18.5c2.9,6,9.6,10.1,16.7,10.2c7.6,0.1,15.3-4.4,19.2-11.3C-117.3,425.6-117.1,416.9-120.7,409.6z"/>
		</g>
	</g>
</g>
<g>
	<g>
		<path class="st3" d="M-174.9,474l19.8-53.4l0.5,14.2c0,1.3,1.2,2.3,2.5,2.3c1.3-0.1,2.3-1.2,2.3-2.5l-0.5-14.2l11.8,25.9
			c0.5,1.2,2,1.7,3.1,1.2c1.2-0.5,1.7-2,1.2-3.1l-11.8-25.9l10.4,9.7c1,0.9,2.5,0.8,3.4-0.1c0.9-1,0.8-2.5-0.1-3.4l-10.4-9.7
			l26.7,9.9c1.2,0.5,2.6-0.2,3.1-1.4c0.5-1.2-0.2-2.6-1.4-3.1l-26.7-9.9l14.2-0.5c1.3,0,2.3-1.1,2.3-2.5c0-1.3-1.1-2.3-2.5-2.3
			l-14.2,0.5l25.8-11.8c1.2-0.5,1.7-2,1.2-3.1c-0.5-1.2-2-1.7-3.1-1.2l-25.9,11.8l9.7-10.4c0.9-1,0.8-2.5-0.1-3.4
			c-1-0.9-2.5-0.8-3.4,0.1l-9.7,10.4l9.9-26.7c0.5-1.2-0.2-2.6-1.4-3.1c-1.2-0.5-2.6,0.2-3.1,1.4l-9.9,26.7l-0.5-14.2
			c0-1.3-1.2-2.3-2.5-2.3c-1,0-1.8,0.7-2.1,1.5c-0.1,0.3-0.2,0.6-0.1,0.9l0.5,14.2l-11.8-25.9c-0.5-1.2-2-1.7-3.1-1.2
			c-0.6,0.3-1,0.8-1.2,1.3c-0.2,0.6-0.2,1.2,0.1,1.8l11.8,25.9l-10.4-9.7c-1-0.9-2.5-0.8-3.4,0.1c-0.2,0.2-0.4,0.5-0.5,0.8
			c-0.3,0.9-0.1,1.9,0.6,2.6l10.4,9.7l-26.7-9.9c-1.2-0.5-2.6,0.2-3.1,1.4c-0.5,1.2,0.2,2.6,1.4,3.1l26.7,9.9l-14.2,0.5
			c-1,0-1.8,0.7-2.1,1.5c-0.1,0.3-0.2,0.6-0.1,0.9c0,1.3,1.1,2.3,2.5,2.3l14.2-0.5l-25.8,11.8c-0.6,0.3-1,0.8-1.2,1.3
			c-0.2,0.6-0.2,1.2,0.1,1.8c0.5,1.2,2,1.7,3.1,1.2l25.9-11.8l-9.7,10.4c-0.2,0.2-0.4,0.5-0.5,0.8c-0.3,0.9-0.1,1.9,0.6,2.6
			c1,0.9,2.5,0.8,3.4-0.1l9.7-10.4l-19.8,53.4c-0.5,1.2,0.2,2.6,1.4,3.1S-175.3,475.3-174.9,474z M-157.6,407
			c-0.6,1.6-0.2,3.3,0.8,4.6l-0.9,2.5c-2.2-1.9-3.2-5-2.1-7.9c1.4-3.7,5.5-5.6,9.2-4.2s5.6,5.5,4.2,9.2c-1.1,2.9-3.9,4.7-6.8,4.6
			l0.9-2.5c1.6-0.3,3-1.3,3.6-2.9c0.9-2.5-0.3-5.2-2.8-6.1C-153.9,403.3-156.6,404.5-157.6,407z"/>
	</g>
</g>
</svg>
