<?xml version="1.0" encoding="utf-8"?>
<!-- Generator: Adobe Illustrator 19.0.0, SVG Export Plug-In . SVG Version: 6.00 Build 0)  -->
<svg version="1.1" id="Ebene_1" xmlns="http://www.w3.org/2000/svg" xmlns:xlink="http://www.w3.org/1999/xlink" x="0px" y="0px"
	 viewBox="-212 70.8 141.7 141.7" style="enable-background:new -212 70.8 141.7 141.7;" xml:space="preserve">
<style type="text/css">
	.st0{fill:#FFFFFF;}
</style>
<g id="Lightning">
	<g id="XMLID_14_">
		<g id="XMLID_15_">
			<path id="XMLID_10_" class="st0" d="M-115.3,131.1c-0.2-0.5-0.8-0.9-1.4-0.9h-17.8l17.6-27.8c0.3-0.5,0.3-1.1,0-1.5
				c-0.3-0.5-0.8-0.8-1.3-0.8h-24.1c-0.6,0-1.1,0.3-1.3,0.8l-22.6,45.3c-0.2,0.5-0.2,1,0.1,1.5c0.3,0.4,0.8,0.7,1.3,0.7h15.5
				l-16.9,40.1c-0.3,0.7,0,1.5,0.6,1.9c0.2,0.1,0.5,0.2,0.8,0.2c0.4,0,0.9-0.2,1.2-0.5l48.2-57.3
				C-115.1,132.3-115,131.7-115.3,131.1z"/>
		</g>
	</g>
</g>
</svg>
