<?xml version="1.0" encoding="utf-8"?>
<!-- Generator: Adobe Illustrator 19.0.0, SVG Export Plug-In . SVG Version: 6.00 Build 0)  -->
<svg version="1.1" xmlns="http://www.w3.org/2000/svg" xmlns:xlink="http://www.w3.org/1999/xlink" x="0px" y="0px"
	 viewBox="0 0 141.7 141.7" style="enable-background:new 0 0 141.7 141.7;" xml:space="preserve">
<style type="text/css">
	.st0{display:none;}
	.st1{display:inline;fill:#53A35C;}
	.st2{display:inline;fill:none;stroke:#FFFFFF;stroke-width:12;stroke-miterlimit:10;}
	.st3{fill:#FFFFFF;}
	.st4{display:inline;}
</style>
<g id="Ebene_2" class="st0">
	<circle id="XMLID_1_" class="st1" cx="70.9" cy="70.9" r="70.9"/>
</g>
<g id="Shotgun" class="st0">
	<path id="XMLID_11_" class="st2" d="M105.8,53.3l-34.6,48c-0.2,0.2-0.5,0.2-0.7,0L36.4,53.8"/>
	<line id="XMLID_12_" class="st2" x1="70.9" y1="101.7" x2="70.9" y2="42"/>
</g>
<g id="Lightning">
	<g id="XMLID_14_">
		<g id="XMLID_15_">
			<path id="XMLID_10_" class="st3" d="M96.7,60.3c-0.2-0.5-0.8-0.9-1.4-0.9H77.5l17.6-27.8c0.3-0.5,0.3-1.1,0-1.5
				c-0.3-0.5-0.8-0.8-1.3-0.8H69.7c-0.6,0-1.1,0.3-1.3,0.8L45.8,75.4c-0.2,0.5-0.2,1,0.1,1.5c0.3,0.4,0.8,0.7,1.3,0.7h15.5
				l-16.9,40.1c-0.3,0.7,0,1.5,0.6,1.9c0.2,0.1,0.5,0.2,0.8,0.2c0.4,0,0.9-0.2,1.2-0.5l48.2-57.3C96.9,61.5,97,60.9,96.7,60.3z"/>
		</g>
	</g>
</g>
<g id="Bullet" class="st0">
	<g id="XMLID_18_" class="st4">
		<g id="XMLID_19_">
			<g id="XMLID_20_">
				<path id="XMLID_16_" class="st3" d="M70.1,108.6l20.2-42.3c0.4-0.8,0-1.7-0.7-2.1L64.2,52.1c-0.8-0.4-1.7,0-2.1,0.7L42,95.1
					c-0.4,0.8,0,1.7,0.7,2.1L42,98.6c-0.8-0.4-1.7,0-2.1,0.7l-2.7,5.6c-0.4,0.8,0,1.7,0.7,2.1l25.4,12.1c0.8,0.4,1.7,0,2.1-0.7
					l2.7-5.6c0.4-0.8,0-1.7-0.7-2.1l0.7-1.4C68.8,109.7,69.8,109.4,70.1,108.6z"/>
				<path id="XMLID_13_" class="st3" d="M67,50l22.5,10.8c0.8,0.4,1.7,0,2.1-0.7l0.7-1.4c4.4-9.3,4.2-20.2-0.5-29.3
					c-0.3-0.6-1-0.9-1.7-0.8c-10.1,2-18.7,8.8-23.2,18l-0.7,1.4C65.9,48.7,66.2,49.6,67,50z"/>
			</g>
		</g>
	</g>
</g>
<g id="Slow" class="st0">
	<g id="XMLID_42_" class="st4">
		<g id="XMLID_43_">
			<path id="XMLID_31_" class="st3" d="M107.8,87.9c-2.2,2.9-5,5.5-8.3,7.4c-4.2,2.5-8.9,3.8-13.6,3.8c-0.1,0-0.3,0-0.4,0
				c-5.9-0.1-11.6-2.4-16-6.1H49.8c-1.2,0-2.2-0.7-2.6-1.8l-0.7-1.7c0,0,0-0.1,0-0.1c-1.9-5.6-2.6-11.7-1.9-17.7
				c0.4-3.8,1.4-7.5,2.9-11c-1.2-1.7-2.9-3.1-4.7-4L47.2,39c0.4-1.5-0.5-3-2-3.4c-1.5-0.4-3,0.5-3.4,2L38.1,52l-3.3-11.2
				c-0.4-1.5-2-2.3-3.5-1.9c-1.5,0.4-2.3,2-1.9,3.5l3.9,13.1c-6,1.4-10.5,6.9-10.5,13.3c0,3.2,2.6,5.8,5.8,5.8h1.1v6.7
				c0,13.7,11.2,24.9,24.9,24.9h61.7c1.6,0,2.8-1.3,2.8-2.8v-0.9C119,95.5,114.3,89.6,107.8,87.9z"/>
		</g>
	</g>
	<g id="XMLID_39_" class="st4">
		<g id="XMLID_40_">
			<path id="XMLID_28_" class="st3" d="M105.3,59.4c-4.3-9-14.1-15.1-24.4-15.3C71,43.9,60.9,49.4,55.3,58
				c-5.5,8.3-6.8,19.5-3.5,29.3h13c-0.3-0.5-0.6-1.1-0.9-1.6c-1.9-4-2.6-8.7-1.8-13.3c0.8-4.7,3.1-8.8,6.4-11.8
				c3.5-3.1,8.1-4.9,12.6-4.8c4.9,0.1,9.5,2.4,12.3,6.2c2.6,3.4,3.5,7.8,2.4,11.7c-1.2,4.3-5,7.6-9.2,8.1c-3,0.3-5.7-0.8-7.2-2.9
				c-1.3-1.8-1.4-4.5-0.3-6.4c1-1.6,2.6-2.4,4.5-2.2c1.5,0.2,2.7,1.6,2.5,3.1c-0.1,0.6-0.3,1.2-0.7,1.6c-0.4,0.5-0.1,1.3,0.6,1.2
				c0,0,0,0,0,0c2-0.2,3.9-1.9,4.5-4.1c0.6-2.1,0-4.7-1.5-6.7c-1.8-2.3-4.8-3.9-8-3.9c-0.1,0-0.2,0-0.3,0c-3,0-6,1.2-8.4,3.3
				C67.4,69.2,66,77.1,69,83.3c2.9,6,9.6,10.1,16.7,10.2c7.6,0.1,15.3-4.4,19.2-11.3C108.7,75.4,108.9,66.7,105.3,59.4z"/>
		</g>
	</g>
</g>
</svg>
