<?xml version="1.0" encoding="utf-8"?>
<!-- Generator: Adobe Illustrator 19.0.0, SVG Export Plug-In . SVG Version: 6.00 Build 0)  -->
<svg version="1.1" id="Ebene_1" xmlns="http://www.w3.org/2000/svg" xmlns:xlink="http://www.w3.org/1999/xlink" x="0px" y="0px"
	 viewBox="-212 70.8 141.7 141.7" style="enable-background:new -212 70.8 141.7 141.7;" xml:space="preserve">
<style type="text/css">
	.st0{fill:#FFFFFF;}
	.st1{fill:none;stroke:#FFFFFF;stroke-width:4;stroke-miterlimit:10;}
	.st2{fill:none;stroke:#FFFFFF;stroke-width:4;stroke-miterlimit:10;stroke-dasharray:15.0534,1.5053;}
</style>
<g id="Shotgun">
	<g id="XMLID_23_">
		<g id="XMLID_24_">
			<g id="XMLID_25_">
				<path id="XMLID_21_" class="st0" d="M-131.5,142.3v-28.2c0-0.5-0.4-0.9-0.9-0.9h-16.9c-0.5,0-0.9,0.4-0.9,0.9v28.2
					c0,0.5,0.4,0.9,0.9,0.9v0.9c-0.5,0-0.9,0.4-0.9,0.9v3.8c0,0.5,0.4,0.9,0.9,0.9h16.9c0.5,0,0.9-0.4,0.9-0.9V145
					c0-0.5-0.4-0.9-0.9-0.9v-0.9C-131.9,143.2-131.5,142.8-131.5,142.3z"/>
				<path id="XMLID_17_" class="st0" d="M-148.4,111.3h15c0.5,0,0.9-0.4,0.9-0.9v-0.9c0-6.2-2.9-12.1-7.9-15.8
					c-0.3-0.3-0.8-0.3-1.1,0c-4.9,3.7-7.9,9.6-7.9,15.8v0.9C-149.3,110.9-148.9,111.3-148.4,111.3z"/>
			</g>
		</g>
		<g id="XMLID_2_">
			<g id="XMLID_54_">
				<line id="XMLID_57_" class="st1" x1="-140.9" y1="150.8" x2="-140.9" y2="165.8"/>
				<line id="XMLID_56_" class="st2" x1="-140.9" y1="167.3" x2="-140.9" y2="183.1"/>
				<line id="XMLID_55_" class="st1" x1="-140.9" y1="183.9" x2="-140.9" y2="198.9"/>
			</g>
		</g>
	</g>
	<g id="XMLID_3_">
		<g id="XMLID_11_">
			<g id="XMLID_12_">
				<path id="XMLID_26_" class="st0" d="M-106.7,146.6l4.9-27.7c0.1-0.5-0.3-1-0.8-1.1l-16.6-2.9c-0.5-0.1-1,0.3-1.1,0.8l-4.9,27.7
					c-0.1,0.5,0.3,1,0.8,1.1l-0.2,0.9c-0.5-0.1-1,0.3-1.1,0.8l-0.6,3.6c-0.1,0.5,0.3,1,0.8,1.1l16.6,2.9c0.5,0.1,1-0.3,1.1-0.8
					l0.7-3.7c0.1-0.5-0.3-1-0.8-1.1l0.2-0.9C-107.3,147.5-106.8,147.1-106.7,146.6z"/>
				<path id="XMLID_22_" class="st0" d="M-117.9,113.2l14.8,2.6c0.5,0.1,1-0.3,1.1-0.8l0.2-0.9c1.1-6.1-0.8-12.4-5-16.9
					c-0.3-0.3-0.7-0.4-1.1-0.2c-5.5,2.8-9.4,8.1-10.5,14.2l-0.2,0.9C-118.8,112.6-118.5,113.1-117.9,113.2z"/>
			</g>
		</g>
		<g id="XMLID_4_">
			<g id="XMLID_49_">
				<line id="XMLID_52_" class="st1" x1="-117.4" y1="153.4" x2="-120" y2="168.1"/>
				<line id="XMLID_51_" class="st2" x1="-120.3" y1="169.6" x2="-123" y2="185.2"/>
				<line id="XMLID_50_" class="st1" x1="-123.1" y1="185.9" x2="-125.8" y2="200.7"/>
			</g>
		</g>
	</g>
	<g id="XMLID_34_">
		<g id="XMLID_45_">
			<g id="XMLID_46_">
				<path id="XMLID_48_" class="st0" d="M-156.5,143.4l-4.9-27.7c-0.1-0.5-0.6-0.9-1.1-0.8l-16.6,2.9c-0.5,0.1-0.9,0.6-0.8,1.1
					l4.9,27.7c0.1,0.5,0.6,0.9,1.1,0.8l0.2,0.9c-0.5,0.1-0.9,0.6-0.8,1.1l0.7,3.7c0.1,0.5,0.6,0.9,1.1,0.8l16.6-2.9
					c0.5-0.1,0.9-0.6,0.8-1.1l-0.7-3.8c-0.1-0.5-0.6-0.9-1.1-0.8l-0.2-0.9C-156.7,144.3-156.4,143.9-156.5,143.4z"/>
				<path id="XMLID_47_" class="st0" d="M-178.5,115.8l14.8-2.6c0.5-0.1,0.9-0.6,0.8-1.1l-0.2-0.9c-1.1-6.1-5-11.4-10.5-14.2
					c-0.4-0.2-0.8-0.1-1.1,0.2c-4.2,4.5-6.1,10.8-5,16.9l0.2,0.9C-179.5,115.5-179,115.9-178.5,115.8z"/>
			</g>
		</g>
		<g id="XMLID_35_">
			<g id="XMLID_36_">
				<line id="XMLID_41_" class="st1" x1="-164.2" y1="153.4" x2="-161.6" y2="168.1"/>
				<line id="XMLID_38_" class="st2" x1="-161.4" y1="169.6" x2="-158.6" y2="185.2"/>
				<line id="XMLID_37_" class="st1" x1="-158.5" y1="185.9" x2="-155.9" y2="200.7"/>
			</g>
		</g>
	</g>
</g>
</svg>
