<?xml version="1.0" encoding="utf-8"?>
<!-- Generator: Adobe Illustrator 19.0.0, SVG Export Plug-In . SVG Version: 6.00 Build 0)  -->
<svg version="1.1" xmlns="http://www.w3.org/2000/svg" xmlns:xlink="http://www.w3.org/1999/xlink" x="0px" y="0px"
	 viewBox="0 0 141.7 141.7" style="enable-background:new 0 0 141.7 141.7;" xml:space="preserve">
<style type="text/css">
	.st0{display:none;}
	.st1{display:inline;fill:#53A35C;}
	.st2{fill:#FFFFFF;}
	.st3{fill:none;stroke:#FFFFFF;stroke-width:4;stroke-miterlimit:10;}
	.st4{fill:none;stroke:#FFFFFF;stroke-width:4;stroke-miterlimit:10;stroke-dasharray:15.0534,1.5053;}
	.st5{display:inline;}
</style>
<g id="Ebene_2" class="st0">
	<circle id="XMLID_1_" class="st1" cx="70.9" cy="70.9" r="70.9"/>
</g>
<g id="Shotgun">
	<g id="XMLID_23_">
		<g id="XMLID_24_">
			<g id="XMLID_25_">
				<path id="XMLID_21_" class="st2" d="M80.5,71.5V43.3c0-0.5-0.4-0.9-0.9-0.9H62.7c-0.5,0-0.9,0.4-0.9,0.9v28.2
					c0,0.5,0.4,0.9,0.9,0.9v0.9c-0.5,0-0.9,0.4-0.9,0.9v3.8c0,0.5,0.4,0.9,0.9,0.9h16.9c0.5,0,0.9-0.4,0.9-0.9v-3.8
					c0-0.5-0.4-0.9-0.9-0.9v-0.9C80.1,72.4,80.5,72,80.5,71.5z"/>
				<path id="XMLID_17_" class="st2" d="M63.6,40.5h15c0.5,0,0.9-0.4,0.9-0.9v-0.9c0-6.2-2.9-12.1-7.9-15.8c-0.3-0.3-0.8-0.3-1.1,0
					c-4.9,3.7-7.9,9.6-7.9,15.8v0.9C62.7,40.1,63.1,40.5,63.6,40.5z"/>
			</g>
		</g>
		<g id="XMLID_2_">
			<g id="XMLID_54_">
				<line id="XMLID_57_" class="st3" x1="71.1" y1="80" x2="71.1" y2="95"/>
				<line id="XMLID_56_" class="st4" x1="71.1" y1="96.5" x2="71.1" y2="112.3"/>
				<line id="XMLID_55_" class="st3" x1="71.1" y1="113.1" x2="71.1" y2="128.1"/>
			</g>
		</g>
	</g>
	<g id="XMLID_3_">
		<g id="XMLID_11_">
			<g id="XMLID_12_">
				<path id="XMLID_26_" class="st2" d="M105.3,75.8l4.9-27.7c0.1-0.5-0.3-1-0.8-1.1l-16.6-2.9c-0.5-0.1-1,0.3-1.1,0.8l-4.9,27.7
					c-0.1,0.5,0.3,1,0.8,1.1l-0.2,0.9c-0.5-0.1-1,0.3-1.1,0.8L85.7,79c-0.1,0.5,0.3,1,0.8,1.1l16.6,2.9c0.5,0.1,1-0.3,1.1-0.8
					l0.7-3.7c0.1-0.5-0.3-1-0.8-1.1l0.2-0.9C104.7,76.7,105.2,76.3,105.3,75.8z"/>
				<path id="XMLID_22_" class="st2" d="M94.1,42.4l14.8,2.6c0.5,0.1,1-0.3,1.1-0.8l0.2-0.9c1.1-6.1-0.8-12.4-5-16.9
					c-0.3-0.3-0.7-0.4-1.1-0.2c-5.5,2.8-9.4,8.1-10.5,14.2l-0.2,0.9C93.2,41.8,93.5,42.3,94.1,42.4z"/>
			</g>
		</g>
		<g id="XMLID_4_">
			<g id="XMLID_49_">
				<line id="XMLID_52_" class="st3" x1="94.6" y1="82.6" x2="92" y2="97.3"/>
				<line id="XMLID_51_" class="st4" x1="91.7" y1="98.8" x2="89" y2="114.4"/>
				<line id="XMLID_50_" class="st3" x1="88.9" y1="115.1" x2="86.2" y2="129.9"/>
			</g>
		</g>
	</g>
	<g id="XMLID_34_">
		<g id="XMLID_45_">
			<g id="XMLID_46_">
				<path id="XMLID_48_" class="st2" d="M55.5,72.6l-4.9-27.7c-0.1-0.5-0.6-0.9-1.1-0.8L32.9,47c-0.5,0.1-0.9,0.6-0.8,1.1l4.9,27.7
					c0.1,0.5,0.6,0.9,1.1,0.8l0.2,0.9c-0.5,0.1-0.9,0.6-0.8,1.1l0.7,3.7c0.1,0.5,0.6,0.9,1.1,0.8l16.6-2.9c0.5-0.1,0.9-0.6,0.8-1.1
					L56,75.3c-0.1-0.5-0.6-0.9-1.1-0.8l-0.2-0.9C55.3,73.5,55.6,73.1,55.5,72.6z"/>
				<path id="XMLID_47_" class="st2" d="M33.5,45l14.8-2.6c0.5-0.1,0.9-0.6,0.8-1.1l-0.2-0.9c-1.1-6.1-5-11.4-10.5-14.2
					c-0.4-0.2-0.8-0.1-1.1,0.2c-4.2,4.5-6.1,10.8-5,16.9l0.2,0.9C32.5,44.7,33,45.1,33.5,45z"/>
			</g>
		</g>
		<g id="XMLID_35_">
			<g id="XMLID_36_">
				<line id="XMLID_41_" class="st3" x1="47.8" y1="82.6" x2="50.4" y2="97.3"/>
				<line id="XMLID_38_" class="st4" x1="50.6" y1="98.8" x2="53.4" y2="114.4"/>
				<line id="XMLID_37_" class="st3" x1="53.5" y1="115.1" x2="56.1" y2="129.9"/>
			</g>
		</g>
	</g>
</g>
<g id="Lightning" class="st0">
	<g id="XMLID_14_" class="st5">
		<g id="XMLID_15_">
			<path id="XMLID_10_" class="st2" d="M96.7,60.3c-0.2-0.5-0.8-0.9-1.4-0.9H77.5l17.6-27.8c0.3-0.5,0.3-1.1,0-1.5
				c-0.3-0.5-0.8-0.8-1.3-0.8H69.7c-0.6,0-1.1,0.3-1.3,0.8L45.8,75.4c-0.2,0.5-0.2,1,0.1,1.5c0.3,0.4,0.8,0.7,1.3,0.7h15.5
				l-16.9,40.1c-0.3,0.7,0,1.5,0.6,1.9c0.2,0.1,0.5,0.2,0.8,0.2c0.4,0,0.9-0.2,1.2-0.5l48.2-57.3C96.9,61.5,97,60.9,96.7,60.3z"/>
		</g>
	</g>
</g>
<g id="Bullet" class="st0">
	<g id="XMLID_18_" class="st5">
		<g id="XMLID_19_">
			<g id="XMLID_20_">
				<path id="XMLID_16_" class="st2" d="M70.1,108.6l20.2-42.3c0.4-0.8,0-1.7-0.7-2.1L64.2,52.1c-0.8-0.4-1.7,0-2.1,0.7L42,95.1
					c-0.4,0.8,0,1.7,0.7,2.1L42,98.6c-0.8-0.4-1.7,0-2.1,0.7l-2.7,5.6c-0.4,0.8,0,1.7,0.7,2.1l25.4,12.1c0.8,0.4,1.7,0,2.1-0.7
					l2.7-5.6c0.4-0.8,0-1.7-0.7-2.1l0.7-1.4C68.8,109.7,69.8,109.4,70.1,108.6z"/>
				<path id="XMLID_13_" class="st2" d="M67,50l22.5,10.8c0.8,0.4,1.7,0,2.1-0.7l0.7-1.4c4.4-9.3,4.2-20.2-0.5-29.3
					c-0.3-0.6-1-0.9-1.7-0.8c-10.1,2-18.7,8.8-23.2,18l-0.7,1.4C65.9,48.7,66.2,49.6,67,50z"/>
			</g>
		</g>
	</g>
</g>
<g id="Slow" class="st0">
	<g id="XMLID_42_" class="st5">
		<g id="XMLID_43_">
			<path id="XMLID_31_" class="st2" d="M107.8,87.9c-2.2,2.9-5,5.5-8.3,7.4c-4.2,2.5-8.9,3.8-13.6,3.8c-0.1,0-0.3,0-0.4,0
				c-5.9-0.1-11.6-2.4-16-6.1H49.8c-1.2,0-2.2-0.7-2.6-1.8l-0.7-1.7c0,0,0-0.1,0-0.1c-1.9-5.6-2.6-11.7-1.9-17.7
				c0.4-3.8,1.4-7.5,2.9-11c-1.2-1.7-2.9-3.1-4.7-4L47.2,39c0.4-1.5-0.5-3-2-3.4c-1.5-0.4-3,0.5-3.4,2L38.1,52l-3.3-11.2
				c-0.4-1.5-2-2.3-3.5-1.9c-1.5,0.4-2.3,2-1.9,3.5l3.9,13.1c-6,1.4-10.5,6.9-10.5,13.3c0,3.2,2.6,5.8,5.8,5.8h1.1v6.7
				c0,13.7,11.2,24.9,24.9,24.9h61.7c1.6,0,2.8-1.3,2.8-2.8v-0.9C119,95.5,114.3,89.6,107.8,87.9z"/>
		</g>
	</g>
	<g id="XMLID_39_" class="st5">
		<g id="XMLID_40_">
			<path id="XMLID_28_" class="st2" d="M105.3,59.4c-4.3-9-14.1-15.1-24.4-15.3C71,43.9,60.9,49.4,55.3,58
				c-5.5,8.3-6.8,19.5-3.5,29.3h13c-0.3-0.5-0.6-1.1-0.9-1.6c-1.9-4-2.6-8.7-1.8-13.3c0.8-4.7,3.1-8.8,6.4-11.8
				c3.5-3.1,8.1-4.9,12.6-4.8c4.9,0.1,9.5,2.4,12.3,6.2c2.6,3.4,3.5,7.8,2.4,11.7c-1.2,4.3-5,7.6-9.2,8.1c-3,0.3-5.7-0.8-7.2-2.9
				c-1.3-1.8-1.4-4.5-0.3-6.4c1-1.6,2.6-2.4,4.5-2.2c1.5,0.2,2.7,1.6,2.5,3.1c-0.1,0.6-0.3,1.2-0.7,1.6c-0.4,0.5-0.1,1.3,0.6,1.2
				c0,0,0,0,0,0c2-0.2,3.9-1.9,4.5-4.1c0.6-2.1,0-4.7-1.5-6.7c-1.8-2.3-4.8-3.9-8-3.9c-0.1,0-0.2,0-0.3,0c-3,0-6,1.2-8.4,3.3
				C67.4,69.2,66,77.1,69,83.3c2.9,6,9.6,10.1,16.7,10.2c7.6,0.1,15.3-4.4,19.2-11.3C108.7,75.4,108.9,66.7,105.3,59.4z"/>
		</g>
	</g>
</g>
</svg>
