<?xml version="1.0" encoding="utf-8"?>
<!-- Generator: Adobe Illustrator 19.0.0, SVG Export Plug-In . SVG Version: 6.00 Build 0)  -->
<svg version="1.1" xmlns="http://www.w3.org/2000/svg" xmlns:xlink="http://www.w3.org/1999/xlink" x="0px" y="0px"
	 viewBox="0 0 141.7 141.7" style="enable-background:new 0 0 141.7 141.7;" xml:space="preserve">
<style type="text/css">
	.st0{display:none;}
	.st1{display:inline;fill:#53A35C;}
	.st2{display:inline;fill:none;stroke:#FFFFFF;stroke-width:12;stroke-miterlimit:10;}
	.st3{display:inline;}
	.st4{fill:#FFFFFF;}
</style>
<g id="Ebene_2" class="st0">
	<circle id="XMLID_1_" class="st1" cx="70.9" cy="70.9" r="70.9"/>
</g>
<g id="Ebene_1" class="st0">
	<path id="XMLID_11_" class="st2" d="M105.8,53.3l-34.6,48c-0.2,0.2-0.5,0.2-0.7,0L36.4,53.8"/>
	<line id="XMLID_12_" class="st2" x1="70.9" y1="101.7" x2="70.9" y2="42"/>
</g>
<g id="Ebene_3" class="st0">
	<g id="XMLID_14_" class="st3">
		<g id="XMLID_15_">
			<path id="XMLID_10_" class="st4" d="M93.1,61.5c-0.2-0.5-0.7-0.8-1.2-0.8H76.3l15.4-24.3c0.3-0.4,0.3-0.9,0-1.3
				c-0.2-0.4-0.7-0.7-1.2-0.7h-21c-0.5,0-1,0.3-1.2,0.7L48.6,74.6c-0.2,0.4-0.2,0.9,0.1,1.3c0.2,0.4,0.7,0.6,1.1,0.6h13.5l-14.7,35
				c-0.3,0.6,0,1.3,0.5,1.6c0.2,0.1,0.4,0.2,0.7,0.2c0.4,0,0.7-0.2,1-0.5l42.1-50C93.3,62.5,93.3,61.9,93.1,61.5z"/>
		</g>
	</g>
</g>
<g id="Ebene_4" class="st0">
	<g id="XMLID_18_" class="st3">
		<g id="XMLID_19_">
			<g id="XMLID_20_">
				<path id="XMLID_16_" class="st4" d="M84.9,101.8V59.6c0-0.8-0.6-1.4-1.4-1.4H58.2c-0.8,0-1.4,0.6-1.4,1.4v42.2
					c0,0.8,0.6,1.4,1.4,1.4v1.4c-0.8,0-1.4,0.6-1.4,1.4v5.6c0,0.8,0.6,1.4,1.4,1.4h25.3c0.8,0,1.4-0.6,1.4-1.4V106
					c0-0.8-0.6-1.4-1.4-1.4v-1.4C84.3,103.2,84.9,102.6,84.9,101.8z"/>
				<path id="XMLID_13_" class="st4" d="M59.6,55.4h22.5c0.8,0,1.4-0.6,1.4-1.4v-1.4c0-9.2-4.4-18.1-11.8-23.6
					c-0.5-0.4-1.2-0.4-1.7,0c-7.4,5.6-11.8,14.4-11.8,23.6V54C58.2,54.8,58.8,55.4,59.6,55.4z"/>
			</g>
		</g>
	</g>
</g>
<g id="Ebene_5" class="st0">
	<g id="XMLID_44_" class="st3">
		<g id="XMLID_45_">
			<path id="XMLID_27_" class="st4" d="M42.4,43.1c1.5-1.3,2.4-3.2,2.4-5.3c0-3.9-3.2-7.1-7.1-7.1s-7.1,3.2-7.1,7.1s3.2,7.1,7.1,7.1
				c0.1,0,0.2,0,0.3,0l2.5,6.2c1.2-0.6,2.5-1,3.9-1.3c0.2,0,0.4,0,0.6,0L42.4,43.1z"/>
		</g>
	</g>
	<g id="XMLID_35_" class="st3">
		<g id="XMLID_36_">
			<g id="XMLID_37_">
				<path id="XMLID_26_" class="st4" d="M110.5,104.9C110.5,104.9,110.5,104.9,110.5,104.9C110.3,104.1,110.5,104.7,110.5,104.9z"/>
				<path id="XMLID_25_" class="st4" d="M110.5,104.9C110.5,104.9,110.5,104.9,110.5,104.9C110.5,104.9,110.5,104.9,110.5,104.9z"/>
				<path id="XMLID_24_" class="st4" d="M110.5,104.9C110.5,104.8,110.5,104.8,110.5,104.9C110.5,104.8,110.5,104.9,110.5,104.9
					C110.5,104.9,110.5,104.9,110.5,104.9z"/>
				<path id="XMLID_38_" class="st4" d="M110.5,104.8c-0.8-3.3-2.5-6.3-5.1-8.6c-4.4,3.3-9.8,5.2-15.5,5.2c-7.3,0-13.9-3.7-17.7-9.4
					c0,0,0-0.1-0.1-0.1C71.7,92,71.4,92,71.1,92h-4.9c-3.9,0-7.1-3.1-7.1-7.1V66.2c0-2-0.5-3.8-1.4-5.5c-5.9-10.9-22.1-5.9-22.1,6
					v23c0,11.7,9.5,21.3,21.2,21.3h51.9c1.3,0,2.4-1.1,2.4-2.4C111,107.9,110.4,104.5,110.5,104.8z M47.4,68.5
					c-1.3,0-2.4-1.1-2.4-2.4c0-1.3,1.1-2.4,2.4-2.4s2.4,1.1,2.4,2.4C49.7,67.5,48.7,68.5,47.4,68.5z"/>
			</g>
		</g>
	</g>
	<g id="XMLID_32_" class="st3">
		<g id="XMLID_33_">
			<path id="XMLID_21_" class="st4" d="M101.7,52.3c-5.9-5.4-13.8-8-21.9-7.2c-7.8,0.7-14.7,5-19.3,11.1c2.1,2.8,3.3,6.3,3.3,9.9V85
				c0,1.2,0.9,2.4,2.4,2.4h3.6c0-0.1-0.1-0.2-0.1-0.3c-0.7-2.1-1.1-4.4-1.1-6.7v-3.9c0-9.1,7-16.8,15.6-17.3
				c4.7-0.2,9.1,1.4,12.4,4.5c3.3,3.1,5.1,7.4,5.1,11.9v2.4c0,5.2-4.2,9.4-9.4,9.4c-5.2,0-9.6-4.2-9.6-9.4v-2.4c0-1.3,1-2.4,2.4-2.4
				s2.4,1,2.4,2.4v2.4c0,2.6,2.3,4.7,4.9,4.7c2.6,0,4.7-2.1,4.7-4.7v-2.4c0-3.2-1.3-6.3-3.7-8.5c-2.4-2.3-5.6-3.4-8.9-3.2
				c-6.2,0.3-11.1,6-11.1,12.6v3.9c0,4.3,1.7,8.2,4.3,11c3,3.3,7.5,5.5,12.3,5.5c4.1,0,7.9-1.2,11.3-3.3c0,0,0,0,0,0
				c5.8-3.6,9.8-10.1,9.8-17.8v-2.4C111,65.3,107.6,57.7,101.7,52.3z"/>
		</g>
	</g>
	<g id="XMLID_29_" class="st3">
		<g id="XMLID_30_">
			<path id="XMLID_17_" class="st4" d="M56.8,30.8c-3.9,0-7.1,3.2-7.1,7.1c0,2.1,0.9,4,2.4,5.3l-2.7,6.7C51,50,52.5,50.4,54,51
				l2.5-6.2c0.1,0,0.2,0,0.3,0c3.9,0,7.1-3.2,7.1-7.1S60.7,30.8,56.8,30.8z"/>
		</g>
	</g>
</g>
<g id="Ebene_6">
	<g id="XMLID_42_">
		<g id="XMLID_43_">
			<path id="XMLID_31_" class="st4" d="M107.8,87.9c-2.2,2.9-5,5.5-8.3,7.4c-4.2,2.5-8.9,3.8-13.6,3.8c-0.1,0-0.3,0-0.4,0
				c-5.9-0.1-11.6-2.4-16-6.1H49.8c-1.2,0-2.2-0.7-2.6-1.8l-0.7-1.7c0,0,0-0.1,0-0.1c-1.9-5.6-2.6-11.7-1.9-17.7
				c0.4-3.8,1.4-7.5,2.9-11c-1.2-1.7-2.9-3.1-4.7-4L47.2,39c0.4-1.5-0.5-3-2-3.4c-1.5-0.4-3,0.5-3.4,2L38.1,52l-3.3-11.2
				c-0.4-1.5-2-2.3-3.5-1.9c-1.5,0.4-2.3,2-1.9,3.5l3.9,13.1c-6,1.4-10.5,6.9-10.5,13.3c0,3.2,2.6,5.8,5.8,5.8h1.1v6.7
				c0,13.7,11.2,24.9,24.9,24.9h61.7c1.6,0,2.8-1.3,2.8-2.8v-0.9C119,95.5,114.3,89.6,107.8,87.9z"/>
		</g>
	</g>
	<g id="XMLID_39_">
		<g id="XMLID_40_">
			<path id="XMLID_28_" class="st4" d="M105.3,59.4c-4.3-9-14.1-15.1-24.4-15.3C71,43.9,60.9,49.4,55.3,58
				c-5.5,8.3-6.8,19.5-3.5,29.3h13c-0.3-0.5-0.6-1.1-0.9-1.6c-1.9-4-2.6-8.7-1.8-13.3c0.8-4.7,3.1-8.8,6.4-11.8
				c3.5-3.1,8.1-4.9,12.6-4.8c4.9,0.1,9.5,2.4,12.3,6.2c2.6,3.4,3.5,7.8,2.4,11.7c-1.2,4.3-5,7.6-9.2,8.1c-3,0.3-5.7-0.8-7.2-2.9
				c-1.3-1.8-1.4-4.5-0.3-6.4c1-1.6,2.6-2.4,4.5-2.2c1.5,0.2,2.7,1.6,2.5,3.1c-0.1,0.6-0.3,1.2-0.7,1.6c-0.4,0.5-0.1,1.3,0.6,1.2
				c0,0,0,0,0,0c2-0.2,3.9-1.9,4.5-4.1c0.6-2.1,0-4.7-1.5-6.7c-1.8-2.3-4.8-3.9-8-3.9c-0.1,0-0.2,0-0.3,0c-3,0-6,1.2-8.4,3.3
				C67.4,69.2,66,77.1,69,83.3c2.9,6,9.6,10.1,16.7,10.2c7.6,0.1,15.3-4.4,19.2-11.3C108.7,75.4,108.9,66.7,105.3,59.4z"/>
		</g>
	</g>
</g>
</svg>
