<?xml version="1.0" encoding="utf-8"?>
<!-- Generator: Adobe Illustrator 19.0.0, SVG Export Plug-In . SVG Version: 6.00 Build 0)  -->
<svg version="1.1" id="Ebene_1" xmlns="http://www.w3.org/2000/svg" xmlns:xlink="http://www.w3.org/1999/xlink" x="0px" y="0px"
	 viewBox="-212 70.8 141.7 141.7" style="enable-background:new -212 70.8 141.7 141.7;" xml:space="preserve">
<style type="text/css">
	.st0{fill:#FFFFFF;}
</style>
<g id="Ebene_6">
	<g id="XMLID_42_">
		<g id="XMLID_43_">
			<path id="XMLID_31_" class="st0" d="M-104.2,158.7c-2.2,2.9-5,5.5-8.3,7.4c-4.2,2.5-8.9,3.8-13.6,3.8c-0.1,0-0.3,0-0.4,0
				c-5.9-0.1-11.6-2.4-16-6.1h-19.7c-1.2,0-2.2-0.7-2.6-1.8l-0.7-1.7v-0.1c-1.9-5.6-2.6-11.7-1.9-17.7c0.4-3.8,1.4-7.5,2.9-11
				c-1.2-1.7-2.9-3.1-4.7-4l4.4-17.7c0.4-1.5-0.5-3-2-3.4s-3,0.5-3.4,2l-3.7,14.4l-3.3-11.2c-0.4-1.5-2-2.3-3.5-1.9s-2.3,2-1.9,3.5
				l3.9,13.1c-6,1.4-10.5,6.9-10.5,13.3c0,3.2,2.6,5.8,5.8,5.8h1.1v6.7c0,13.7,11.2,24.9,24.9,24.9h61.7c1.6,0,2.8-1.3,2.8-2.8v-0.9
				C-93,166.3-97.7,160.4-104.2,158.7z"/>
		</g>
	</g>
	<g id="XMLID_39_">
		<g id="XMLID_40_">
			<path id="XMLID_28_" class="st0" d="M-106.7,130.2c-4.3-9-14.1-15.1-24.4-15.3c-9.9-0.2-20,5.3-25.6,13.9
				c-5.5,8.3-6.8,19.5-3.5,29.3h13c-0.3-0.5-0.6-1.1-0.9-1.6c-1.9-4-2.6-8.7-1.8-13.3c0.8-4.7,3.1-8.8,6.4-11.8
				c3.5-3.1,8.1-4.9,12.6-4.8c4.9,0.1,9.5,2.4,12.3,6.2c2.6,3.4,3.5,7.8,2.4,11.7c-1.2,4.3-5,7.6-9.2,8.1c-3,0.3-5.7-0.8-7.2-2.9
				c-1.3-1.8-1.4-4.5-0.3-6.4c1-1.6,2.6-2.4,4.5-2.2c1.5,0.2,2.7,1.6,2.5,3.1c-0.1,0.6-0.3,1.2-0.7,1.6c-0.4,0.5-0.1,1.3,0.6,1.2
				l0,0c2-0.2,3.9-1.9,4.5-4.1c0.6-2.1,0-4.7-1.5-6.7c-1.8-2.3-4.8-3.9-8-3.9c-0.1,0-0.2,0-0.3,0c-3,0-6,1.2-8.4,3.3
				c-4.9,4.4-6.3,12.3-3.3,18.5c2.9,6,9.6,10.1,16.7,10.2c7.6,0.1,15.3-4.4,19.2-11.3C-103.3,146.2-103.1,137.5-106.7,130.2z"/>
		</g>
	</g>
</g>
</svg>
