<?xml version="1.0" encoding="utf-8"?>
<!-- Generator: Adobe Illustrator 19.0.0, SVG Export Plug-In . SVG Version: 6.00 Build 0)  -->
<svg version="1.1" id="Ebene_1" xmlns="http://www.w3.org/2000/svg" xmlns:xlink="http://www.w3.org/1999/xlink" x="0px" y="0px" width="50px" height="50px"
	 viewBox="-212 70.8 141.7 141.7" style="enable-background:new -212 70.8 141.7 141.7;" xml:space="preserve">
<style type="text/css">
	.st0{fill:#FFFFFF;}
</style>
<g id="Sniper">
	<g>
		<path class="st0" d="M-187.2,145.1h7.7c1.6,18.5,16.4,33.2,34.8,34.8v7.7c0,1.9,1.5,3.5,3.5,3.5c1.9,0,3.5-1.5,3.5-3.5v-7.7
			c18.5-1.6,33.2-16.4,34.8-34.8h7.7c1.9,0,3.5-1.5,3.5-3.5c0-1.9-1.5-3.5-3.5-3.5h-7.7c-1.6-18.5-16.4-33.2-34.8-34.8v-7.7
			c0-1.9-1.5-3.5-3.5-3.5c-1.9,0-3.5,1.5-3.5,3.5v7.7c-18.5,1.6-33.2,16.4-34.8,34.8h-7.7c-2,0-3.5,1.5-3.5,3.5
			S-189,145.1-187.2,145.1L-187.2,145.1z M-158.3,138.1h-14.1c1.6-14.6,13.3-26.3,27.8-27.8v14.1c0,1.9,1.5,3.5,3.5,3.5
			c1.9,0,3.5-1.5,3.5-3.5v-14.1c14.6,1.6,26.3,13.3,27.8,27.8H-124c-1.9,0-3.5,1.5-3.5,3.5c0,1.9,1.5,3.5,3.5,3.5h14.1
			c-1.6,14.6-13.3,26.3-27.8,27.8v-14.1c0-1.9-1.5-3.5-3.5-3.5c-1.9,0-3.5,1.5-3.5,3.5v14.1c-14.6-1.6-26.3-13.3-27.8-27.8h14.1
			c1.9,0,3.5-1.5,3.5-3.5C-154.8,139.8-156.5,138.1-158.3,138.1L-158.3,138.1z"/>
	</g>
</g>
</svg>
