<?xml version="1.0" encoding="utf-8"?>
<!-- Generator: Adobe Illustrator 19.0.0, SVG Export Plug-In . SVG Version: 6.00 Build 0)  -->
<svg version="1.1"
	 id="Capa_1" xmlns:dc="http://purl.org/dc/elements/1.1/" xmlns:cc="http://creativecommons.org/ns#" xmlns:rdf="http://www.w3.org/1999/02/22-rdf-syntax-ns#" xmlns:svg="http://www.w3.org/2000/svg" xmlns:sodipodi="http://sodipodi.sourceforge.net/DTD/sodipodi-0.dtd" xmlns:inkscape="http://www.inkscape.org/namespaces/inkscape" inkscape:version="0.92.3 (2405546, 2018-03-11)" sodipodi:docname="wrench.svg"
	 xmlns="http://www.w3.org/2000/svg" xmlns:xlink="http://www.w3.org/1999/xlink" x="0px" y="0px" width="50px" height="50px" viewBox="-269 128.2 28.3 28.3"
	 style="enable-background:new -269 128.2 28.3 28.3;" xml:space="preserve">
<style type="text/css">
	.st0{fill:#FFFFFF;}
</style>
<path id="path121" inkscape:connector-curvature="0" class="st0" d="M-255.8,139.2c0.3-1.2,0-2.5-0.9-3.4c-0.9-0.9-2.2-1.2-3.4-0.9
	l2,2l-0.5,1.9l-1.9,0.5l-2-2c-0.3,1.2,0,2.5,0.9,3.4c1,1,2.3,1.2,3.5,0.8l0,0l8.1,8.1c0.3,0.3,0.7,0.5,1.2,0.5
	c0.4,0,0.8-0.2,1.2-0.5c0.6-0.6,0.6-1.7,0-2.3L-255.8,139.2z M-248.7,149.4c-0.3,0-0.6-0.3-0.6-0.6c0-0.3,0.3-0.6,0.6-0.6
	c0.3,0,0.6,0.3,0.6,0.6S-248.3,149.4-248.7,149.4z"/>
</svg>
