<?xml version="1.0" encoding="UTF-8" standalone="no"?>
<!-- Generator: Adobe Illustrator 18.1.1, SVG Export Plug-In . SVG Version: 6.00 Build 0)  -->

<svg
   xmlns:dc="http://purl.org/dc/elements/1.1/"
   xmlns:cc="http://creativecommons.org/ns#"
   xmlns:rdf="http://www.w3.org/1999/02/22-rdf-syntax-ns#"
   xmlns:svg="http://www.w3.org/2000/svg"
   xmlns="http://www.w3.org/2000/svg"
   xmlns:sodipodi="http://sodipodi.sourceforge.net/DTD/sodipodi-0.dtd"
   xmlns:inkscape="http://www.inkscape.org/namespaces/inkscape"
   version="1.1"
   id="Capa_1"
   x="0px"
   y="0px"
   viewBox="0 0 28.306 28.306"
   style="enable-background:new 0 0 28.306 28.306;"
   xml:space="preserve"
   sodipodi:docname="wrench.svg"
   inkscape:version="0.92.3 (2405546, 2018-03-11)"><metadata
   id="metadata160"><rdf:RDF><cc:Work
       rdf:about=""><dc:format>image/svg+xml</dc:format><dc:type
         rdf:resource="http://purl.org/dc/dcmitype/StillImage" /></cc:Work></rdf:RDF></metadata><defs
   id="defs158" /><sodipodi:namedview
   pagecolor="#ffffff"
   bordercolor="#666666"
   borderopacity="1"
   objecttolerance="10"
   gridtolerance="10"
   guidetolerance="10"
   inkscape:pageopacity="0"
   inkscape:pageshadow="2"
   inkscape:window-width="958"
   inkscape:window-height="991"
   id="namedview156"
   showgrid="false"
   inkscape:zoom="7.1362963"
   inkscape:cx="22.217554"
   inkscape:cy="-1.1672694"
   inkscape:window-x="952"
   inkscape:window-y="0"
   inkscape:window-maximized="0"
   inkscape:current-layer="Capa_1" />
<g
   id="g123">
	<path
   style="fill:#ffffff;stroke-width:0.65686756"
   d="M 13.028203,10.395284 C 13.420316,8.9877574 13.064271,7.4144078 11.96399,6.3069443 10.866335,5.2106669 9.3155884,4.8513827 7.9222092,5.2310658 L 10.284067,7.6019465 9.6637694,9.92216 7.3484652,10.54334 4.9852955,8.1744332 c -0.376376,1.3996288 -0.017704,2.9545538 1.0786385,4.0547808 1.1461775,1.152208 2.8005268,1.491094 4.247017,1.01797 l 0.01377,0.01316 9.716273,9.750683 c 0.384246,0.384948 0.888485,0.579725 1.392068,0.579725 0.504895,0 1.006511,-0.194777 1.392067,-0.579725 0.768489,-0.769893 0.768489,-2.019492 0,-2.793993 z m 8.574032,12.284757 c -0.413752,0 -0.748162,-0.33757 -0.748162,-0.754761 0,-0.417191 0.33441,-0.754102 0.748162,-0.754102 0.417686,0 0.755375,0.336911 0.755375,0.754102 0,0.417191 -0.337689,0.754761 -0.755375,0.754761 z"
   id="path121"
   inkscape:connector-curvature="0" />
</g>
<g
   id="g125">
</g>
<g
   id="g127">
</g>
<g
   id="g129">
</g>
<g
   id="g131">
</g>
<g
   id="g133">
</g>
<g
   id="g135">
</g>
<g
   id="g137">
</g>
<g
   id="g139">
</g>
<g
   id="g141">
</g>
<g
   id="g143">
</g>
<g
   id="g145">
</g>
<g
   id="g147">
</g>
<g
   id="g149">
</g>
<g
   id="g151">
</g>
<g
   id="g153">
</g>
</svg>