<?xml version="1.0" encoding="utf-8"?>
<!-- Generator: Adobe Illustrator 19.0.0, SVG Export Plug-In . SVG Version: 6.00 Build 0)  -->
<svg version="1.1" xmlns="http://www.w3.org/2000/svg" xmlns:xlink="http://www.w3.org/1999/xlink" x="0px" y="0px"
	 viewBox="-384 -102.2 2849 2463.1" style="enable-background:new -384 -102.2 2849 2463.1;" xml:space="preserve">
<style type="text/css">
	.st0{fill:#10AC84;}
	.st1{fill:#1DD1A1;}
	.st2{fill:#576574;}
	.st3{fill:#222F3E;}
	.st4{fill:#FECA57;}
	.st5{fill:#FF9F43;}
	.st6{fill:#FF6B6B;}
	.st7{fill:#EE5253;}
	.st8{fill:#2E86DE;}
	.st9{fill:#A06047;}
	.st10{fill:#F7D443;}
	.st11{fill:#FFE269;}
	.st12{fill:#CE1D4C;}
	.st13{fill:#E84661;}
	.st14{font-family:'Gaegu-Bold';}
	.st15{font-size:389.9367px;}
	.st16{fill:#0ABDE3;}
	.st17{fill:#F368E0;}
</style>
<g id="Ebene_7">
	<path class="st0" d="M1468.1,1153l33.4,80.9l-520.5,214.5l-7.3,1c-7.7-27.8-21.4-53.9-40.4-76L1468.1,1153z"/>
	<path class="st1" d="M992.7,1498.8v37.5H386v-37.5c0-26.4,5.2-52.3,15.2-76.2c9.9-23.9,24.5-45.9,43.2-64.6
		c37.3-37.3,88-58.3,140.9-58.3h208.4c26.4,0,52.3,5.2,76.2,15.2c23.9,9.9,45.9,24.5,64.6,43.2c3.7,3.7,7.3,7.6,10.7,11.6
		c19,22.2,32.7,48.2,40.4,76C990.2,1462.7,992.7,1480.6,992.7,1498.8z"/>
	<path class="st0" d="M558.2,1422.5c9.9-23.9,24.5-45.9,43.2-64.6c37.3-37.3,88-58.3,140.9-58.3H585.2c-52.8,0-103.5,21-140.9,58.3
		c-18.7,18.7-33.2,40.7-43.2,64.6c-9.9,24-15.2,49.8-15.2,76.2v37.5H543v-37.5C543,1472.4,548.3,1446.5,558.2,1422.5z"/>
	<path class="st1" d="M1653.2,1071.9l33.4,81c4.8,11.7-0.8,25.1-12.5,29.9l-154.2,63.5c-11.7,4.8-25.1-0.8-29.9-12.5l0,0l-33.4-80.9
		l0,0c-4.8-11.7,0.8-25.1,12.5-29.9l154.3-63.6C1634.9,1054.6,1648.4,1060.2,1653.2,1071.9z"/>
	<path class="st0" d="M1674.1,1182.9l-154.2,63.6c-11.7,4.8-25.1-0.8-29.9-12.5l-13.6-33c4.8,11.7,18.2,17.3,29.9,12.5l154.2-63.6
		c11.6-4.8,17.2-18,12.6-29.6l13.5,32.6C1691.4,1164.6,1685.8,1178,1674.1,1182.9z"/>
	<g>
		<path class="st2" d="M517.9,1910.1c0-45.3-36.8-82.1-82.1-82.1c-45.4,0-82.1,36.8-82.1,82.1s36.8,82.1,82.1,82.1
			C481.1,1992.2,517.9,1955.5,517.9,1910.1z"/>
		<path class="st2" d="M805,1924.4c0-37.5-30.4-67.8-67.8-67.8c-37.4,0-67.8,30.4-67.8,67.8s30.4,67.8,67.8,67.8
			C774.6,1992.2,805,1961.9,805,1924.4z"/>
		<path class="st2" d="M1146.5,1904.9c0-48.2-39.1-87.4-87.4-87.4c-48.2,0-87.3,39.1-87.3,87.4c0,48.2,39.1,87.3,87.3,87.3
			C1107.4,1992.2,1146.5,1953.2,1146.5,1904.9z"/>
		<path class="st2" d="M1348,1857.7c16.4-11.1,27.1-29.9,27.1-51.2c0-34.2-27.7-61.9-61.9-61.9c-34.2,0-61.9,27.7-61.9,61.9
			c0,34.2,27.7,61.9,61.9,61.9C1326.1,1868.4,1338.2,1864.5,1348,1857.7z"/>
		<path class="st2" d="M132.9,1893.7c8.1,2.9,16.8,4.5,25.8,4.5c41.8,0,75.7-33.9,75.7-75.7c0-41.8-33.9-75.7-75.7-75.7
			c-41.8,0-75.7,33.9-75.7,75.7c0,32.7,20.7,60.5,49.6,71.1C132.8,1893.7,132.9,1893.7,132.9,1893.7z"/>
	</g>
	<path class="st0" d="M1348,1857.7l-98.9,94.8c-26.5,25.5-61.9,39.7-98.7,39.7h-91.4c48.2,0,87.4-39.1,87.4-87.3
		s-39.1-87.4-87.4-87.4c-48.2,0-87.3,39.1-87.3,87.4s39.1,87.3,87.3,87.3h-322c37.5,0,67.8-30.4,67.8-67.8
		c0-37.5-30.4-67.8-67.8-67.8c-37.4,0-67.8,30.4-67.8,67.8c0,37.5,30.4,67.8,67.8,67.8H435.8c45.3,0,82.1-36.8,82.1-82.1
		s-36.8-82.1-82.1-82.1c-45.4,0-82.1,36.8-82.1,82.1c0,45.3,36.8,82.1,82.1,82.1H375c-21.7,0-43.1-4.2-63.2-12.4l-178.9-86.1
		c8.1,2.9,16.8,4.5,25.8,4.5c41.8,0,75.7-33.9,75.7-75.7c0-41.8-33.9-75.7-75.7-75.7l1154.5-2.3c-34.2,0-61.9,27.7-61.9,61.9
		c0,34.2,27.7,61.9,61.9,61.9C1326.1,1868.4,1338.2,1864.5,1348,1857.7z"/>
	<path class="st1" d="M1211.6,1649.3H217h-49.9l51.3-97.4c6.9-13.2,20.6-21.5,35.6-21.5H386h606.7h68.8L1211.6,1649.3z"/>
	<g>
		<path class="st0" d="M386,1530.5H253.9c-14.9,0-28.6,8.3-35.6,21.5l-51.3,97.4H217h153.6l62.6-118.9H386z"/>
		<path class="st0" d="M1390.9,1721.5l-63.7-43.1H217c-37.7,0-74.5,7.5-109.2,22.4l-38.5,16.5l-22.9-53.5l38.5-16.5
			c42-18,86.4-27.1,132.1-27.1h1119.2c5.8,0,11.5,1.7,16.3,5l71,48.1L1390.9,1721.5z"/>
	</g>
	<g>
		<path class="st3" d="M435.8,2017.5c-59.2,0-107.3-48.1-107.3-107.3c0-59.2,48.2-107.3,107.3-107.3c59.2,0,107.3,48.1,107.3,107.3
			C543.1,1969.3,494.9,2017.5,435.8,2017.5z M435.8,1853.3c-31.4,0-56.9,25.5-56.9,56.9c0,31.4,25.5,56.9,56.9,56.9
			c31.4,0,56.9-25.5,56.9-56.9C492.7,1878.8,467.1,1853.3,435.8,1853.3z"/>
		<path class="st3" d="M737.1,2017.5c-51.3,0-93-41.7-93-93c0-51.3,41.7-93,93-93c51.3,0,93,41.7,93,93
			C830.2,1975.7,788.4,2017.5,737.1,2017.5z M737.1,1881.8c-23.5,0-42.6,19.1-42.6,42.6s19.1,42.6,42.6,42.6
			c23.5,0,42.6-19.1,42.6-42.6S760.6,1881.8,737.1,1881.8z"/>
		<path class="st3" d="M1059.2,2017.5c-62.1,0-112.5-50.5-112.5-112.5c0-62.1,50.5-112.6,112.5-112.6c62.1,0,112.6,50.5,112.6,112.6
			C1171.7,1967,1121.2,2017.5,1059.2,2017.5z M1059.2,1842.8c-34.3,0-62.1,27.9-62.1,62.2c0,34.3,27.9,62.1,62.1,62.1
			c34.3,0,62.2-27.9,62.2-62.1C1121.3,1870.6,1093.4,1842.8,1059.2,1842.8z"/>
		<path class="st3" d="M1313.3,1893.6c-48.1,0-87.1-39.1-87.1-87.1c0-48,39.1-87.1,87.1-87.1c48,0,87.1,39.1,87.1,87.1
			c0,28.9-14.3,55.8-38.1,72C1347.8,1888.4,1330.8,1893.6,1313.3,1893.6z M1313.3,1769.8c-20.3,0-36.7,16.5-36.7,36.7
			s16.5,36.7,36.7,36.7c7.4,0,14.5-2.2,20.6-6.3c0,0,0,0,0,0c10.1-6.8,16.1-18.2,16.1-30.3
			C1349.9,1786.3,1333.5,1769.8,1313.3,1769.8z"/>
		<path class="st3" d="M158.8,1923.5c-11.8,0-23.3-2-34.4-6c-0.2-0.1-0.4-0.2-0.7-0.2c-39.4-14.6-65.8-52.6-65.8-94.6
			c0-55.6,45.2-100.9,100.9-100.9s100.9,45.2,100.9,100.9C259.6,1878.2,214.4,1923.5,158.8,1923.5z M142,1870.2
			c5.4,1.9,11,2.8,16.8,2.8c27.8,0,50.5-22.6,50.5-50.5c0-27.8-22.6-50.5-50.5-50.5s-50.5,22.6-50.5,50.5c0,21,13.2,40,32.9,47.3
			C141.5,1870,141.7,1870.1,142,1870.2z"/>
		<path class="st3" d="M1150.5,2017.5H375c-25,0-49.4-4.8-72.7-14.2c-0.5-0.2-1-0.4-1.5-0.6L123,1916.9
			c-39-14.8-65.1-52.6-65.1-94.4c0-55.6,45.2-100.9,100.9-100.9l1154.4-2.3c0,0,0,0,0.1,0c48,0,87.1,39.1,87.1,87.1
			c0,28.1-13.5,54.4-36.3,70.7l-97.5,93.5C1235.3,2000.9,1194,2017.5,1150.5,2017.5z M322,1956.8c17,6.8,34.8,10.2,53,10.2h775.5
			c30.4,0,59.3-11.6,81.2-32.7l98.9-94.8c1-1,2.1-1.9,3.3-2.7c10.1-6.8,16.1-18.2,16.1-30.3c0-20.2-16.4-36.7-36.7-36.7l-1154.5,2.3
			c-27.9,0-50.5,22.6-50.5,50.5c0,21,13.2,40,32.9,47.3c1,0.3,2,0.8,2.9,1.2L322,1956.8z"/>
	</g>
	<path class="st0" d="M424.4,1410.1c3.4,15.9,30.6,16.7,73.5,12.8c39.4-3.5,90.8-11.9,144.9-23.5c54.1-11.6,104.4-25.2,141.8-38.1
		c18.5-6.4,32.9-12.4,42.9-17.8c6.4-3.5,21.5-11.6,18.9-24.1c0-0.2-0.1-0.3-0.1-0.5c-0.3-1.2-0.7-2.4-1.5-3.5l-0.2-0.3
		c-0.2-0.2-0.3-0.5-0.5-0.7l-6.2-9.5c-2.3-3.5-176.9-17.9-181-17c-4.1,0.9-223,55.2-223.7,59.3l-8.8,57.3c-0.1,0.3-0.1,0.6-0.1,0.8
		l-0.1,0.3c-0.2,1.4-0.2,2.7,0.2,4C424.3,1409.9,424.3,1410,424.4,1410.1z"/>
	<path class="st4" d="M412,1391.3c3.4,15.9,30.6,16.7,73.5,12.8c39.4-3.5,90.8-11.9,144.9-23.5c54.1-11.6,104.4-25.2,141.8-38.1
		c18.5-6.4,32.9-12.4,42.9-17.8c6.4-3.5,21.5-11.6,18.9-24.1c0-0.2-0.1-0.3-0.1-0.5c-0.3-1.2-0.7-2.4-1.5-3.5l-0.2-0.3
		c-0.2-0.2-0.3-0.5-0.5-0.7L520.1,821.8c-2.3-3.5-6.5-5.2-10.7-4.4c-4.1,0.9-7.3,4.2-7.9,8.4l-89.5,560c-0.1,0.3-0.1,0.6-0.1,0.8
		l-0.1,0.3c-0.2,1.4-0.2,2.7,0.2,4C411.9,1391.1,412,1391.2,412,1391.3z"/>
	<path class="st5" d="M412,1391.3c2.6,12,18.9,15.4,45.4,14.6L545,859.8l-25-38c-2.3-3.5-6.5-5.2-10.7-4.4c-4.1,0.9-7.3,4.2-7.9,8.4
		l-89.5,560c-0.1,0.3-0.1,0.6-0.1,0.8l-0.1,0.3c-0.2,1.3-0.2,2.7,0.2,4C411.9,1391.1,412,1391.2,412,1391.3z"/>
	<g>
		<path class="st6" d="M812.5,1326.1c0.9-0.5,1.8-0.9,2.6-1.3c0.3-0.2,0.6-0.3,1-0.5c0.1,0,0.1-0.1,0.2-0.1c0.4-0.2,0.7-0.4,1.1-0.6
			c0.1,0,0.1-0.1,0.2-0.1c0.4-0.2,0.8-0.5,1.2-0.7c0.1,0,0.1-0.1,0.2-0.1c0.4-0.3,0.9-0.5,1.3-0.8c2.3-1.4,4.4-2.9,6.2-4.4
			c0,0,0.1-0.1,0.1-0.1c0.2-0.2,0.4-0.4,0.7-0.6c0,0,0,0,0,0c0.3-0.3,0.6-0.5,0.8-0.8c0,0,0.1-0.1,0.1-0.1c0.2-0.2,0.5-0.5,0.7-0.7
			c0.1-0.1,0.1-0.1,0.2-0.2c0.2-0.2,0.4-0.4,0.6-0.6c0.1-0.1,0.1-0.2,0.2-0.2c0.2-0.2,0.4-0.4,0.5-0.6c0.1-0.1,0.1-0.2,0.2-0.3
			c0.2-0.2,0.3-0.4,0.5-0.6c0.1-0.1,0.2-0.2,0.2-0.3c0.1-0.2,0.3-0.4,0.4-0.6c0.1-0.1,0.1-0.2,0.2-0.3c0.1-0.2,0.2-0.4,0.4-0.6
			c0.1-0.1,0.1-0.2,0.2-0.4c0.1-0.2,0.2-0.4,0.3-0.6c0.1-0.1,0.1-0.3,0.2-0.4c0.1-0.2,0.2-0.4,0.3-0.6c0.1-0.1,0.1-0.3,0.2-0.4
			c0.1-0.2,0.1-0.4,0.2-0.6c0-0.1,0.1-0.3,0.1-0.4c0.1-0.2,0.1-0.4,0.2-0.6c0-0.2,0.1-0.3,0.1-0.5c0-0.2,0.1-0.4,0.1-0.6
			c0-0.2,0.1-0.3,0.1-0.5c0-0.2,0-0.4,0.1-0.6c0-0.2,0-0.3,0-0.5c0-0.2,0-0.5,0-0.7c0-0.1,0-0.3,0-0.4c0-0.3,0-0.5-0.1-0.8
			c0-0.1,0-0.3,0-0.4c-0.1-0.4-0.1-0.8-0.2-1.2c0-0.2-0.1-0.3-0.1-0.5c-0.3-1.2-0.7-2.4-1.5-3.5l-0.2-0.3c-0.2-0.2-0.3-0.5-0.5-0.7
			l-1-1.6l-14.9-22.7l0,0l-3.3-5l-5.5,0.4c-62.4,1.8-222.3,2.2-359.7-31.8l-10.8-2.6l-7,43.5l-8.7,54.6l9.4,2.6
			c104.1,21.4,214.6,25.7,288.9,25.5c0.7,0,1.4-0.1,2.1-0.2c0.2,0,0.4-0.1,0.6-0.1c0.1,0,0.2,0,0.3-0.1c0.1,0,0.1,0,0.2,0
			c1.8-0.5,3.6-1,5.4-1.5c0,0,0.1,0,0.1,0c0.3-0.1,0.6-0.2,0.9-0.3c3.2-0.9,6.4-1.9,9.5-2.8c0.6-0.2,1.2-0.3,1.8-0.5
			c1.4-0.4,2.8-0.9,4.3-1.3c1-0.3,1.9-0.6,2.9-0.9c1.4-0.4,2.7-0.8,4-1.3c1.8-0.6,3.7-1.2,5.5-1.7c0.9-0.3,1.7-0.6,2.6-0.8
			c1.5-0.5,3-1,4.5-1.5c0.6-0.2,1.3-0.4,1.9-0.6c0.8-0.3,1.5-0.5,2.3-0.8c1.3-0.4,2.5-0.9,3.8-1.3c1.4-0.5,2.8-1,4.1-1.4
			c0,0,0,0,0,0c1.4-0.5,2.8-1,4.1-1.5c0.3-0.1,0.5-0.2,0.8-0.3c1.3-0.5,2.5-0.9,3.7-1.4c0,0,0.1,0,0.1-0.1c0,0,0.1,0,0.1,0
			c1.4-0.5,2.7-1,4.1-1.6c0.1,0,0.1-0.1,0.2-0.1c1.2-0.5,2.4-0.9,3.6-1.4c0.2-0.1,0.3-0.1,0.5-0.2c2.5-1,4.8-2,7.1-2.9
			c0.4-0.2,0.7-0.3,1.1-0.5c0.3-0.1,0.6-0.3,0.9-0.4c0,0,0,0,0,0c1.1-0.5,2.2-1,3.2-1.4c0.2-0.1,0.4-0.2,0.6-0.3
			c1-0.5,2.1-1,3.1-1.4c0,0,0,0,0,0c1-0.5,1.9-0.9,2.8-1.4C812,1326.3,812.3,1326.2,812.5,1326.1z"/>
		<path class="st6" d="M779.9,1216.9l-63.4-96.4l-4.6,0c-95.3-7.9-175.8-23.7-239.1-46.9l-10.1-4.3l-0.6,3.7l-1.5,9.1l-13,81.5l0,0
			l-1.5,9.3l8.6,2c102.6,30.7,223,39.6,305.9,41.6C761.4,1216.6,779.9,1216.9,779.9,1216.9z"/>
		<path class="st6" d="M479.8,1009.3c47.2,21.1,106.1,37.4,175.1,48.6c0.4,0.1,0.8,0.1,1.2,0.1l20.6,1.9l-2.4-3.7l-17.4-26.5
			l-50.4-76.6l0,0l-5.8-8.9l-3-0.9c-0.2-0.1-0.4-0.2-0.7-0.2c-36.2-10.9-67.9-23.9-94.2-38.7l-12.7-7.7l-1.6,9.9l-2.6,16.6
			l-1.9,11.7l-4.9,30.4l-6.5,40.4L479.8,1009.3z"/>
		<path class="st7" d="M446.3,841.5c1.2,5.5,6.6,9,12.1,7.8l55.2-11.9l55.2-11.9c5.5-1.2,9-6.6,7.8-12.1c-1.2-5.5-6.6-9-12.1-7.8
			l-32.1,6.9l23.8-39.1c2.9-4.8,1.4-11.1-3.4-14c-4.8-2.9-11.1-1.4-14,3.4l-22.8,37.5l-9.2-43c-1.2-5.5-6.6-9-12.1-7.8
			c-5.5,1.2-9,6.6-7.8,12.1l9.2,43L460,779.7c-4.6-3.2-11-2-14.2,2.6c-3.2,4.6-2,11,2.6,14.2l37.8,25.9l-32.1,6.9
			C448.7,830.5,445.2,836,446.3,841.5z"/>
	</g>
	<g>
		<path class="st7" d="M479.2,965.2l-6.5,40.4l7.1,3.7c12.2,5.4,25.1,10.5,38.8,15.3l16.7-104c-11.6-5.1-22.4-10.5-32.5-16.2
			l-12.7-7.7l-1.6,9.9l-2.6,16.6l-1.9,11.7L479.2,965.2z"/>
		<path class="st7" d="M447.5,1163.6l-1.5,9.3l8.6,2c12.5,3.7,25.3,7.1,38.2,10.3l16-99.7c-12.6-3.7-24.7-7.7-36.2-11.9l-10.1-4.3
			l-0.6,3.7l-1.5,9.1L447.5,1163.6z"/>
		<path class="st7" d="M429.5,1275.8l-8.7,54.6l9.4,2.6c12.5,2.6,25.1,4.9,37.7,7l15.6-97c-12.2-2.5-24.3-5.2-36.3-8.1l-10.8-2.6
			L429.5,1275.8z"/>
	</g>
	<g>
		<path class="st7" d="M1777.9,1033.2c-3-0.8-5.5-3.2-6.5-6.4c-1.4-5,1.4-10.1,6.4-11.6c16-4.7,38.9-15,57.2-37.6
			c9.5-11.8,16.5-25.3,20.7-40.2c1.4-5,6.5-7.9,11.5-6.5c0,0,0,0,0,0c5,1.4,7.9,6.6,6.5,11.5c-4.9,17.3-13,33.1-24.1,46.9
			c-21.3,26.4-47.9,38.4-66.5,43.8C1781.3,1033.7,1779.5,1033.7,1777.9,1033.2z"/>
		<g>
			<path class="st5" d="M1726.9,1108c-0.7-0.5-1.3-1.1-1.8-1.8c-3.2-4.1-2.5-9.9,1.6-13.1c30.2-23.8,59-33.9,85.4-30.1
				c16.7,2.4,28,9.5,39,16.4c10.2,6.4,19.8,12.5,34.4,15.6c20.6,4.4,43.1,1.1,66.8-9.8c4.7-2.2,10.2-0.1,12.4,4.6
				c2.2,4.7,0.1,10.2-4.6,12.4c-27.5,12.6-53.9,16.3-78.5,11.1c-17.9-3.8-29.8-11.4-40.4-18.1c-10.1-6.4-18.9-11.9-31.6-13.7
				c-21.2-3-45.2,5.8-71.2,26.3C1734.8,1110.5,1730.2,1110.4,1726.9,1108z"/>
			<path class="st5" d="M1676.4,1064.9c0.2,0.8,0.5,1.6,0.9,2.4c2.4,4.5,8.1,6.3,12.6,3.8c33.9-18.2,54.7-40.5,61.8-66.3
				c4.5-16.3,2.5-29.5,0.5-42.3c-1.8-11.9-3.5-23.1-0.5-37.7c4.2-20.6,16.2-39.9,35.7-57.3c3.8-3.4,4.2-9.3,0.7-13.2
				c-3.4-3.8-9.3-4.2-13.2-0.7c-22.6,20.1-36.5,42.9-41.6,67.5c-3.6,17.9-1.5,31.9,0.4,44.3c1.8,11.8,3.4,22.1-0.1,34.5
				c-5.7,20.7-23.4,39.1-52.6,54.8C1677.4,1056.7,1675.5,1060.9,1676.4,1064.9z"/>
		</g>
		<path class="st7" d="M1814,1214.6c-3.7-1.8-7.2-3.9-10.4-6.4c-9.3-7.2-13.4-15.2-17.1-22.2c-2.4-4.5-4.6-8.8-8.2-13
			c-11.3-13.1-31.9-19.8-61.2-19.8c-5.2,0-9.3-4.2-9.4-9.3c0-5.2,4.2-9.3,9.3-9.4c35.1,0,60.5,8.8,75.4,26.3
			c5,5.8,7.9,11.5,10.5,16.5c3.3,6.4,5.9,11.4,12,16.1c9.6,7.5,23.4,10.3,40.8,8.3c5.1-0.6,9.8,3.1,10.3,8.2
			c0.6,5.1-3.1,9.8-8.2,10.3C1840.8,1222.3,1826,1220.3,1814,1214.6z"/>
		<g>
			<path class="st8" d="M1857.1,1167.7c-1.7-1.2-3-2.9-3.6-5.1c-1.4-5,1.5-10.1,6.5-11.5c13.3-3.8,27.5-4.6,41-2.4
				c9.8,1.6,19.2,4.7,28,9.2c4.6,2.4,6.4,8,4.1,12.6c-2.3,4.6-8,6.4-12.6,4.1c-7.1-3.6-14.7-6.1-22.5-7.4c-10.8-1.7-22.2-1.1-33,2
				C1862.3,1169.8,1859.4,1169.2,1857.1,1167.7z"/>
			<path class="st8" d="M1814.8,1148.5c-4.9-2.3-7-8.2-4.7-13.1c2.3-4.9,8.2-7,13.1-4.7c4.9,2.3,7,8.2,4.7,13.1
				C1825.6,1148.7,1819.7,1150.8,1814.8,1148.5z"/>
		</g>
		<path class="st7" d="M1892.7,1036c-4.9-2.3-7-8.2-4.7-13.1s8.2-7,13.1-4.7c4.9,2.3,7,8.2,4.7,13.1
			C1903.5,1036.2,1897.6,1038.3,1892.7,1036z"/>
		<g>
			<path class="st8" d="M1864,911.8c-4.9-2.3-7-8.2-4.7-13.1c2.3-4.9,8.2-7,13.1-4.7s7,8.2,4.7,13.1
				C1874.8,912.1,1869,914.2,1864,911.8z"/>
			<path class="st8" d="M1992.2,1046.2c-4.9-2.3-7-8.2-4.7-13.1c2.3-4.9,8.2-7,13.1-4.7c4.9,2.3,7,8.2,4.7,13.1
				C2003,1046.5,1997.1,1048.5,1992.2,1046.2z"/>
		</g>
		<path class="st5" d="M1954.1,976.5c-4.9-2.3-7-8.2-4.7-13.1c2.3-4.9,8.2-7,13.1-4.7c4.9,2.3,7,8.2,4.7,13.1
			C1964.9,976.7,1959,978.8,1954.1,976.5z"/>
		<path class="st7" d="M1804.5,946.1c-4.9-2.3-7-8.2-4.7-13.1c2.3-4.9,8.2-7,13.1-4.7c4.9,2.3,7,8.2,4.7,13.1
			C1815.3,946.3,1809.4,948.4,1804.5,946.1z"/>
		<g>
			<path class="st5" d="M1915,1217.5c-4.9-2.3-7-8.2-4.7-13.1s8.2-7,13.1-4.7c4.9,2.3,7,8.2,4.7,13.1
				C1925.8,1217.8,1919.9,1219.9,1915,1217.5z"/>
			<path class="st5" d="M1687.2,980.5c-4.9-2.3-7-8.2-4.7-13.1c2.3-4.9,8.2-7,13.1-4.7c4.9,2.3,7,8.2,4.7,13.1
				C1698,980.7,1692.2,982.8,1687.2,980.5z"/>
		</g>
	</g>
</g>
<g id="Ebene_8">
	<g id="Capa_1">
		<path class="st9" d="M1755.4,406.4c-2-0.9-2.9-3.3-2-5.3c1.8-3.9,2.6-8.1,2.6-13.3c0-11.2-4-16.5-8.6-22.7
			c-4.8-6.4-10.2-13.6-10.2-27.5c0-2.2,1.8-4,4-4s4,1.8,4,4c0,11.2,4,16.5,8.6,22.7c4.8,6.4,10.2,13.6,10.2,27.5
			c0,6.2-1.1,11.6-3.3,16.5c-0.7,1.5-2.1,2.4-3.6,2.4C1756.5,406.7,1755.9,406.6,1755.4,406.4z"/>
		<path class="st10" d="M1735,337.9h11.7c1.8,0,2.9-1.8,2.1-3.4l-3.5-6.9h-4.5h-4.5l-3.5,6.9C1732.1,336,1733.3,337.8,1735,337.9z"
			/>
		<ellipse class="st11" cx="1740.9" cy="265.8" rx="53" ry="61.7"/>
		<path class="st10" d="M1740.9,204.1c4,0,8,0.5,11.7,1.5c-23.6,6.2-41.3,30.8-41.3,60.2s17.6,54,41.3,60.2c-3.8,1-7.7,1.5-11.7,1.5
			c-29.3,0-53-27.6-53-61.7C1687.9,231.8,1711.6,204.1,1740.9,204.1z"/>
	</g>
	<g id="Ebene_6">
		<path class="st9" d="M1036,423.8c-1.5,0-3-0.9-3.6-2.4c-2.2-4.9-0.2-15.4-0.2-21.6c0-13.9,5.4-21.1,10.2-27.5
			c4.6-6.2,8.6-11.5,8.6-22.7c0-2.2,1.8-4,4-4s4,1.8,4,4c0,13.9-5.4,21.1-10.2,27.5c-4.6,6.2-8.6,11.5-8.6,22.7
			c0,5.1-2.2,14.4-0.5,18.3c0.9,2,0,4.4-2,5.3C1037.1,423.7,1036.5,423.8,1036,423.8z"/>
		<path class="st12" d="M1048.6,349.3h12c1.8,0,3-1.9,2.2-3.5l-3.6-7.1h-4.6h-4.6l-3.6,7.1C1045.6,347.4,1046.8,349.3,1048.6,349.3z
			"/>
		<ellipse class="st13" cx="1054.6" cy="275.2" rx="54.5" ry="63.4"/>
		<path class="st12" d="M1054.6,211.8c3.9,0,7.7,0.5,11.3,1.4c-24.7,6.1-43.2,31.6-43.2,62.1s18.5,56,43.2,62.1
			c-3.6,0.9-7.4,1.4-11.3,1.4c-30.1,0-54.5-28.4-54.5-63.4S1024.5,211.8,1054.6,211.8z"/>
	</g>
	<g id="Ebene_2">
		<text transform="matrix(1 0 0 1 10.999 539.157)"><tspan x="0" y="0" class="st0 st14 st15">P</tspan><tspan x="187.9" y="0" class="st16 st14 st15">a</tspan><tspan x="369.7" y="0" class="st7 st14 st15">n</tspan><tspan x="554.5" y="0" class="st17 st14 st15">z</tspan><tspan x="710.1" y="0" class="st5 st14 st15">e</tspan><tspan x="896.5" y="0" class="st16 st14 st15">r</tspan><tspan x="1045.4" y="0" class="st14 st15"> </tspan><tspan x="1209.2" y="0" class="st0 st14 st15">P</tspan><tspan x="1397.1" y="0" class="st16 st14 st15">a</tspan><tspan x="1578.8" y="0" class="st7 st14 st15">r</tspan><tspan x="1727.8" y="0" class="st17 st14 st15">t</tspan><tspan x="1863.1" y="0" class="st5 st14 st15">y</tspan></text>
	</g>
	<g id="Ebene_3">
		<path class="st4" d="M1251.7,363.9c0.9,3.5,7.1,3.4,16.7,2.1c8.9-1.2,20.4-3.6,32.5-6.8c12.1-3.2,23.3-6.8,31.6-10.1
			c4.1-1.6,7.3-3.1,9.5-4.5c1.4-0.9,4.7-2.8,4-5.6c0,0,0-0.1,0-0.1c-0.1-0.3-0.2-0.5-0.4-0.8l0-0.1c0-0.1-0.1-0.1-0.1-0.2
			l-75.3-103.8c-0.6-0.8-1.5-1.1-2.5-0.9c-0.9,0.2-1.6,1-1.7,2l-14.4,127.4c0,0.1,0,0.1,0,0.2l0,0.1
			C1251.6,363.2,1251.6,363.5,1251.7,363.9C1251.7,363.8,1251.7,363.8,1251.7,363.9z"/>
		<path class="st5" d="M1251.7,363.9c0.7,2.7,4.4,3.3,10.4,2.8l14.1-124.3l-6-8.3c-0.6-0.8-1.5-1.1-2.5-0.9c-0.9,0.2-1.6,1-1.7,2
			l-14.4,127.4c0,0.1,0,0.1,0,0.2l0,0.1C1251.6,363.2,1251.6,363.5,1251.7,363.9C1251.7,363.8,1251.7,363.8,1251.7,363.9z"/>
		<g>
			<path class="st6" d="M1341.5,345c0.2-0.1,0.4-0.2,0.6-0.3c0.1,0,0.1-0.1,0.2-0.1c0,0,0,0,0,0c0.1,0,0.2-0.1,0.2-0.2c0,0,0,0,0,0
				c0.1-0.1,0.2-0.1,0.3-0.2c0,0,0,0,0,0c0.1-0.1,0.2-0.1,0.3-0.2c0.5-0.4,1-0.7,1.4-1.1c0,0,0,0,0,0c0,0,0.1-0.1,0.1-0.1
				c0,0,0,0,0,0c0.1-0.1,0.1-0.1,0.2-0.2c0,0,0,0,0,0c0.1-0.1,0.1-0.1,0.1-0.2c0,0,0,0,0,0c0-0.1,0.1-0.1,0.1-0.2c0,0,0,0,0-0.1
				c0,0,0.1-0.1,0.1-0.1c0,0,0,0,0-0.1c0,0,0.1-0.1,0.1-0.1c0,0,0,0,0-0.1c0,0,0.1-0.1,0.1-0.1c0,0,0-0.1,0-0.1c0,0,0-0.1,0.1-0.1
				c0,0,0-0.1,0-0.1c0,0,0-0.1,0.1-0.1c0,0,0-0.1,0-0.1c0,0,0-0.1,0.1-0.1c0,0,0-0.1,0-0.1c0,0,0-0.1,0-0.1c0,0,0-0.1,0-0.1
				c0,0,0-0.1,0-0.1c0,0,0-0.1,0-0.1c0,0,0-0.1,0-0.1c0,0,0-0.1,0-0.1c0,0,0-0.1,0-0.1c0,0,0-0.1,0-0.1c0-0.1,0-0.1,0-0.2
				c0,0,0-0.1,0-0.1c0-0.1,0-0.1,0-0.2c0,0,0-0.1,0-0.1c0-0.1,0-0.2-0.1-0.3c0,0,0-0.1,0-0.1c-0.1-0.3-0.2-0.5-0.4-0.8l0-0.1
				c0-0.1-0.1-0.1-0.1-0.2l-0.2-0.3l-3.6-5l0,0l-0.8-1.1l-1.2,0.1c-14.1,1-50.2,2.8-81.6-3.5l-2.5-0.5l-1.1,9.9l-1.4,12.4l2.2,0.5
				c23.7,3.8,48.7,3.6,65.5,2.8c0.2,0,0.3,0,0.5-0.1c0,0,0.1,0,0.1,0c0,0,0,0,0.1,0c0,0,0,0,0,0c0.4-0.1,0.8-0.3,1.2-0.4
				c0,0,0,0,0,0c0.1,0,0.1,0,0.2-0.1c0.7-0.2,1.4-0.5,2.1-0.7c0.1,0,0.3-0.1,0.4-0.1c0.3-0.1,0.6-0.2,0.9-0.3
				c0.2-0.1,0.4-0.2,0.6-0.2c0.3-0.1,0.6-0.2,0.9-0.3c0.4-0.1,0.8-0.3,1.2-0.4c0.2-0.1,0.4-0.1,0.6-0.2c0.3-0.1,0.7-0.3,1-0.4
				c0.1-0.1,0.3-0.1,0.4-0.2c0.2-0.1,0.3-0.1,0.5-0.2c0.3-0.1,0.6-0.2,0.8-0.3c0.3-0.1,0.6-0.2,0.9-0.4c0,0,0,0,0,0
				c0.3-0.1,0.6-0.3,0.9-0.4c0.1,0,0.1-0.1,0.2-0.1c0.3-0.1,0.6-0.2,0.8-0.4c0,0,0,0,0,0c0,0,0,0,0,0c0.3-0.1,0.6-0.3,0.9-0.4
				c0,0,0,0,0,0c0.3-0.1,0.5-0.2,0.8-0.4c0,0,0.1,0,0.1,0c0.5-0.2,1.1-0.5,1.6-0.7c0.1,0,0.2-0.1,0.2-0.1c0.1,0,0.1-0.1,0.2-0.1
				c0,0,0,0,0,0c0.2-0.1,0.5-0.2,0.7-0.4c0,0,0.1,0,0.1-0.1c0.2-0.1,0.5-0.2,0.7-0.4c0,0,0,0,0,0c0.2-0.1,0.4-0.2,0.6-0.3
				C1341.4,345,1341.5,345,1341.5,345z"/>
			<path class="st6" d="M1333,320.6l-15.3-21.1l-1,0.1c-21.6-0.8-40-3.5-54.5-8.1l-2.3-0.9l-0.1,0.8l-0.2,2.1l-2.1,18.5l0,0
				l-0.2,2.1l2,0.4c23.5,5.9,50.8,6.6,69.5,6.2C1328.8,320.8,1333,320.6,1333,320.6z"/>
			<path class="st6" d="M1263.1,276.9c10.9,4.3,24.4,7.4,40.1,9.2c0.1,0,0.2,0,0.3,0l4.7,0.2l-0.6-0.8l-4.2-5.8l-12.2-16.8l0,0
				l-1.4-1.9l-0.7-0.2c-0.1,0-0.1,0-0.2,0c-8.3-2.1-15.6-4.7-21.7-7.8l-2.9-1.6l-0.3,2.2l-0.4,3.8l-0.3,2.7l-0.8,6.9l-1,9.2
				L1263.1,276.9z"/>
			<path class="st7" d="M1253.8,239.3c0.3,1.2,1.6,2,2.8,1.6l12.4-3.3l12.4-3.3c1.2-0.3,2-1.6,1.6-2.8c-0.3-1.2-1.6-2-2.8-1.6
				l-7.2,1.9l5-9.1c0.6-1.1,0.2-2.5-0.9-3.1c-1.1-0.6-2.5-0.2-3.1,0.9l-4.8,8.7l-2.5-9.6c-0.3-1.2-1.6-2-2.8-1.6
				c-1.2,0.3-2,1.6-1.6,2.8l2.5,9.6l-8.4-5.2c-1.1-0.7-2.5-0.3-3.2,0.7c-0.7,1.1-0.3,2.5,0.7,3.2l8.8,5.5l-7.2,1.9
				C1254.2,236.8,1253.4,238.1,1253.8,239.3z"/>
		</g>
		<g>
			<path class="st7" d="M1262.5,266.9l-1,9.2l1.6,0.8c2.8,1.1,5.8,2.1,8.9,3.1l2.7-23.7c-2.7-1-5.2-2.1-7.5-3.3l-2.9-1.6l-0.3,2.2
				l-0.4,3.8l-0.3,2.7L1262.5,266.9z"/>
			<path class="st7" d="M1257.4,312.1l-0.2,2.1l2,0.4c2.9,0.7,5.8,1.4,8.7,1.9l2.6-22.7c-2.9-0.7-5.7-1.5-8.3-2.3l-2.3-0.9l-0.1,0.8
				l-0.2,2.1L1257.4,312.1z"/>
			<path class="st7" d="M1254.5,337.6l-1.4,12.4l2.2,0.5c2.9,0.5,5.7,0.8,8.6,1.2l2.5-22.1c-2.8-0.4-5.6-0.9-8.3-1.5l-2.5-0.5
				L1254.5,337.6z"/>
		</g>
	</g>
	<g id="Ebene_4">
	</g>
	<g id="Ebene_5">
		<path class="st4" d="M43.5,366.7c1.1,3.5,7.3,3.1,16.8,1.4c8.8-1.6,20.2-4.6,32.1-8.3c11.9-3.7,23-7.8,31.1-11.5
			c4-1.8,7.2-3.5,9.3-4.9c1.4-0.9,4.6-3.1,3.7-5.8c0,0,0-0.1,0-0.1c-0.1-0.3-0.2-0.5-0.4-0.8l0-0.1c0-0.1-0.1-0.1-0.1-0.2
			L55.9,236.2c-0.6-0.7-1.6-1-2.5-0.8c-0.9,0.3-1.5,1.1-1.6,2l-8.5,128c0,0.1,0,0.1,0,0.2l0,0.1C43.3,366.1,43.3,366.4,43.5,366.7
			C43.5,366.7,43.5,366.7,43.5,366.7z"/>
		<path class="st5" d="M43.5,366.7c0.8,2.7,4.6,3.1,10.5,2.4l8.3-124.8l-6.4-8c-0.6-0.7-1.6-1-2.5-0.8c-0.9,0.3-1.5,1.1-1.6,2
			l-8.5,128c0,0.1,0,0.1,0,0.2l0,0.1C43.3,366.1,43.3,366.4,43.5,366.7C43.5,366.7,43.5,366.7,43.5,366.7z"/>
		<g>
			<path class="st6" d="M132.3,343.7c0.2-0.1,0.4-0.2,0.6-0.4c0.1,0,0.1-0.1,0.2-0.1c0,0,0,0,0,0c0.1-0.1,0.2-0.1,0.2-0.2
				c0,0,0,0,0,0c0.1-0.1,0.2-0.1,0.3-0.2c0,0,0,0,0,0c0.1-0.1,0.2-0.1,0.3-0.2c0.5-0.4,0.9-0.7,1.3-1.1c0,0,0,0,0,0
				c0,0,0.1-0.1,0.1-0.1l0,0c0.1-0.1,0.1-0.1,0.2-0.2c0,0,0,0,0,0c0-0.1,0.1-0.1,0.1-0.2c0,0,0,0,0,0c0-0.1,0.1-0.1,0.1-0.2
				c0,0,0,0,0-0.1c0,0,0.1-0.1,0.1-0.2c0,0,0,0,0-0.1c0,0,0.1-0.1,0.1-0.1c0,0,0-0.1,0-0.1c0,0,0.1-0.1,0.1-0.1c0,0,0-0.1,0-0.1
				c0,0,0-0.1,0.1-0.1c0,0,0-0.1,0-0.1c0,0,0-0.1,0.1-0.1c0,0,0-0.1,0-0.1c0,0,0-0.1,0-0.1c0,0,0-0.1,0-0.1c0,0,0-0.1,0-0.1
				c0,0,0-0.1,0-0.1c0,0,0-0.1,0-0.1c0,0,0-0.1,0-0.1c0,0,0-0.1,0-0.1c0,0,0-0.1,0-0.1c0,0,0-0.1,0-0.1c0,0,0-0.1,0-0.1
				c0-0.1,0-0.1,0-0.2c0,0,0-0.1,0-0.1c0-0.1,0-0.1,0-0.2c0,0,0-0.1,0-0.1c0-0.1,0-0.2-0.1-0.3c0,0,0-0.1,0-0.1
				c-0.1-0.3-0.2-0.5-0.4-0.8l0-0.1c0-0.1-0.1-0.1-0.1-0.2l-0.3-0.3l-3.8-4.8l0,0l-0.8-1.1l-1.2,0.2c-14,1.7-50,5.1-81.7,0.3
				l-2.5-0.4l-0.7,9.9l-0.8,12.5l2.2,0.4c23.9,2.7,48.9,1.3,65.6-0.3c0.2,0,0.3,0,0.5-0.1c0,0,0.1,0,0.1,0c0,0,0,0,0.1,0
				c0,0,0,0,0,0c0.4-0.2,0.8-0.3,1.2-0.5c0,0,0,0,0,0c0.1,0,0.1-0.1,0.2-0.1c0.7-0.3,1.4-0.5,2.1-0.8c0.1-0.1,0.3-0.1,0.4-0.2
				c0.3-0.1,0.6-0.3,0.9-0.4c0.2-0.1,0.4-0.2,0.6-0.3c0.3-0.1,0.6-0.2,0.9-0.4c0.4-0.2,0.8-0.3,1.2-0.5c0.2-0.1,0.4-0.2,0.6-0.2
				c0.3-0.1,0.7-0.3,1-0.4c0.1-0.1,0.3-0.1,0.4-0.2c0.2-0.1,0.3-0.2,0.5-0.2c0.3-0.1,0.6-0.2,0.8-0.4c0.3-0.1,0.6-0.3,0.9-0.4
				c0,0,0,0,0,0c0.3-0.1,0.6-0.3,0.9-0.4c0.1,0,0.1-0.1,0.2-0.1c0.3-0.1,0.5-0.3,0.8-0.4c0,0,0,0,0,0c0,0,0,0,0,0
				c0.3-0.1,0.6-0.3,0.9-0.4c0,0,0,0,0,0c0.3-0.1,0.5-0.3,0.8-0.4c0,0,0.1,0,0.1-0.1c0.5-0.3,1-0.5,1.5-0.8c0.1,0,0.2-0.1,0.2-0.1
				c0.1,0,0.1-0.1,0.2-0.1c0,0,0,0,0,0c0.2-0.1,0.5-0.3,0.7-0.4c0,0,0.1-0.1,0.1-0.1c0.2-0.1,0.4-0.3,0.7-0.4c0,0,0,0,0,0
				c0.2-0.1,0.4-0.2,0.6-0.4C132.2,343.7,132.2,343.7,132.3,343.7z"/>
			<path class="st6" d="M122.7,319.8l-16.3-20.4l-1,0.1c-21.6,0.2-40.1-1.7-54.8-5.6l-2.4-0.8l-0.1,0.8l-0.1,2.1l-1.2,18.6l0,0
				l-0.1,2.1l2,0.3c23.7,4.8,51,4.3,69.8,3C118.5,320.1,122.7,319.8,122.7,319.8z"/>
			<path class="st6" d="M50.8,279.3c11.1,3.8,24.7,6.2,40.4,7.3c0.1,0,0.2,0,0.3,0l4.7,0l-0.6-0.8l-4.5-5.6L78.1,264l0,0l-1.5-1.9
				l-0.7-0.2c-0.1,0-0.1,0-0.2,0c-8.4-1.7-15.8-4-22-6.7l-3-1.5l-0.1,2.3l-0.3,3.8l-0.2,2.7l-0.5,6.9l-0.6,9.2L50.8,279.3z"/>
			<path class="st7" d="M39.7,242.2c0.4,1.2,1.7,1.9,2.9,1.5l12.2-3.8L67,236c1.2-0.4,1.9-1.7,1.5-2.9c-0.4-1.2-1.7-1.9-2.9-1.5
				l-7.1,2.2l4.5-9.3c0.6-1.1,0.1-2.5-1.1-3.1c-1.1-0.6-2.5-0.1-3.1,1.1l-4.3,8.9l-3-9.5c-0.4-1.2-1.7-1.9-2.9-1.5
				c-1.2,0.4-1.9,1.7-1.5,2.9l3,9.5l-8.7-4.8c-1.1-0.6-2.5-0.2-3.1,0.9c-0.6,1.1-0.2,2.5,0.9,3.1l9,5l-7.1,2.2
				C40,239.7,39.3,241,39.7,242.2z"/>
		</g>
		<g>
			<path class="st7" d="M49.7,269.4l-0.6,9.2l1.7,0.7c2.9,1,5.9,1.8,9.1,2.6l1.6-23.8c-2.7-0.9-5.3-1.9-7.6-3l-3-1.5l-0.1,2.3
				l-0.3,3.8l-0.2,2.7L49.7,269.4z"/>
			<path class="st7" d="M46.7,314.7l-0.1,2.1l2,0.3c2.9,0.6,5.8,1.1,8.8,1.5l1.5-22.8c-2.9-0.6-5.7-1.2-8.4-1.9l-2.4-0.8l-0.1,0.8
				l-0.1,2.1L46.7,314.7z"/>
			<path class="st7" d="M45,340.3l-0.8,12.5l2.2,0.4c2.9,0.3,5.8,0.6,8.6,0.8l1.5-22.2c-2.8-0.3-5.6-0.7-8.3-1.1l-2.5-0.4L45,340.3z
				"/>
		</g>
	</g>
</g>
</svg>
