<?xml version="1.0" encoding="utf-8"?>
<!-- Generator: Adobe Illustrator 19.0.0, SVG Export Plug-In . SVG Version: 6.00 Build 0)  -->
<svg version="1.1" xmlns="http://www.w3.org/2000/svg" xmlns:xlink="http://www.w3.org/1999/xlink" x="0px" y="0px"
	 viewBox="-41 164.9 2163 512" style="enable-background:new -41 164.9 2163 512;" xml:space="preserve">
<style type="text/css">
	.st0{fill:#A06047;}
	.st1{fill:#F7D443;}
	.st2{fill:#FFE269;}
	.st3{fill:#CE1D4C;}
	.st4{fill:#E84661;}
	.st5{fill:#10AC84;}
	.st6{fill:#0ABDE3;}
	.st7{fill:#EE5253;}
	.st8{fill:#F368E0;}
	.st9{fill:#FF9F43;}
	.st10{fill:#FECA57;}
	.st11{fill:#FF6B6B;}
</style>
<g id="Capa_1">
	<path class="st0" d="M1755.4,426.4c-2-0.9-2.9-3.3-2-5.3c1.8-3.9,2.6-8.1,2.6-13.3c0-11.2-4-16.5-8.6-22.7
		c-4.8-6.4-10.2-13.6-10.2-27.5c0-2.2,1.8-4,4-4s4,1.8,4,4c0,11.2,4,16.5,8.6,22.7c4.8,6.4,10.2,13.6,10.2,27.5
		c0,6.2-1.1,11.6-3.3,16.5c-0.7,1.5-2.1,2.4-3.6,2.4C1756.5,426.7,1755.9,426.6,1755.4,426.4z"/>
	<path class="st1" d="M1735,357.9h11.7c1.8,0,2.9-1.8,2.1-3.4l-3.5-6.9h-4.5h-4.5l-3.5,6.9C1732.1,356,1733.3,357.8,1735,357.9z"/>
	<ellipse class="st2" cx="1740.9" cy="285.8" rx="53" ry="61.7"/>
	<path class="st1" d="M1740.9,224.1c4,0,8,0.5,11.7,1.5c-23.6,6.2-41.3,30.8-41.3,60.2s17.6,54,41.3,60.2c-3.8,1-7.7,1.5-11.7,1.5
		c-29.3,0-53-27.6-53-61.7C1687.9,251.8,1711.6,224.1,1740.9,224.1z"/>
</g>
<g id="Ebene_6">
	<path class="st0" d="M1036,443.8c-1.5,0-3-0.9-3.6-2.4c-2.2-4.9-0.2-15.4-0.2-21.6c0-13.9,5.4-21.1,10.2-27.5
		c4.6-6.2,8.6-11.5,8.6-22.7c0-2.2,1.8-4,4-4s4,1.8,4,4c0,13.9-5.4,21.1-10.2,27.5c-4.6,6.2-8.6,11.5-8.6,22.7
		c0,5.1-2.2,14.4-0.5,18.3c0.9,2,0,4.4-2,5.3C1037.1,443.7,1036.5,443.8,1036,443.8z"/>
	<path class="st3" d="M1048.6,369.3h12c1.8,0,3-1.9,2.2-3.5l-3.6-7.1h-4.6h-4.6l-3.6,7.1C1045.6,367.4,1046.8,369.3,1048.6,369.3z"
		/>
	<ellipse class="st4" cx="1054.6" cy="295.2" rx="54.5" ry="63.4"/>
	<path class="st3" d="M1054.6,231.8c3.9,0,7.7,0.5,11.3,1.4c-24.7,6.1-43.2,31.6-43.2,62.1s18.5,56,43.2,62.1
		c-3.6,0.9-7.4,1.4-11.3,1.4c-30.1,0-54.5-28.4-54.5-63.4S1024.5,231.8,1054.6,231.8z"/>
</g>
<g id="Ebene_2">
	<g>
		<path class="st5" d="M181,426.6c-0.5,4.7-1.1,8.8-1.8,12.5c-0.7,3.6-1.9,7.1-3.7,10.3c-1.8,3.3-4.2,6.6-7.2,10.1
			c-3,3.5-6.8,7.5-11.5,11.9c-12.2,11.4-25.7,18.1-40.6,19.9c-3.4,1.3-7.8,2.8-13.3,4.5c-5.5,1.7-12,3.6-19.5,5.7l1.2,25.3
			c0.5,3.6,0.9,7.3,1.2,10.9c0.3,3.6,0.4,7.7,0.4,12.1c0,3.1,0,6.5,0,10.1c0,3.6-0.5,7-1.4,10.1c-0.9,3.1-2.6,5.7-5.1,7.8
			c-2.5,2.1-6,3.1-10.7,3.1c-4.9,0-8.6-0.9-10.9-2.7c-2.3-1.8-3.9-4.4-4.7-7.6c-0.8-3.3-1.2-7.1-1.4-11.5c-0.1-4.4-0.6-9.1-1.4-14
			v0.4c-0.3-3.4-0.5-7.4-0.8-12.1c-0.3-4.2-0.5-9.3-0.8-15.4c-0.3-6.1-0.7-13.3-1.2-21.6V494c0-1.6-0.1-3.6-0.2-6.2
			c-0.1-2.6-0.3-5.3-0.6-8.2c-0.3-2.9-0.5-5.4-0.6-7.6c-0.1-2.2-0.2-3.7-0.2-4.5c0-1.6,0.1-4.4,0.2-8.4c0.1-4,0.3-8.4,0.4-13.1
			c0.1-4.7,0.3-9.2,0.4-13.5c0.1-4.3,0.2-7.6,0.2-9.9c0-4.2-0.2-7.9-0.6-11.3c-0.4-3.4-0.8-6.5-1.4-9.4c0-0.5,0.1-2.2,0.2-5.1
			c0.1-2.9,0.3-6,0.6-9.6c0.3-3.5,0.6-7,1.2-10.5c0.5-3.5,1.2-6.4,1.9-8.8c7-3.4,15.5-5.1,25.3-5.1h3.1c11.2-3.4,21.6-5.1,31.2-5.1
			c3.6,0,13.9,1.6,30.8,4.7l17.2,9.4c4.7,2.9,8.5,5.8,11.5,8.8c3,3,5.4,6.6,7.2,10.7c1.8,4.2,3.1,9,3.9,14.6
			C180.6,411.7,181,418.5,181,426.6z M144.4,432c0.8-4.9,1.2-9.4,1.2-13.3c0-7-2.9-13.5-8.6-19.3c-5.7-5.8-15.1-8.8-28.1-8.8
			c-6,0-15.1,2.1-27.3,6.2c0.5,4.9,0.9,10.9,1.2,17.7c0.3,6.9,0.4,14.9,0.4,24c-0.3,0.5-0.4,3.1-0.4,7.8c0,2.3,0,5.1,0,8.4
			c0,3.3,0.1,7,0.4,11.1c2.3-0.3,5-0.8,8-1.6c3-0.8,5.8-1.6,8.4-2.5c2.6-0.9,5.7-2.1,9.4-3.7C127.6,453.7,139.4,445,144.4,432z"/>
		<path class="st6" d="M365.4,513.1c4.7,3.1,7,6.9,7,11.3c0,2.3-0.7,4.7-1.9,7.2c-1.3,2.5-3,4.7-5.1,6.6c-2.1,1.9-4.3,3.6-6.6,4.9
			c-2.3,1.3-4.7,1.9-7,1.9c-2.1-0.8-4.6-2.1-7.4-4.1c-2.9-2-5.7-4.2-8.6-6.6c-2.9-2.5-5.5-5.3-8-8.4c-2.5-3.1-4.4-6.2-5.7-9.4
			l-2.7,6.6c-4.9,9.4-12.7,18.2-23.4,26.5c-13,2.3-20.5,3.5-22.6,3.5c-4.9,0-10.9-0.8-17.9-2.3L234,535.8c-9.4-8.8-14-20.9-14-36.3
			c0-5.5,0.8-11.5,2.5-18.1c1.7-6.6,4.2-13.3,7.4-20.1c3.2-6.8,7.2-13.4,11.9-19.9c4.7-6.5,10.1-12.3,16.4-17.5
			c7.5-2.9,14.8-5.3,21.8-7.2c7-1.9,12.3-3.2,16-3.7c4.9-5.5,10.8-8.2,17.5-8.2c3.9,0,7.3,1.9,10.3,5.7c3,3.8,5.6,8.5,7.8,14.2
			c2.2,5.7,4,12,5.3,18.9c1.3,6.9,2.2,13.5,2.7,19.7l5.1,20.7c1.6,6.5,4.1,12.1,7.6,16.8C355.9,505.3,360.2,509.5,365.4,513.1z
			 M306.2,469.9c-0.5-0.3-2.5-8.4-5.8-24.6c-1.3,0-3.3,0-5.8,0c-2.6,0-5.7,0.7-9.2,2.1c-3.5,1.4-7.3,3.9-11.3,7.4
			c-4,3.5-7.9,8.8-11.5,15.8c-5.5,10.1-8.2,20.3-8.2,30.4c4.4,8.6,11.3,15.3,20.7,20.3c2.9-0.8,5.3-1.7,7.2-2.7
			c1.9-1,3.7-2.5,5.3-4.3c1.6-1.8,3.1-4.1,4.5-6.8c1.4-2.7,3.1-6.2,4.9-10.3c3.4-6,5.8-11.2,7.2-15.8
			C305.5,476.8,306.2,473,306.2,469.9z"/>
		<path class="st7" d="M534.3,515.9v3.1c0,1.6,0.1,4.4,0.2,8.4c0.1,4-0.3,8.1-1.2,12.3c-0.9,4.2-2.7,7.9-5.3,11.1
			c-2.6,3.3-6.5,4.9-11.7,4.9c-10.1,0-16.1-4-17.9-12.1c0.3-1.6,0.4-3.3,0.4-5.3c0-2,0-4.1,0-6.4c0-1,0-4.9,0-11.5
			s-0.2-13.8-0.6-21.6c-0.4-7.8-1.2-15.1-2.5-22c-1.3-6.9-3.3-11.2-5.8-13.1c-6-4.2-11.3-6.2-16-6.2c-6.2,0-11.5,1.9-15.8,5.7
			c-4.3,3.8-7.9,11.1-10.7,22c-0.3,3.6-0.5,7.7-0.8,12.3c-0.3,4.6-0.7,9.7-1.2,15.4c0,4.4,0.1,9.3,0.4,14.6
			c0.3,5.3,0.6,11.4,1.2,18.1c0,4.9-1.9,9-5.8,12.3c-3.9,3.2-8.3,4.9-13.3,4.9c-3.9,0-7-1-9.4-3.1c-2.3-2.1-4.1-4.8-5.3-8.2
			c-1.2-3.4-1.9-7-2.3-10.9c-0.4-3.9-0.6-7.8-0.6-11.7c0-2.9,0.1-5.8,0.4-8.8c0.3-3,0.6-6,1.2-9.2l3.1-37.4l3.1-18.7
			c-0.5-3.1-1.6-6.5-3.1-10.1c-1.6-3.6-2.3-6.5-2.3-8.6c0-4.4,1.8-8.4,5.3-12.1c3.5-3.6,7.9-5.5,13.1-5.5c3.6,0,6.4,0.7,8.2,2.1
			c1.8,1.4,4.8,4.9,9,10.3c5.2-2.3,9.4-3.8,12.5-4.5c3.1-0.6,6.8-1,10.9-1c13.5,0,25.4,3.2,35.7,9.6c10.3,6.4,16.7,17,19.3,31.8
			c0.8,5.5,1.5,10,2.1,13.6c0.6,3.6,1.2,7.2,1.8,10.5c0.5,3.4,1,7,1.6,10.7C532.5,505.4,533.2,510.2,534.3,515.9z"/>
		<path class="st8" d="M693.8,425.8c0.5,3.9,1,7,1.4,9.4c0.4,2.3,0.6,4,0.6,5.1c0,2.9-0.7,5.9-2.1,9.2c-1.4,3.3-3.2,6.4-5.3,9.6
			c-2.1,3.1-4.3,6-6.6,8.8c-2.3,2.7-4.4,5-6.2,6.8c-4.4,6-8.7,11-12.9,15c-4.2,4-8.3,7-12.5,8.8c-1.6,2.1-3.7,4.4-6.4,7
			c-2.7,2.6-5.5,5.1-8.2,7.4c-2.7,2.3-5.2,4.4-7.4,6.2c-2.2,1.8-3.4,3-3.7,3.5c6,1.8,12.3,3.1,19.1,3.9c6.8,0.8,13.2,1.4,19.3,1.8
			c6.1,0.4,11.4,0.6,16,0.6c4.5,0,7.6,0,9.2,0c0.8,0,1.4-0.1,1.9-0.2c0.5-0.1,0.9-0.2,1.2-0.2c8.8,4.2,13.3,10.3,13.3,18.3
			c0,4.7-1.2,8.8-3.7,12.5c-2.5,3.6-6,5.5-10.7,5.5c-1.6,0-3.8-0.2-6.6-0.6c-2.9-0.4-5.8-0.8-9-1.2c-3.1-0.4-6.1-0.8-9-1.2
			c-2.9-0.4-5.1-0.6-6.6-0.6c-3.6,0-8.1-0.3-13.3-0.8c-5.2-0.5-10.3-1.1-15.2-1.8c-4.9-0.6-9.2-1.2-12.9-1.8
			c-3.6-0.5-5.8-0.8-6.6-0.8c-14.8-6-24.7-13.4-29.6-22.2c1-5.7,5.6-14.4,13.6-26.1c3.4-2.9,6.9-6.2,10.5-9.9
			c3.6-3.8,7.7-8.1,12.1-13.1c7.5-6.5,14.3-12.6,20.3-18.3c6-5.7,11-11.2,15.2-16.4c-1.3-0.5-2.9-0.8-4.7-0.8c-1.8,0-3.9,0-6.2,0
			h-9.4l-15.2,1.6c-7,0.8-11.2,1.2-12.5,1.2c-6.8-0.8-10.1-6.9-10.1-18.3c0-3.4,0-6,0-7.8c0-1.8,1.2-3.3,3.5-4.5s6.3-2.3,11.9-3.3
			c5.6-1,14-2.3,25.2-3.9c6.8,0,15.1,0.7,25,2.1C670.1,417.7,681.3,420.9,693.8,425.8z"/>
		<path class="st9" d="M882.9,543.6c-8.3,8.3-17.7,15.4-28.1,21.3c-10.4,5.8-20.9,8.8-31.6,8.8c-9.6,0-22-1.6-37-4.7
			c-5.2-3.4-10.4-7.5-15.6-12.3c-5.2-4.8-9.9-10.1-14-16c-4.2-5.8-7.5-12.2-10.1-19.1c-2.6-6.9-3.9-14-3.9-21.3
			c0-2.1,0.1-4.9,0.4-8.4c0.3-3.5,0.6-7,1-10.5c0.4-3.5,0.8-7.9,1.4-13.1c5.2-8.3,10.7-16.6,16.6-24.8c5.8-8.2,14.1-15.4,24.8-21.6
			c16.9-3.6,29.1-5.5,36.7-5.5c3.9,0,7.3,0.2,10.1,0.6c2.9,0.4,5.7,1.2,8.4,2.3c2.7,1.2,5.5,2.9,8.2,5.3c2.7,2.3,5.9,5.3,9.6,9
			c4.2,4.4,7.5,7.4,9.9,9c2.5,1.6,3.7,3,3.7,4.3c0,23.9-7.4,40.2-22.2,48.7c-6.5,2.3-15,4.9-25.3,7.6c-10.4,2.7-24.6,5.3-42.5,7.6
			c3.6,9.9,8.4,17.3,14.4,22.2c6,4.9,12.7,7.4,20.3,7.4c11.2,0,25.2-6.6,42.1-19.9c2.6-2.3,5.8-3.5,9.7-3.5c4.2,0,7.9,1.6,11.1,4.7
			c3.2,3.1,4.9,7,4.9,11.7C885.6,536.8,884.7,540.2,882.9,543.6z M838.8,460.1c-4.9-8.1-10.8-12.1-17.5-12.1c-2.9,0-6,0.4-9.4,1.2
			c-3.4,0.8-6.8,1.9-10.3,3.3c-3.5,1.4-6.8,3.2-9.7,5.3c-3,2.1-5.4,4.6-7.2,7.4l-3.9,11.7c8.8-0.8,16.6-1.4,23.4-2
			c6.8-0.5,12.6-1.3,17.5-2.3c4.9-1,8.8-2.5,11.7-4.3C836.2,466.5,838,463.8,838.8,460.1z"/>
		<path class="st6" d="M1039.6,426.6c4.2,2.6,6.2,7.5,6.2,14.8c0,5.5-1.4,10.1-4.3,14c-2.9,3.9-6.8,5.8-11.7,5.8
			c-3.1,0-6.3-0.8-9.6-2.5c-3.3-1.7-6.7-2.5-10.3-2.5c-3.1,0-6.2,0.6-9.2,1.8c-3,1.2-6.4,3.7-10.3,7.6l-11.7,11.7
			c0,1.8,0.1,3.6,0.2,5.5c0.1,1.8,0.2,3.8,0.2,5.8c0,3.1-0.1,6.4-0.2,9.7c-0.1,3.4-0.3,7-0.6,10.9l3.5,35.5
			c-0.8,12-6.9,17.9-18.3,17.9c-6,0-10.4-1.9-13.3-5.7c-2.9-3.8-4.8-9-5.8-15.8c-1-6.8-1.5-14.7-1.4-23.8c0.1-9.1,0.1-19.1-0.2-30
			c-0.5-16.4-0.9-24.6-1.2-24.6v0.4c-1-3.9-1.8-7.3-2.3-10.3c-0.5-3-0.8-5.7-0.8-8c0-4.7,1.7-8.5,5.1-11.5c3.4-3,8.3-4.5,14.8-4.5
			c4.2,0,9.1,3.3,14.8,9.7c6-4.7,10.6-8.2,13.8-10.5c3.2-2.3,6-4,8.2-5.1c2.2-1,4.4-1.6,6.4-1.8c2.1-0.1,4.8-0.2,8.2-0.2
			c2.9-0.3,5.5-0.1,8,0.4c2.5,0.5,5.1,1,8,1.6L1039.6,426.6z"/>
		<path class="st5" d="M1390.2,426.6c-0.5,4.7-1.1,8.8-1.8,12.5c-0.7,3.6-1.9,7.1-3.7,10.3c-1.8,3.3-4.2,6.6-7.2,10.1
			c-3,3.5-6.8,7.5-11.5,11.9c-12.2,11.4-25.7,18.1-40.6,19.9c-3.4,1.3-7.8,2.8-13.3,4.5c-5.5,1.7-12,3.6-19.5,5.7l1.2,25.3
			c0.5,3.6,0.9,7.3,1.2,10.9c0.3,3.6,0.4,7.7,0.4,12.1c0,3.1,0,6.5,0,10.1c0,3.6-0.5,7-1.4,10.1c-0.9,3.1-2.6,5.7-5.1,7.8
			c-2.5,2.1-6,3.1-10.7,3.1c-4.9,0-8.6-0.9-10.9-2.7c-2.3-1.8-3.9-4.4-4.7-7.6c-0.8-3.3-1.2-7.1-1.4-11.5c-0.1-4.4-0.6-9.1-1.4-14
			v0.4c-0.3-3.4-0.5-7.4-0.8-12.1c-0.3-4.2-0.5-9.3-0.8-15.4c-0.3-6.1-0.7-13.3-1.2-21.6V494c0-1.6-0.1-3.6-0.2-6.2
			c-0.1-2.6-0.3-5.3-0.6-8.2c-0.3-2.9-0.5-5.4-0.6-7.6c-0.1-2.2-0.2-3.7-0.2-4.5c0-1.6,0.1-4.4,0.2-8.4c0.1-4,0.3-8.4,0.4-13.1
			c0.1-4.7,0.3-9.2,0.4-13.5c0.1-4.3,0.2-7.6,0.2-9.9c0-4.2-0.2-7.9-0.6-11.3c-0.4-3.4-0.8-6.5-1.4-9.4c0-0.5,0.1-2.2,0.2-5.1
			c0.1-2.9,0.3-6,0.6-9.6c0.3-3.5,0.6-7,1.2-10.5c0.5-3.5,1.2-6.4,1.9-8.8c7-3.4,15.5-5.1,25.3-5.1h3.1c11.2-3.4,21.6-5.1,31.2-5.1
			c3.6,0,13.9,1.6,30.8,4.7l17.2,9.4c4.7,2.9,8.5,5.8,11.5,8.8c3,3,5.4,6.6,7.2,10.7c1.8,4.2,3.1,9,3.9,14.6
			C1389.8,411.7,1390.2,418.5,1390.2,426.6z M1353.5,432c0.8-4.9,1.2-9.4,1.2-13.3c0-7-2.9-13.5-8.6-19.3
			c-5.7-5.8-15.1-8.8-28.1-8.8c-6,0-15.1,2.1-27.3,6.2c0.5,4.9,0.9,10.9,1.2,17.7c0.3,6.9,0.4,14.9,0.4,24c-0.3,0.5-0.4,3.1-0.4,7.8
			c0,2.3,0,5.1,0,8.4c0,3.3,0.1,7,0.4,11.1c2.3-0.3,5-0.8,8-1.6c3-0.8,5.8-1.6,8.4-2.5c2.6-0.9,5.7-2.1,9.4-3.7
			C1336.8,453.7,1348.6,445,1353.5,432z"/>
		<path class="st6" d="M1574.6,513.1c4.7,3.1,7,6.9,7,11.3c0,2.3-0.7,4.7-1.9,7.2c-1.3,2.5-3,4.7-5.1,6.6c-2.1,1.9-4.3,3.6-6.6,4.9
			c-2.3,1.3-4.7,1.9-7,1.9c-2.1-0.8-4.6-2.1-7.4-4.1c-2.9-2-5.7-4.2-8.6-6.6c-2.9-2.5-5.5-5.3-8-8.4c-2.5-3.1-4.4-6.2-5.7-9.4
			l-2.7,6.6c-4.9,9.4-12.7,18.2-23.4,26.5c-13,2.3-20.5,3.5-22.6,3.5c-4.9,0-10.9-0.8-17.9-2.3l-21.4-15.2c-9.4-8.8-14-20.9-14-36.3
			c0-5.5,0.8-11.5,2.5-18.1c1.7-6.6,4.2-13.3,7.4-20.1c3.2-6.8,7.2-13.4,11.9-19.9c4.7-6.5,10.1-12.3,16.4-17.5
			c7.5-2.9,14.8-5.3,21.8-7.2c7-1.9,12.3-3.2,16-3.7c4.9-5.5,10.8-8.2,17.5-8.2c3.9,0,7.3,1.9,10.3,5.7c3,3.8,5.6,8.5,7.8,14.2
			c2.2,5.7,4,12,5.3,18.9c1.3,6.9,2.2,13.5,2.7,19.7l5.1,20.7c1.6,6.5,4.1,12.1,7.6,16.8C1565.1,505.3,1569.4,509.5,1574.6,513.1z
			 M1515.4,469.9c-0.5-0.3-2.5-8.4-5.8-24.6c-1.3,0-3.3,0-5.8,0c-2.6,0-5.7,0.7-9.2,2.1c-3.5,1.4-7.3,3.9-11.3,7.4
			c-4,3.5-7.9,8.8-11.5,15.8c-5.5,10.1-8.2,20.3-8.2,30.4c4.4,8.6,11.3,15.3,20.7,20.3c2.9-0.8,5.3-1.7,7.2-2.7
			c1.9-1,3.7-2.5,5.3-4.3c1.6-1.8,3.1-4.1,4.5-6.8c1.4-2.7,3.1-6.2,4.9-10.3c3.4-6,5.8-11.2,7.2-15.8
			C1514.6,476.8,1515.4,473,1515.4,469.9z"/>
		<path class="st7" d="M1722,426.6c4.2,2.6,6.2,7.5,6.2,14.8c0,5.5-1.4,10.1-4.3,14c-2.9,3.9-6.8,5.8-11.7,5.8
			c-3.1,0-6.3-0.8-9.6-2.5c-3.3-1.7-6.7-2.5-10.3-2.5c-3.1,0-6.2,0.6-9.2,1.8c-3,1.2-6.4,3.7-10.3,7.6l-11.7,11.7
			c0,1.8,0.1,3.6,0.2,5.5c0.1,1.8,0.2,3.8,0.2,5.8c0,3.1-0.1,6.4-0.2,9.7c-0.1,3.4-0.3,7-0.6,10.9l3.5,35.5
			c-0.8,12-6.9,17.9-18.3,17.9c-6,0-10.4-1.9-13.3-5.7c-2.9-3.8-4.8-9-5.8-15.8c-1-6.8-1.5-14.7-1.4-23.8c0.1-9.1,0.1-19.1-0.2-30
			c-0.5-16.4-0.9-24.6-1.2-24.6v0.4c-1-3.9-1.8-7.3-2.3-10.3c-0.5-3-0.8-5.7-0.8-8c0-4.7,1.7-8.5,5.1-11.5c3.4-3,8.3-4.5,14.8-4.5
			c4.2,0,9.1,3.3,14.8,9.7c6-4.7,10.6-8.2,13.8-10.5c3.2-2.3,6-4,8.2-5.1c2.2-1,4.4-1.6,6.4-1.8c2.1-0.1,4.8-0.2,8.2-0.2
			c2.9-0.3,5.5-0.1,8,0.4c2.5,0.5,5.1,1,8,1.6L1722,426.6z"/>
		<path class="st8" d="M1861.6,412.2c2.9,2.3,4.3,6.6,4.3,12.9c0,11.4-4.3,17.2-12.9,17.2h-1.6c-3.9,0.3-8.5,0.6-13.6,1
			c-5.2,0.4-11.1,1-17.5,1.8c-0.5,4.2-1,9.7-1.6,16.6c-0.5,6.9-0.8,15.1-0.8,24.8c0,0.8,0.1,1.6,0.2,2.3c0.1,0.8,0.2,1.7,0.2,2.7
			v17.9c0,4.2,0.7,7.5,2.1,9.9c1.4,2.5,3.2,4.2,5.3,5.3l10.9,3.5c8.6,2.9,12.9,8.1,12.9,15.6c0,4.4-1.8,8.3-5.3,11.7
			c-3.5,3.4-8,5.1-13.5,5.1c-1.6,0-4.2-0.5-8-1.4c-3.8-0.9-7.7-2.1-11.7-3.7c-4-1.6-7.8-3.5-11.3-5.8c-3.5-2.3-5.9-4.9-7.2-7.8
			c-2.9-6-5.2-12.3-7-18.9c-1.8-6.6-2.7-13.6-2.7-20.9c0-8.1,0.1-13.8,0.4-17.2c0.3-3.4,0.5-6.4,0.8-9c0.3-2.6,0.5-5.7,0.8-9.4
			c0.3-3.6,0.4-9.6,0.4-17.9c-4.9,0.5-12.2,2.1-21.8,4.7c-5.7,0-10.6-1.5-14.6-4.5c-4-3-6-7-6-11.9c0-3.6,1.1-7,3.3-10.1
			c2.2-3.1,6.8-5.8,13.8-8.2c2.3-0.8,4.5-1.3,6.4-1.6c2-0.3,3.9-0.5,5.8-0.8c1.9-0.3,4.1-0.5,6.4-0.6c2.3-0.1,5.2-0.5,8.6-1
			c0.3-6.5,0.7-13.8,1.4-22c0.6-8.2,1.8-15.8,3.5-22.8c1.7-7,4.2-12.9,7.4-17.7c3.2-4.8,7.6-7.2,13.1-7.2c9.4,0,15.1,4.3,17.2,12.9
			c0,0.3-0.3,2-1,5.3c-0.7,3.3-1.4,6.8-2.1,10.7c-0.8,3.9-1.5,7.7-2.1,11.3c-0.7,3.6-1,6-1,7l-1.2,19.1c1.8-0.3,3.5-0.5,5.1-0.6
			c1.6-0.1,3.2-0.2,5.1-0.2h3.5c1.8,0,3.5-0.1,5.1-0.2c1.6-0.1,3-0.2,4.3-0.2C1853,409.8,1858.5,410.6,1861.6,412.2z"/>
		<path class="st9" d="M2039,444.5c-0.3,5.7-0.5,9.7-0.8,12.1c-0.3,2.3-1,4.9-2.1,7.6s-3.1,6.7-5.7,11.9c-2.6,5.2-6.2,13.5-10.9,25
			c-2.1,12.2-7.3,24.3-15.6,36.3c-4.2,12.7-8.8,21.8-14,27.3c-0.8,2.3-2.6,6-5.5,10.9c-2.9,4.9-5.9,10.2-9.2,15.8
			c-3.3,5.6-6.4,11-9.4,16.4c-3,5.3-5.1,9.4-6.4,12.3c-0.5,1.3-1.7,3.6-3.5,6.8c-1.8,3.2-4,6.6-6.4,9.9c-2.5,3.4-5.3,6.4-8.6,9.2
			c-3.3,2.7-6.4,4.1-9.6,4.1c-4.7,0-9-1.5-13.1-4.5c-4-3-6-6.6-6-10.7c0-2.1,0.9-4.7,2.7-8c1.8-3.3,4-6.8,6.6-10.5
			c2.6-3.8,5.3-7.7,8.2-11.7c2.9-4,5.3-7.7,7.4-11.1c0.8-2.1,2.2-5.2,4.3-9.4c2.1-4.2,4.4-8.5,6.8-13.1c2.5-4.6,4.8-9,7-13.3
			c2.2-4.3,3.7-7.6,4.5-9.9c-0.8-0.5-2.2-1.9-4.3-4.1c-2.1-2.2-4.4-4.5-6.8-7c-2.5-2.5-5-4.9-7.6-7.2c-2.6-2.3-4.9-4-7-5.1
			c-2.9-4.2-5.3-7.4-7.4-9.7c-2.1-2.3-4-4.3-5.7-5.8c-1.7-1.6-3.4-3.1-5.3-4.7c-1.8-1.6-3.8-3.8-6-6.6c-2.2-2.9-4.9-6.6-8.2-11.3
			c-3.3-4.7-7.1-10.9-11.5-18.7c-0.3-0.8-0.4-2-0.4-3.5c0-5.2,1.9-9.9,5.7-14c3.8-4.2,7.7-6.2,11.9-6.2c2.9,0,6.1,1.4,9.7,4.1
			c3.6,2.7,7.8,7.6,12.5,14.6c4.9,7.8,8.8,13.5,11.5,17.2c2.7,3.6,5.1,6.6,7,8.8c2,2.2,4,4.3,6.2,6.2c2.2,1.9,5.4,5.1,9.6,9.6
			c3.1,1.6,7.3,5.3,12.5,11.3l14-37.8c2.9-6.8,5.8-13.7,8.8-20.9c3-7.1,5-14,6-20.5c5.7-3.9,11.4-5.8,17.2-5.8
			C2031.9,430.5,2037.5,435.2,2039,444.5z"/>
	</g>
</g>
<g id="Ebene_3">
	<path class="st10" d="M1251.7,383.9c0.9,3.5,7.1,3.4,16.7,2.1c8.9-1.2,20.4-3.6,32.5-6.8c12.1-3.2,23.3-6.8,31.6-10.1
		c4.1-1.6,7.3-3.1,9.5-4.5c1.4-0.9,4.7-2.8,4-5.6c0,0,0-0.1,0-0.1c-0.1-0.3-0.2-0.5-0.4-0.8l0-0.1c0-0.1-0.1-0.1-0.1-0.2
		l-75.3-103.8c-0.6-0.8-1.5-1.1-2.5-0.9c-0.9,0.2-1.6,1-1.7,2l-14.4,127.4c0,0.1,0,0.1,0,0.2l0,0.1
		C1251.6,383.2,1251.6,383.5,1251.7,383.9C1251.7,383.8,1251.7,383.8,1251.7,383.9z"/>
	<path class="st9" d="M1251.7,383.9c0.7,2.7,4.4,3.3,10.4,2.8l14.1-124.3l-6-8.3c-0.6-0.8-1.5-1.1-2.5-0.9c-0.9,0.2-1.6,1-1.7,2
		l-14.4,127.4c0,0.1,0,0.1,0,0.2l0,0.1C1251.6,383.2,1251.6,383.5,1251.7,383.9C1251.7,383.8,1251.7,383.8,1251.7,383.9z"/>
	<g>
		<path class="st11" d="M1341.5,365c0.2-0.1,0.4-0.2,0.6-0.3c0.1,0,0.1-0.1,0.2-0.1c0,0,0,0,0,0c0.1,0,0.2-0.1,0.2-0.2c0,0,0,0,0,0
			c0.1-0.1,0.2-0.1,0.3-0.2c0,0,0,0,0,0c0.1-0.1,0.2-0.1,0.3-0.2c0.5-0.4,1-0.7,1.4-1.1c0,0,0,0,0,0c0,0,0.1-0.1,0.1-0.1
			c0,0,0,0,0,0c0.1-0.1,0.1-0.1,0.2-0.2c0,0,0,0,0,0c0.1-0.1,0.1-0.1,0.1-0.2c0,0,0,0,0,0c0-0.1,0.1-0.1,0.1-0.2c0,0,0,0,0-0.1
			c0,0,0.1-0.1,0.1-0.1c0,0,0,0,0-0.1c0,0,0.1-0.1,0.1-0.1c0,0,0,0,0-0.1c0,0,0.1-0.1,0.1-0.1c0,0,0-0.1,0-0.1c0,0,0-0.1,0.1-0.1
			c0,0,0-0.1,0-0.1c0,0,0-0.1,0.1-0.1c0,0,0-0.1,0-0.1c0,0,0-0.1,0.1-0.1c0,0,0-0.1,0-0.1c0,0,0-0.1,0-0.1c0,0,0-0.1,0-0.1
			c0,0,0-0.1,0-0.1c0,0,0-0.1,0-0.1c0,0,0-0.1,0-0.1c0,0,0-0.1,0-0.1c0,0,0-0.1,0-0.1c0,0,0-0.1,0-0.1c0-0.1,0-0.1,0-0.2
			c0,0,0-0.1,0-0.1c0-0.1,0-0.1,0-0.2c0,0,0-0.1,0-0.1c0-0.1,0-0.2-0.1-0.3c0,0,0-0.1,0-0.1c-0.1-0.3-0.2-0.5-0.4-0.8l0-0.1
			c0-0.1-0.1-0.1-0.1-0.2l-0.2-0.3l-3.6-5l0,0l-0.8-1.1l-1.2,0.1c-14.1,1-50.2,2.8-81.6-3.5l-2.5-0.5l-1.1,9.9l-1.4,12.4l2.2,0.5
			c23.7,3.8,48.7,3.6,65.5,2.8c0.2,0,0.3,0,0.5-0.1c0,0,0.1,0,0.1,0c0,0,0,0,0.1,0c0,0,0,0,0,0c0.4-0.1,0.8-0.3,1.2-0.4c0,0,0,0,0,0
			c0.1,0,0.1,0,0.2-0.1c0.7-0.2,1.4-0.5,2.1-0.7c0.1,0,0.3-0.1,0.4-0.1c0.3-0.1,0.6-0.2,0.9-0.3c0.2-0.1,0.4-0.2,0.6-0.2
			c0.3-0.1,0.6-0.2,0.9-0.3c0.4-0.1,0.8-0.3,1.2-0.4c0.2-0.1,0.4-0.1,0.6-0.2c0.3-0.1,0.7-0.3,1-0.4c0.1-0.1,0.3-0.1,0.4-0.2
			c0.2-0.1,0.3-0.1,0.5-0.2c0.3-0.1,0.6-0.2,0.8-0.3c0.3-0.1,0.6-0.2,0.9-0.4c0,0,0,0,0,0c0.3-0.1,0.6-0.3,0.9-0.4
			c0.1,0,0.1-0.1,0.2-0.1c0.3-0.1,0.6-0.2,0.8-0.4c0,0,0,0,0,0c0,0,0,0,0,0c0.3-0.1,0.6-0.3,0.9-0.4c0,0,0,0,0,0
			c0.3-0.1,0.5-0.2,0.8-0.4c0,0,0.1,0,0.1,0c0.5-0.2,1.1-0.5,1.6-0.7c0.1,0,0.2-0.1,0.2-0.1c0.1,0,0.1-0.1,0.2-0.1c0,0,0,0,0,0
			c0.2-0.1,0.5-0.2,0.7-0.4c0,0,0.1,0,0.1-0.1c0.2-0.1,0.5-0.2,0.7-0.4c0,0,0,0,0,0c0.2-0.1,0.4-0.2,0.6-0.3
			C1341.4,365,1341.5,365,1341.5,365z"/>
		<path class="st11" d="M1333,340.6l-15.3-21.1l-1,0.1c-21.6-0.8-40-3.5-54.5-8.1l-2.3-0.9l-0.1,0.8l-0.2,2.1l-2.1,18.5l0,0
			l-0.2,2.1l2,0.4c23.5,5.9,50.8,6.6,69.5,6.2C1328.8,340.8,1333,340.6,1333,340.6z"/>
		<path class="st11" d="M1263.1,296.9c10.9,4.3,24.4,7.4,40.1,9.2c0.1,0,0.2,0,0.3,0l4.7,0.2l-0.6-0.8l-4.2-5.8l-12.2-16.8l0,0
			l-1.4-1.9l-0.7-0.2c-0.1,0-0.1,0-0.2,0c-8.3-2.1-15.6-4.7-21.7-7.8l-2.9-1.6l-0.3,2.2l-0.4,3.8l-0.3,2.7l-0.8,6.9l-1,9.2
			L1263.1,296.9z"/>
		<path class="st7" d="M1253.8,259.3c0.3,1.2,1.6,2,2.8,1.6l12.4-3.3l12.4-3.3c1.2-0.3,2-1.6,1.6-2.8c-0.3-1.2-1.6-2-2.8-1.6
			l-7.2,1.9l5-9.1c0.6-1.1,0.2-2.5-0.9-3.1c-1.1-0.6-2.5-0.2-3.1,0.9l-4.8,8.7l-2.5-9.6c-0.3-1.2-1.6-2-2.8-1.6
			c-1.2,0.3-2,1.6-1.6,2.8l2.5,9.6l-8.4-5.2c-1.1-0.7-2.5-0.3-3.2,0.7c-0.7,1.1-0.3,2.5,0.7,3.2l8.8,5.5l-7.2,1.9
			C1254.2,256.8,1253.4,258.1,1253.8,259.3z"/>
	</g>
	<g>
		<path class="st7" d="M1262.5,286.9l-1,9.2l1.6,0.8c2.8,1.1,5.8,2.1,8.9,3.1l2.7-23.7c-2.7-1-5.2-2.1-7.5-3.3l-2.9-1.6l-0.3,2.2
			l-0.4,3.8l-0.3,2.7L1262.5,286.9z"/>
		<path class="st7" d="M1257.4,332.1l-0.2,2.1l2,0.4c2.9,0.7,5.8,1.4,8.7,1.9l2.6-22.7c-2.9-0.7-5.7-1.5-8.3-2.3l-2.3-0.9l-0.1,0.8
			l-0.2,2.1L1257.4,332.1z"/>
		<path class="st7" d="M1254.5,357.6l-1.4,12.4l2.2,0.5c2.9,0.5,5.7,0.8,8.6,1.2l2.5-22.1c-2.8-0.4-5.6-0.9-8.3-1.5l-2.5-0.5
			L1254.5,357.6z"/>
	</g>
</g>
<g id="Ebene_4">
</g>
<g id="Ebene_5">
	<path class="st10" d="M43.5,386.7c1.1,3.5,7.3,3.1,16.8,1.4c8.8-1.6,20.2-4.6,32.1-8.3c11.9-3.7,23-7.8,31.1-11.5
		c4-1.8,7.2-3.5,9.3-4.9c1.4-0.9,4.6-3.1,3.7-5.8c0,0,0-0.1,0-0.1c-0.1-0.3-0.2-0.5-0.4-0.8l0-0.1c0-0.1-0.1-0.1-0.1-0.2L55.9,256.2
		c-0.6-0.7-1.6-1-2.5-0.8c-0.9,0.3-1.5,1.1-1.6,2l-8.5,128c0,0.1,0,0.1,0,0.2l0,0.1C43.3,386.1,43.3,386.4,43.5,386.7
		C43.5,386.7,43.5,386.7,43.5,386.7z"/>
	<path class="st9" d="M43.5,386.7c0.8,2.7,4.6,3.1,10.5,2.4l8.3-124.8l-6.4-8c-0.6-0.7-1.6-1-2.5-0.8c-0.9,0.3-1.5,1.1-1.6,2
		l-8.5,128c0,0.1,0,0.1,0,0.2l0,0.1C43.3,386.1,43.3,386.4,43.5,386.7C43.5,386.7,43.5,386.7,43.5,386.7z"/>
	<g>
		<path class="st11" d="M132.3,363.7c0.2-0.1,0.4-0.2,0.6-0.4c0.1,0,0.1-0.1,0.2-0.1c0,0,0,0,0,0c0.1-0.1,0.2-0.1,0.2-0.2
			c0,0,0,0,0,0c0.1-0.1,0.2-0.1,0.3-0.2c0,0,0,0,0,0c0.1-0.1,0.2-0.1,0.3-0.2c0.5-0.4,0.9-0.7,1.3-1.1c0,0,0,0,0,0
			c0,0,0.1-0.1,0.1-0.1c0,0,0,0,0,0c0.1-0.1,0.1-0.1,0.2-0.2c0,0,0,0,0,0c0-0.1,0.1-0.1,0.1-0.2c0,0,0,0,0,0c0-0.1,0.1-0.1,0.1-0.2
			c0,0,0,0,0-0.1c0,0,0.1-0.1,0.1-0.2c0,0,0,0,0-0.1c0,0,0.1-0.1,0.1-0.1c0,0,0-0.1,0-0.1c0,0,0.1-0.1,0.1-0.1c0,0,0-0.1,0-0.1
			c0,0,0-0.1,0.1-0.1c0,0,0-0.1,0-0.1c0,0,0-0.1,0.1-0.1c0,0,0-0.1,0-0.1c0,0,0-0.1,0-0.1c0,0,0-0.1,0-0.1c0,0,0-0.1,0-0.1
			c0,0,0-0.1,0-0.1c0,0,0-0.1,0-0.1c0,0,0-0.1,0-0.1c0,0,0-0.1,0-0.1c0,0,0-0.1,0-0.1c0,0,0-0.1,0-0.1c0,0,0-0.1,0-0.1
			c0-0.1,0-0.1,0-0.2c0,0,0-0.1,0-0.1c0-0.1,0-0.1,0-0.2c0,0,0-0.1,0-0.1c0-0.1,0-0.2-0.1-0.3c0,0,0-0.1,0-0.1
			c-0.1-0.3-0.2-0.5-0.4-0.8l0-0.1c0-0.1-0.1-0.1-0.1-0.2l-0.3-0.3l-3.8-4.8l0,0l-0.8-1.1l-1.2,0.2c-14,1.7-50,5.1-81.7,0.3
			l-2.5-0.4l-0.7,9.9l-0.8,12.5l2.2,0.4c23.9,2.7,48.9,1.3,65.6-0.3c0.2,0,0.3,0,0.5-0.1c0,0,0.1,0,0.1,0c0,0,0,0,0.1,0c0,0,0,0,0,0
			c0.4-0.2,0.8-0.3,1.2-0.5c0,0,0,0,0,0c0.1,0,0.1-0.1,0.2-0.1c0.7-0.3,1.4-0.5,2.1-0.8c0.1-0.1,0.3-0.1,0.4-0.2
			c0.3-0.1,0.6-0.3,0.9-0.4c0.2-0.1,0.4-0.2,0.6-0.3c0.3-0.1,0.6-0.2,0.9-0.4c0.4-0.2,0.8-0.3,1.2-0.5c0.2-0.1,0.4-0.2,0.6-0.2
			c0.3-0.1,0.7-0.3,1-0.4c0.1-0.1,0.3-0.1,0.4-0.2c0.2-0.1,0.3-0.2,0.5-0.2c0.3-0.1,0.6-0.2,0.8-0.4c0.3-0.1,0.6-0.3,0.9-0.4
			c0,0,0,0,0,0c0.3-0.1,0.6-0.3,0.9-0.4c0.1,0,0.1-0.1,0.2-0.1c0.3-0.1,0.5-0.3,0.8-0.4c0,0,0,0,0,0c0,0,0,0,0,0
			c0.3-0.1,0.6-0.3,0.9-0.4c0,0,0,0,0,0c0.3-0.1,0.5-0.3,0.8-0.4c0,0,0.1,0,0.1-0.1c0.5-0.3,1-0.5,1.5-0.8c0.1,0,0.2-0.1,0.2-0.1
			c0.1,0,0.1-0.1,0.2-0.1c0,0,0,0,0,0c0.2-0.1,0.5-0.3,0.7-0.4c0,0,0.1-0.1,0.1-0.1c0.2-0.1,0.4-0.3,0.7-0.4c0,0,0,0,0,0
			c0.2-0.1,0.4-0.2,0.6-0.4C132.2,363.7,132.2,363.7,132.3,363.7z"/>
		<path class="st11" d="M122.7,339.8l-16.3-20.4l-1,0.1c-21.6,0.2-40.1-1.7-54.8-5.6l-2.4-0.8l-0.1,0.8l-0.1,2.1l-1.2,18.6l0,0
			l-0.1,2.1l2,0.3c23.7,4.8,51,4.3,69.8,3C118.5,340.1,122.7,339.8,122.7,339.8z"/>
		<path class="st11" d="M50.8,299.3c11.1,3.8,24.7,6.2,40.4,7.3c0.1,0,0.2,0,0.3,0l4.7,0l-0.6-0.8l-4.5-5.6L78.1,284l0,0l-1.5-1.9
			l-0.7-0.2c-0.1,0-0.1,0-0.2,0c-8.4-1.7-15.8-4-22-6.7l-3-1.5l-0.1,2.3l-0.3,3.8l-0.2,2.7l-0.5,6.9l-0.6,9.2L50.8,299.3z"/>
		<path class="st7" d="M39.7,262.2c0.4,1.2,1.7,1.9,2.9,1.5l12.2-3.8L67,256c1.2-0.4,1.9-1.7,1.5-2.9c-0.4-1.2-1.7-1.9-2.9-1.5
			l-7.1,2.2l4.5-9.3c0.6-1.1,0.1-2.5-1.1-3.1c-1.1-0.6-2.5-0.1-3.1,1.1l-4.3,8.9l-3-9.5c-0.4-1.2-1.7-1.9-2.9-1.5
			c-1.2,0.4-1.9,1.7-1.5,2.9l3,9.5l-8.7-4.8c-1.1-0.6-2.5-0.2-3.1,0.9c-0.6,1.1-0.2,2.5,0.9,3.1l9,5l-7.1,2.2
			C40,259.7,39.3,261,39.7,262.2z"/>
	</g>
	<g>
		<path class="st7" d="M49.7,289.4l-0.6,9.2l1.7,0.7c2.9,1,5.9,1.8,9.1,2.6l1.6-23.8c-2.7-0.9-5.3-1.9-7.6-3l-3-1.5l-0.1,2.3
			l-0.3,3.8l-0.2,2.7L49.7,289.4z"/>
		<path class="st7" d="M46.7,334.7l-0.1,2.1l2,0.3c2.9,0.6,5.8,1.1,8.8,1.5l1.5-22.8c-2.9-0.6-5.7-1.2-8.4-1.9l-2.4-0.8l-0.1,0.8
			l-0.1,2.1L46.7,334.7z"/>
		<path class="st7" d="M45,360.3l-0.8,12.5l2.2,0.4c2.9,0.3,5.8,0.6,8.6,0.8l1.5-22.2c-2.8-0.3-5.6-0.7-8.3-1.1l-2.5-0.4L45,360.3z"
			/>
	</g>
</g>
</svg>
