<?xml version="1.0" encoding="utf-8"?>
<!-- Generator: Adobe Illustrator 19.0.0, SVG Export Plug-In . SVG Version: 6.00 Build 0)  -->
<svg version="1.1" xmlns="http://www.w3.org/2000/svg" xmlns:xlink="http://www.w3.org/1999/xlink" x="0px" y="0px"
	 viewBox="185 -191 634.6 429" style="enable-background:new 185 -191 634.6 429;" xml:space="preserve">
<style type="text/css">
	.st0{fill:#10AC84;}
	.st1{fill:#1DD1A1;}
	.st2{fill:#576574;}
	.st3{fill:#222F3E;}
	.st4{fill:#FECA57;}
	.st5{fill:#FF9F43;}
	.st6{fill:#FF6B6B;}
	.st7{fill:#EE5253;}
	.st8{fill:#2E86DE;}
</style>
<g id="Tank">
</g>
<g id="Ebene_4">
	<path class="st0" d="M639-47.5l10.4,25.2L487.1,44.7l-2.3,0.3c-2.4-8.7-6.7-16.8-12.6-23.7L639-47.5z"/>
	<path class="st1" d="M490.7,60.4v11.7H301.5V60.4c0-8.2,1.6-16.3,4.7-23.8c3.1-7.5,7.6-14.3,13.5-20.1
		c11.6-11.6,27.5-18.2,43.9-18.2h65c8.2,0,16.3,1.6,23.8,4.7c7.5,3.1,14.3,7.6,20.1,13.5c1.2,1.2,2.3,2.4,3.3,3.6
		c5.9,6.9,10.2,15,12.6,23.7C490,49.1,490.7,54.7,490.7,60.4z"/>
	<path class="st0" d="M355.2,36.6c3.1-7.5,7.6-14.3,13.5-20.1c11.6-11.6,27.5-18.2,43.9-18.2h-49c-16.5,0-32.3,6.5-43.9,18.2
		c-5.8,5.8-10.4,12.7-13.5,20.1c-3.1,7.5-4.7,15.5-4.7,23.8v11.7h49V60.4C350.5,52.1,352.1,44.1,355.2,36.6z"/>
	<path class="st1" d="M696.7-72.7l10.4,25.3c1.5,3.7-0.2,7.8-3.9,9.3l-48.1,19.8c-3.7,1.5-7.8-0.2-9.3-3.9l0,0l-10.4-25.2l0,0
		c-1.5-3.6,0.2-7.8,3.9-9.3l48.1-19.8C691-78.1,695.2-76.4,696.7-72.7z"/>
	<path class="st0" d="M703.2-38.1l-48.1,19.8c-3.7,1.5-7.8-0.2-9.3-3.9l-4.2-10.3c1.5,3.7,5.7,5.4,9.3,3.9L699-48.4
		c3.6-1.5,5.4-5.6,3.9-9.2l4.2,10.2C708.6-43.8,706.9-39.6,703.2-38.1z"/>
	<g>
		<path class="st2" d="M342.7,188.7c0-14.1-11.5-25.6-25.6-25.6c-14.1,0-25.6,11.5-25.6,25.6c0,14.1,11.5,25.6,25.6,25.6
			C331.2,214.3,342.7,202.8,342.7,188.7z"/>
		<path class="st2" d="M432.2,193.1c0-11.7-9.5-21.2-21.2-21.2c-11.7,0-21.1,9.5-21.1,21.2s9.5,21.2,21.1,21.2
			C422.7,214.3,432.2,204.8,432.2,193.1z"/>
		<path class="st2" d="M538.7,187c0-15-12.2-27.2-27.2-27.2c-15,0-27.2,12.2-27.2,27.2s12.2,27.2,27.2,27.2
			C526.5,214.3,538.7,202.1,538.7,187z"/>
		<path class="st2" d="M601.5,172.3c5.1-3.5,8.5-9.3,8.5-16c0-10.7-8.6-19.3-19.3-19.3c-10.7,0-19.3,8.6-19.3,19.3
			c0,10.7,8.6,19.3,19.3,19.3C594.7,175.6,598.5,174.4,601.5,172.3z"/>
		<path class="st2" d="M222.6,183.5c2.5,0.9,5.2,1.4,8.1,1.4c13,0,23.6-10.6,23.6-23.6c0-13-10.6-23.6-23.6-23.6
			c-13,0-23.6,10.6-23.6,23.6C207.1,171.5,213.5,180.2,222.6,183.5C222.6,183.5,222.6,183.5,222.6,183.5z"/>
	</g>
	<path class="st0" d="M601.5,172.3l-30.8,29.6c-8.3,7.9-19.3,12.4-30.8,12.4h-28.5c15,0,27.2-12.2,27.2-27.2s-12.2-27.2-27.2-27.2
		c-15,0-27.2,12.2-27.2,27.2s12.2,27.2,27.2,27.2H411c11.7,0,21.2-9.5,21.2-21.2S422.7,172,411,172c-11.7,0-21.1,9.5-21.1,21.2
		s9.5,21.2,21.1,21.2h-94c14.1,0,25.6-11.5,25.6-25.6c0-14.1-11.5-25.6-25.6-25.6c-14.1,0-25.6,11.5-25.6,25.6
		c0,14.1,11.5,25.6,25.6,25.6h-18.9c-6.8,0-13.4-1.3-19.7-3.9l-55.8-26.9c2.5,0.9,5.2,1.4,8.1,1.4c13,0,23.6-10.6,23.6-23.6
		c0-13-10.6-23.6-23.6-23.6l360-0.7c-10.7,0-19.3,8.6-19.3,19.3c0,10.7,8.6,19.3,19.3,19.3C594.7,175.6,598.5,174.4,601.5,172.3z"/>
	<path class="st1" d="M559,107.3H248.8h-15.6l16-30.4c2.2-4.1,6.4-6.7,11.1-6.7h41.2h189.2h21.5L559,107.3z"/>
	<g>
		<path class="st0" d="M301.5,70.3h-41.2c-4.7,0-8.9,2.6-11.1,6.7l-16,30.4h15.6h47.9l19.5-37.1H301.5z"/>
		<path class="st0" d="M614.9,129.8l-19.9-13.4H248.8c-11.8,0-23.2,2.4-34,7l-12,5.1l-7.2-16.7l12-5.2c13.1-5.6,26.9-8.5,41.2-8.5
			h349c1.8,0,3.6,0.5,5.1,1.6l22.2,15L614.9,129.8z"/>
	</g>
	<g>
		<path class="st3" d="M317.1,222.1c-18.5,0-33.5-15-33.5-33.5s15-33.5,33.5-33.5c18.5,0,33.5,15,33.5,33.5S335.5,222.1,317.1,222.1
			z M317.1,170.9c-9.8,0-17.8,8-17.8,17.7s8,17.7,17.8,17.7c9.8,0,17.7-8,17.7-17.7C334.8,178.9,326.8,170.9,317.1,170.9z"/>
		<path class="st3" d="M411,222.1c-16,0-29-13-29-29s13-29,29-29c16,0,29,13,29,29S427,222.1,411,222.1z M411,179.8
			c-7.3,0-13.3,6-13.3,13.3s6,13.3,13.3,13.3c7.3,0,13.3-6,13.3-13.3S418.4,179.8,411,179.8z"/>
		<path class="st3" d="M511.5,222.1c-19.4,0-35.1-15.7-35.1-35.1c0-19.4,15.7-35.1,35.1-35.1c19.4,0,35.1,15.7,35.1,35.1
			C546.6,206.4,530.8,222.1,511.5,222.1z M511.5,167.6c-10.7,0-19.4,8.7-19.4,19.4c0,10.7,8.7,19.4,19.4,19.4
			c10.7,0,19.4-8.7,19.4-19.4C530.9,176.3,522.2,167.6,511.5,167.6z"/>
		<path class="st3" d="M590.7,183.5c-15,0-27.2-12.2-27.2-27.2s12.2-27.2,27.2-27.2c15,0,27.2,12.2,27.2,27.2
			c0,9-4.4,17.4-11.9,22.5C601.5,181.9,596.2,183.5,590.7,183.5z M590.7,144.9c-6.3,0-11.5,5.1-11.5,11.4s5.1,11.4,11.5,11.4
			c2.3,0,4.5-0.7,6.4-2c0,0,0,0,0,0c3.1-2.1,5-5.7,5-9.5C602.1,150,597,144.9,590.7,144.9z"/>
		<path class="st3" d="M230.7,192.8c-3.7,0-7.3-0.6-10.7-1.9c-0.1,0-0.1-0.1-0.2-0.1c-12.3-4.6-20.5-16.4-20.5-29.5
			c0-17.3,14.1-31.5,31.5-31.5s31.5,14.1,31.5,31.5C262.1,178.7,248,192.8,230.7,192.8z M225.4,176.2c1.7,0.6,3.4,0.9,5.2,0.9
			c8.7,0,15.7-7.1,15.7-15.7s-7.1-15.7-15.7-15.7c-8.7,0-15.7,7.1-15.7,15.7c0,6.6,4.1,12.5,10.3,14.8
			C225.3,176.1,225.4,176.2,225.4,176.2z"/>
		<path class="st3" d="M540,222.1H298.1c-7.8,0-15.4-1.5-22.7-4.4c-0.2-0.1-0.3-0.1-0.5-0.2l-55.5-26.7
			c-12.2-4.6-20.3-16.4-20.3-29.4c0-17.3,14.1-31.5,31.5-31.5l360-0.7c0,0,0,0,0,0c15,0,27.2,12.2,27.2,27.2c0,8.8-4.2,17-11.3,22.1
			l-30.4,29.2C566.4,216.9,553.5,222.1,540,222.1z M281.6,203.2c5.3,2.1,10.9,3.2,16.5,3.2H540c9.5,0,18.5-3.6,25.3-10.2l30.8-29.6
			c0.3-0.3,0.7-0.6,1-0.8c3.1-2.1,5-5.7,5-9.5c0-6.3-5.1-11.4-11.4-11.4l-360,0.7c-8.7,0-15.7,7.1-15.7,15.7
			c0,6.6,4.1,12.5,10.2,14.8c0.3,0.1,0.6,0.2,0.9,0.4L281.6,203.2z"/>
	</g>
	<path class="st0" d="M313.5,32.7c1.1,4.9,9.6,5.2,22.9,4c12.3-1.1,28.3-3.7,45.2-7.3c16.9-3.6,32.6-7.8,44.2-11.9
		c5.8-2,10.3-3.9,13.4-5.5c2-1.1,6.7-3.6,5.9-7.5c0,0,0-0.1,0-0.1c-0.1-0.4-0.2-0.8-0.5-1.1l-0.1-0.1c0-0.1-0.1-0.2-0.1-0.2l-1.9-3
		c-0.7-1.1-55.2-5.6-56.5-5.3c-1.3,0.3-69.5,17.2-69.8,18.5L313.5,31c0,0.1,0,0.2,0,0.3l0,0.1C313.4,31.8,313.4,32.2,313.5,32.7
		C313.5,32.7,313.5,32.7,313.5,32.7z"/>
</g>
<g id="Hat">
	<path class="st4" d="M309.6,26.8c1.1,4.9,9.6,5.2,22.9,4c12.3-1.1,28.3-3.7,45.2-7.3c16.9-3.6,32.6-7.8,44.2-11.9
		c5.8-2,10.3-3.9,13.4-5.5c2-1.1,6.7-3.6,5.9-7.5c0,0,0-0.1,0-0.1c-0.1-0.4-0.2-0.8-0.5-1.1l-0.1-0.1c0-0.1-0.1-0.2-0.1-0.2
		l-97.2-147.7c-0.7-1.1-2-1.6-3.3-1.4c-1.3,0.3-2.3,1.3-2.5,2.6L309.6,25.1c0,0.1,0,0.2,0,0.3l0,0.1
		C309.5,25.9,309.5,26.3,309.6,26.8C309.6,26.8,309.6,26.8,309.6,26.8z"/>
	<path class="st5" d="M309.6,26.8c0.8,3.8,5.9,4.8,14.2,4.6l27.3-170.3l-7.8-11.8c-0.7-1.1-2-1.6-3.3-1.4c-1.3,0.3-2.3,1.3-2.5,2.6
		L309.6,25.1c0,0.1,0,0.2,0,0.3l0,0.1C309.5,25.9,309.5,26.3,309.6,26.8C309.6,26.8,309.6,26.8,309.6,26.8z"/>
	<g>
		<path class="st6" d="M434.5,6.5c0.3-0.1,0.5-0.3,0.8-0.4c0.1-0.1,0.2-0.1,0.3-0.2c0,0,0,0,0.1,0c0.1-0.1,0.2-0.1,0.3-0.2
			c0,0,0,0,0.1,0c0.1-0.1,0.2-0.1,0.4-0.2c0,0,0,0,0.1,0c0.1-0.1,0.3-0.2,0.4-0.3c0.7-0.5,1.4-0.9,1.9-1.4c0,0,0,0,0,0
			c0.1-0.1,0.1-0.1,0.2-0.2c0,0,0,0,0,0c0.1-0.1,0.2-0.2,0.3-0.2c0,0,0,0,0,0c0.1-0.1,0.1-0.1,0.2-0.2c0,0,0,0,0.1-0.1
			c0.1-0.1,0.1-0.1,0.2-0.2c0,0,0,0,0.1-0.1c0.1-0.1,0.1-0.1,0.2-0.2c0,0,0-0.1,0.1-0.1c0-0.1,0.1-0.1,0.1-0.2c0,0,0-0.1,0.1-0.1
			c0-0.1,0.1-0.1,0.1-0.2c0,0,0-0.1,0.1-0.1c0-0.1,0.1-0.1,0.1-0.2c0,0,0-0.1,0.1-0.1c0-0.1,0.1-0.1,0.1-0.2c0,0,0-0.1,0.1-0.1
			c0-0.1,0.1-0.1,0.1-0.2c0,0,0-0.1,0.1-0.1c0-0.1,0-0.1,0.1-0.2c0,0,0-0.1,0-0.1c0-0.1,0-0.1,0-0.2c0,0,0-0.1,0-0.1
			c0-0.1,0-0.1,0-0.2c0,0,0-0.1,0-0.1c0-0.1,0-0.1,0-0.2c0,0,0-0.1,0-0.1c0-0.1,0-0.1,0-0.2c0,0,0-0.1,0-0.1c0-0.1,0-0.2,0-0.2
			c0,0,0-0.1,0-0.1c0-0.1,0-0.2-0.1-0.4c0,0,0-0.1,0-0.1c-0.1-0.4-0.2-0.8-0.5-1.1l-0.1-0.1c0-0.1-0.1-0.2-0.1-0.2l-0.3-0.5
			l-4.7-7.1l0,0l-1-1.6l-1.7,0.1c-19.5,0.6-69.3,0.7-112.2-9.9l-3.4-0.8l-2.2,13.6l-2.7,17l2.9,0.8c32.5,6.7,66.9,8,90.1,7.9
			c0.2,0,0.4,0,0.7-0.1c0.1,0,0.1,0,0.2,0c0,0,0.1,0,0.1,0c0,0,0,0,0.1,0c0.6-0.2,1.1-0.3,1.7-0.5c0,0,0,0,0,0
			c0.1,0,0.2-0.1,0.3-0.1c1-0.3,2-0.6,3-0.9c0.2-0.1,0.4-0.1,0.5-0.2c0.4-0.1,0.9-0.3,1.3-0.4c0.3-0.1,0.6-0.2,0.9-0.3
			c0.4-0.1,0.8-0.3,1.3-0.4c0.6-0.2,1.1-0.4,1.7-0.5c0.3-0.1,0.5-0.2,0.8-0.3c0.5-0.2,0.9-0.3,1.4-0.5c0.2-0.1,0.4-0.1,0.6-0.2
			c0.2-0.1,0.5-0.2,0.7-0.2c0.4-0.1,0.8-0.3,1.2-0.4c0.4-0.1,0.9-0.3,1.3-0.4c0,0,0,0,0,0c0.4-0.2,0.9-0.3,1.3-0.5
			c0.1,0,0.2-0.1,0.3-0.1c0.4-0.1,0.8-0.3,1.2-0.4c0,0,0,0,0,0c0,0,0,0,0,0c0.4-0.2,0.9-0.3,1.3-0.5c0,0,0,0,0.1,0
			c0.4-0.1,0.8-0.3,1.1-0.4c0,0,0.1,0,0.1-0.1c0.8-0.3,1.5-0.6,2.2-0.9c0.1,0,0.2-0.1,0.3-0.1c0.1,0,0.2-0.1,0.3-0.1c0,0,0,0,0,0
			c0.3-0.2,0.7-0.3,1-0.4c0.1,0,0.1-0.1,0.2-0.1c0.3-0.2,0.6-0.3,1-0.4c0,0,0,0,0,0c0.3-0.1,0.6-0.3,0.9-0.4
			C434.4,6.6,434.5,6.6,434.5,6.5z"/>
		<path class="st6" d="M424.4-27.5l-19.8-30.1l-1.4,0c-29.7-2.5-54.8-7.4-74.6-14.6l-3.1-1.3l-0.2,1.1l-0.5,2.8l-4.1,25.4l0,0
			l-0.5,2.9l2.7,0.6c32,9.6,69.5,12.3,95.4,13C418.6-27.6,424.4-27.5,424.4-27.5z"/>
		<path class="st6" d="M330.8-92.3c14.7,6.6,33.1,11.7,54.6,15.2c0.1,0,0.3,0,0.4,0l6.4,0.6l-0.8-1.1l-5.4-8.3l-15.7-23.9l0,0
			l-1.8-2.8l-0.9-0.3c-0.1,0-0.1,0-0.2-0.1c-11.3-3.4-21.2-7.4-29.4-12.1l-3.9-2.4l-0.5,3.1l-0.8,5.2l-0.6,3.6l-1.5,9.5l-2,12.6
			L330.8-92.3z"/>
		<path class="st7" d="M320.4-144.6c0.4,1.7,2.1,2.8,3.8,2.4l17.2-3.7l17.2-3.7c1.7-0.4,2.8-2.1,2.4-3.8c-0.4-1.7-2.1-2.8-3.8-2.4
			l-10,2.2l7.4-12.2c0.9-1.5,0.4-3.5-1.1-4.4c-1.5-0.9-3.5-0.4-4.4,1.1l-7.1,11.7l-2.9-13.4c-0.4-1.7-2.1-2.8-3.8-2.4
			s-2.8,2.1-2.4,3.8l2.9,13.4l-11.3-7.7c-1.4-1-3.4-0.6-4.4,0.8c-1,1.4-0.6,3.4,0.8,4.4l11.8,8.1l-10,2.2
			C321.1-148,320-146.3,320.4-144.6z"/>
	</g>
	<g>
		<path class="st7" d="M330.6-106l-2,12.6l2.2,1.2c3.8,1.7,7.8,3.3,12.1,4.8l5.2-32.4c-3.6-1.6-7-3.3-10.1-5l-3.9-2.4l-0.5,3.1
			l-0.8,5.2l-0.6,3.6L330.6-106z"/>
		<path class="st7" d="M320.7-44.2l-0.5,2.9l2.7,0.6c3.9,1.2,7.9,2.2,11.9,3.2l5-31.1c-3.9-1.2-7.7-2.4-11.3-3.7l-3.1-1.3l-0.2,1.1
			l-0.5,2.8L320.7-44.2z"/>
		<path class="st7" d="M315.1-9.2l-2.7,17l2.9,0.8c3.9,0.8,7.8,1.5,11.8,2.2l4.9-30.2c-3.8-0.8-7.6-1.6-11.3-2.5l-3.4-0.8L315.1-9.2
			z"/>
	</g>
</g>
<g id="Confetti">
	<g>
		<path class="st7" d="M735.6-84.8c-0.9-0.3-1.7-1-2-2c-0.5-1.5,0.4-3.2,2-3.6c5-1.5,12.1-4.7,17.8-11.7c3-3.7,5.1-7.9,6.4-12.5
			c0.4-1.5,2-2.5,3.6-2c0,0,0,0,0,0c1.5,0.4,2.5,2,2,3.6c-1.5,5.4-4,10.3-7.5,14.6c-6.7,8.2-14.9,12-20.7,13.7
			C736.6-84.7,736.1-84.7,735.6-84.8z"/>
		<g>
			<path class="st5" d="M719.7-61.5c-0.2-0.2-0.4-0.3-0.6-0.6c-1-1.3-0.8-3.1,0.5-4.1c9.4-7.4,18.4-10.6,26.6-9.4
				c5.2,0.7,8.7,3,12.1,5.1c3.2,2,6.2,3.9,10.7,4.9c6.4,1.4,13.4,0.4,20.8-3c1.5-0.7,3.2,0,3.9,1.4c0.7,1.5,0,3.2-1.4,3.9
				c-8.6,3.9-16.8,5.1-24.5,3.4c-5.6-1.2-9.3-3.6-12.6-5.6c-3.2-2-5.9-3.7-9.9-4.3c-6.6-0.9-14.1,1.8-22.2,8.2
				C722.1-60.7,720.7-60.7,719.7-61.5z"/>
			<path class="st5" d="M704-74.9c0.1,0.3,0.1,0.5,0.3,0.7c0.8,1.4,2.5,2,3.9,1.2c10.6-5.7,17.1-12.6,19.3-20.7
				c1.4-5.1,0.8-9.2,0.2-13.2c-0.6-3.7-1.1-7.2-0.2-11.8c1.3-6.4,5.1-12.4,11.1-17.9c1.2-1.1,1.3-2.9,0.2-4.1
				c-1.1-1.2-2.9-1.3-4.1-0.2c-7,6.3-11.4,13.4-13,21.1c-1.1,5.6-0.5,10,0.1,13.8c0.6,3.7,1,6.9,0,10.8c-1.8,6.4-7.3,12.2-16.4,17.1
				C704.2-77.5,703.7-76.2,704-74.9z"/>
		</g>
		<path class="st7" d="M746.8-28.3c-1.2-0.5-2.2-1.2-3.2-2c-2.9-2.2-4.2-4.7-5.3-6.9c-0.7-1.4-1.4-2.8-2.5-4
			c-3.5-4.1-9.9-6.2-19.1-6.2c-1.6,0-2.9-1.3-2.9-2.9c0-1.6,1.3-2.9,2.9-2.9c10.9,0,18.9,2.7,23.5,8.2c1.5,1.8,2.5,3.6,3.3,5.2
			c1,2,1.8,3.6,3.7,5c3,2.3,7.3,3.2,12.7,2.6c1.6-0.2,3,1,3.2,2.6c0.2,1.6-1,3-2.6,3.2C755.2-25.9,750.6-26.5,746.8-28.3z"/>
		<g>
			<path class="st8" d="M760.3-42.9c-0.5-0.4-0.9-0.9-1.1-1.6c-0.4-1.5,0.5-3.2,2-3.6c4.2-1.2,8.6-1.4,12.8-0.8c3,0.5,6,1.5,8.7,2.9
				c1.4,0.7,2,2.5,1.3,3.9c-0.7,1.4-2.5,2-3.9,1.3c-2.2-1.1-4.6-1.9-7-2.3c-3.4-0.5-6.9-0.3-10.3,0.6
				C761.9-42.2,761-42.4,760.3-42.9z"/>
			<path class="st8" d="M747.1-48.9c-1.5-0.7-2.2-2.6-1.5-4.1c0.7-1.5,2.6-2.2,4.1-1.5c1.5,0.7,2.2,2.6,1.5,4.1
				C750.5-48.8,748.6-48.1,747.1-48.9z"/>
		</g>
		<path class="st7" d="M771.4-83.9c-1.5-0.7-2.2-2.6-1.5-4.1s2.6-2.2,4.1-1.5c1.5,0.7,2.2,2.6,1.5,4.1
			C774.8-83.9,772.9-83.2,771.4-83.9z"/>
		<g>
			<path class="st8" d="M762.5-122.7c-1.5-0.7-2.2-2.6-1.5-4.1c0.7-1.5,2.6-2.2,4.1-1.5c1.5,0.7,2.2,2.6,1.5,4.1
				S764-121.9,762.5-122.7z"/>
			<path class="st8" d="M802.4-80.8c-1.5-0.7-2.2-2.6-1.5-4.1s2.6-2.2,4.1-1.5s2.2,2.6,1.5,4.1C805.8-80.7,804-80,802.4-80.8z"/>
		</g>
		<path class="st5" d="M790.5-102.5c-1.5-0.7-2.2-2.6-1.5-4.1c0.7-1.5,2.6-2.2,4.1-1.5c1.5,0.7,2.2,2.6,1.5,4.1
			C793.9-102.4,792.1-101.8,790.5-102.5z"/>
		<path class="st7" d="M743.9-112c-1.5-0.7-2.2-2.6-1.5-4.1s2.6-2.2,4.1-1.5c1.5,0.7,2.2,2.6,1.5,4.1
			C747.3-111.9,745.4-111.3,743.9-112z"/>
		<g>
			<path class="st5" d="M778.4-27.3c-1.5-0.7-2.2-2.6-1.5-4.1s2.6-2.2,4.1-1.5c1.5,0.7,2.2,2.6,1.5,4.1
				C781.7-27.3,779.9-26.6,778.4-27.3z"/>
			<path class="st5" d="M707.3-101.2c-1.5-0.7-2.2-2.6-1.5-4.1c0.7-1.5,2.6-2.2,4.1-1.5c1.5,0.7,2.2,2.6,1.5,4.1
				C710.7-101.2,708.9-100.5,707.3-101.2z"/>
		</g>
	</g>
</g>
</svg>
