<?xml version="1.0" encoding="UTF-8" standalone="no"?>
<!-- Generator: Adobe Illustrator 18.0.0, SVG Export Plug-In . SVG Version: 6.00 Build 0)  -->

<svg
   xmlns:dc="http://purl.org/dc/elements/1.1/"
   xmlns:cc="http://creativecommons.org/ns#"
   xmlns:rdf="http://www.w3.org/1999/02/22-rdf-syntax-ns#"
   xmlns:svg="http://www.w3.org/2000/svg"
   xmlns="http://www.w3.org/2000/svg"
   xmlns:sodipodi="http://sodipodi.sourceforge.net/DTD/sodipodi-0.dtd"
   xmlns:inkscape="http://www.inkscape.org/namespaces/inkscape"
   version="1.1"
   id="Capa_1"
   x="0px"
   y="0px"
   viewBox="0 0 53 53"
   style="enable-background:new 0 0 53 53;"
   xml:space="preserve"
   width="512px"
   height="512px"
   sodipodi:docname="fullscreen.svg"
   inkscape:version="0.92.1 r15371"><metadata
   id="metadata47"><rdf:RDF><cc:Work
       rdf:about=""><dc:format>image/svg+xml</dc:format><dc:type
         rdf:resource="http://purl.org/dc/dcmitype/StillImage" /></cc:Work></rdf:RDF></metadata><defs
   id="defs45" /><sodipodi:namedview
   pagecolor="#ffffff"
   bordercolor="#666666"
   borderopacity="1"
   objecttolerance="10"
   gridtolerance="10"
   guidetolerance="10"
   inkscape:pageopacity="0"
   inkscape:pageshadow="2"
   inkscape:window-width="640"
   inkscape:window-height="480"
   id="namedview43"
   showgrid="false"
   inkscape:zoom="0.46"
   inkscape:cx="256"
   inkscape:cy="256"
   inkscape:window-x="0"
   inkscape:window-y="0"
   inkscape:window-maximized="0"
   inkscape:current-layer="Capa_1" />
<g
   id="g10">
	<path
   d="m 50.852684,2.6883594 c -0.101,-0.244 -0.296,-0.439 -0.541,-0.541 -0.122,-0.05 -0.252,-0.077 -0.382,-0.077 h -12 c -0.552,0 -1,0.448 -1,1 0,0.552 0.448,1 1,1 h 9.586 l -16.293,16.2929996 c -0.391,0.391 -0.391,1.023 0,1.414 0.195,0.195 0.451,0.293 0.707,0.293 0.256,0 0.512,-0.098 0.707,-0.293 l 16.293,-16.2929996 v 9.5859996 c 0,0.552 0.448,1 1,1 0.552,0 1,-0.448 1,-1 V 3.0703594 c 0,-0.13 -0.027,-0.26 -0.077,-0.382 z"
   id="path2"
   inkscape:connector-curvature="0"
   style="fill:#222222" />
	<path
   d="m 20.363312,31.222688 -16.2929995,16.293 v -9.586 c 0,-0.552 -0.448,-1 -1,-1 -0.552,0 -1,0.448 -1,1 v 12 c 0,0.13 0.027,0.26 0.077,0.382 0.101,0.244 0.296,0.439 0.541,0.541 0.122,0.05 0.252,0.077 0.382,0.077 H 15.070313 c 0.552,0 0.999999,-0.448 0.999999,-1 0,-0.552 -0.447999,-1 -0.999999,-1 H 5.4843125 l 16.2929995,-16.293 c 0.391,-0.391 0.391,-1.023 0,-1.414 -0.390999,-0.391 -1.023,-0.391 -1.414,0 z"
   id="path4"
   inkscape:connector-curvature="0"
   style="fill:#222222" />
	<path
   d="m 3.0703125,16.070324 c 0.552,0 1,-0.448 1,-1 V 5.4843242 L 20.362313,21.776324 c 0.195,0.195 0.451,0.293 0.707,0.293 0.256,0 0.512,-0.098 0.707,-0.293 0.391,-0.391 0.391,-1.023 0,-1.414 L 5.4843125,4.0703242 h 9.5860005 c 0.552,0 0.999999,-0.448 0.999999,-1 0,-0.552 -0.447999,-1 -0.999999,-1 H 3.0703125 c -0.13,0 -0.26,0.027 -0.382,0.077 -0.245,0.102 -0.439,0.296 -0.541,0.541 -0.05,0.122 -0.077,0.252 -0.077,0.382 V 15.070324 c 0,0.552 0.448,1 1,1 z"
   id="path6"
   inkscape:connector-curvature="0"
   style="fill:#222222" />
	<path
   d="m 49.929684,36.929687 c -0.552,0 -1,0.448 -1,1 v 9.586 l -16.293,-16.293999 c -0.391,-0.391 -1.023,-0.391 -1.414,0 -0.391,0.390999 -0.391,1.023 0,1.414 l 16.293,16.293999 h -9.586 c -0.552,0 -1,0.448 -1,1 0,0.552 0.448,1 1,1 h 12 c 0.13,0 0.26,-0.027 0.382,-0.077 0.244,-0.101 0.439,-0.296 0.541,-0.541 0.05,-0.122001 0.077,-0.252 0.077,-0.382001 v -12 c 0,-0.552 -0.448,-1 -1,-0.999999 z"
   id="path8"
   inkscape:connector-curvature="0"
   style="fill:#222222" />
</g>
<g
   id="g12">
</g>
<g
   id="g14">
</g>
<g
   id="g16">
</g>
<g
   id="g18">
</g>
<g
   id="g20">
</g>
<g
   id="g22">
</g>
<g
   id="g24">
</g>
<g
   id="g26">
</g>
<g
   id="g28">
</g>
<g
   id="g30">
</g>
<g
   id="g32">
</g>
<g
   id="g34">
</g>
<g
   id="g36">
</g>
<g
   id="g38">
</g>
<g
   id="g40">
</g>
</svg>