<?xml version="1.0" encoding="utf-8"?>
<!-- Generator: Adobe Illustrator 19.0.0, SVG Export Plug-In . SVG Version: 6.00 Build 0)  -->
<svg version="1.1" id="Capa_1" xmlns="http://www.w3.org/2000/svg" xmlns:xlink="http://www.w3.org/1999/xlink" x="0px" y="0px"
	 viewBox="-49 141 512 512" style="enable-background:new -49 141 512 512;" xml:space="preserve">
<style type="text/css">
	.st0{fill:#222222;}
</style>
<g>
	<path class="st0" d="M-45.9,382.3l10.5-3l5.6-11.7H-37v-38.2c0-5.1,1.9-9.2,4.3-9.2L133,367.6h177c1,0,2.1,0,3.1,0v58.8
		c-1,0-2.1,0-3.1,0H129.5l-162.1,47.4c-2.4,0-4.3-4.1-4.3-9.2v-38.2h10.4l-8.8-12.2l-10.5-3.1C-52.9,396.1-45.9,382.3-45.9,382.3z
		 M463,398.5c0-14.7-103.1-28.3-137.4-30.6v58.2C359.9,423.8,463,413.1,463,398.5z"/>
</g>
</svg>
