<?xml version="1.0" encoding="utf-8"?>
<!-- Generator: Adobe Illustrator 19.0.0, SVG Export Plug-In . SVG Version: 6.00 Build 0)  -->
<svg version="1.1" id="Capa_1" xmlns="http://www.w3.org/2000/svg" xmlns:xlink="http://www.w3.org/1999/xlink" x="0px" y="0px"
	 viewBox="185 -228.3 512 512" style="enable-background:new 185 -228.3 512 512;" xml:space="preserve">
<style type="text/css">
	.st0{fill:#FFFFFF;}
</style>
<g>
	<path class="st0" d="M426.3,280.6l-3-10.5l-11.7-5.6v7.2h-38.2c-5.1,0-9.2-1.9-9.2-4.3l47.4-165.6v-177c0-1,0-2.1,0-3.1h58.8
		c0,1,0,2.1,0,3.1v180.4l47.4,162.1c0,2.4-4.1,4.3-9.2,4.3h-38.2v-10.4l-12.2,8.8l-3.1,10.5C440.1,287.6,426.3,280.6,426.3,280.6z
		 M442.5-228.3c-14.7,0-28.3,103.1-30.6,137.4h58.2C467.8-125.2,457.1-228.3,442.5-228.3z"/>
</g>
</svg>
