<?xml version="1.0" encoding="utf-8"?>
<!-- Generator: Adobe Illustrator 19.0.0, SVG Export Plug-In . SVG Version: 6.00 Build 0)  -->
<svg version="1.1" xmlns="http://www.w3.org/2000/svg" xmlns:xlink="http://www.w3.org/1999/xlink" x="0px" y="0px"
	 viewBox="-282.3 398.4 39.6 45.9" style="enable-background:new -282.3 398.4 39.6 45.9;" xml:space="preserve">
<style type="text/css">
	.st0{opacity:0.5;}
	.st1{fill:#FFFFFF;}
	.st2{fill:none;stroke:#000000;stroke-miterlimit:10;}
</style>
<g id="Ebene_2" class="st0">
	<path d="M-245,428.6v-14.5c0-1.2-1.1-2.2-2.4-2.2h-30.3c-1.3,0-2.4,1-2.4,2.2v14.5c0,1.2,1.1,2.2,2.4,2.2h30.3
		C-246.1,430.8-245,429.8-245,428.6z"/>
	<rect x="-275.6" y="413.5" class="st1" width="26.9" height="15.8"/>
	<path class="st1" d="M-246.7,419.1v4.6c0,0.1-0.1,0.3-0.3,0.3c-0.2,0-0.3-0.1-0.3-0.3v-4.6c0-0.1,0.1-0.3,0.3-0.3
		C-246.8,418.8-246.7,418.9-246.7,419.1z"/>
	<circle class="st1" cx="-277.6" cy="421.4" r="1.2"/>
</g>
<g id="Capa_1">
	<path d="M-255.3,403.9h-14.5c-1.2,0-2.2,1.1-2.2,2.4v30.3c0,1.3,1,2.4,2.2,2.4h14.5c1.2,0,2.2-1.1,2.2-2.4v-30.3
		C-253.1,405-254.1,403.9-255.3,403.9z"/>
	<rect x="-270.4" y="407.6" class="st1" width="15.8" height="26.9"/>
	<path class="st1" d="M-264.8,405.6h4.6c0.1,0,0.3,0.1,0.3,0.3c0,0.2-0.1,0.3-0.3,0.3h-4.6c-0.1,0-0.3-0.1-0.3-0.3
		C-265.1,405.7-265,405.6-264.8,405.6z"/>
	<circle class="st1" cx="-262.5" cy="436.5" r="1.2"/>
</g>
<g id="Ebene_3">
	<g>
		<g>
			<path class="st2" d="M-249,404.1c0-2.2-1.8-3.9-3.9-3.9"/>
			<g>
				<polygon points="-250.5,403.9 -247.5,403.9 -249,405.4 				"/>
			</g>
		</g>
	</g>
	<g>
		<g>
			<path class="st2" d="M-276,438.7c0,2.2,1.8,3.9,3.9,3.9"/>
			<g>
				<polygon points="-274.5,438.9 -277.5,438.9 -276,437.3 				"/>
			</g>
		</g>
	</g>
</g>
</svg>
