<?xml version="1.0" encoding="UTF-8" standalone="no"?>
<!-- Generator: Adobe Illustrator 18.0.0, SVG Export Plug-In . SVG Version: 6.00 Build 0)  -->

<svg
   xmlns:dc="http://purl.org/dc/elements/1.1/"
   xmlns:cc="http://creativecommons.org/ns#"
   xmlns:rdf="http://www.w3.org/1999/02/22-rdf-syntax-ns#"
   xmlns:svg="http://www.w3.org/2000/svg"
   xmlns="http://www.w3.org/2000/svg"
   xmlns:sodipodi="http://sodipodi.sourceforge.net/DTD/sodipodi-0.dtd"
   xmlns:inkscape="http://www.inkscape.org/namespaces/inkscape"
   version="1.1"
   id="Capa_1"
   x="0px"
   y="0px"
   viewBox="0 0 489.171 489.171"
   style="enable-background:new 0 0 489.171 489.171;"
   xml:space="preserve"
   width="512px"
   height="512px"
   sodipodi:docname="skull.svg"
   inkscape:version="0.92.1 r15371"><metadata
   id="metadata43"><rdf:RDF><cc:Work
       rdf:about=""><dc:format>image/svg+xml</dc:format><dc:type
         rdf:resource="http://purl.org/dc/dcmitype/StillImage" /></cc:Work></rdf:RDF></metadata><defs
   id="defs41" /><sodipodi:namedview
   pagecolor="#ffffff"
   bordercolor="#666666"
   borderopacity="1"
   objecttolerance="10"
   gridtolerance="10"
   guidetolerance="10"
   inkscape:pageopacity="0"
   inkscape:pageshadow="2"
   inkscape:window-width="640"
   inkscape:window-height="480"
   id="namedview39"
   showgrid="false"
   inkscape:zoom="0.4609375"
   inkscape:cx="256"
   inkscape:cy="256"
   inkscape:window-x="0"
   inkscape:window-y="0"
   inkscape:window-maximized="0"
   inkscape:current-layer="Capa_1" />
<g
   id="XMLID_93_"
   style="fill:#ffffff">
	<path
   id="XMLID_102_"
   d="M22.022,282.224c10.49,3.747,21.621,1.882,30.116-4.028c11.244-7.808,25.263-9.89,38.346-6.335   c-5.247-10.801-8.304-22.824-8.304-35.588c0-10.645,2.252-20.928,6.176-30.539c-2.492-3.825-4.639-7.887-5.928-12.388   c-2.82-9.955-10.25-18.436-20.739-22.167c-17.247-6.159-36.229,2.824-42.423,20.067c-3.498,9.907-1.933,20.255,3.166,28.534   c-9.206,3.167-16.951,10.174-20.476,20.067C-4.223,257.109,4.791,276.097,22.022,282.224z"
   fill="#222222"
   style="fill:#ffffff" />
	<path
   id="XMLID_101_"
   d="M467.151,315.901c-10.476-3.748-21.605-1.881-30.115,4.029c-12.203,8.498-27.768,10.554-41.768,5.552   l-38.225-13.657c-1.976,0.88-3.873,1.897-5.91,2.619c-5.928,16.415-17.764,29.928-32.831,38.317l59.64,21.291   c13.988,4.986,24.741,16.46,28.797,30.726c2.842,9.96,10.287,18.456,20.794,22.185c17.227,6.179,36.2-2.821,42.362-20.065   c3.541-9.897,1.959-20.259-3.136-28.535c9.186-3.137,16.932-10.176,20.455-20.052C493.409,341.051,484.409,322.062,467.151,315.901   z"
   fill="#222222"
   style="fill:#ffffff" />
	<path
   id="XMLID_100_"
   d="M437.036,278.196c8.494,5.91,19.625,7.775,30.115,4.028c17.228-6.127,26.244-25.115,20.063-42.376   c-3.523-9.894-11.269-16.9-20.474-20.067c5.095-8.279,6.664-18.627,3.165-28.534c-6.19-17.243-25.177-26.227-42.421-20.067   c-10.49,3.731-17.92,12.212-20.746,22.167c-1.283,4.483-3.412,8.549-5.908,12.354c3.939,9.627,6.192,19.91,6.192,30.572   c0,12.748-3.057,24.787-8.292,35.588C411.789,268.306,425.809,270.402,437.036,278.196z"
   fill="#222222"
   style="fill:#ffffff" />
	<path
   id="XMLID_99_"
   d="M138.068,314.444c-2.048-0.722-3.95-1.739-5.921-2.619l-38.242,13.657c-14,5.002-29.566,2.946-41.767-5.552   c-8.511-5.91-19.641-7.777-30.116-4.029c-17.26,6.161-26.258,25.15-20.065,42.41c3.524,9.876,11.269,16.915,20.457,20.052   c-5.093,8.276-6.677,18.638-3.136,28.535c6.162,17.243,25.134,26.243,42.362,20.065c10.507-3.729,17.952-12.225,20.788-22.185   c4.062-14.266,14.814-25.739,28.802-30.726l59.655-21.308C155.819,344.372,143.998,330.842,138.068,314.444z"
   fill="#222222"
   style="fill:#ffffff" />
	<path
   id="XMLID_94_"
   d="M322.65,286.584c28.515,0,51.639-22.528,51.639-50.311c0-15.8-7.621-29.724-19.314-38.958v-26.684   c0-60.943-49.432-110.372-110.371-110.372c-60.957,0-110.377,49.429-110.377,110.372v26.7   c-11.691,9.218-19.314,23.142-19.314,38.941c0,27.782,23.125,50.311,51.649,50.311v3.558c0,21.56,17.459,39.009,39.021,39.009   h78.058c21.54,0,39.009-17.449,39.009-39.009V286.584z M193.258,238.296c-17.609,0-31.861-14.267-31.861-31.872   c0-11.962,6.666-22.246,16.42-27.686l46.842,32.233C222.436,226.398,209.296,238.296,193.258,238.296z M244.604,278.872   c-9.488,0-17.173-7.698-17.173-17.153c0-9.484,7.685-29.945,17.173-29.945c9.484,0,17.166,20.461,17.166,29.945   C261.77,271.174,254.088,278.872,244.604,278.872z M295.946,238.296c-16.037,0-29.172-11.898-31.39-27.341l46.83-32.217   c9.753,5.439,16.419,15.724,16.419,27.686C327.805,224.029,313.554,238.296,295.946,238.296z"
   fill="#222222"
   style="fill:#ffffff" />
</g>
<g
   id="g8"
   style="fill:#ffffff">
</g>
<g
   id="g10"
   style="fill:#ffffff">
</g>
<g
   id="g12"
   style="fill:#ffffff">
</g>
<g
   id="g14"
   style="fill:#ffffff">
</g>
<g
   id="g16"
   style="fill:#ffffff">
</g>
<g
   id="g18"
   style="fill:#ffffff">
</g>
<g
   id="g20"
   style="fill:#ffffff">
</g>
<g
   id="g22"
   style="fill:#ffffff">
</g>
<g
   id="g24"
   style="fill:#ffffff">
</g>
<g
   id="g26"
   style="fill:#ffffff">
</g>
<g
   id="g28"
   style="fill:#ffffff">
</g>
<g
   id="g30"
   style="fill:#ffffff">
</g>
<g
   id="g32"
   style="fill:#ffffff">
</g>
<g
   id="g34"
   style="fill:#ffffff">
</g>
<g
   id="g36"
   style="fill:#ffffff">
</g>
</svg>