<?xml version="1.0" encoding="UTF-8" standalone="no"?>
<!-- Generator: Adobe Illustrator 19.0.0, SVG Export Plug-In . SVG Version: 6.00 Build 0)  -->

<svg
   xmlns:dc="http://purl.org/dc/elements/1.1/"
   xmlns:cc="http://creativecommons.org/ns#"
   xmlns:rdf="http://www.w3.org/1999/02/22-rdf-syntax-ns#"
   xmlns:svg="http://www.w3.org/2000/svg"
   xmlns="http://www.w3.org/2000/svg"
   xmlns:sodipodi="http://sodipodi.sourceforge.net/DTD/sodipodi-0.dtd"
   xmlns:inkscape="http://www.inkscape.org/namespaces/inkscape"
   version="1.1"
   id="Capa_1"
   x="0px"
   y="0px"
   viewBox="0 0 52.026 52.026"
   style="enable-background:new 0 0 52.026 52.026;"
   xml:space="preserve"
   width="512px"
   height="512px"
   sodipodi:docname="sound.svg"
   inkscape:version="0.92.1 r15371"><metadata
   id="metadata45"><rdf:RDF><cc:Work
       rdf:about=""><dc:format>image/svg+xml</dc:format><dc:type
         rdf:resource="http://purl.org/dc/dcmitype/StillImage" /></cc:Work></rdf:RDF></metadata><defs
   id="defs43" /><sodipodi:namedview
   pagecolor="#ffffff"
   bordercolor="#666666"
   borderopacity="1"
   objecttolerance="10"
   gridtolerance="10"
   guidetolerance="10"
   inkscape:pageopacity="0"
   inkscape:pageshadow="2"
   inkscape:window-width="640"
   inkscape:window-height="480"
   id="namedview41"
   showgrid="false"
   inkscape:zoom="0.4609375"
   inkscape:cx="256"
   inkscape:cy="256"
   inkscape:window-x="0"
   inkscape:window-y="0"
   inkscape:window-maximized="0"
   inkscape:current-layer="Capa_1" />
<g
   id="g8"
   style="fill:#ffffff">
	<path
   d="M28.404,3.413c-0.976-0.552-2.131-0.534-3.09,0.044c-0.046,0.027-0.09,0.059-0.13,0.093L11.634,15.013H1   c-0.553,0-1,0.447-1,1v19c0,0.266,0.105,0.52,0.293,0.707S0.734,36.013,1,36.013l10.61-0.005l13.543,12.44   c0.05,0.046,0.104,0.086,0.161,0.12c0.492,0.297,1.037,0.446,1.582,0.446c0.517-0.001,1.033-0.134,1.508-0.402   C29.403,48.048,30,47.018,30,45.857V6.169C30,5.008,29.403,3.978,28.404,3.413z M28,45.857c0,0.431-0.217,0.81-0.579,1.015   c-0.155,0.087-0.548,0.255-1,0.026L13,34.569v-4.556c0-0.553-0.447-1-1-1s-1,0.447-1,1v3.996l-9,0.004v-17h9v4c0,0.553,0.447,1,1,1   s1-0.447,1-1v-4.536l13.405-11.34c0.461-0.242,0.86-0.07,1.016,0.018C27.783,5.36,28,5.739,28,6.169V45.857z"
   fill="#222222"
   id="path2"
   style="fill:#ffffff" />
	<path
   d="M38.797,7.066c-0.523-0.177-1.091,0.103-1.269,0.626c-0.177,0.522,0.103,1.091,0.626,1.269   c7.101,2.411,11.872,9.063,11.872,16.553c0,7.483-4.762,14.136-11.849,16.554c-0.522,0.178-0.802,0.746-0.623,1.27   c0.142,0.415,0.53,0.677,0.946,0.677c0.107,0,0.216-0.017,0.323-0.054c7.896-2.693,13.202-10.106,13.202-18.446   C52.026,17.166,46.71,9.753,38.797,7.066z"
   fill="#222222"
   id="path4"
   style="fill:#ffffff" />
	<path
   d="M43.026,25.513c0-5.972-4.009-11.302-9.749-12.962c-0.533-0.151-1.084,0.152-1.238,0.684   c-0.153,0.53,0.152,1.085,0.684,1.238c4.889,1.413,8.304,5.953,8.304,11.04s-3.415,9.627-8.304,11.04   c-0.531,0.153-0.837,0.708-0.684,1.238c0.127,0.438,0.526,0.723,0.961,0.723c0.092,0,0.185-0.013,0.277-0.039   C39.018,36.815,43.026,31.485,43.026,25.513z"
   fill="#222222"
   id="path6"
   style="fill:#ffffff" />
</g>
<g
   id="g10"
   style="fill:#ffffff">
</g>
<g
   id="g12"
   style="fill:#ffffff">
</g>
<g
   id="g14"
   style="fill:#ffffff">
</g>
<g
   id="g16"
   style="fill:#ffffff">
</g>
<g
   id="g18"
   style="fill:#ffffff">
</g>
<g
   id="g20"
   style="fill:#ffffff">
</g>
<g
   id="g22"
   style="fill:#ffffff">
</g>
<g
   id="g24"
   style="fill:#ffffff">
</g>
<g
   id="g26"
   style="fill:#ffffff">
</g>
<g
   id="g28"
   style="fill:#ffffff">
</g>
<g
   id="g30"
   style="fill:#ffffff">
</g>
<g
   id="g32"
   style="fill:#ffffff">
</g>
<g
   id="g34"
   style="fill:#ffffff">
</g>
<g
   id="g36"
   style="fill:#ffffff">
</g>
<g
   id="g38"
   style="fill:#ffffff">
</g>
</svg>