<svg version="1" xmlns="http://www.w3.org/2000/svg" width="346.667" height="346.667" viewBox="0 0 260.000000 260.000000"><path d="M64.4 53.1c.6 3.1.6 3.1-1.9 1.5-3-2-3.5-2-3.5-.1 0 .8 1 2 2.2 2.6l2.3 1.2-2.3 1C58 60.8 58.5 62 62.4 62h3.4l-.8 3.7c-.5 2.1-1.5 8.3-2.4 13.8-.8 5.5-2.2 14.5-3.1 20-.8 5.5-2.2 14.5-3.1 20-.8 5.5-2.1 11.7-2.9 13.8-.8 2-1.5 6-1.5 8.7v5h-9.2c-5.1 0-9.8.4-10.4.8-.6.4-2.1 2.5-3.2 4.8-2.6 5-3.7 6-8.6 6.8-5.5 1-10.6 3.7-10.6 5.6 0 .9.6 2.4 1.3 3.4 1.2 1.6 1.6 1.6 6.7-.6l5.5-2.3 71.9-.3 72-.3 4.6 2.9 4.7 2.9 1.8-2.9c.9-1.6 1.3-3.3.9-3.7-7.1-5.9-7.8-6.1-19.2-6.1h-10.9l-6.9-5.5c-5.9-4.7-7.5-5.5-11-5.5h-4.2l-.4-4.8c-.3-2.6-.2-5 .1-5.4 1.5-1.7 61.6-25.8 63.2-25.3 1.9.6 21.2-6.9 22.8-8.9 1-1.3-3.5-13.2-5.4-13.9-.6-.3-5.8 1.4-11.6 3.8-7.3 3.1-10.5 4.9-10.7 6.2-.2 1.4-8 5-32.4 15l-32.1 13.2-3.3-2.8c-1.8-1.6-4.8-3.4-6.7-4-2-.7-3.9-2.2-4.5-3.6-1.1-2.4-1.5-2.5-10.9-2.5s-25.9-1.5-29.5-2.6c-1.8-.5-2.3-2.9-1.3-5.6.5-1.2 1.5-1.2 6.8-.1 7.1 1.5 28.7 2.9 28.7 1.9 0-.3-1.6-3.1-3.6-6.1-3.3-5-4-5.5-8.3-6-2.5-.4-8.4-1.4-12.9-2.2l-8.4-1.6.6-3c.3-1.7.8-3.2 1-3.4.2-.2 3 .2 6.2 1C83.5 88.5 87 89 87 88.2c0-.5-2-4-4.5-7.9-3.7-5.7-5.2-7.2-8.2-8.1-3.8-1.1-3.8-1.2-3.9-6.6 0-4.7.3-5.6 2-5.8 2.7-.4 3.3-2.8.7-2.8-2.2 0-2.8-1.4-1.1-2.5 1.5-.9 1.2-3.5-.4-3.5-.8 0-1.8.9-2.1 2-.9 2.8-2.5 2.5-2.5-.5 0-1.6-.6-2.5-1.6-2.5-1.3 0-1.5.7-1 3.1zM82 125.9l8.5.7-11.5 2.2c-6.3 1.2-13 2.2-14.7 2.2-2.9 0-3.3-.3-3.3-2.8 0-4 .7-4.3 6.9-3.7 3.1.4 9.4 1 14.1 1.4zM222.8 64.7c-3 3.4-3.8 6.3-3.6 11.9.2 5.5.1 5.8-3.6 9-3.9 3.4-4.4 5.5-.9 3.6 4.8-2.7 6.4-5.7 6.6-13 .2-5.8.6-7.5 2.5-9.5 1.2-1.3 2.2-2.6 2.2-3 0-1.3-1.7-.7-3.2 1zM235 69c0 .5.5 1 1 1 .6 0 1-.5 1-1 0-.6-.4-1-1-1-.5 0-1 .4-1 1zM227 73c0 .5.7 1 1.5 1s1.5-.5 1.5-1c0-.6-.7-1-1.5-1s-1.5.4-1.5 1zM234 74.1c-1.8 3.5-5.2 7-7.7 8-2.7 1-3.1 2.9-.6 2.9 4.2 0 12.8-9.9 10.5-12.2-.7-.7-1.4-.2-2.2 1.3zM246 77c0 .5.5 1 1 1 .6 0 1-.5 1-1 0-.6-.4-1-1-1-.5 0-1 .4-1 1zM238.6 83.9c-.4.5-.2 1.2.3 1.5.5.4 1.2.2 1.5-.3.4-.5.2-1.2-.3-1.5-.5-.4-1.2-.2-1.5.3zM251 85.5c0 .8.5 1.5 1 1.5.6 0 1-.7 1-1.5s-.4-1.5-1-1.5c-.5 0-1 .7-1 1.5zM221 91.2c-1.9 1.1-2.9 2.3-2.3 2.5.7.3 2.3-.3 3.5-1.1 3-2.1 6.1-2 10.8.4 4.6 2.4 10.8 2.6 13.6.5 1.7-1.3 1.4-1.4-3.8-.9-4.7.6-6.2.3-9.1-1.5-4.4-2.7-8.3-2.7-12.7.1zM229 98.5c0 .8.5 1.5 1 1.5.6 0 1-.7 1-1.5s-.4-1.5-1-1.5c-.5 0-1 .7-1 1.5zM216 99c0 .5 1.2 1 2.7 1 1.8 0 3.8 1.3 6.3 4 2.4 2.6 4.7 4 6.6 4.2 3.4.3 4.5-1.5 1.2-2.1-1.3-.1-3.9-2.1-5.9-4.2-2.9-3.2-4.3-3.9-7.2-3.9-2.1 0-3.7.4-3.7 1zM235 100c-2 1.2-1.2 1.7 4.3 2.2 4.9.6 6.1-.4 2.8-2.2-2.4-1.2-5.1-1.3-7.1 0zM241 107c0 .5.5 1 1 1 .6 0 1-.5 1-1 0-.6-.4-1-1-1-.5 0-1 .4-1 1z"/><path d="M20.2 171.1c-8.6 1.7-12.4 12.1-7.3 19.8 1 1.6 7 5.1 16.1 9.5l14.5 7.1H98c52.6 0 54.6-.1 58.2-2 3.6-2 17.6-14.9 20.3-18.9 3.2-4.5.8-12.4-4.6-15.2-2.8-1.4-10.6-1.6-75.8-1.3-39.9.2-74.1.6-75.9 1z"/></svg>