<?xml version="1.0" encoding="utf-8"?>
<!-- Generator: Adobe Illustrator 19.0.0, SVG Export Plug-In . SVG Version: 6.00 Build 0)  -->
<svg version="1.1" id="Ebene_1" xmlns="http://www.w3.org/2000/svg" xmlns:xlink="http://www.w3.org/1999/xlink" x="0px" y="0px"
	 viewBox="0 0 3600 1500" style="enable-background:new 0 0 3600 1500;" xml:space="preserve">
<style type="text/css">
	.st0{fill:#FFFFFF;}
	.st1{font-family:'Gaegu-Regular';}
	.st2{font-size:72px;}
	.st3{fill:none;stroke:#FFFFFF;stroke-width:5;stroke-linecap:round;stroke-miterlimit:10;}
</style>
<image style="overflow:visible;" width="3600" height="1500" xlink:href="mobile_2mock.png" >
</image>
<text transform="matrix(1 0 0 1 1013.0012 325.9984)" class="st0 st1 st2">Powerup aktivieren</text>
<text transform="matrix(1 0 0 1 1330.4984 749.9991)" class="st0 st1 st2">Kugel abfeuern</text>
<text transform="matrix(1 0 0 1 1985.0002 507)" class="st0 st1 st2">Fahren</text>
<text transform="matrix(1 0 0 1 1792.4995 1104.0013)" class="st0 st1 st2">Leben</text>
<g>
	<g>
		<path class="st3" d="M1350.1,348.1c1.7,6.8,13.4,57-19.5,100.5c-20.7,27.4-48.3,37.8-61.9,41.6"/>
		<g>
			<polygon class="st0" points="1278.3,465.4 1282.6,467.8 1270.5,489.3 1292.8,499.8 1290.6,504.3 1263.5,491.5 			"/>
		</g>
	</g>
</g>
<g>
	<g>
		<path class="st3" d="M1581.1,777.1c1,7.1,6.5,53.9-22.5,92.7c-18.8,25.2-42.3,33.9-54.3,37"/>
		<g>
			<polygon class="st0" points="1514.1,882.1 1518.5,884.6 1506,905.9 1528.2,916.7 1526,921.2 1499,908 			"/>
		</g>
	</g>
</g>
<g>
	<g>
		<path class="st3" d="M2023.6,529.6c-3.7,6.9-21.1,41-9,82.5c8.6,29.5,27.5,47.3,37.7,55.3"/>
		<g>
			<polygon class="st0" points="2026.6,672.1 2026.3,667.1 2051,665.9 2047.9,641.4 2052.9,640.8 2056.6,670.6 			"/>
		</g>
	</g>
</g>
<g>
	<g>
		<path class="st3" d="M1769,1089c-2.1,0.2-39.9,5.4-55,39c-8.3,18.4-5.5,35.9-3,44.9"/>
		<g>
			<polygon class="st0" points="1688,1160.9 1690.8,1156.8 1711,1170.9 1723.6,1149.7 1727.9,1152.3 1712.6,1178.1 			"/>
		</g>
	</g>
</g>
</svg>
