<?xml version="1.0" encoding="utf-8"?>
<!-- Generator: Adobe Illustrator 19.0.0, SVG Export Plug-In . SVG Version: 6.00 Build 0)  -->
<svg version="1.1" xmlns="http://www.w3.org/2000/svg" xmlns:xlink="http://www.w3.org/1999/xlink" x="0px" y="0px"
	 viewBox="731.9 135.1 2267.7 566.9" style="enable-background:new 731.9 135.1 2267.7 566.9;" xml:space="preserve">
<style type="text/css">
	.st0{display:none;}
	.st1{display:inline;fill:#682F2F;}
	.st2{fill:#FBFBFB;stroke:#CEBD57;stroke-width:18;stroke-miterlimit:10;}
	.st3{fill:#FECA57;}
	.st4{fill:#FF9F43;}
	.st5{fill:#FF6B6B;}
	.st6{fill:#EE5253;}
	.st7{fill:#10AC84;}
	.st8{fill:#0ABDE3;}
	.st9{fill:#F368E0;}
	.st10{fill:#A06047;}
	.st11{fill:#CE1D4C;}
	.st12{fill:#E84661;}
	.st13{fill:#F7D443;}
	.st14{fill:#FFE269;}
</style>
<g id="Ebene_3_1_" class="st0">
	<rect x="370.7" y="-68.4" class="st1" width="2910.3" height="921.1"/>
</g>
<g id="Ebene_1">
	<polygon class="st2" points="760.2,163.4 2971.3,163.4 2971.3,276.5 2971.3,560.3 2857.9,673.6 873.6,673.6 760.2,560.3 
		760.2,276.5 	"/>
</g>
<g id="Ebene_2_1_">
	<g id="Ebene_5">
		<path class="st3" d="M1020.2,375c0.9,3,6.2,2.6,14.3,1.2c7.5-1.4,17.2-3.9,27.3-7.1c10.1-3.1,19.5-6.6,26.4-9.8
			c3.4-1.5,6.1-3,7.9-4.2c1.2-0.8,3.9-2.6,3.1-4.9v-0.1c-0.1-0.3-0.2-0.4-0.3-0.7v-0.1c0-0.1-0.1-0.1-0.1-0.2l-68-85.1
			c-0.5-0.6-1.4-0.8-2.1-0.7c-0.8,0.3-1.3,0.9-1.4,1.7l-7.2,108.7c0,0.1,0,0.1,0,0.2v0.1C1020.1,374.5,1020.1,374.8,1020.2,375
			L1020.2,375z"/>
		<path class="st4" d="M1020.2,375c0.7,2.3,3.9,2.6,8.9,2l7.1-106l-5.4-6.8c-0.5-0.6-1.4-0.8-2.1-0.7c-0.8,0.3-1.3,0.9-1.4,1.7
			l-7.2,108.7c0,0.1,0,0.1,0,0.2v0.1C1020.1,374.5,1020.1,374.8,1020.2,375L1020.2,375z"/>
		<g>
			<path class="st5" d="M1095.7,355.5c0.2-0.1,0.3-0.2,0.5-0.3c0.1,0,0.1-0.1,0.2-0.1l0,0c0.1-0.1,0.2-0.1,0.2-0.2l0,0
				c0.1-0.1,0.2-0.1,0.3-0.2l0,0c0.1-0.1,0.2-0.1,0.3-0.2c0.4-0.3,0.8-0.6,1.1-0.9l0,0l0.1-0.1l0,0c0.1-0.1,0.1-0.1,0.2-0.2l0,0
				c0-0.1,0.1-0.1,0.1-0.2l0,0c0-0.1,0.1-0.1,0.1-0.2c0,0,0,0,0-0.1c0,0,0.1-0.1,0.1-0.2c0,0,0,0,0-0.1l0.1-0.1v-0.1l0.1-0.1v-0.1
				c0,0,0-0.1,0.1-0.1v-0.1c0,0,0-0.1,0.1-0.1V352v-0.1v-0.1v-0.1v-0.1v-0.1v-0.1v-0.1v-0.1v-0.1v-0.1c0-0.1,0-0.1,0-0.2v-0.1
				c0-0.1,0-0.1,0-0.2v-0.1c0-0.1,0-0.2-0.1-0.3v-0.1c-0.1-0.3-0.2-0.4-0.3-0.7v-0.1c0-0.1-0.1-0.1-0.1-0.2l-0.3-0.3l-3.2-4.1l0,0
				l-0.7-0.9l-1,0.2c-11.9,1.4-42.5,4.3-69.4,0.3l-2.1-0.3l-0.6,8.4l-0.7,10.6l1.9,0.3c20.3,2.3,41.5,1.1,55.7-0.3
				c0.2,0,0.3,0,0.4-0.1h0.1c0,0,0,0,0.1,0l0,0c0.3-0.2,0.7-0.3,1-0.4l0,0c0.1,0,0.1-0.1,0.2-0.1c0.6-0.3,1.2-0.4,1.8-0.7
				c0.1-0.1,0.3-0.1,0.3-0.2c0.3-0.1,0.5-0.3,0.8-0.3c0.2-0.1,0.3-0.2,0.5-0.3c0.3-0.1,0.5-0.2,0.8-0.3c0.3-0.2,0.7-0.3,1-0.4
				c0.2-0.1,0.3-0.2,0.5-0.2c0.3-0.1,0.6-0.3,0.8-0.3c0.1-0.1,0.3-0.1,0.3-0.2c0.2-0.1,0.3-0.2,0.4-0.2c0.3-0.1,0.5-0.2,0.7-0.3
				c0.3-0.1,0.5-0.3,0.8-0.3l0,0c0.3-0.1,0.5-0.3,0.8-0.3c0.1,0,0.1-0.1,0.2-0.1c0.3-0.1,0.4-0.3,0.7-0.3l0,0l0,0
				c0.3-0.1,0.5-0.3,0.8-0.3l0,0c0.3-0.1,0.4-0.3,0.7-0.3c0,0,0.1,0,0.1-0.1c0.4-0.3,0.8-0.4,1.3-0.7c0.1,0,0.2-0.1,0.2-0.1
				c0.1,0,0.1-0.1,0.2-0.1l0,0c0.2-0.1,0.4-0.3,0.6-0.3l0.1-0.1c0.2-0.1,0.3-0.3,0.6-0.3l0,0c0.2-0.1,0.3-0.2,0.5-0.3
				C1095.6,355.5,1095.6,355.5,1095.7,355.5z"/>
			<path class="st5" d="M1087.5,335.2l-13.8-17.3l-0.8,0.1c-18.3,0.2-34.1-1.4-46.6-4.8l-2-0.7l-0.1,0.7l-0.1,1.8l-1,15.8l0,0
				l-0.1,1.8l1.7,0.3c20.1,4.1,43.3,3.7,59.3,2.5C1084,335.4,1087.5,335.2,1087.5,335.2z"/>
			<path class="st5" d="M1026.4,300.8c9.4,3.2,21,5.3,34.3,6.2c0.1,0,0.2,0,0.3,0h4l-0.5-0.7l-3.8-4.8l-11-13.8l0,0l-1.3-1.6
				l-0.6-0.2c-0.1,0-0.1,0-0.2,0c-7.1-1.4-13.4-3.4-18.7-5.7l-2.5-1.3l-0.1,2l-0.3,3.2l-0.2,2.3l-0.4,5.9l-0.5,7.8L1026.4,300.8z"/>
			<path class="st6" d="M1017,269.3c0.3,1,1.4,1.6,2.5,1.3l10.4-3.2l10.4-3.3c1-0.3,1.6-1.4,1.3-2.5c-0.3-1-1.4-1.6-2.5-1.3l-6,1.9
				l3.8-7.9c0.5-0.9,0.1-2.1-0.9-2.6c-0.9-0.5-2.1-0.1-2.6,0.9l-3.7,7.6l-2.5-8.1c-0.3-1-1.4-1.6-2.5-1.3s-1.6,1.4-1.3,2.5l2.5,8.1
				l-7.4-4.1c-0.9-0.5-2.1-0.2-2.6,0.8s-0.2,2.1,0.8,2.6l7.6,4.2l-6,1.9C1017.3,267.1,1016.7,268.2,1017,269.3z"/>
		</g>
		<g>
			<path class="st6" d="M1025.5,292.4l-0.5,7.8l1.4,0.6c2.5,0.8,5,1.5,7.7,2.2l1.4-20.2c-2.3-0.8-4.5-1.6-6.5-2.5l-2.5-1.3l-0.1,2
				l-0.3,3.2l-0.2,2.3L1025.5,292.4z"/>
			<path class="st6" d="M1023,330.8l-0.1,1.8l1.7,0.3c2.5,0.5,4.9,0.9,7.5,1.3l1.3-19.4c-2.5-0.5-4.8-1-7.1-1.6l-2-0.7l-0.1,0.7
				l-0.1,1.8L1023,330.8z"/>
			<path class="st6" d="M1021.5,352.6l-0.7,10.6l1.9,0.3c2.5,0.3,4.9,0.5,7.3,0.7l1.3-18.9c-2.4-0.3-4.8-0.6-7.1-0.9l-2.1-0.3
				L1021.5,352.6z"/>
		</g>
	</g>
	<g id="Ebene_3">
		<path class="st3" d="M2046.6,372.6c0.8,3,6,2.9,14.2,1.8c7.6-1,17.3-3.1,27.6-5.8c10.3-2.7,19.8-5.8,26.8-8.6
			c3.5-1.4,6.2-2.6,8.1-3.8c1.2-0.8,4-2.4,3.4-4.8v-0.1c-0.1-0.3-0.2-0.4-0.3-0.7v-0.1c0-0.1-0.1-0.1-0.1-0.2l-64-88.2
			c-0.5-0.7-1.3-0.9-2.1-0.8c-0.8,0.2-1.4,0.8-1.4,1.7l-12.2,108.2c0,0.1,0,0.1,0,0.2v0.1C2046.5,372,2046.5,372.3,2046.6,372.6
			C2046.6,372.6,2046.6,372.6,2046.6,372.6z"/>
		<path class="st4" d="M2046.6,372.6c0.6,2.3,3.7,2.8,8.8,2.4l12-105.6l-5.1-7.1c-0.5-0.7-1.3-0.9-2.1-0.8c-0.8,0.2-1.4,0.8-1.4,1.7
			l-12.2,108.2c0,0.1,0,0.1,0,0.2v0.1C2046.5,372,2046.5,372.3,2046.6,372.6C2046.6,372.6,2046.6,372.6,2046.6,372.6z"/>
		<g>
			<path class="st5" d="M2122.9,356.6c0.2-0.1,0.3-0.2,0.5-0.3c0.1,0,0.1-0.1,0.2-0.1l0,0c0.1,0,0.2-0.1,0.2-0.2l0,0
				c0.1-0.1,0.2-0.1,0.3-0.2l0,0c0.1-0.1,0.2-0.1,0.3-0.2c0.4-0.3,0.8-0.6,1.2-0.9l0,0l0.1-0.1l0,0c0.1-0.1,0.1-0.1,0.2-0.2l0,0
				c0.1-0.1,0.1-0.1,0.1-0.2l0,0c0-0.1,0.1-0.1,0.1-0.2c0,0,0,0,0-0.1l0.1-0.1c0,0,0,0,0-0.1l0.1-0.1c0,0,0,0,0-0.1l0.1-0.1v-0.1
				c0,0,0-0.1,0.1-0.1v-0.1c0,0,0-0.1,0.1-0.1v-0.1c0,0,0-0.1,0.1-0.1v-0.1V353v-0.1v-0.1v-0.1v-0.1v-0.1v-0.1v-0.1
				c0-0.1,0-0.1,0-0.2v-0.1c0-0.1,0-0.1,0-0.2v-0.1c0-0.1,0-0.2-0.1-0.3v-0.1c-0.1-0.3-0.2-0.4-0.3-0.7v-0.1c0-0.1-0.1-0.1-0.1-0.2
				l-0.2-0.3l-3.1-4.2l0,0l-0.7-0.9l-1,0.1c-12,0.8-42.6,2.4-69.3-3l-2.1-0.4l-0.9,8.4l-1.2,10.5l1.9,0.4
				c20.1,3.2,41.4,3.1,55.6,2.4c0.2,0,0.3,0,0.4-0.1h0.1c0,0,0,0,0.1,0l0,0c0.3-0.1,0.7-0.3,1-0.3l0,0c0.1,0,0.1,0,0.2-0.1
				c0.6-0.2,1.2-0.4,1.8-0.6c0.1,0,0.3-0.1,0.3-0.1c0.3-0.1,0.5-0.2,0.8-0.3c0.2-0.1,0.3-0.2,0.5-0.2c0.3-0.1,0.5-0.2,0.8-0.3
				c0.3-0.1,0.7-0.3,1-0.3c0.2-0.1,0.3-0.1,0.5-0.2c0.3-0.1,0.6-0.3,0.8-0.3c0.1-0.1,0.3-0.1,0.3-0.2c0.2-0.1,0.3-0.1,0.4-0.2
				c0.3-0.1,0.5-0.2,0.7-0.3c0.3-0.1,0.5-0.2,0.8-0.3l0,0c0.3-0.1,0.5-0.3,0.8-0.3c0.1,0,0.1-0.1,0.2-0.1c0.3-0.1,0.5-0.2,0.7-0.3
				l0,0l0,0c0.3-0.1,0.5-0.3,0.8-0.3l0,0c0.3-0.1,0.4-0.2,0.7-0.3h0.1c0.4-0.2,0.9-0.4,1.4-0.6c0.1,0,0.2-0.1,0.2-0.1
				c0.1,0,0.1-0.1,0.2-0.1l0,0c0.2-0.1,0.4-0.2,0.6-0.3c0,0,0.1,0,0.1-0.1c0.2-0.1,0.4-0.2,0.6-0.3l0,0c0.2-0.1,0.3-0.2,0.5-0.3
				C2122.8,356.6,2122.9,356.6,2122.9,356.6z"/>
			<path class="st5" d="M2115.7,335.9l-13-17.9l-0.8,0.1c-18.3-0.7-34-3-46.3-6.9l-2-0.8l-0.1,0.7l-0.2,1.8l-1.8,15.7l0,0l-0.2,1.8
				l1.7,0.3c20,5,43.2,5.6,59,5.3C2112.1,336,2115.7,335.9,2115.7,335.9z"/>
			<path class="st5" d="M2056.3,298.7c9.3,3.7,20.7,6.3,34.1,7.8c0.1,0,0.2,0,0.3,0l4,0.2l-0.5-0.7l-3.6-4.9l-10.4-14.3l0,0
				l-1.2-1.6l-0.6-0.2c-0.1,0-0.1,0-0.2,0c-7.1-1.8-13.3-4-18.4-6.6l-2.5-1.4l-0.3,1.9l-0.3,3.2l-0.3,2.3l-0.7,5.9l-0.8,7.8
				L2056.3,298.7z"/>
			<path class="st6" d="M2048.4,266.8c0.3,1,1.4,1.7,2.4,1.4l10.5-2.8l10.5-2.8c1-0.3,1.7-1.4,1.4-2.4c-0.3-1-1.4-1.7-2.4-1.4
				l-6.1,1.6l4.2-7.7c0.5-0.9,0.2-2.1-0.8-2.6s-2.1-0.2-2.6,0.8l-4.1,7.4l-2.1-8.2c-0.3-1-1.4-1.7-2.4-1.4c-1,0.3-1.7,1.4-1.4,2.4
				l2.1,8.2l-7.1-4.4c-0.9-0.6-2.1-0.3-2.7,0.6c-0.6,0.9-0.3,2.1,0.6,2.7l7.5,4.7l-6.1,1.6C2048.7,264.7,2048,265.8,2048.4,266.8z"
				/>
		</g>
		<g>
			<path class="st6" d="M2055.8,290.2l-0.8,7.8l1.4,0.7c2.4,0.9,4.9,1.8,7.6,2.6l2.3-20.1c-2.3-0.8-4.4-1.8-6.4-2.8l-2.5-1.4
				l-0.3,1.9l-0.3,3.2l-0.3,2.3L2055.8,290.2z"/>
			<path class="st6" d="M2051.4,328.6l-0.2,1.8l1.7,0.3c2.5,0.6,4.9,1.2,7.4,1.6l2.2-19.3c-2.5-0.6-4.8-1.3-7.1-2l-2-0.8l-0.1,0.7
				l-0.2,1.8L2051.4,328.6z"/>
			<path class="st6" d="M2049,350.3l-1.2,10.5l1.9,0.4c2.5,0.4,4.8,0.7,7.3,1l2.1-18.8c-2.4-0.3-4.8-0.8-7.1-1.3l-2.1-0.4
				L2049,350.3z"/>
		</g>
	</g>
	<g id="Ebene_2">
		<g>
			<path class="st7" d="M1137,408.9c-0.4,4-0.9,7.5-1.5,10.6c-0.6,3.1-1.6,6-3.1,8.7c-1.5,2.8-3.6,5.6-6.1,8.6
				c-2.5,3-5.8,6.4-9.8,10.1c-10.4,9.7-21.8,15.4-34.5,16.9c-2.9,1.1-6.6,2.4-11.3,3.8s-10.2,3.1-16.6,4.8l1,21.5
				c0.4,3.1,0.8,6.2,1,9.3c0.3,3.1,0.3,6.5,0.3,10.3c0,2.6,0,5.5,0,8.6s-0.4,5.9-1.2,8.6s-2.2,4.8-4.3,6.6c-2.1,1.8-5.1,2.6-9.1,2.6
				c-4.2,0-7.3-0.8-9.3-2.3c-2-1.5-3.3-3.7-4-6.5c-0.7-2.8-1-6-1.2-9.8c-0.1-3.7-0.5-7.7-1.2-11.9v0.3c-0.3-2.9-0.4-6.3-0.7-10.3
				c-0.3-3.6-0.4-7.9-0.7-13.1c-0.3-5.2-0.6-11.3-1-18.3v-2c0-1.4-0.1-3.1-0.2-5.3c-0.1-2.2-0.3-4.5-0.5-7c-0.3-2.5-0.4-4.6-0.5-6.5
				c-0.1-1.9-0.2-3.1-0.2-3.8c0-1.4,0.1-3.7,0.2-7.1c0.1-3.4,0.3-7.1,0.3-11.1s0.3-7.8,0.3-11.5s0.2-6.5,0.2-8.4
				c0-3.6-0.2-6.7-0.5-9.6c-0.3-2.9-0.7-5.5-1.2-8c0-0.4,0.1-1.9,0.2-4.3c0.1-2.5,0.3-5.1,0.5-8.2c0.3-3,0.5-5.9,1-8.9
				c0.4-3,1-5.4,1.6-7.5c5.9-2.9,13.2-4.3,21.5-4.3h2.6c9.5-2.9,18.3-4.3,26.5-4.3c3.1,0,11.8,1.4,26.2,4l14.6,8
				c4,2.5,7.2,4.9,9.8,7.5s4.6,5.6,6.1,9.1c1.5,3.6,2.6,7.6,3.3,12.4C1136.7,396.3,1137,402,1137,408.9z M1106,413.5
				c0.7-4.2,1-8,1-11.3c0-5.9-2.5-11.5-7.3-16.4c-4.8-4.9-12.8-7.5-23.9-7.5c-5.1,0-12.8,1.8-23.2,5.3c0.4,4.2,0.8,9.3,1,15
				c0.3,5.9,0.3,12.7,0.3,20.4c-0.3,0.4-0.3,2.6-0.3,6.6c0,2,0,4.3,0,7.1c0,2.8,0.1,5.9,0.3,9.4c2-0.3,4.2-0.7,6.8-1.4
				c2.5-0.7,4.9-1.4,7.1-2.1c2.2-0.8,4.8-1.8,8-3.1C1091.7,431.9,1101.7,424.5,1106,413.5z"/>
			<path class="st8" d="M1293.7,482.4c4,2.6,5.9,5.9,5.9,9.6c0,2-0.6,4-1.6,6.1c-1.1,2.1-2.5,4-4.3,5.6c-1.8,1.6-3.7,3.1-5.6,4.2
				c-2,1.1-4,1.6-5.9,1.6c-1.8-0.7-3.9-1.8-6.3-3.5c-2.5-1.7-4.8-3.6-7.3-5.6c-2.5-2.1-4.7-4.5-6.8-7.1c-2.1-2.6-3.7-5.3-4.8-8
				l-2.3,5.6c-4.2,8-10.8,15.5-19.9,22.5c-11,2-17.4,3-19.2,3c-4.2,0-9.3-0.7-15.2-2l-18.3-12.7c-8-7.5-11.9-17.8-11.9-30.8
				c0-4.7,0.7-9.8,2.1-15.4c1.4-5.6,3.6-11.3,6.3-17.1c2.7-5.8,6.1-11.4,10.1-16.9c4-5.5,8.6-10.4,13.9-14.9
				c6.4-2.5,12.6-4.5,18.5-6.1c5.9-1.6,10.4-2.7,13.6-3.1c4.2-4.7,9.2-7,14.9-7c3.3,0,6.2,1.6,8.7,4.8c2.5,3.2,4.8,7.2,6.6,12.1
				c1.9,4.8,3.4,10.2,4.5,16.1s1.9,11.5,2.3,16.7l4.3,17.6c1.4,5.5,3.5,10.3,6.5,14.3C1285.6,475.8,1289.3,479.3,1293.7,482.4z
				 M1243.4,445.7c-0.4-0.3-2.1-7.1-4.9-20.9c-1.1,0-2.8,0-4.9,0c-2.2,0-4.8,0.6-7.8,1.8s-6.2,3.3-9.6,6.3c-3.4,3-6.7,7.5-9.8,13.4
				c-4.7,8.6-7,17.2-7,25.8c3.7,7.3,9.6,13,17.6,17.2c2.5-0.7,4.5-1.4,6.1-2.3s3.1-2.1,4.5-3.7c1.4-1.5,2.6-3.5,3.8-5.8
				c1.2-2.3,2.6-5.3,4.2-8.7c2.9-5.1,4.9-9.5,6.1-13.4C1242.8,451.6,1243.4,448.3,1243.4,445.7z"/>
			<path class="st6" d="M1437.2,484.8v2.6c0,1.4,0.1,3.7,0.2,7.1c0.1,3.4-0.3,6.9-1,10.4s-2.3,6.7-4.5,9.4c-2.2,2.8-5.5,4.2-9.9,4.2
				c-8.6,0-13.7-3.4-15.2-10.3c0.3-1.4,0.3-2.8,0.3-4.5c0-1.7,0-3.5,0-5.4c0-0.8,0-4.2,0-9.8c0-5.6-0.2-11.7-0.5-18.3
				c-0.3-6.6-1-12.8-2.1-18.7s-2.8-9.5-4.9-11.1c-5.1-3.6-9.6-5.3-13.6-5.3c-5.3,0-9.8,1.6-13.4,4.8c-3.7,3.2-6.7,9.4-9.1,18.7
				c-0.3,3.1-0.4,6.5-0.7,10.4c-0.3,3.9-0.6,8.2-1,13.1c0,3.7,0.1,7.9,0.3,12.4c0.3,4.5,0.5,9.7,1,15.4c0,4.2-1.6,7.6-4.9,10.4
				c-3.3,2.7-7.1,4.2-11.3,4.2c-3.3,0-5.9-0.8-8-2.6c-2-1.8-3.5-4.1-4.5-7s-1.6-5.9-2-9.3c-0.3-3.3-0.5-6.6-0.5-9.9
				c0-2.5,0.1-4.9,0.3-7.5c0.3-2.5,0.5-5.1,1-7.8l2.6-31.8l2.6-15.9c-0.4-2.6-1.4-5.5-2.6-8.6c-1.4-3.1-2-5.5-2-7.3
				c0-3.7,1.5-7.1,4.5-10.3c3-3.1,6.7-4.7,11.1-4.7c3.1,0,5.4,0.6,7,1.8c1.5,1.2,4.1,4.2,7.6,8.7c4.4-2,8-3.2,10.6-3.8
				c2.6-0.5,5.8-0.8,9.3-0.8c11.5,0,21.6,2.7,30.3,8.2c8.7,5.4,14.2,14.4,16.4,27c0.7,4.7,1.3,8.5,1.8,11.6c0.5,3.1,1,6.1,1.5,8.9
				c0.4,2.9,0.8,5.9,1.4,9.1C1435.6,475.9,1436.2,479.9,1437.2,484.8z"/>
			<path class="st9" d="M1572.7,408.2c0.4,3.3,0.8,5.9,1.2,8c0.3,2,0.5,3.4,0.5,4.3c0,2.5-0.6,5-1.8,7.8c-1.2,2.8-2.7,5.4-4.5,8.2
				c-1.8,2.6-3.7,5.1-5.6,7.5c-2,2.3-3.7,4.2-5.3,5.8c-3.7,5.1-7.4,9.3-11,12.7c-3.6,3.4-7.1,5.9-10.6,7.5c-1.4,1.8-3.1,3.7-5.4,5.9
				c-2.3,2.2-4.7,4.3-7,6.3c-2.3,2-4.4,3.7-6.3,5.3s-2.9,2.5-3.1,3c5.1,1.5,10.4,2.6,16.2,3.3c5.8,0.7,11.2,1.2,16.4,1.5
				c5.2,0.3,9.7,0.5,13.6,0.5c3.8,0,6.5,0,7.8,0c0.7,0,1.2-0.1,1.6-0.2c0.4-0.1,0.8-0.2,1-0.2c7.5,3.6,11.3,8.7,11.3,15.5
				c0,4-1,7.5-3.1,10.6c-2.1,3.1-5.1,4.7-9.1,4.7c-1.4,0-3.2-0.2-5.6-0.5c-2.5-0.3-4.9-0.7-7.6-1c-2.6-0.3-5.2-0.7-7.6-1
				c-2.5-0.3-4.3-0.5-5.6-0.5c-3.1,0-6.9-0.3-11.3-0.7c-4.4-0.4-8.7-0.9-12.9-1.5c-4.2-0.5-7.8-1-11-1.5c-3.1-0.4-4.9-0.7-5.6-0.7
				c-12.6-5.1-21-11.4-25.1-18.9c0.8-4.8,4.8-12.2,11.6-22.2c2.9-2.5,5.9-5.3,8.9-8.4c3.1-3.2,6.5-6.9,10.3-11.1
				c6.4-5.5,12.1-10.7,17.2-15.5c5.1-4.8,9.3-9.5,12.9-13.9c-1.1-0.4-2.5-0.7-4-0.7c-1.5,0-3.3,0-5.3,0h-8l-12.9,1.4
				c-5.9,0.7-9.5,1-10.6,1c-5.8-0.7-8.6-5.9-8.6-15.5c0-2.9,0-5.1,0-6.6c0-1.5,1-2.8,3-3.8c2-1,5.4-2,10.1-2.8
				c4.8-0.8,11.9-2,21.4-3.3c5.8,0,12.8,0.6,21.2,1.8C1552.5,401.4,1562.1,404.1,1572.7,408.2z"/>
			<path class="st4" d="M1733.3,508.3c-7.1,7.1-15,13.1-23.9,18.1c-8.8,4.9-17.8,7.5-26.8,7.5c-8.2,0-18.7-1.4-31.4-4
				c-4.4-2.9-8.8-6.4-13.3-10.4c-4.4-4.1-8.4-8.6-11.9-13.6c-3.6-4.9-6.4-10.4-8.6-16.2c-2.2-5.9-3.3-11.9-3.3-18.1
				c0-1.8,0.1-4.2,0.3-7.1c0.3-3,0.5-5.9,0.8-8.9c0.3-3,0.7-6.7,1.2-11.1c4.4-7.1,9.1-14.1,14.1-21.1c4.9-7,12-13.1,21.1-18.3
				c14.4-3.1,24.7-4.7,31.2-4.7c3.3,0,6.2,0.2,8.6,0.5c2.5,0.3,4.8,1,7.1,2c2.3,1,4.7,2.5,7,4.5c2.3,2,5,4.5,8.2,7.6
				c3.6,3.7,6.4,6.3,8.4,7.6c2.1,1.4,3.1,2.5,3.1,3.7c0,20.3-6.3,34.1-18.9,41.4c-5.5,2-12.7,4.2-21.5,6.5
				c-8.8,2.3-20.9,4.5-36.1,6.5c3.1,8.4,7.1,14.7,12.2,18.9c5.1,4.2,10.8,6.3,17.2,6.3c9.5,0,21.4-5.6,35.8-16.9c2.2-2,4.9-3,8.2-3
				c3.6,0,6.7,1.4,9.4,4c2.7,2.6,4.2,5.9,4.2,9.9C1735.6,502.5,1734.8,505.4,1733.3,508.3z M1695.8,437.4
				c-4.2-6.9-9.2-10.3-14.9-10.3c-2.5,0-5.1,0.3-8,1c-2.9,0.7-5.8,1.6-8.7,2.8c-3,1.2-5.8,2.7-8.2,4.5c-2.5,1.8-4.6,3.9-6.1,6.3
				l-3.3,9.9c7.5-0.7,14.1-1.2,19.9-1.7c5.8-0.4,10.7-1.1,14.9-2c4.2-0.8,7.5-2.1,9.9-3.7C1693.6,442.8,1695.2,440.5,1695.8,437.4z"
				/>
			<path class="st8" d="M1866.4,408.9c3.6,2.2,5.3,6.4,5.3,12.6c0,4.7-1.2,8.6-3.7,11.9c-2.5,3.3-5.8,4.9-9.9,4.9
				c-2.6,0-5.4-0.7-8.2-2.1c-2.8-1.4-5.7-2.1-8.7-2.1c-2.6,0-5.3,0.5-7.8,1.5c-2.5,1-5.4,3.1-8.7,6.5l-9.9,9.9
				c0,1.5,0.1,3.1,0.2,4.7c0.1,1.5,0.2,3.2,0.2,4.9c0,2.6-0.1,5.4-0.2,8.2c-0.1,2.9-0.3,5.9-0.5,9.3l3,30.2
				c-0.7,10.2-5.9,15.2-15.5,15.2c-5.1,0-8.8-1.6-11.3-4.8c-2.5-3.2-4.1-7.6-4.9-13.4s-1.3-12.5-1.2-20.2c0.1-7.7,0.1-16.2-0.2-25.5
				c-0.4-13.9-0.8-20.9-1-20.9v0.3c-0.8-3.3-1.5-6.2-2-8.7c-0.4-2.5-0.7-4.8-0.7-6.8c0-4,1.4-7.2,4.3-9.8s7.1-3.8,12.6-3.8
				c3.6,0,7.7,2.8,12.6,8.2c5.1-4,9-7,11.7-8.9c2.7-2,5.1-3.4,7-4.3c1.9-0.8,3.7-1.4,5.4-1.5c1.8-0.1,4.1-0.2,7-0.2
				c2.5-0.3,4.7-0.1,6.8,0.3c2.1,0.4,4.3,0.8,6.8,1.4L1866.4,408.9z"/>
			<path class="st7" d="M2164.3,408.9c-0.4,4-0.9,7.5-1.5,10.6c-0.6,3.1-1.6,6-3.1,8.7c-1.5,2.8-3.6,5.6-6.1,8.6s-5.8,6.4-9.8,10.1
				c-10.4,9.7-21.8,15.4-34.5,16.9c-2.9,1.1-6.6,2.4-11.3,3.8c-4.7,1.4-10.2,3.1-16.6,4.8l1,21.5c0.4,3.1,0.8,6.2,1,9.3
				c0.3,3.1,0.3,6.5,0.3,10.3c0,2.6,0,5.5,0,8.6s-0.4,5.9-1.2,8.6c-0.8,2.6-2.2,4.8-4.3,6.6c-2.1,1.8-5.1,2.6-9.1,2.6
				c-4.2,0-7.3-0.8-9.3-2.3c-2-1.5-3.3-3.7-4-6.5c-0.7-2.8-1-6-1.2-9.8c-0.1-3.7-0.5-7.7-1.2-11.9v0.3c-0.3-2.9-0.4-6.3-0.7-10.3
				c-0.3-3.6-0.4-7.9-0.7-13.1c-0.3-5.2-0.6-11.3-1-18.3v-2c0-1.4-0.1-3.1-0.2-5.3s-0.3-4.5-0.5-7c-0.3-2.5-0.4-4.6-0.5-6.5
				c-0.1-1.9-0.2-3.1-0.2-3.8c0-1.4,0.1-3.7,0.2-7.1c0.1-3.4,0.3-7.1,0.3-11.1s0.3-7.8,0.3-11.5s0.2-6.5,0.2-8.4
				c0-3.6-0.2-6.7-0.5-9.6c-0.3-2.9-0.7-5.5-1.2-8c0-0.4,0.1-1.9,0.2-4.3c0.1-2.5,0.3-5.1,0.5-8.2c0.3-3,0.5-5.9,1-8.9
				c0.4-3,1-5.4,1.6-7.5c5.9-2.9,13.2-4.3,21.5-4.3h2.6c9.5-2.9,18.3-4.3,26.5-4.3c3.1,0,11.8,1.4,26.2,4l14.6,8
				c4,2.5,7.2,4.9,9.8,7.5c2.5,2.5,4.6,5.6,6.1,9.1c1.5,3.6,2.6,7.6,3.3,12.4C2163.9,396.3,2164.3,402,2164.3,408.9z M2133.1,413.5
				c0.7-4.2,1-8,1-11.3c0-5.9-2.5-11.5-7.3-16.4c-4.8-4.9-12.8-7.5-23.9-7.5c-5.1,0-12.8,1.8-23.2,5.3c0.4,4.2,0.8,9.3,1,15
				c0.3,5.9,0.3,12.7,0.3,20.4c-0.3,0.4-0.3,2.6-0.3,6.6c0,2,0,4.3,0,7.1c0,2.8,0.1,5.9,0.3,9.4c2-0.3,4.2-0.7,6.8-1.4
				c2.5-0.7,4.9-1.4,7.1-2.1c2.2-0.8,4.8-1.8,8-3.1C2118.9,431.9,2128.9,424.5,2133.1,413.5z"/>
			<path class="st8" d="M2320.9,482.4c4,2.6,5.9,5.9,5.9,9.6c0,2-0.6,4-1.6,6.1c-1.1,2.1-2.5,4-4.3,5.6c-1.8,1.6-3.7,3.1-5.6,4.2
				c-2,1.1-4,1.6-5.9,1.6c-1.8-0.7-3.9-1.8-6.3-3.5c-2.5-1.7-4.8-3.6-7.3-5.6c-2.5-2.1-4.7-4.5-6.8-7.1c-2.1-2.6-3.7-5.3-4.8-8
				l-2.3,5.6c-4.2,8-10.8,15.5-19.9,22.5c-11,2-17.4,3-19.2,3c-4.2,0-9.3-0.7-15.2-2l-18.2-12.9c-8-7.5-11.9-17.8-11.9-30.8
				c0-4.7,0.7-9.8,2.1-15.4s3.6-11.3,6.3-17.1c2.7-5.8,6.1-11.4,10.1-16.9s8.6-10.4,13.9-14.9c6.4-2.5,12.6-4.5,18.5-6.1
				c5.9-1.6,10.4-2.7,13.6-3.1c4.2-4.7,9.2-7,14.9-7c3.3,0,6.2,1.6,8.7,4.8c2.5,3.2,4.8,7.2,6.6,12.1c1.9,4.8,3.4,10.2,4.5,16.1
				c1.1,5.9,1.9,11.5,2.3,16.7l4.3,17.6c1.4,5.5,3.5,10.3,6.5,14.3C2312.8,475.8,2316.5,479.3,2320.9,482.4z M2270.6,445.7
				c-0.4-0.3-2.1-7.1-4.9-20.9c-1.1,0-2.8,0-4.9,0c-2.2,0-4.8,0.6-7.8,1.8s-6.2,3.3-9.6,6.3c-3.4,3-6.7,7.5-9.8,13.4
				c-4.7,8.6-7,17.2-7,25.8c3.7,7.3,9.6,13,17.6,17.2c2.5-0.7,4.5-1.4,6.1-2.3s3.1-2.1,4.5-3.7c1.4-1.5,2.6-3.5,3.8-5.8
				c1.2-2.3,2.6-5.3,4.2-8.7c2.9-5.1,4.9-9.5,6.1-13.4C2269.9,451.6,2270.6,448.3,2270.6,445.7z"/>
			<path class="st6" d="M2446.1,408.9c3.6,2.2,5.3,6.4,5.3,12.6c0,4.7-1.2,8.6-3.7,11.9c-2.5,3.3-5.8,4.9-9.9,4.9
				c-2.6,0-5.4-0.7-8.2-2.1c-2.8-1.4-5.7-2.1-8.8-2.1c-2.6,0-5.3,0.5-7.8,1.5c-2.5,1-5.4,3.1-8.7,6.5l-9.9,9.9
				c0,1.5,0.1,3.1,0.2,4.7c0.1,1.5,0.2,3.2,0.2,4.9c0,2.6-0.1,5.4-0.2,8.2c-0.1,2.9-0.3,5.9-0.5,9.3l3,30.2
				c-0.7,10.2-5.9,15.2-15.5,15.2c-5.1,0-8.8-1.6-11.3-4.8s-4.1-7.6-4.9-13.4c-0.8-5.8-1.3-12.5-1.2-20.2c0.1-7.7,0.1-16.2-0.2-25.5
				c-0.4-13.9-0.8-20.9-1-20.9v0.3c-0.8-3.3-1.5-6.2-2-8.7s-0.7-4.8-0.7-6.8c0-4,1.4-7.2,4.3-9.8c2.9-2.5,7.1-3.8,12.6-3.8
				c3.6,0,7.7,2.8,12.6,8.2c5.1-4,9-7,11.7-8.9c2.7-2,5.1-3.4,7-4.3c1.9-0.8,3.7-1.4,5.4-1.5c1.8-0.1,4.1-0.2,7-0.2
				c2.5-0.3,4.7-0.1,6.8,0.3s4.3,0.8,6.8,1.4L2446.1,408.9z"/>
			<path class="st9" d="M2564.7,396.7c2.5,2,3.7,5.6,3.7,11c0,9.7-3.7,14.6-11,14.6h-1.4c-3.3,0.3-7.2,0.5-11.6,0.8
				c-4.4,0.3-9.4,0.8-14.9,1.5c-0.4,3.6-0.8,8.2-1.4,14.1c-0.4,5.9-0.7,12.8-0.7,21.1c0,0.7,0.1,1.4,0.2,2c0.1,0.7,0.2,1.4,0.2,2.3
				v15.2c0,3.6,0.6,6.4,1.8,8.4c1.2,2.1,2.7,3.6,4.5,4.5l9.3,3c7.3,2.5,11,6.9,11,13.3c0,3.7-1.5,7.1-4.5,9.9
				c-3,2.9-6.8,4.3-11.5,4.3c-1.4,0-3.6-0.4-6.8-1.2s-6.5-1.8-9.9-3.1c-3.4-1.4-6.6-3-9.6-4.9c-3-2-5-4.2-6.1-6.6
				c-2.5-5.1-4.4-10.4-5.9-16.1c-1.5-5.6-2.3-11.6-2.3-17.8c0-6.9,0.1-11.7,0.3-14.6c0.3-2.9,0.4-5.4,0.7-7.6s0.4-4.8,0.7-8
				c0.3-3.1,0.3-8.2,0.3-15.2c-4.2,0.4-10.4,1.8-18.5,4c-4.8,0-9-1.3-12.4-3.8c-3.4-2.5-5.1-5.9-5.1-10.1c0-3.1,0.9-5.9,2.8-8.6
				c1.9-2.6,5.8-4.9,11.7-7c2-0.7,3.8-1.1,5.4-1.4c1.7-0.3,3.3-0.4,4.9-0.7c1.6-0.3,3.5-0.4,5.4-0.5c2-0.1,4.4-0.4,7.3-0.8
				c0.3-5.5,0.6-11.7,1.2-18.7c0.5-7,1.5-13.4,3-19.4c1.4-5.9,3.6-11,6.3-15s6.5-6.1,11.1-6.1c8,0,12.8,3.7,14.6,11
				c0,0.3-0.3,1.7-0.8,4.5c-0.6,2.8-1.2,5.8-1.8,9.1c-0.7,3.3-1.3,6.5-1.8,9.6c-0.6,3.1-0.8,5.1-0.8,5.9l-1,16.2
				c1.5-0.3,3-0.4,4.3-0.5c1.4-0.1,2.7-0.2,4.3-0.2h3c1.5,0,3-0.1,4.3-0.2s2.5-0.2,3.7-0.2C2557.4,394.6,2562.1,395.3,2564.7,396.7z
				"/>
			<path class="st4" d="M2715.4,424.1c-0.3,4.8-0.4,8.2-0.7,10.3c-0.3,2-0.8,4.2-1.8,6.5c-0.9,2.3-2.6,5.7-4.8,10.1
				s-5.3,11.5-9.3,21.2c-1.8,10.4-6.2,20.6-13.3,30.8c-3.6,10.8-7.5,18.5-11.9,23.2c-0.7,2-2.2,5.1-4.7,9.3c-2.5,4.2-5,8.7-7.8,13.4
				c-2.8,4.8-5.4,9.3-8,13.9c-2.5,4.5-4.3,8-5.4,10.4c-0.4,1.1-1.4,3.1-3,5.8c-1.5,2.7-3.4,5.6-5.4,8.4c-2.1,2.9-4.5,5.4-7.3,7.8
				c-2.8,2.3-5.4,3.5-8.2,3.5c-4,0-7.6-1.3-11.1-3.8c-3.4-2.5-5.1-5.6-5.1-9.1c0-1.8,0.8-4,2.3-6.8c1.5-2.8,3.4-5.8,5.6-8.9
				c2.2-3.2,4.5-6.5,7-9.9c2.5-3.4,4.5-6.5,6.3-9.4c0.7-1.8,1.9-4.4,3.7-8c1.8-3.6,3.7-7.2,5.8-11.1c2.1-3.9,4.1-7.6,5.9-11.3
				c1.9-3.7,3.1-6.5,3.8-8.4c-0.7-0.4-1.9-1.6-3.7-3.5c-1.8-1.9-3.7-3.8-5.8-5.9c-2.1-2.1-4.2-4.2-6.5-6.1c-2.2-2-4.2-3.4-5.9-4.3
				c-2.5-3.6-4.5-6.3-6.3-8.2c-1.8-2-3.4-3.7-4.8-4.9c-1.4-1.4-2.9-2.6-4.5-4c-1.5-1.4-3.2-3.2-5.1-5.6c-1.9-2.5-4.2-5.6-7-9.6
				c-2.8-4-6-9.3-9.8-15.9c-0.3-0.7-0.3-1.7-0.3-3c0-4.4,1.6-8.4,4.8-11.9c3.2-3.6,6.5-5.3,10.1-5.3c2.5,0,5.2,1.2,8.2,3.5
				c3.1,2.3,6.6,6.5,10.6,12.4c4.2,6.6,7.5,11.5,9.8,14.6c2.3,3.1,4.3,5.6,5.9,7.5c1.7,1.9,3.4,3.7,5.3,5.3c1.9,1.6,4.6,4.3,8.2,8.2
				c2.6,1.4,6.2,4.5,10.6,9.6l11.9-32.1c2.5-5.8,4.9-11.6,7.5-17.8c2.5-6,4.2-11.9,5.1-17.4c4.8-3.3,9.7-4.9,14.6-4.9
				C2709.4,412.2,2714.1,416.2,2715.4,424.1z"/>
		</g>
	</g>
	<g id="Ebene_6">
		<path class="st10" d="M1863.4,423.5c-1.3,0-2.5-0.8-3.1-2c-1.9-4.2-0.2-13.1-0.2-18.3c0-11.8,4.6-17.9,8.7-23.4
			c3.9-5.3,7.3-9.8,7.3-19.3c0-1.9,1.5-3.4,3.4-3.4c1.9,0,3.4,1.5,3.4,3.4c0,11.8-4.6,17.9-8.7,23.4c-3.9,5.3-7.3,9.8-7.3,19.3
			c0,4.3-1.9,12.2-0.4,15.5c0.8,1.7,0,3.7-1.7,4.5C1864.3,423.4,1863.8,423.5,1863.4,423.5z"/>
		<path class="st11" d="M1874.1,360.2h10.2c1.5,0,2.5-1.6,1.9-3l-3.1-6h-3.9h-3.9l-3.1,6C1871.5,358.6,1872.5,360.2,1874.1,360.2z"
			/>
		<ellipse class="st12" cx="1879.2" cy="297.3" rx="46.3" ry="53.9"/>
		<path class="st11" d="M1879.2,243.4c3.3,0,6.5,0.4,9.6,1.2c-21,5.2-36.7,26.8-36.7,52.8c0,25.9,15.7,47.6,36.7,52.8
			c-3.1,0.8-6.3,1.2-9.6,1.2c-25.6,0-46.3-24.1-46.3-53.9S1853.6,243.4,1879.2,243.4z"/>
	</g>
	<g id="Capa_1">
		<path class="st10" d="M2474.5,408.7c-1.7-0.8-2.5-2.8-1.7-4.5c1.5-3.3,2.2-6.9,2.2-11.3c0-9.5-3.4-14-7.3-19.3
			c-4.1-5.4-8.7-11.6-8.7-23.4c0-1.9,1.5-3.4,3.4-3.4c1.9,0,3.4,1.5,3.4,3.4c0,9.5,3.4,14,7.3,19.3c4.1,5.4,8.7,11.6,8.7,23.4
			c0,5.3-0.9,9.9-2.8,14c-0.6,1.3-1.8,2-3.1,2C2475.4,409,2474.9,408.9,2474.5,408.7z"/>
		<path class="st13" d="M2457.2,350.6h9.9c1.5,0,2.5-1.5,1.8-2.9l-3-5.9h-3.8h-3.8l-3,5.9C2454.7,348.9,2455.7,350.5,2457.2,350.6z"
			/>
		<ellipse class="st14" cx="2462.2" cy="289.3" rx="45" ry="52.4"/>
		<path class="st13" d="M2462.2,236.9c3.4,0,6.8,0.4,9.9,1.3c-20,5.3-35.1,26.2-35.1,51.1s15,45.9,35.1,51.1
			c-3.2,0.8-6.5,1.3-9.9,1.3c-24.9,0-45-23.4-45-52.4C2417.2,260.4,2437.3,236.9,2462.2,236.9z"/>
	</g>
</g>
</svg>
