<?xml version="1.0" encoding="utf-8"?>
<!-- Generator: Adobe Illustrator 19.0.0, SVG Export Plug-In . SVG Version: 6.00 Build 0)  -->
<svg version="1.1" xmlns="http://www.w3.org/2000/svg" xmlns:xlink="http://www.w3.org/1999/xlink" x="0px" y="0px"
	 viewBox="-145 387.2 304.3 75.6" style="enable-background:new -145 387.2 304.3 75.6;" xml:space="preserve">
<style type="text/css">
	.st0{opacity:0.12;}
	.st1{fill:#222222;stroke:#222222;stroke-miterlimit:10;}
	.st2{fill:#FCF9F5;stroke:#666666;stroke-linecap:round;stroke-linejoin:round;stroke-miterlimit:10;}
	.st3{fill:#BABABA;stroke:#666666;stroke-linecap:round;stroke-linejoin:round;stroke-miterlimit:10;}
	.st4{fill:#0DAB76;}
	.st5{fill:none;stroke:#086644;stroke-miterlimit:10;}
	.st6{opacity:0.15;fill:#222222;}
	.st7{fill:#067BC2;}
	.st8{fill:#FFD72F;}
	.st9{fill:#F37748;}
	.st10{fill:#D56062;}
	.st11{opacity:0.25;}
	.st12{fill:#222222;}
	.st13{fill:#FBFBFB;}
</style>
<g id="Shatten" class="st0">
	<path class="st1" d="M157.4,411.4c-0.1-0.2-0.2-0.3-0.4-0.3c-15-2.3-28.3-4.1-40.6-5.5c-0.3,0-0.5,0.2-0.6,0.4
		c-0.1,1.1-0.3,2.3-0.4,3.4l-0.4,0c-3.8,0.2-7.5,0.3-11.3,0.5H-89.2c-3.8-0.2-7.5-0.3-11.3-0.5l-0.4,0c-0.1-1.1-0.3-2.3-0.4-3.4
		c0-0.3-0.3-0.5-0.6-0.4c-12.4,1.4-25.6,3.2-40.6,5.5c-0.2,0-0.3,0.2-0.4,0.3c-0.1,0.2,0,0.4,0.1,0.5c6,6.4,11.3,12.3,16.2,18
		c-3.4,7.3-6.7,14.7-9.9,21.9c-0.1,0.2-0.1,0.4,0.1,0.5c0.1,0.1,0.2,0.2,0.4,0.2c0,0,0.1,0,0.1,0c10.6-1.7,21.8-3.3,34.9-4.8v10.8
		l0.5,0c35.8,1.7,71.8,2.5,107.8,2.5c36,0,72.1-0.8,107.8-2.5l0.5,0v-10.8c13.1,1.6,24.3,3.1,34.9,4.8c0,0,0.1,0,0.1,0
		c0.2,0,0.3-0.1,0.4-0.2c0.1-0.1,0.1-0.3,0.1-0.5c-3.2-7.2-6.5-14.6-9.9-21.9c5.4-6.1,10.9-12.2,16.2-18.1
		C157.4,411.8,157.5,411.6,157.4,411.4z"/>
</g>
<g id="Ebene_1">
	<g id="Banner">
		<path id="right_x5F_main" class="st2" d="M111.5,445.3c13,1.5,26,3.2,38.9,5.3c-3.3-7.4-6.6-14.8-10-22.2
			c5.4-6.1,10.9-12.2,16.4-18.3c-13.5-2.1-27.1-4-40.6-5.5C114.5,418.2,113,431.7,111.5,445.3z"/>
		<path id="right_x5F_shadow" class="st3" d="M125.8,439.1c-4.8,2-9.6,4.1-14.3,6.2l0.9-7.8L125.8,439.1"/>
		<path id="left_x5F_main" class="st2" d="M-97.3,445.3c-13,1.5-26,3.2-38.9,5.3c3.3-7.4,6.6-14.8,10-22.2
			c-5.3-6.2-10.8-12.3-16.4-18.3c13.5-2.1,27.1-4,40.6-5.5C-100.4,418.2-98.9,431.7-97.3,445.3z"/>
		<path id="left_x5F_shadow" class="st3" d="M-111.6,439.1c4.8,2,9.6,4.1,14.3,6.2l-0.9-7.8L-111.6,439.1z"/>
		<g>
			<path class="st4" d="M115,456.6c-71.8,3.4-143.8,3.4-215.6,0c0-16,0-32.1,0-48.1c71.8,3.4,143.8,3.4,215.6,0
				C115,424.5,115,440.6,115,456.6z"/>
			<path class="st5" d="M115,456.6c-71.8,3.4-143.8,3.4-215.6,0c0-16,0-32.1,0-48.1c71.8,3.4,143.8,3.4,215.6,0
				C115,424.5,115,440.6,115,456.6z"/>
		</g>
		<path id="shadow" class="st6" d="M-100.6,408.4l-0.5,0v31.8c71.9-8.5,144.6-8.5,216.6,0v-31.9l-0.5,0
			C43.4,411.7-29.1,411.7-100.6,408.4z"/>
		<path id="main" class="st2" d="M125.9,439.1c-78.9-10.2-158.7-10.2-237.5,0c-1.7-13.6-3.5-27.1-5.2-40.7
			c82.3-10.6,165.7-10.6,248,0C129.4,412,127.6,425.5,125.9,439.1z"/>
	</g>
	<g id="Schrift">
		<path id="XMLID_197_" class="st7" d="M-85.1,410.2c0,0.5,0,0.9,0,1.3c0,0.4-0.1,0.8-0.2,1.1c-0.1,0.4-0.4,0.7-0.6,1.1
			c-0.3,0.4-0.6,0.9-1.1,1.4c-1.1,1.4-2.5,2.3-4,2.7c-0.3,0.2-0.8,0.4-1.3,0.7c-0.6,0.3-1.2,0.6-2,0.9c0.2,0.9,0.3,1.7,0.5,2.6
			c0.1,0.4,0.2,0.7,0.3,1.1c0.1,0.4,0.2,0.8,0.2,1.2c0,0.3,0.1,0.7,0.2,1c0.1,0.4,0.1,0.7,0,1.1c0,0.3-0.2,0.6-0.4,0.9
			s-0.6,0.4-1.1,0.5c-0.5,0.1-0.9,0-1.2-0.1c-0.3-0.1-0.5-0.4-0.6-0.7c-0.1-0.3-0.2-0.7-0.3-1.2c-0.2-0.4-0.3-0.9-0.5-1.4l0,0
			c-0.1-0.3-0.2-0.8-0.3-1.2c-0.1-0.4-0.2-0.9-0.3-1.6c-0.1-0.6-0.3-1.4-0.5-2.2c0-0.1,0-0.2,0-0.2c0-0.2-0.1-0.4-0.1-0.6
			c-0.1-0.3-0.1-0.5-0.2-0.8c-0.1-0.3-0.1-0.5-0.2-0.8c0-0.2-0.1-0.4-0.1-0.5c0-0.2-0.1-0.5-0.1-0.9c-0.1-0.4-0.1-0.9-0.2-1.4
			c-0.1-0.5-0.1-1-0.2-1.4c-0.1-0.4-0.1-0.8-0.1-1c-0.1-0.4-0.1-0.8-0.2-1.2c-0.1-0.3-0.2-0.7-0.3-0.9c0-0.1,0-0.2-0.1-0.5
			c0-0.3-0.1-0.6-0.1-1s0-0.7,0-1.1c0-0.4,0-0.7,0.1-0.9c0.7-0.5,1.6-0.8,2.6-0.9c0.1,0,0.2,0,0.3-0.1c1.2-0.5,2.3-0.9,3.3-1
			c0.4-0.1,1.5-0.1,3.4,0c0.7,0.2,1.3,0.5,2,0.7c0.5,0.2,1,0.5,1.4,0.7c0.4,0.3,0.7,0.6,0.9,1c0.3,0.4,0.5,0.9,0.6,1.4
			C-85.4,408.7-85.2,409.4-85.1,410.2z M-89,411.3c0-0.5,0-1-0.1-1.4c-0.1-0.7-0.5-1.3-1.2-1.9c-0.7-0.5-1.8-0.7-3.2-0.5
			c-0.6,0.1-1.6,0.5-2.8,1.1c0.1,0.5,0.3,1.1,0.4,1.8c0.1,0.7,0.3,1.5,0.4,2.5c0,0.1,0,0.3,0.1,0.8c0,0.2,0.1,0.5,0.1,0.9
			c0.1,0.3,0.1,0.7,0.2,1.1c0.2-0.1,0.5-0.2,0.8-0.3c0.3-0.1,0.6-0.3,0.9-0.4c0.3-0.1,0.6-0.3,0.9-0.5
			C-90.4,413.8-89.3,412.7-89,411.3z"/>
		<path id="XMLID_194_" class="st8" d="M-64.5,416.9c0.5,0.3,0.8,0.6,0.9,1.1c0,0.2,0,0.5-0.1,0.8s-0.3,0.5-0.5,0.7
			c-0.2,0.2-0.4,0.4-0.6,0.6c-0.2,0.2-0.5,0.3-0.7,0.3c-0.2-0.1-0.5-0.2-0.8-0.3c-0.3-0.2-0.6-0.4-1-0.6c-0.3-0.2-0.6-0.5-0.9-0.8
			c-0.3-0.3-0.5-0.6-0.7-0.9c-0.1,0.2-0.1,0.5-0.2,0.7c-0.4,1-1.1,2-2.2,3c-1.3,0.4-2.1,0.6-2.3,0.6c-0.5,0.1-1.2,0.1-1.9,0
			c-0.8-0.4-1.6-0.8-2.5-1.3c-1.1-0.8-1.8-2-2-3.6c-0.1-0.6-0.1-1.2,0-1.9s0.3-1.4,0.5-2.2c0.3-0.7,0.6-1.5,1-2.2
			c0.4-0.7,0.9-1.4,1.5-2c0.8-0.4,1.5-0.7,2.3-1c0.7-0.3,1.3-0.5,1.7-0.6c0.5-0.6,1.1-1,1.8-1.1c0.4,0,0.8,0.1,1.2,0.5
			c0.4,0.4,0.7,0.8,1,1.4c0.3,0.6,0.6,1.2,0.8,1.9c0.2,0.7,0.4,1.4,0.5,2c0.3,0.7,0.5,1.4,0.8,2.1c0.2,0.7,0.6,1.2,1,1.6
			C-65.6,416.2-65.1,416.5-64.5,416.9z M-71.2,413.1c-0.1,0-0.4-0.8-0.9-2.5c-0.1,0-0.4,0-0.6,0.1c-0.3,0-0.6,0.1-1,0.3
			c-0.4,0.2-0.7,0.5-1.1,0.9c-0.4,0.4-0.7,1-1,1.8c-0.5,1.1-0.6,2.2-0.5,3.2c0.6,0.8,1.4,1.4,2.5,1.8c0.3-0.1,0.5-0.2,0.7-0.4
			c0.2-0.1,0.4-0.3,0.5-0.5c0.1-0.2,0.3-0.5,0.4-0.8s0.3-0.7,0.4-1.1c0.3-0.7,0.5-1.2,0.6-1.7C-71.2,413.8-71.1,413.4-71.2,413.1z"
			/>
		<path id="XMLID_193_" class="st9" d="M-46.5,415.6c0,0.1,0,0.2,0,0.3c0,0.2,0,0.5,0.1,0.9c0,0.4,0,0.8,0,1.3
			c-0.1,0.4-0.2,0.8-0.5,1.2c-0.2,0.3-0.6,0.5-1.2,0.6c-1.1,0.1-1.7-0.3-2-1.1c0-0.2,0-0.3,0-0.6c0-0.2,0-0.4-0.1-0.7
			c0-0.1,0-0.5-0.1-1.2c-0.1-0.7-0.1-1.4-0.3-2.2c-0.1-0.8-0.3-1.6-0.5-2.3c-0.2-0.7-0.5-1.1-0.7-1.3c-0.7-0.4-1.3-0.5-1.8-0.5
			c-0.7,0.1-1.2,0.3-1.6,0.7c-0.4,0.4-0.7,1.2-0.9,2.4c0,0.4,0,0.8,0,1.3s0,1,0,1.6c0,0.5,0.1,1,0.2,1.5s0.2,1.2,0.3,1.9
			c0,0.5-0.1,1-0.5,1.3c-0.4,0.4-0.8,0.6-1.4,0.6c-0.4,0-0.7,0-1-0.2c-0.3-0.2-0.5-0.5-0.6-0.8c-0.2-0.3-0.3-0.7-0.4-1.1
			s-0.1-0.8-0.2-1.2c0-0.3,0-0.6,0-0.9s0-0.6,0-1c0-1.3,0-2.6-0.1-3.9c0-0.7,0.1-1.3,0.1-2c-0.1-0.3-0.2-0.7-0.4-1
			c-0.2-0.4-0.3-0.6-0.3-0.9c0-0.5,0.1-0.9,0.4-1.3c0.3-0.4,0.8-0.7,1.4-0.7c0.4,0,0.7,0,0.9,0.1c0.2,0.1,0.6,0.5,1.1,1
			c0.5-0.3,1-0.5,1.3-0.6c0.3-0.1,0.7-0.2,1.2-0.2c1.5-0.1,2.8,0.1,3.9,0.7c1.2,0.6,1.9,1.6,2.3,3.1c0.1,0.6,0.2,1,0.3,1.4
			s0.2,0.7,0.3,1.1c0.1,0.3,0.2,0.7,0.3,1.1C-46.7,414.5-46.6,415-46.5,415.6z"/>
		<path id="XMLID_192_" class="st4" d="M-30,405.2c0.1,0.4,0.1,0.7,0.2,1c0.1,0.2,0.1,0.4,0.1,0.5c0,0.3,0,0.6-0.2,1
			c-0.1,0.4-0.3,0.7-0.5,1c-0.2,0.3-0.4,0.6-0.7,1c-0.2,0.3-0.4,0.5-0.6,0.7c-0.4,0.7-0.9,1.2-1.3,1.6s-0.8,0.8-1.3,1
			c-0.2,0.2-0.4,0.5-0.6,0.8c-0.3,0.3-0.6,0.6-0.8,0.8c-0.3,0.3-0.5,0.5-0.7,0.7c-0.2,0.2-0.3,0.3-0.4,0.4c0.6,0.1,1.3,0.2,2.1,0.3
			c0.7,0,1.4,0.1,2.1,0.1c0.6,0,1.2,0,1.7,0c0.5,0,0.8,0,1-0.1c0.1,0,0.1,0,0.2,0s0.1,0,0.1,0c1,0.4,1.5,1,1.5,1.8
			c0,0.5-0.1,0.9-0.3,1.3s-0.6,0.6-1.1,0.6c-0.2,0-0.4,0-0.7,0c-0.3,0-0.6,0-1-0.1c-0.3,0-0.6,0-1-0.1c-0.3,0-0.5,0-0.7,0
			c-0.4,0-0.9,0-1.4,0c-0.6,0-1.1,0-1.6-0.1c-0.5,0-1-0.1-1.4-0.1c-0.4,0-0.6,0-0.7,0c-1.6-0.5-2.7-1.2-3.3-2.1
			c0.1-0.6,0.5-1.5,1.2-2.8c0.3-0.3,0.7-0.7,1-1.1c0.4-0.4,0.8-0.9,1.2-1.4c0.8-0.7,1.4-1.4,2-2c0.6-0.6,1.1-1.2,1.5-1.8
			c-0.1,0-0.3-0.1-0.5-0.1c-0.2,0-0.4,0-0.7,0s-0.7,0-1,0.1c-0.5,0.1-1.1,0.2-1.6,0.3c-0.7,0.1-1.2,0.2-1.3,0.2
			c-0.7,0-1.1-0.6-1.2-1.8c0-0.4,0-0.6-0.1-0.8c0-0.2,0.1-0.4,0.3-0.5c0.2-0.1,0.7-0.3,1.3-0.4c0.6-0.1,1.5-0.3,2.7-0.6
			c0.7,0,1.6,0,2.7,0.1C-32.6,404.5-31.4,404.7-30,405.2z"/>
		<path id="XMLID_189_" class="st7" d="M-9.4,416.7c-0.9,0.9-1.8,1.7-2.9,2.3c-1.1,0.6-2.2,1-3.3,1c-1,0-2.3-0.1-3.9-0.3
			c-0.6-0.3-1.1-0.7-1.7-1.2c-0.6-0.5-1.1-1-1.6-1.6s-0.9-1.2-1.2-1.9c-0.3-0.7-0.5-1.4-0.5-2.2c0-0.2,0-0.5,0-0.9s0-0.7,0.1-1.1
			c0-0.4,0-0.8,0.1-1.4c0.5-0.9,1.1-1.8,1.7-2.7c0.6-0.9,1.4-1.7,2.6-2.4c1.8-0.4,3.1-0.7,3.9-0.7c0.4,0,0.8,0,1.1,0
			c0.3,0,0.6,0.1,0.9,0.2c0.3,0.1,0.6,0.3,0.9,0.5c0.3,0.2,0.7,0.5,1.1,0.9c0.5,0.4,0.8,0.7,1.1,0.9s0.4,0.3,0.4,0.4
			c0.1,2.5-0.7,4.2-2.2,5.1c-0.7,0.3-1.6,0.6-2.7,0.9s-2.6,0.6-4.5,1c0.4,1,1,1.8,1.6,2.2c0.7,0.5,1.4,0.7,2.2,0.7
			c1.2,0,2.6-0.8,4.4-2.2c0.3-0.2,0.6-0.4,1-0.4s0.8,0.1,1.2,0.5c0.3,0.3,0.5,0.7,0.6,1.2C-9.1,416-9.2,416.3-9.4,416.7z
			 M-14.2,408.1c-0.6-0.8-1.2-1.2-1.9-1.2c-0.3,0-0.6,0.1-1,0.2s-0.7,0.2-1.1,0.4c-0.4,0.2-0.7,0.4-1,0.6s-0.6,0.5-0.7,0.8
			c-0.1,0.4-0.2,0.8-0.4,1.2c0.9-0.1,1.8-0.2,2.5-0.3c0.7-0.1,1.3-0.2,1.9-0.3c0.5-0.1,0.9-0.3,1.2-0.5
			C-14.5,408.8-14.3,408.5-14.2,408.1z"/>
		<path id="XMLID_188_" class="st10" d="M7.3,404.4c0.5,0.3,0.7,0.8,0.7,1.5c0,0.6-0.2,1.1-0.5,1.5S6.8,408,6.2,408
			c-0.3,0-0.7-0.1-1-0.3c-0.4-0.2-0.7-0.3-1.1-0.3c-0.3,0-0.7,0.1-1,0.2c-0.3,0.1-0.7,0.4-1.1,0.8c-0.4,0.4-0.8,0.8-1.2,1.2
			c0,0.2,0,0.4,0,0.6c0,0.2,0,0.4,0,0.6c0,0.3,0,0.7,0,1c0,0.4,0,0.7-0.1,1.1c0.1,1.2,0.3,2.5,0.4,3.7c-0.1,1.2-0.7,1.9-1.9,1.9
			c-0.6,0-1.1-0.2-1.4-0.6c-0.3-0.4-0.5-0.9-0.6-1.6s-0.2-1.5-0.2-2.5c0-0.9,0-2-0.1-3.1c-0.1-1.7-0.1-2.6-0.2-2.6l0,0
			c-0.1-0.4-0.2-0.8-0.3-1.1c-0.1-0.3-0.1-0.6-0.1-0.8c0-0.5,0.2-0.9,0.5-1.2c0.4-0.3,0.9-0.5,1.6-0.5c0.5,0,1,0.3,1.6,1
			c0.6-0.5,1.1-0.9,1.5-1.1c0.3-0.2,0.6-0.4,0.9-0.5c0.2-0.1,0.5-0.2,0.7-0.2c0.2,0,0.5,0,0.9,0c0.3,0,0.6,0,0.9,0
			c0.3,0.1,0.6,0.1,0.9,0.2C6.3,404.2,6.8,404.3,7.3,404.4z"/>
		<path id="XMLID_185_" class="st8" d="M45.2,405.6c-0.1,0.5-0.2,0.9-0.3,1.3c-0.1,0.4-0.2,0.7-0.5,1c-0.2,0.3-0.5,0.7-0.8,1
			c-0.3,0.3-0.8,0.7-1.3,1.2c-1.4,1.1-2.8,1.7-4.4,1.9c-0.4,0.1-0.8,0.3-1.4,0.4c-0.6,0.2-1.3,0.3-2.1,0.5c0,0.9,0,1.8,0,2.6
			c0,0.4,0.1,0.8,0.1,1.1c0,0.4,0,0.8,0,1.3c0,0.3,0,0.7,0,1.1c0,0.4-0.1,0.7-0.2,1c-0.1,0.3-0.3,0.6-0.6,0.8s-0.6,0.3-1.1,0.3
			c-0.5,0-0.9-0.1-1.1-0.3c-0.2-0.2-0.4-0.5-0.5-0.8s-0.1-0.7-0.1-1.2c0-0.5,0-0.9-0.1-1.5l0,0c0-0.4,0-0.8,0-1.3c0-0.4,0-1,0-1.6
			c0-0.6,0-1.4-0.1-2.3c0-0.1,0-0.2,0-0.2c0-0.2,0-0.4,0-0.6c0-0.3,0-0.6,0-0.9c0-0.3,0-0.6,0-0.8c0-0.2,0-0.4,0-0.5
			c0-0.2,0-0.5,0.1-0.9c0-0.4,0.1-0.9,0.1-1.4c0-0.5,0.1-1,0.1-1.4c0-0.4,0-0.8,0.1-1c0-0.4,0-0.8,0-1.2c0-0.4-0.1-0.7-0.1-1
			c0-0.1,0-0.2,0-0.5c0-0.3,0.1-0.6,0.1-1s0.1-0.7,0.2-1.1c0.1-0.4,0.2-0.7,0.2-0.9c0.8-0.3,1.7-0.5,2.8-0.4c0.1,0,0.2,0,0.3,0
			c1.2-0.3,2.4-0.4,3.4-0.4c0.4,0,1.5,0.2,3.3,0.6c0.6,0.4,1.2,0.7,1.8,1.1c0.5,0.3,0.9,0.7,1.2,1c0.3,0.3,0.5,0.7,0.7,1.2
			c0.2,0.4,0.3,1,0.3,1.5C45.2,404.1,45.2,404.8,45.2,405.6z M41.2,406c0.1-0.5,0.2-1,0.2-1.4c0-0.7-0.2-1.4-0.8-2.1
			c-0.6-0.6-1.6-1-3-1.1c-0.7,0-1.6,0.1-3,0.5c0,0.5,0.1,1.1,0.1,1.8c0,0.7,0,1.6-0.1,2.5c0,0.1-0.1,0.3-0.1,0.8c0,0.2,0,0.5,0,0.9
			c0,0.3,0,0.7,0,1.2c0.2,0,0.5-0.1,0.9-0.1c0.3-0.1,0.6-0.1,0.9-0.2c0.3-0.1,0.6-0.2,1-0.3C39.3,408.2,40.6,407.3,41.2,406z"/>
		<path id="XMLID_182_" class="st9" d="M64.2,416.1c0.5,0.4,0.7,0.8,0.6,1.2c0,0.2-0.1,0.5-0.3,0.7c-0.2,0.2-0.4,0.5-0.6,0.6
			c-0.2,0.2-0.5,0.3-0.7,0.4c-0.3,0.1-0.5,0.2-0.8,0.1c-0.2-0.1-0.5-0.3-0.7-0.5c-0.3-0.2-0.6-0.5-0.9-0.8c-0.3-0.3-0.5-0.6-0.8-0.9
			c-0.2-0.3-0.4-0.7-0.5-1c-0.1,0.2-0.2,0.4-0.3,0.7c-0.6,0.9-1.5,1.8-2.7,2.6c-1.4,0.1-2.2,0.2-2.4,0.2c-0.5,0-1.1-0.2-1.9-0.4
			c-0.7-0.6-1.4-1.2-2.2-1.7c-0.9-1-1.4-2.3-1.3-3.9c0-0.6,0.2-1.2,0.4-1.9s0.5-1.4,0.9-2c0.4-0.7,0.9-1.3,1.4-2
			c0.5-0.6,1.2-1.2,1.9-1.7c0.8-0.2,1.6-0.4,2.4-0.6c0.8-0.1,1.4-0.2,1.8-0.3c0.6-0.5,1.2-0.8,2-0.7c0.4,0,0.8,0.3,1.1,0.7
			c0.3,0.4,0.5,0.9,0.7,1.5c0.2,0.6,0.3,1.3,0.4,2c0.1,0.7,0.1,1.4,0.1,2.1c0.1,0.7,0.2,1.5,0.4,2.2c0.1,0.7,0.3,1.3,0.7,1.8
			C63.3,415.2,63.6,415.7,64.2,416.1z M58.3,411.1c-0.1,0-0.2-0.9-0.4-2.6c-0.1,0-0.4,0-0.6,0c-0.3,0-0.6,0-1,0.1
			c-0.4,0.1-0.8,0.3-1.3,0.7c-0.5,0.3-0.9,0.9-1.3,1.6c-0.7,1-1,2-1.1,3.1c0.4,0.9,1.1,1.7,2.1,2.3c0.3-0.1,0.6-0.1,0.8-0.2
			c0.2-0.1,0.4-0.2,0.6-0.4c0.2-0.2,0.4-0.4,0.5-0.7c0.2-0.3,0.4-0.6,0.6-1c0.4-0.6,0.7-1.1,0.9-1.6
			C58.2,411.8,58.3,411.4,58.3,411.1z"/>
		<path id="XMLID_181_" class="st4" d="M80.9,408.7c0.4,0.3,0.6,0.8,0.5,1.6c-0.1,0.6-0.3,1-0.6,1.4c-0.4,0.4-0.8,0.5-1.3,0.5
			c-0.3,0-0.7-0.2-1-0.4c-0.3-0.2-0.7-0.3-1.1-0.4c-0.3,0-0.7,0-1,0.1c-0.3,0.1-0.7,0.3-1.2,0.7c-0.5,0.4-0.9,0.7-1.4,1.1
			c0,0.2,0,0.4,0,0.6c0,0.2,0,0.4,0,0.6c0,0.3-0.1,0.7-0.1,1c0,0.4-0.1,0.7-0.2,1.1c0,1.2,0,2.5,0,3.7c-0.2,1.2-0.9,1.8-2.1,1.7
			c-0.6-0.1-1.1-0.3-1.3-0.7c-0.3-0.4-0.4-1-0.5-1.7c0-0.7,0-1.5,0.1-2.5c0.1-0.9,0.2-2,0.3-3.1c0.1-1.7,0.1-2.6,0.1-2.6l0,0
			c-0.1-0.4-0.1-0.8-0.1-1.1c0-0.3,0-0.6,0-0.8c0-0.5,0.3-0.9,0.7-1.1c0.4-0.3,0.9-0.4,1.6-0.3c0.5,0,0.9,0.4,1.5,1.2
			c0.7-0.4,1.2-0.7,1.6-0.9c0.4-0.2,0.7-0.4,0.9-0.4c0.2-0.1,0.5-0.1,0.7-0.1c0.2,0,0.5,0,0.9,0.1c0.3,0,0.6,0.1,0.9,0.1
			c0.3,0.1,0.5,0.2,0.8,0.3C79.9,408.4,80.4,408.6,80.9,408.7z"/>
		<path id="XMLID_180_" class="st7" d="M96,409.1c0.3,0.3,0.4,0.7,0.3,1.4c-0.2,1.2-0.7,1.7-1.6,1.6c-0.1,0-0.1,0-0.2,0
			c-0.4,0-0.9-0.1-1.5-0.1c-0.6,0-1.2,0-1.9,0c-0.1,0.4-0.2,1-0.4,1.7c-0.1,0.7-0.3,1.5-0.4,2.6c0,0.1,0,0.2,0,0.2
			c0,0.1,0,0.2,0,0.3c-0.1,0.6-0.2,1.2-0.2,1.8c-0.1,0.4,0,0.8,0.1,1.1c0.1,0.3,0.3,0.5,0.5,0.6c0.4,0.2,0.7,0.3,1.1,0.5
			c0.9,0.4,1.3,1,1.2,1.8c-0.1,0.5-0.3,0.8-0.7,1.1s-0.9,0.4-1.5,0.3c-0.2,0-0.4-0.1-0.8-0.2c-0.4-0.1-0.8-0.3-1.2-0.5
			c-0.4-0.2-0.8-0.5-1.1-0.7c-0.3-0.3-0.6-0.6-0.7-0.9c-0.2-0.7-0.4-1.3-0.5-2c-0.1-0.7-0.1-1.4,0-2.2c0.1-0.8,0.2-1.4,0.3-1.8
			c0.1-0.3,0.1-0.7,0.2-0.9c0.1-0.3,0.1-0.6,0.2-1c0.1-0.4,0.2-1,0.3-1.8c-0.5,0-1.3,0.1-2.4,0.2c-0.6-0.1-1.1-0.3-1.5-0.6
			c-0.4-0.4-0.6-0.8-0.5-1.3c0-0.4,0.2-0.7,0.5-1c0.3-0.3,0.8-0.5,1.6-0.7c0.3-0.1,0.5-0.1,0.7-0.1c0.2,0,0.4,0,0.6,0
			c0.2,0,0.4,0,0.7,0c0.2,0,0.6,0,0.9,0c0.1-0.7,0.2-1.4,0.4-2.3c0.2-0.8,0.4-1.6,0.7-2.3c0.3-0.7,0.6-1.3,1-1.7
			c0.4-0.5,0.9-0.6,1.5-0.6c1,0.1,1.6,0.6,1.7,1.6c0,0-0.1,0.2-0.2,0.5c-0.1,0.3-0.2,0.7-0.4,1.1c-0.1,0.4-0.3,0.8-0.4,1.1
			c-0.1,0.4-0.2,0.6-0.2,0.7c-0.1,0.7-0.2,1.3-0.4,2c0.2,0,0.4,0,0.6,0c0.2,0,0.3,0,0.6,0c0.1,0,0.3,0,0.4,0c0.2,0,0.4,0,0.6,0
			c0.2,0,0.3,0,0.5,0C95.2,408.8,95.7,408.9,96,409.1z"/>
		<path id="XMLID_179_" class="st10" d="M114.7,414.3c-0.1,0.6-0.2,1-0.3,1.2c-0.1,0.2-0.2,0.5-0.3,0.7c-0.2,0.3-0.4,0.6-0.8,1.1
			c-0.4,0.5-0.9,1.3-1.6,2.4c-0.4,1.2-1.2,2.4-2.2,3.5c-0.6,1.2-1.3,2.1-1.9,2.6c-0.1,0.2-0.4,0.6-0.7,1c-0.4,0.5-0.8,1-1.2,1.5
			c-0.4,0.5-0.8,1-1.2,1.5c-0.4,0.5-0.7,0.9-0.9,1.2c-0.1,0.1-0.2,0.3-0.5,0.6c-0.2,0.3-0.5,0.6-0.8,0.9s-0.6,0.6-1,0.8
			c-0.4,0.2-0.7,0.3-1.1,0.3c-0.5-0.1-0.9-0.3-1.3-0.7c-0.4-0.4-0.5-0.8-0.5-1.2c0-0.2,0.2-0.5,0.4-0.8c0.2-0.3,0.5-0.6,0.8-1
			c0.3-0.4,0.7-0.7,1-1.1c0.4-0.4,0.7-0.7,0.9-1c0.1-0.2,0.3-0.5,0.6-0.9s0.6-0.8,0.9-1.2c0.3-0.4,0.6-0.9,0.9-1.3
			c0.3-0.4,0.5-0.7,0.6-1c-0.1-0.1-0.2-0.2-0.4-0.5c-0.2-0.3-0.4-0.5-0.6-0.8c-0.2-0.3-0.5-0.6-0.7-0.9c-0.2-0.3-0.5-0.5-0.7-0.6
			c-0.2-0.5-0.5-0.8-0.6-1.1c-0.2-0.3-0.4-0.5-0.5-0.7c-0.2-0.2-0.3-0.4-0.5-0.6c-0.2-0.2-0.3-0.4-0.5-0.8c-0.2-0.3-0.4-0.8-0.7-1.3
			c-0.3-0.5-0.6-1.2-1-2.1c0-0.1,0-0.2,0-0.4c0.1-0.5,0.3-1,0.8-1.4c0.5-0.4,0.9-0.5,1.4-0.5c0.3,0,0.6,0.2,1,0.6
			c0.3,0.3,0.7,0.9,1.1,1.7c0.4,0.9,0.7,1.5,1,1.9c0.2,0.4,0.4,0.8,0.6,1c0.2,0.3,0.4,0.5,0.6,0.7c0.2,0.2,0.5,0.6,0.9,1.1
			c0.3,0.2,0.7,0.7,1.2,1.4c0.7-1.2,1.4-2.4,2.1-3.7c0.4-0.7,0.8-1.3,1.3-2c0.4-0.7,0.8-1.4,1-2c0.7-0.3,1.3-0.4,1.9-0.3
			C114.2,412.7,114.7,413.3,114.7,414.3z"/>
	</g>
	<g id="Schrift_shadow" class="st11">
		<g id="XMLID_11_">
			<path class="st12" d="M-92.8,404.6c0.6,0,1.3,0,2.3,0.1c0.3,0.1,0.6,0.2,0.9,0.3c0.3,0.1,0.7,0.3,1,0.4c0.3,0.1,0.6,0.3,0.9,0.5
				c0.1,0.1,0.3,0.1,0.4,0.2c0.4,0.3,0.6,0.5,0.7,0.8l0,0l0,0c0.2,0.3,0.4,0.7,0.5,1.2c0.2,0.7,0.4,1.3,0.5,2.1l0,1.3
				c0,0.3-0.1,0.6-0.2,1c0,0.2-0.2,0.3-0.3,0.5c-0.1,0.1-0.2,0.3-0.3,0.4c-0.1,0.1-0.1,0.2-0.2,0.3c-0.2,0.3-0.5,0.7-0.8,1l0,0l0,0
				c-1,1.3-2.3,2.1-3.7,2.5l-0.1,0l-0.1,0c-0.1,0.1-0.3,0.2-0.5,0.3c-0.2,0.1-0.5,0.2-0.7,0.4c-0.6,0.3-1.2,0.6-2,0.9l-0.4,0.2
				l0.1,0.4c0.1,0.4,0.2,0.9,0.2,1.3c0.1,0.4,0.1,0.9,0.3,1.3c0.1,0.2,0.1,0.4,0.2,0.6c0,0.2,0.1,0.3,0.1,0.5
				c0.1,0.4,0.2,0.7,0.2,1.1c0,0.4,0.2,1,0.2,1.1c0.1,0.3,0.1,0.5,0,0.9l0,0.1l0,0.1c0,0.1-0.2,0.4-0.3,0.6
				c-0.1,0.1-0.4,0.2-0.8,0.3c-0.1,0-0.2,0-0.3,0c-0.3,0-0.5-0.1-0.6-0.1c-0.1,0-0.2-0.2-0.3-0.4c-0.1-0.3-0.2-0.7-0.3-1.1l0-0.1
				l0-0.1c-0.1-0.2-0.2-0.4-0.2-0.7c-0.1-0.2-0.1-0.4-0.2-0.6c-0.1-0.2-0.1-0.5-0.2-0.7c0-0.1-0.1-0.3-0.1-0.4
				c-0.1-0.4-0.2-0.9-0.3-1.6c-0.1-0.6-0.3-1.4-0.5-2.2l0-0.1c0-0.2,0-0.3-0.1-0.4c0-0.1,0-0.1,0-0.2l0-0.1l0-0.1
				c0-0.1-0.1-0.2-0.1-0.3c0-0.1-0.1-0.3-0.1-0.5c0-0.1-0.1-0.2-0.1-0.3c0-0.1,0-0.2-0.1-0.4c0-0.2,0-0.3-0.1-0.4c0,0,0,0,0,0
				c0,0,0,0,0,0c0-0.1,0-0.2,0-0.4c0-0.2-0.1-0.3-0.1-0.5l0-0.1l0-0.1c0-0.2-0.1-0.4-0.1-0.6c0-0.2,0-0.5-0.1-0.7
				c0-0.2-0.1-0.4-0.1-0.7c0-0.3-0.1-0.5-0.1-0.8c-0.1-0.3-0.1-0.7-0.1-0.9l0-0.1l0-0.1c0-0.2-0.1-0.4-0.1-0.5
				c0-0.2-0.1-0.4-0.1-0.7c0-0.1-0.1-0.2-0.1-0.3c-0.1-0.2-0.1-0.4-0.2-0.5c0-0.1,0-0.3-0.1-0.5c0-0.1,0-0.3,0-0.4
				c0-0.2,0-0.3,0-0.5l0-1.1c0-0.2,0-0.4,0-0.6c0.6-0.4,1.4-0.6,2.2-0.7c0.1,0,0.3,0,0.5-0.2c1-0.4,2.1-0.8,3.1-0.9l0,0l0,0
				C-93.7,404.6-93.5,404.6-92.8,404.6 M-95.9,413.7c0,0.1,0,0.2,0,0.3c0,0.2,0.1,0.3,0.1,0.5l0,0.1l0,0.1c0,0.1,0.1,0.3,0.1,0.5
				c0,0.2,0.1,0.4,0.1,0.6l0.1,0.6l0.6-0.3c0.2-0.1,0.5-0.2,0.7-0.3c0.2-0.1,0.4-0.1,0.5-0.2c0.1-0.1,0.3-0.1,0.4-0.2
				c0.3-0.1,0.7-0.3,1-0.5c2.2-0.7,3.4-1.9,3.8-3.5l0-0.1l0-0.1c0-0.5,0-1-0.1-1.5c-0.1-0.8-0.5-1.5-1.4-2.2
				c-0.6-0.4-1.5-0.7-2.5-0.7c-0.3,0-0.7,0-1.1,0.1c-0.8,0.1-2,0.7-2.9,1.1l-0.3,0.2l0.1,0.4c0,0.2,0.1,0.4,0.1,0.6
				c0.1,0.4,0.2,0.7,0.2,1.1c0,0.3,0.1,0.5,0.1,0.9c0.1,0.5,0.2,1,0.2,1.6C-96,413-96,413.2-95.9,413.7 M-92.8,404.1
				c-0.5,0-0.9,0-1,0.1c-1,0.1-2.1,0.5-3.3,1c-0.1,0.1-0.2,0.1-0.3,0.1c0,0,0,0,0,0c-1,0.1-1.9,0.4-2.6,0.9
				c-0.1,0.2-0.1,0.5-0.1,0.9c0,0.4,0,0.7,0,1.1s0.1,0.7,0.1,1c0.1,0.3,0.1,0.4,0.1,0.5c0.1,0.2,0.2,0.6,0.3,0.9
				c0.1,0.4,0.1,0.8,0.2,1.2c0,0.2,0,0.6,0.1,1c0.1,0.4,0.1,0.9,0.2,1.4c0.1,0.5,0.1,1,0.2,1.4c0,0.4,0.1,0.7,0.1,0.9
				c0,0.1,0.1,0.3,0.1,0.5c0.1,0.3,0.1,0.5,0.2,0.8c0.1,0.3,0.1,0.5,0.2,0.8c0,0.2,0.1,0.4,0.1,0.6c0,0,0,0.1,0,0.2
				c0.2,0.8,0.4,1.6,0.5,2.2c0.1,0.7,0.2,1.2,0.3,1.6s0.2,0.9,0.3,1.2c0.2,0.5,0.3,1,0.5,1.4c0.1,0.5,0.2,0.9,0.3,1.2
				c0.1,0.3,0.3,0.6,0.6,0.7c0.2,0.1,0.5,0.1,0.8,0.1c0.1,0,0.3,0,0.4,0c0.5-0.1,0.9-0.2,1.1-0.5s0.4-0.6,0.4-0.9
				c0.1-0.4,0.1-0.7,0-1.1c-0.1-0.3-0.2-0.7-0.2-1c0-0.4-0.1-0.8-0.2-1.2c-0.1-0.4-0.2-0.7-0.3-1.1c-0.2-0.9-0.3-1.7-0.5-2.6
				c0.8-0.3,1.4-0.6,2-0.9c0.5-0.3,1-0.5,1.3-0.7c1.5-0.4,2.9-1.3,4-2.7c0.5-0.5,0.8-1,1.1-1.4c0.2-0.4,0.5-0.7,0.6-1.1
				c0.1-0.3,0.2-0.7,0.2-1.1c0-0.4,0-0.8,0-1.3c-0.1-0.8-0.3-1.5-0.5-2.2c-0.1-0.5-0.3-1-0.6-1.4c-0.2-0.4-0.5-0.7-0.9-1
				c-0.4-0.2-0.9-0.5-1.4-0.7c-0.7-0.2-1.3-0.5-2-0.7C-91.5,404.1-92.3,404.1-92.8,404.1L-92.8,404.1z M-95.2,415.7
				c-0.1-0.4-0.1-0.8-0.2-1.1c0-0.4-0.1-0.7-0.1-0.9c-0.1-0.5-0.1-0.7-0.1-0.8c-0.1-1-0.3-1.8-0.4-2.5c-0.1-0.7-0.3-1.3-0.4-1.8
				c1.2-0.6,2.2-1,2.8-1.1c0.3,0,0.7-0.1,1-0.1c0.9,0,1.7,0.2,2.2,0.6c0.7,0.6,1.1,1.2,1.2,1.9c0.1,0.4,0.1,0.9,0.1,1.4
				c-0.3,1.4-1.4,2.5-3.5,3.2c-0.3,0.2-0.6,0.4-0.9,0.5s-0.6,0.3-0.9,0.4C-94.7,415.5-95,415.6-95.2,415.7L-95.2,415.7z"/>
		</g>
		<g id="XMLID_10_">
			<path class="st12" d="M-71.1,406.7c0.2,0,0.5,0.1,0.8,0.4c0.4,0.4,0.6,0.8,0.9,1.3c0.3,0.6,0.6,1.2,0.8,1.8
				c0.2,0.7,0.4,1.4,0.5,1.9l0,0.1l0,0.1c0.1,0.3,0.3,0.7,0.4,1c0.1,0.3,0.2,0.7,0.4,1.1c0.2,0.8,0.7,1.4,1.1,1.7
				c0.3,0.5,0.8,0.8,1.3,1.2l0.2,0.1c0.4,0.2,0.6,0.4,0.7,0.7c0,0.2,0,0.4-0.1,0.6c-0.1,0.2-0.2,0.3-0.4,0.5l-0.3,0.3l-0.3,0.3
				c-0.1,0.1-0.2,0.1-0.3,0.1c-0.2-0.1-0.4-0.2-0.7-0.2c-0.3-0.2-0.6-0.4-1-0.6c-0.3-0.2-0.5-0.5-0.8-0.7c-0.3-0.3-0.4-0.5-0.6-0.8
				l-0.5-0.7l-0.4,0.8c-0.1,0.2-0.1,0.3-0.1,0.5c0,0.1,0,0.2-0.1,0.3c-0.4,1-1,1.9-2,2.7c-1.4,0.4-1.9,0.5-2.1,0.5h0l0,0
				c-0.2,0-0.5,0.1-0.7,0.1c-0.3,0-0.6,0-0.9-0.1c-0.7-0.4-1.5-0.8-2.4-1.3c-1-0.7-1.6-1.8-1.8-3.3c-0.1-0.5-0.1-1.1,0-1.7
				c0.1-0.5,0.2-1.1,0.4-1.7l0.1-0.4c0.1-0.1,0.1-0.3,0.2-0.5c0.2-0.6,0.5-1.1,0.8-1.7c0.4-0.7,0.9-1.3,1.4-1.8
				c0.7-0.4,1.4-0.6,2.2-0.9c0.6-0.3,1.2-0.5,1.6-0.6l0.2,0l0.1-0.1C-72.1,407.1-71.6,406.8-71.1,406.7 M-72.8,410.2
				c-0.3,0-0.7,0.1-1.1,0.3c-0.5,0.2-0.8,0.6-1.2,1c-0.4,0.4-0.8,1-1.1,1.9c-0.5,1.1-0.7,2.2-0.6,3.5l0,0.1l0.1,0.1
				c0.7,0.9,1.6,1.6,2.7,2l0.2,0.1l0.2-0.1c0.3-0.1,0.6-0.2,0.8-0.5c0.3-0.2,0.5-0.4,0.7-0.7c0-0.1,0.1-0.1,0.1-0.2
				c0.1-0.2,0.2-0.4,0.3-0.7c0-0.1,0.1-0.2,0.1-0.3c0.1-0.2,0.2-0.5,0.3-0.8c0.3-0.7,0.5-1.2,0.6-1.8l0,0l0,0c0-0.1,0-0.2,0-0.4
				c0-0.3,0.1-0.6,0-0.9l-0.1-0.3l-0.1,0c-0.1-0.2-0.3-0.8-0.7-2.1l-0.1-0.4h-0.4C-72.4,410.1-72.6,410.1-72.8,410.2 M-71.1,406.2
				c-0.7,0.1-1.3,0.5-1.8,1.1c-0.4,0.1-1,0.3-1.7,0.6c-0.8,0.3-1.5,0.6-2.3,1c-0.6,0.6-1.1,1.3-1.5,2c-0.4,0.7-0.7,1.5-1,2.2
				c-0.2,0.8-0.4,1.5-0.5,2.2s-0.1,1.3,0,1.9c0.2,1.6,0.9,2.8,2,3.6c0.9,0.5,1.7,0.9,2.5,1.3c0.4,0.1,0.7,0.1,1.1,0.1
				c0.3,0,0.6,0,0.8-0.1c0,0,0,0,0,0c0.2,0,1-0.2,2.3-0.6c1.1-1,1.8-2,2.2-3c0.1-0.2,0.1-0.5,0.2-0.7c0.2,0.3,0.4,0.6,0.7,0.9
				c0.3,0.3,0.6,0.6,0.9,0.8c0.4,0.2,0.7,0.4,1,0.6c0.3,0.1,0.6,0.2,0.8,0.3c0,0,0,0,0,0c0.2,0,0.5-0.1,0.7-0.3
				c0.2-0.2,0.4-0.4,0.6-0.6c0.2-0.2,0.4-0.4,0.5-0.7c0.1-0.3,0.1-0.6,0.1-0.8c-0.1-0.5-0.4-0.8-0.9-1.1c-0.6-0.4-1.1-0.7-1.4-1.2
				c-0.4-0.4-0.8-0.9-1-1.6c-0.3-0.7-0.5-1.4-0.8-2.1c-0.1-0.6-0.3-1.3-0.5-2c-0.2-0.7-0.5-1.3-0.8-1.9c-0.3-0.6-0.6-1-1-1.4
				C-70.3,406.3-70.7,406.2-71.1,406.2L-71.1,406.2z M-72.7,410.7c0.2-0.1,0.5-0.1,0.6-0.1c0,0,0,0,0,0c0.5,1.7,0.8,2.5,0.9,2.5
				c0.1,0.3,0,0.7,0,1.1c-0.1,0.5-0.3,1-0.6,1.7c-0.1,0.4-0.3,0.8-0.4,1.1s-0.3,0.6-0.4,0.8c-0.1,0.2-0.3,0.4-0.5,0.5
				c-0.2,0.2-0.4,0.3-0.7,0.4c-1.1-0.4-1.9-1-2.5-1.8c-0.1-1,0-2.1,0.5-3.2c0.3-0.8,0.6-1.4,1-1.8c0.4-0.4,0.7-0.7,1.1-0.9
				C-73.3,410.8-73,410.7-72.7,410.7C-72.7,410.7-72.7,410.7-72.7,410.7L-72.7,410.7z"/>
		</g>
		<g id="XMLID_9_">
			<path class="st12" d="M-58.5,406.3l0,0.5c0.3,0,0.6,0,0.7,0.1c0.1,0.1,0.6,0.5,1,0.9l0.3,0.3l0.3-0.2c0.5-0.3,1-0.5,1.2-0.5
				c0.4-0.1,0.7-0.2,1-0.2l0,0l0,0c0.2,0,0.4,0,0.6,0c1.2,0,2.2,0.2,3,0.7c1,0.5,1.7,1.4,2,2.7c0.1,0.6,0.2,1,0.3,1.4
				c0.1,0.2,0.1,0.4,0.2,0.6c0,0.2,0.1,0.3,0.2,0.6c0.1,0.3,0.2,0.7,0.3,1.1l0,0l0,0c0.1,0.3,0.2,0.5,0.3,0.8
				c0.1,0.2,0.1,0.4,0.2,0.7l0,0.1l0,0.2c0,0.2,0,0.5,0.1,1l0,0.6l0,0.6c-0.1,0.4-0.2,0.7-0.4,1c-0.1,0.2-0.4,0.3-0.8,0.4
				c-0.1,0-0.2,0-0.3,0c-0.6,0-1-0.2-1.2-0.7l0-0.2l0-0.3c0-0.2,0-0.4-0.1-0.8c0-0.4-0.1-0.9-0.1-1.2c0-0.2-0.1-0.5-0.1-0.7
				c0-0.5-0.1-1-0.2-1.5c-0.1-0.7-0.2-1.4-0.5-2.3c-0.2-0.8-0.6-1.3-0.8-1.5l0,0l-0.1,0c-0.7-0.4-1.3-0.6-2-0.6l0,0l0,0
				c-0.8,0.1-1.4,0.4-1.9,0.8c-0.5,0.5-0.8,1.3-1.1,2.7l0,0l0,0l0,0.7l0,0.6l0,0.9l0,0.7c0,0.5,0.1,1.1,0.2,1.6
				c0.1,0.5,0.2,1.2,0.3,1.8c0,0.6-0.2,0.8-0.3,0.9l0,0l0,0c-0.3,0.3-0.6,0.4-1,0.4c-0.4,0-0.6,0-0.7-0.1c-0.2-0.1-0.3-0.3-0.4-0.5
				l0-0.1l0-0.1c-0.2-0.2-0.2-0.6-0.3-0.9c0-0.2-0.1-0.4-0.1-0.5c0-0.2,0-0.4-0.1-0.6l0-0.4l0-0.4l0-1c0-1.3,0-2.6-0.1-3.9
				c0-0.3,0-0.6,0.1-1c0-0.3,0.1-0.7,0.1-1l0-0.1l0-0.1l-0.1-0.2c-0.1-0.3-0.2-0.6-0.4-0.9c-0.2-0.4-0.2-0.5-0.2-0.7
				c0-0.4,0.1-0.7,0.3-1c0.2-0.3,0.6-0.5,1-0.5V406.3 M-58.5,406.3c-0.6,0-1.1,0.3-1.4,0.7c-0.3,0.4-0.4,0.8-0.4,1.3
				c0,0.3,0.1,0.5,0.3,0.9c0.2,0.3,0.3,0.7,0.4,1c0,0.7-0.1,1.3-0.1,2c0.1,1.3,0.1,2.6,0.1,3.9c0,0.4,0,0.7,0,1c0,0.3,0,0.6,0,0.9
				c0.1,0.4,0.1,0.8,0.2,1.2c0.1,0.4,0.2,0.8,0.4,1.1c0.1,0.3,0.3,0.6,0.6,0.8s0.6,0.2,1,0.2c0,0,0,0,0,0c0.6,0,1-0.2,1.4-0.6
				c0.4-0.3,0.5-0.8,0.5-1.3c-0.1-0.7-0.2-1.4-0.3-1.9s-0.2-1-0.2-1.5c0-0.6,0-1.1,0-1.6c0-0.5,0-0.9,0-1.3c0.2-1.2,0.5-2,0.9-2.4
				c0.4-0.4,0.9-0.6,1.6-0.7c0.5,0,1.1,0.1,1.8,0.5c0.2,0.2,0.5,0.6,0.7,1.3c0.2,0.7,0.4,1.5,0.5,2.3c0.2,0.8,0.2,1.5,0.3,2.2
				c0.1,0.7,0.1,1.1,0.1,1.2c0.1,0.3,0.1,0.5,0.1,0.7c0,0.3,0,0.4,0,0.6c0.3,0.7,0.8,1.1,1.7,1.1c0.1,0,0.2,0,0.3,0
				c0.6-0.1,1-0.3,1.2-0.6c0.3-0.4,0.4-0.8,0.5-1.2c0-0.5,0-0.9,0-1.3c-0.1-0.4-0.1-0.7-0.1-0.9c0-0.1,0-0.2,0-0.3
				c-0.2-0.6-0.3-1.1-0.5-1.6c-0.1-0.4-0.2-0.8-0.3-1.1c-0.1-0.4-0.2-0.7-0.3-1.1c-0.1-0.4-0.2-0.8-0.3-1.4
				c-0.4-1.5-1.1-2.5-2.3-3.1c-0.9-0.5-2-0.7-3.2-0.7c-0.2,0-0.4,0-0.7,0c0,0,0,0,0,0c-0.5,0-0.9,0.1-1.2,0.2
				c-0.3,0.1-0.8,0.3-1.3,0.6c-0.5-0.5-0.9-0.9-1.1-1C-57.8,406.3-58.1,406.3-58.5,406.3C-58.5,406.3-58.5,406.3-58.5,406.3
				L-58.5,406.3z"/>
		</g>
		<g id="XMLID_8_">
			<path class="st12" d="M-36.4,405c0.7,0,1.5,0,2.6,0.1l0,0l0,0c0.2,0,0.3,0,0.5,0c0.9,0,1.8,0.2,2.8,0.5c0,0.1,0,0.1,0,0.2
				c0,0.2,0.1,0.4,0.1,0.6l0,0l0,0c0,0.1,0,0.2,0,0.3c0,0.3,0,0.5-0.2,0.8l0,0l0,0.1c-0.1,0.3-0.2,0.6-0.4,0.8
				c-0.2,0.3-0.4,0.6-0.7,1c-0.2,0.3-0.4,0.4-0.5,0.6l0,0l0,0.1c-0.4,0.6-0.8,1.1-1.2,1.5c-0.4,0.4-0.7,0.7-1.1,0.9l-0.1,0l-0.1,0.1
				c-0.2,0.2-0.4,0.5-0.6,0.8l-0.2,0.2l-0.5,0.5l-0.5,0.4l-0.3,0.2l-0.3,0.3l-0.1,0.1l-0.7,0.7l1,0.2c0.6,0.1,1.3,0.2,2.1,0.3l0,0
				l0,0c0.3,0,0.7,0,1,0.1c0.4,0,0.7,0.1,1.1,0.1l1.7,0l0.2,0c0.3,0,0.6,0,0.9-0.1l0.1,0h0c1,0.4,1.1,0.9,1.1,1.3
				c0,0.4-0.1,0.7-0.3,1.1c-0.1,0.2-0.3,0.3-0.7,0.3l-0.4,0l-0.3,0c-0.3,0-0.5,0-0.9-0.1l-0.1,0l-0.1,0c-0.3,0-0.5,0-0.9-0.1l-0.1,0
				l-0.1,0l-0.7,0l-0.2,0l-1.2,0c-0.6,0-1.1,0-1.5-0.1l0,0l0,0c-0.2,0-0.5,0-0.7-0.1c-0.2,0-0.5-0.1-0.7-0.1l-0.3,0l-0.3,0
				c-1.3-0.4-2.3-1-2.8-1.7c0.1-0.5,0.5-1.3,1.1-2.4c0.3-0.3,0.7-0.7,1-1.1c0.4-0.4,0.8-0.9,1.2-1.4c0.5-0.5,1-1,1.4-1.4
				c0.2-0.2,0.4-0.4,0.6-0.6c0.6-0.6,1.2-1.2,1.6-1.9l0.6-0.8l-0.9,0c0,0,0,0-0.1,0c-0.1,0-0.3-0.1-0.5-0.1l-0.5,0l-0.2,0l-0.1,0
				c-0.3,0-0.7,0-1,0.1c-0.2,0-0.5,0.1-0.8,0.1c-0.3,0-0.6,0.1-0.8,0.1c-0.4,0-0.7,0.1-0.9,0.1c-0.2,0-0.3,0.1-0.3,0.1
				c-0.1,0-0.6,0-0.7-1.3c0-0.3,0-0.6-0.1-0.9c0,0,0,0,0,0c0.2-0.1,0.6-0.3,1.2-0.3C-38.5,405.5-37.6,405.3-36.4,405 M-36.5,404.5
				c-1.2,0.3-2.1,0.5-2.7,0.6c-0.6,0.1-1.1,0.3-1.3,0.4c-0.2,0.1-0.3,0.3-0.3,0.5c0.1,0.2,0.1,0.4,0.1,0.8c0.1,1.2,0.5,1.8,1.2,1.8
				c0,0,0,0,0,0c0.1,0,0.6-0.1,1.3-0.2c0.5-0.1,1.1-0.2,1.6-0.3c0.3-0.1,0.6-0.1,0.9-0.1c0,0,0.1,0,0.1,0c0.3,0,0.5,0,0.7,0
				c0.2,0,0.4,0.1,0.5,0.1c-0.4,0.6-0.9,1.2-1.5,1.8c-0.6,0.6-1.2,1.3-2,2c-0.4,0.5-0.8,1-1.2,1.4c-0.3,0.4-0.7,0.8-1,1.1
				c-0.7,1.3-1.1,2.2-1.2,2.8c0.6,0.9,1.7,1.6,3.3,2.1c0.1,0,0.3,0,0.7,0c0.4,0,0.9,0.1,1.4,0.1c0.5,0.1,1,0.1,1.6,0.1
				c0.5,0,1,0,1.4,0c0.2,0,0.4,0,0.7,0c0.4,0.1,0.7,0.1,1,0.1c0.4,0.1,0.7,0.1,1,0.1s0.5,0,0.7,0c0,0,0,0,0,0c0.5,0,0.9-0.2,1.1-0.6
				c0.2-0.4,0.3-0.8,0.3-1.3c0-0.8-0.5-1.4-1.5-1.8c0,0,0,0-0.1,0s-0.1,0-0.2,0c-0.2,0.1-0.4,0.1-0.8,0.1c-0.1,0-0.1,0-0.2,0
				c-0.5,0-1.1,0-1.7,0c-0.7,0-1.4-0.1-2.1-0.1c-0.8-0.1-1.5-0.2-2.1-0.3c0.1-0.1,0.2-0.2,0.4-0.4c0.2-0.2,0.4-0.4,0.7-0.7
				c0.2-0.2,0.5-0.5,0.8-0.8c0.2-0.3,0.4-0.6,0.6-0.8c0.5-0.2,0.9-0.6,1.3-1c0.4-0.4,0.9-0.9,1.3-1.6c0.2-0.2,0.4-0.4,0.6-0.7
				c0.3-0.4,0.5-0.7,0.7-1c0.2-0.3,0.4-0.6,0.5-1c0.2-0.4,0.2-0.7,0.2-1c0-0.1,0-0.3-0.1-0.5c-0.1-0.3-0.1-0.6-0.2-1
				c-1.2-0.4-2.2-0.6-3.2-0.6c-0.2,0-0.4,0-0.6,0C-34.9,404.5-35.8,404.5-36.5,404.5L-36.5,404.5z"/>
		</g>
		<g id="XMLID_7_">
			<path class="st12" d="M-16,403.6l0,0.5l1.1,0c0.2,0,0.5,0.1,0.7,0.2c0.2,0.1,0.5,0.3,0.8,0.4c0.3,0.2,0.6,0.5,1,0.8l0,0l0,0
				c0.2,0.2,0.4,0.3,0.5,0.4c0.2,0.2,0.4,0.4,0.6,0.5c0.1,0.1,0.1,0.1,0.2,0.1c0,2.2-0.6,3.7-2,4.5c-0.7,0.3-1.6,0.6-2.6,0.8
				c-0.9,0.2-2.1,0.5-3.6,0.8L-20,413l-0.6,0.1l0.2,0.6c0.4,1.1,1.1,2,1.8,2.4c0.8,0.5,1.5,0.8,2.5,0.8c1.2,0,2.6-0.7,4.7-2.3
				c0.3-0.2,0.5-0.3,0.7-0.3c0.3,0,0.5,0,0.8,0.4c0.2,0.2,0.4,0.5,0.4,0.9c-0.1,0.4-0.2,0.6-0.3,0.9c-0.8,0.8-1.7,1.6-2.7,2.1
				c-1.2,0.6-2.1,0.9-3.1,0.9c-1,0-2.2-0.1-3.7-0.3c-0.5-0.3-1-0.7-1.5-1.1c-0.6-0.5-1-1-1.5-1.5c-0.5-0.6-0.9-1.2-1.1-1.8
				c-0.3-0.7-0.5-1.4-0.4-2l0-0.6l0-0.3c0-0.4,0-0.6,0.1-1l0-0.1l0-0.1c0-0.4,0-0.7,0.1-1.2c0.5-0.9,1.1-1.7,1.7-2.6
				c0.6-0.9,1.4-1.6,2.4-2.2l0.2,0c1.6-0.4,2.8-0.6,3.5-0.6V403.6 M-21.2,410.7l0.9-0.1c0.9-0.1,1.8-0.2,2.5-0.3
				c0.7-0.1,1.3-0.2,1.9-0.3c0.5-0.1,1-0.3,1.4-0.6l0,0l0,0c0.2-0.2,0.5-0.6,0.6-1.1l0.1-0.2l-0.1-0.2c-0.7-1-1.4-1.4-2.3-1.4
				c-0.3,0-0.6,0.1-0.9,0.2l-0.2,0.1c-0.4,0.1-0.7,0.2-1.2,0.4c-0.4,0.2-0.7,0.4-1.1,0.6c-0.2,0.1-0.7,0.5-0.9,1.1
				c-0.1,0.4-0.2,0.7-0.4,1.1L-21.2,410.7 M-16,403.6c-0.8,0-2.1,0.3-3.9,0.7c-1.2,0.7-2,1.5-2.6,2.4c-0.6,0.9-1.2,1.8-1.7,2.7
				c-0.1,0.6-0.1,1-0.1,1.4c-0.1,0.4-0.1,0.7-0.1,1.1c0,0.4,0,0.7,0,0.9c0,0.8,0.2,1.5,0.5,2.2c0.3,0.7,0.7,1.3,1.2,1.9
				c0.5,0.6,1,1.1,1.6,1.6c0.6,0.5,1.1,0.9,1.7,1.2c1.6,0.2,2.9,0.3,3.9,0.3c0,0,0,0,0,0c1.1,0,2.2-0.4,3.3-1c1.1-0.6,2-1.4,2.9-2.3
				c0.2-0.4,0.3-0.7,0.4-1.2c-0.1-0.5-0.3-0.9-0.6-1.2c-0.4-0.4-0.8-0.5-1.2-0.5c0,0,0,0,0,0c-0.4,0-0.7,0.2-1,0.4
				c-1.8,1.4-3.2,2.2-4.4,2.2c0,0,0,0,0,0c-0.8,0-1.5-0.2-2.2-0.7c-0.6-0.4-1.2-1.2-1.6-2.2c1.9-0.4,3.4-0.7,4.5-1
				c1.1-0.3,2-0.6,2.7-0.9c1.5-0.9,2.3-2.6,2.2-5.1c0-0.1-0.1-0.2-0.4-0.4c-0.3-0.2-0.6-0.5-1.1-0.9c-0.4-0.4-0.8-0.7-1.1-0.9
				c-0.3-0.2-0.6-0.4-0.9-0.5s-0.6-0.2-0.9-0.2C-15.2,403.6-15.6,403.6-16,403.6C-16,403.6-16,403.6-16,403.6L-16,403.6z
				 M-20.3,410.1c0.2-0.4,0.3-0.8,0.4-1.2c0.1-0.3,0.4-0.6,0.7-0.8c0.3-0.2,0.6-0.4,1-0.6c0.4-0.2,0.7-0.3,1.1-0.4
				c0.4-0.1,0.7-0.2,1-0.2c0,0,0,0,0,0c0.7,0,1.3,0.4,1.9,1.2c-0.1,0.4-0.3,0.7-0.5,0.9c-0.3,0.2-0.7,0.4-1.2,0.5
				c-0.6,0.1-1.2,0.2-1.9,0.3C-18.5,409.9-19.4,410-20.3,410.1L-20.3,410.1z"/>
		</g>
		<g id="XMLID_6_">
			<path class="st12" d="M3.1,403.7l0,0.5l0.9,0l0.4,0l0.4,0c0.2,0,0.3,0.1,0.4,0.1c0.1,0,0.2,0,0.3,0.1c0.5,0.3,1,0.4,1.5,0.5
				c0.2,0.1,0.4,0.4,0.4,1c0,0.4-0.1,0.8-0.4,1.2c-0.2,0.3-0.5,0.4-0.9,0.4c-0.2,0-0.5-0.1-0.7-0.2l0,0l0,0
				c-0.4-0.2-0.8-0.4-1.3-0.4c-0.4,0-0.9,0.2-1.1,0.2c-0.5,0.2-1,0.6-1.3,0.9l-1.2,1.2l-0.1,0.1l0,0.2l0,0.6l0,0.4l0,0.2l0,1
				c0,0.4,0,0.6-0.1,1l0,0.1l0,0.1c0,0.6,0.1,1.2,0.2,1.9c0.1,0.6,0.1,1.2,0.2,1.8c-0.1,1.2-0.8,1.4-1.4,1.4c-0.3,0-0.8-0.1-1-0.4
				c-0.3-0.3-0.4-0.8-0.5-1.4c-0.1-0.7-0.2-1.4-0.2-2.4c0-0.9,0-2-0.1-3.1c0-0.5,0-0.9-0.1-1.3c0-0.8-0.1-1.3-0.2-1.5
				c-0.1-0.4-0.2-0.7-0.3-1c-0.1-0.2-0.1-0.5-0.1-0.6c0-0.3,0.1-0.6,0.3-0.8c0.4-0.3,0.8-0.4,1.3-0.4c0.2,0,0.6,0.1,1.2,0.8l0.3,0.4
				l0.4-0.3c0.5-0.4,1-0.8,1.4-1l0,0l0,0c0.3-0.2,0.5-0.4,0.8-0.4l0,0l0,0c0.2-0.1,0.4-0.1,0.5-0.1L3.1,403.7 M3.1,403.7
				c-0.2,0-0.5,0.1-0.7,0.2c-0.3,0.1-0.6,0.3-0.9,0.5c-0.4,0.2-0.9,0.6-1.5,1.1c-0.6-0.7-1.1-1-1.6-1c0,0,0,0,0,0
				c-0.7,0-1.2,0.2-1.6,0.5c-0.3,0.3-0.5,0.7-0.5,1.2c0,0.2,0,0.5,0.1,0.8c0.1,0.3,0.2,0.7,0.3,1.1c0.1,0,0.1,0.9,0.2,2.6
				c0.1,1.1,0.1,2.2,0.1,3.1c0,1,0.1,1.8,0.2,2.5s0.3,1.2,0.6,1.6c0.3,0.4,0.8,0.6,1.4,0.6c0,0,0,0,0,0c1.2,0,1.8-0.7,1.9-1.9
				c-0.1-1.2-0.3-2.5-0.4-3.7c0.1-0.4,0.1-0.7,0.1-1.1c0-0.3,0-0.7,0-1c0-0.2,0-0.4,0-0.6c0-0.2,0-0.4,0-0.6
				c0.4-0.4,0.8-0.8,1.2-1.2c0.4-0.4,0.8-0.7,1.1-0.8c0.3-0.1,0.7-0.2,1-0.2c0,0,0,0,0,0c0.4,0,0.7,0.1,1.1,0.3
				c0.3,0.2,0.7,0.3,1,0.3c0,0,0,0,0,0c0.6,0,1-0.2,1.3-0.6c0.3-0.4,0.5-0.9,0.5-1.5c0-0.7-0.2-1.2-0.7-1.5c-0.5-0.1-1-0.2-1.5-0.5
				c-0.3-0.1-0.6-0.1-0.9-0.2c-0.3,0-0.6,0-0.9,0C3.6,403.7,3.3,403.7,3.1,403.7C3.1,403.7,3.1,403.7,3.1,403.7L3.1,403.7z"/>
		</g>
		<g id="XMLID_5_">
			<path class="st12" d="M38,398.4L38,398.4L38,398.4c0.3,0,1.1,0.1,3.2,0.6c0.3,0.2,0.6,0.4,0.8,0.5c0.3,0.2,0.6,0.3,0.9,0.6
				c0.4,0.3,0.8,0.6,1.1,0.9c0.2,0.2,0.4,0.5,0.6,1.1c0.1,0.3,0.2,0.8,0.2,1.2c-0.1,0.8-0.1,1.5-0.1,2.3c-0.1,0.5-0.2,0.8-0.3,1.2
				c-0.1,0.4-0.2,0.6-0.4,0.8l0,0l0,0c-0.2,0.3-0.5,0.7-0.7,0.9c-0.1,0.1-0.3,0.3-0.5,0.4c-0.2,0.2-0.5,0.5-0.8,0.7
				c-1.3,1-2.6,1.6-4.1,1.8l0,0l0,0c-0.2,0-0.3,0.1-0.5,0.2c-0.3,0.1-0.5,0.2-0.9,0.2l0,0l0,0c-0.3,0.1-0.7,0.2-1.1,0.3
				c-0.3,0.1-0.6,0.1-0.9,0.2l-0.4,0.1l0,0.4l0,2.6c0,0.2,0,0.5,0.1,0.7c0,0.1,0,0.3,0,0.4l0,0.7l0,0.6l0,1.1c0,0.3-0.1,0.6-0.2,0.8
				c-0.1,0.2-0.2,0.4-0.4,0.5c-0.2,0.1-0.4,0.2-0.8,0.2c-0.5,0-0.7-0.1-0.7-0.2c-0.2-0.2-0.3-0.4-0.4-0.6c-0.1-0.2-0.1-0.6-0.1-1
				c0-0.5,0-0.9-0.1-1.5l0-0.5l0-0.8l0-0.4l0-1.2c0-0.6,0-1.4-0.1-2.3l0-0.2l0-0.3l0-0.3l0-0.9l0-0.3l0-0.5l0-0.3l0-0.2
				c0-0.2,0-0.4,0.1-0.8l0-0.1l0-0.1c0-0.2,0-0.4,0-0.6c0-0.3,0.1-0.5,0.1-0.8c0-0.2,0-0.5,0.1-0.7c0-0.2,0.1-0.5,0.1-0.7
				c0-0.2,0-0.7,0.1-0.8l0.1-0.1l0-0.1l0-0.6l0-0.6c0-0.3,0-0.5-0.1-0.6c0-0.1,0-0.2,0-0.4l0-0.1l0-0.4c0-0.1,0-0.2,0-0.4
				c0-0.2,0.1-0.4,0.1-0.6c0-0.3,0.1-0.5,0.1-0.8l0.1-0.2c0-0.1,0.1-0.2,0.1-0.3c0-0.1,0.1-0.2,0.1-0.4c0.6-0.2,1.2-0.3,1.8-0.3
				c0.2,0,0.4,0,0.6,0l0.1,0l0.1,0l0.1,0l0.1,0C36,398.4,37.2,398.4,38,398.4 M34.5,409.6L34.5,409.6c0.1,0,0.2,0,0.4,0
				c0.1,0,0.3-0.1,0.5-0.1l0.1,0l0.1,0c0.1,0,0.2-0.1,0.4-0.1c0.2,0,0.3-0.1,0.5-0.1c0.3-0.1,0.6-0.2,0.9-0.3
				c2.1-0.3,3.6-1.3,4.3-2.8l0-0.1l0-0.1c0.1-0.5,0.2-1,0.2-1.5c0-0.9-0.3-1.7-0.9-2.5c-0.7-0.7-1.9-1.2-3.3-1.3l-0.1,0h0
				c-0.9,0-1.9,0.2-3.1,0.5l-0.4,0.1l0,0.4c0,0.2,0,0.5,0,0.8c0,0.3,0.1,0.7,0,1c0,0.7,0,1.6-0.1,2.5l0,0.1c0,0.1-0.1,0.4-0.1,0.8
				l0,0.6l0,0.3l0,0.9l0,0.3l0,0.5L34.5,409.6L34.5,409.6 M38,397.9c-1,0-2.2,0.1-3.3,0.4c-0.1,0-0.2,0-0.3,0c-0.2,0-0.4,0-0.6,0
				c-0.8,0-1.6,0.2-2.2,0.4c0,0.2-0.1,0.5-0.2,0.9c-0.1,0.4-0.2,0.7-0.2,1.1c0,0.4-0.1,0.7-0.1,1c0,0.3,0,0.4,0,0.5
				c0,0.3,0.1,0.6,0.1,1c0,0.4,0,0.8,0,1.2c-0.1,0.2-0.1,0.6-0.1,1c0,0.4-0.1,0.9-0.1,1.4c0,0.5-0.1,1-0.1,1.4
				c-0.1,0.4-0.1,0.7-0.1,0.9c0,0.1,0,0.3,0,0.5c0,0.2,0,0.5,0,0.8c0,0.3,0,0.6,0,0.9c0,0.2,0,0.4,0,0.6c0,0,0,0.1,0,0.2
				c0.1,0.9,0.1,1.7,0.1,2.3c0,0.6,0,1.2,0,1.6c0,0.5,0,0.9,0,1.3c0.1,0.6,0.1,1,0.1,1.5c0,0.5,0,0.9,0.1,1.2s0.3,0.6,0.5,0.8
				c0.2,0.2,0.6,0.3,1.1,0.3c0,0,0,0,0,0c0.5,0,0.8-0.1,1.1-0.3c0.3-0.2,0.5-0.5,0.6-0.8c0.1-0.3,0.2-0.6,0.2-1c0-0.4,0-0.8,0-1.1
				c0-0.5,0-0.9,0-1.3c0-0.3-0.1-0.7-0.1-1.1c0-0.8,0-1.7,0-2.6c0.8-0.2,1.5-0.3,2.1-0.5c0.6-0.1,1-0.3,1.4-0.4
				c1.6-0.2,3-0.8,4.4-1.9c0.5-0.5,1-0.9,1.3-1.2s0.6-0.7,0.8-1c0.3-0.3,0.4-0.6,0.5-1c0.1-0.4,0.2-0.8,0.3-1.3c0-0.8,0-1.5,0.1-2.3
				c0-0.5-0.1-1.1-0.3-1.5c-0.2-0.5-0.4-0.9-0.7-1.2c-0.3-0.3-0.7-0.7-1.2-1c-0.6-0.4-1.2-0.7-1.8-1.1
				C39.5,398.1,38.4,397.9,38,397.9C38,397.9,38,397.9,38,397.9L38,397.9z M34.5,409.1C34.5,409.1,34.5,409.1,34.5,409.1
				c0-0.5,0-0.9,0-1.2c0-0.4,0-0.7,0-0.9c0-0.5,0.1-0.7,0.1-0.8c0.1-0.9,0.1-1.8,0.1-2.5c0-0.7-0.1-1.3-0.1-1.8
				c1.4-0.4,2.3-0.5,3-0.5c0,0,0,0,0,0c1.4,0.1,2.4,0.5,3,1.1c0.6,0.7,0.8,1.4,0.8,2.1c0,0.4-0.1,0.9-0.2,1.4
				c-0.6,1.3-1.9,2.2-3.9,2.5c-0.4,0.1-0.7,0.2-1,0.3c-0.3,0.1-0.6,0.1-0.9,0.2c0,0,0,0,0,0C35,409,34.7,409.1,34.5,409.1
				L34.5,409.1z"/>
		</g>
		<g id="XMLID_4_">
			<path class="st12" d="M59.3,404.7L59.3,404.7c0.1,0,0.2,0,0.2,0l0,0l0,0c0.2,0,0.5,0.2,0.7,0.5c0.3,0.3,0.4,0.8,0.6,1.4
				c0.2,0.6,0.3,1.2,0.4,1.9c0.1,0.7,0.1,1.3,0.1,2l0,0l0,0l0,0.2c0.1,0.6,0.2,1.4,0.4,2c0.1,0.8,0.4,1.4,0.7,2
				c0.3,0.8,0.8,1.3,1.4,1.7c0.3,0.3,0.5,0.5,0.4,0.7l0,0.1l0,0.1c0,0.1-0.1,0.2-0.2,0.3c-0.1,0.1-0.2,0.2-0.2,0.2
				c-0.1,0.1-0.2,0.2-0.2,0.3l-0.1,0l-0.1,0.1c-0.1,0.1-0.3,0.2-0.4,0.2c-0.1,0-0.1,0-0.1,0.1l-0.1,0c-0.1,0-0.2,0.1-0.3,0.1
				c0,0,0,0-0.1,0c-0.2-0.1-0.4-0.2-0.5-0.4l0,0l0,0c-0.3-0.2-0.5-0.5-0.8-0.7c-0.1-0.1-0.3-0.3-0.4-0.4c-0.1-0.1-0.2-0.3-0.4-0.4
				c-0.2-0.3-0.3-0.6-0.4-0.8l-0.4-1.1l-0.5,1.1c-0.1,0.2-0.2,0.4-0.3,0.7c-0.6,0.8-1.4,1.6-2.4,2.3c-0.7,0-1.3,0.1-1.7,0.1
				c-0.3,0-0.5,0-0.6,0c-0.3,0-0.7-0.1-1.2-0.3c-0.1,0-0.3-0.1-0.4-0.1c-0.7-0.6-1.3-1.1-2.1-1.6c-0.8-1-1.2-2.1-1.1-3.5
				c0-0.5,0.1-0.9,0.3-1.5l0.1-0.3c0.2-0.7,0.5-1.3,0.9-1.9c0.3-0.5,0.6-0.9,0.9-1.3c0.2-0.2,0.3-0.4,0.4-0.6c0.4-0.5,1-1,1.7-1.5
				l1.1-0.3l1.2-0.3c0.8-0.1,1.4-0.2,1.8-0.3l0.1,0l0.1-0.1C58.4,404.8,58.8,404.7,59.3,404.7 M54.7,408.9c-0.6,0.3-1,1-1.4,1.7
				c-0.7,1-1.1,2-1.2,3.3l0,0.1l0.1,0.1c0.4,1,1.2,1.9,2.3,2.5l0.2,0.1l0.2-0.1c0.1,0,0.2-0.1,0.3-0.1c0.2,0,0.4-0.1,0.5-0.1
				c0.2-0.1,0.5-0.2,0.7-0.5c0.2-0.2,0.5-0.5,0.6-0.8c0.2-0.3,0.4-0.6,0.6-1c0.3-0.5,0.7-1.1,0.9-1.7l0-0.1l0-0.1
				c0-0.2,0.1-0.4,0.1-0.5c0.1-0.4,0.1-0.6,0.1-0.9l0-0.5l-0.1,0c-0.1-0.4-0.1-1.1-0.2-1.9l0-0.3l0-0.4l-0.4,0l-0.2,0l-0.4,0l-0.1,0
				c-0.3,0-0.6,0-1,0.1C55.7,408.2,55.2,408.4,54.7,408.9 M59.3,404.2c-0.6,0-1.2,0.3-1.7,0.7c-0.4,0.1-1,0.2-1.8,0.3
				c-0.8,0.2-1.6,0.4-2.4,0.6c-0.7,0.5-1.4,1.1-1.9,1.7c-0.5,0.7-1,1.3-1.4,2c-0.4,0.6-0.7,1.3-0.9,2s-0.4,1.3-0.4,1.9
				c-0.1,1.6,0.4,2.9,1.3,3.9c0.8,0.5,1.5,1.1,2.2,1.7c0.8,0.2,1.4,0.4,1.9,0.4c0,0,0,0,0,0c0.2,0,1-0.1,2.4-0.2
				c1.2-0.8,2.1-1.7,2.7-2.6c0.1-0.3,0.2-0.5,0.3-0.7c0.1,0.3,0.3,0.7,0.5,1c0.3,0.3,0.5,0.6,0.8,0.9s0.6,0.6,0.9,0.8
				c0.2,0.2,0.5,0.4,0.7,0.5c0.1,0,0.2,0,0.2,0c0.2,0,0.3-0.1,0.6-0.1c0.2-0.1,0.5-0.2,0.7-0.4c0.2-0.1,0.4-0.4,0.6-0.6
				c0.2-0.2,0.3-0.5,0.3-0.7c0.1-0.4-0.1-0.8-0.6-1.2c-0.6-0.4-1-0.9-1.3-1.6c-0.4-0.5-0.6-1.1-0.7-1.8c-0.2-0.7-0.3-1.5-0.4-2.2
				c0-0.7,0-1.4-0.1-2.1c-0.1-0.7-0.2-1.4-0.4-2c-0.2-0.6-0.4-1.1-0.7-1.5c-0.3-0.4-0.7-0.7-1.1-0.7
				C59.5,404.2,59.4,404.2,59.3,404.2L59.3,404.2z M54.6,416.3c-1-0.6-1.7-1.4-2.1-2.3c0.1-1.1,0.4-2.1,1.1-3.1
				c0.4-0.7,0.8-1.3,1.3-1.6c0.5-0.4,0.9-0.6,1.3-0.7c0.4-0.1,0.6-0.1,0.9-0.1c0,0,0.1,0,0.1,0c0.2,0,0.5,0,0.6,0
				c0.2,1.7,0.3,2.6,0.4,2.6c0,0.3-0.1,0.7-0.2,1.3c-0.2,0.5-0.5,1-0.9,1.6c-0.2,0.4-0.4,0.7-0.6,1c-0.1,0.3-0.3,0.5-0.5,0.7
				s-0.4,0.3-0.6,0.4C55.2,416.2,54.9,416.2,54.6,416.3L54.6,416.3z"/>
		</g>
		<g id="XMLID_3_">
			<path class="st12" d="M76.9,408.4L76.9,408.4c0.3,0,0.5,0,0.8,0.1l0.1,0l0.1,0c0.1,0,0.2,0,0.4,0c0.1,0,0.3,0,0.4,0.1
				c0.1,0,0.2,0.1,0.3,0.1c0.1,0.1,0.3,0.1,0.4,0.2l0.1,0l0.1,0c0.1,0,0.3,0.1,0.6,0.1c0.2,0,0.3,0.1,0.5,0.1
				c0.2,0.2,0.3,0.4,0.2,1.1c-0.1,0.5-0.3,0.8-0.5,1.2c-0.3,0.2-0.5,0.3-0.9,0.3c-0.1,0-0.4-0.1-0.7-0.3c-0.4-0.2-0.8-0.4-1.3-0.5
				l-0.1,0l-0.1,0l-0.1,0c-0.3,0-0.7,0-1,0.1c-0.4,0.1-0.9,0.4-1.4,0.8c-0.2,0.2-0.5,0.4-0.7,0.5c-0.2,0.2-0.5,0.4-0.7,0.6l-0.2,0.1
				l0,0.2l0,0.6l0,0.3l0,0.3c0,0.1,0,0.3,0,0.4c0,0.2-0.1,0.4-0.1,0.6c0,0.3-0.1,0.5-0.1,0.8l-0.1,0.2l0,0.1l0,0.1l0,1.9l0,1.8
				c-0.2,1.1-0.8,1.2-1.3,1.2c-0.1,0-0.1,0-0.2,0c-0.5-0.1-0.8-0.2-0.9-0.4l0,0l0,0c-0.2-0.3-0.3-0.8-0.4-1.4c0-0.7,0-1.5,0.1-2.4
				c0.1-0.9,0.2-2,0.3-3.1c0.1-1.7,0.1-2.6,0.1-2.6l0-0.1l0-0.1c-0.1-0.3-0.1-0.7-0.1-1l0-0.7l0-0.1c0-0.3,0.2-0.5,0.4-0.7l0,0l0,0
				c0.2-0.2,0.5-0.2,0.8-0.2c0.1,0,0.3,0,0.4,0l0,0l0,0c0.3,0,0.6,0.3,1.1,1l0.3,0.4l0.4-0.2l0.5-0.3c0.4-0.2,0.8-0.4,1.1-0.6
				c0.1-0.1,0.2-0.1,0.3-0.2c0.1-0.1,0.3-0.2,0.4-0.2h0.1l0.1-0.1C76.6,408.4,76.7,408.4,76.9,408.4 M76.9,407.9
				c-0.2,0-0.5,0-0.6,0.1c0,0,0,0,0,0c-0.2,0-0.5,0.2-0.9,0.4c-0.4,0.2-0.9,0.5-1.6,0.9c-0.6-0.8-1-1.2-1.5-1.2c-0.2,0-0.3,0-0.5,0
				c-0.4,0-0.8,0.1-1.1,0.3c-0.4,0.2-0.7,0.6-0.7,1.1c0,0.2,0,0.5,0,0.8c0,0.3,0,0.7,0.1,1.1c0,0,0,0.9-0.1,2.6
				c-0.1,1.1-0.2,2.2-0.3,3.1c-0.1,1-0.1,1.8-0.1,2.5c0.1,0.7,0.2,1.3,0.5,1.7c0.2,0.4,0.7,0.6,1.3,0.7c0.1,0,0.2,0,0.3,0
				c1,0,1.7-0.6,1.8-1.7c0-1.2,0-2.5,0-3.7c0.1-0.4,0.2-0.7,0.2-1.1c0-0.3,0.1-0.7,0.1-1c0-0.2,0-0.4,0-0.6s0-0.4,0-0.6
				c0.5-0.4,0.9-0.7,1.4-1.1c0.5-0.4,0.9-0.6,1.2-0.7c0.3-0.1,0.6-0.1,0.9-0.1c0,0,0.1,0,0.1,0c0.4,0.1,0.8,0.2,1.1,0.4
				s0.7,0.4,1,0.4c0,0,0,0,0,0c0.5,0,0.9-0.1,1.3-0.5c0.3-0.4,0.5-0.8,0.6-1.4c0.1-0.8-0.1-1.3-0.5-1.6c-0.5-0.1-1-0.3-1.3-0.3
				c-0.3-0.1-0.5-0.2-0.8-0.3c-0.3,0-0.6-0.1-0.9-0.1C77.5,407.9,77.2,407.9,76.9,407.9C77,407.9,76.9,407.9,76.9,407.9L76.9,407.9z
				"/>
		</g>
		<g id="XMLID_2_">
			<path class="st12" d="M91.7,402.1c0.7,0.1,1.1,0.4,1.2,1c0,0.1-0.1,0.2-0.2,0.4c0,0.1-0.1,0.2-0.1,0.2c-0.1,0.2-0.2,0.5-0.3,0.8
				l0,0l0,0.1c-0.1,0.2-0.1,0.4-0.2,0.7c-0.1,0.1-0.1,0.3-0.2,0.4c0,0.2-0.1,0.3-0.1,0.4c0,0.1-0.1,0.2-0.1,0.3
				c-0.1,0.7-0.2,1.3-0.4,1.9l-0.2,0.6l0.7,0l0.3,0l0.3,0l0.3,0l0.3,0l0.2,0l0.2,0l0.3,0l0.3,0l0.3,0l0.2,0c0.1,0,0.3,0.1,0.4,0.1
				c0.4,0.1,0.7,0.2,0.9,0.3c0.1,0.1,0.2,0.3,0.1,0.9c-0.2,1.2-0.7,1.2-0.9,1.2c-0.1,0-0.1,0-0.2,0l0,0l0,0l-0.2,0
				c-0.2,0-0.3,0-0.5,0c-0.3,0-0.6-0.1-0.9-0.1l-0.7,0l-1.2,0l-0.4,0l-0.1,0.4c0,0.1-0.1,0.3-0.1,0.5c-0.1,0.3-0.2,0.7-0.3,1.2l0,0
				l0,0c0,0.2-0.1,0.5-0.1,0.7c-0.1,0.5-0.2,1.1-0.3,1.9l0,0.2l0,0.1l0,0.2c-0.1,0.6-0.2,1.2-0.2,1.8c-0.1,0.5,0,1,0.1,1.3
				c0.1,0.4,0.4,0.7,0.7,0.9c0.2,0.1,0.4,0.2,0.6,0.3c0.2,0.1,0.3,0.1,0.5,0.3c0.9,0.4,1,0.9,0.9,1.2c-0.1,0.4-0.2,0.6-0.5,0.8
				c-0.2,0.2-0.5,0.2-0.8,0.2c-0.1,0-0.2,0-0.4,0l0,0l0,0c0,0-0.2,0-0.3-0.1c-0.1,0-0.2-0.1-0.4-0.1c-0.3-0.1-0.7-0.3-1.1-0.5
				c-0.3-0.1-0.6-0.3-0.8-0.5l-0.2-0.1c-0.2-0.2-0.5-0.5-0.5-0.7l-0.1-0.4c-0.2-0.5-0.3-1-0.4-1.6c-0.1-0.7-0.1-1.3,0-2.1
				c0.1-0.8,0.2-1.4,0.3-1.7c0.1-0.2,0.1-0.4,0.1-0.5c0-0.1,0-0.3,0.1-0.3l0,0l0,0c0.1-0.2,0.1-0.4,0.1-0.6c0-0.1,0-0.3,0.1-0.5
				c0.1-0.4,0.2-1,0.3-1.9l0.1-0.6l-0.6,0c-0.4,0-0.9,0-1.5,0.1c-0.3,0-0.5,0-0.8,0.1c-0.5-0.1-0.9-0.3-1.2-0.5
				c-0.3-0.4-0.4-0.6-0.3-0.8l0,0l0,0c0-0.2,0.1-0.4,0.4-0.6c0.2-0.2,0.6-0.4,1.4-0.6c0.2-0.1,0.3-0.1,0.5-0.1l0.1,0l0.6,0l0.4,0
				l0.3,0l0.6,0l0.3,0l0.4,0l0.1-0.4c0.1-0.7,0.2-1.4,0.4-2.2c0.2-0.8,0.4-1.6,0.7-2.2c0.3-0.6,0.5-1.2,0.9-1.5l0,0l0,0
				C90.9,402.2,91.1,402.1,91.7,402.1 M91.7,401.6c-0.6,0-1.1,0.1-1.5,0.6c-0.4,0.4-0.7,1-1,1.7c-0.3,0.7-0.5,1.5-0.7,2.3
				c-0.2,0.9-0.3,1.6-0.4,2.3c-0.3,0-0.7,0-0.9,0c-0.3,0-0.5,0-0.7,0c-0.2,0-0.4,0-0.6,0c0,0,0,0-0.1,0c-0.2,0-0.4,0-0.6,0.1
				c-0.8,0.2-1.3,0.4-1.6,0.7c-0.3,0.3-0.5,0.6-0.5,1c-0.1,0.5,0.1,0.9,0.5,1.3c0.4,0.3,0.9,0.5,1.5,0.6c1.1-0.1,1.9-0.2,2.4-0.2
				c0,0,0,0,0,0c-0.1,0.8-0.2,1.4-0.3,1.8c-0.1,0.4-0.1,0.7-0.2,1c-0.1,0.2-0.1,0.6-0.2,0.9c-0.1,0.4-0.2,1-0.3,1.8
				c-0.1,0.8-0.1,1.5,0,2.2s0.3,1.3,0.5,2c0.1,0.3,0.4,0.6,0.7,0.9c0.3,0.2,0.7,0.5,1.1,0.7s0.8,0.4,1.2,0.5
				c0.4,0.1,0.6,0.2,0.8,0.2c0.2,0,0.3,0,0.4,0c0.4,0,0.8-0.1,1.1-0.3c0.4-0.3,0.6-0.6,0.7-1.1c0.1-0.8-0.3-1.4-1.2-1.8
				c-0.4-0.2-0.7-0.3-1.1-0.5c-0.2-0.1-0.4-0.3-0.5-0.6s-0.2-0.7-0.1-1.1c0-0.6,0.1-1.2,0.2-1.8c0-0.1,0-0.2,0-0.3c0,0,0-0.1,0-0.2
				c0.1-1.1,0.3-1.9,0.4-2.6c0.2-0.7,0.3-1.3,0.4-1.7c0.7,0,1.3,0,1.9,0c0.6,0,1.1,0.1,1.5,0.1c0.1,0,0.1,0,0.2,0c0.1,0,0.2,0,0.2,0
				c0.8,0,1.2-0.5,1.4-1.6c0.1-0.7,0-1.1-0.3-1.4c-0.3-0.2-0.8-0.3-1.5-0.5c-0.2,0-0.3,0-0.5,0c-0.2,0-0.4,0-0.6,0
				c-0.1,0-0.3,0-0.4,0c-0.3,0-0.4,0-0.6,0c-0.2,0-0.4,0-0.6,0c0.2-0.7,0.3-1.3,0.4-2c0-0.1,0.1-0.3,0.2-0.7
				c0.1-0.3,0.3-0.7,0.4-1.1c0.2-0.4,0.3-0.8,0.4-1.1c0.1-0.3,0.2-0.5,0.2-0.5C93.3,402.2,92.7,401.7,91.7,401.6
				C91.7,401.6,91.7,401.6,91.7,401.6L91.7,401.6z"/>
		</g>
		<g id="XMLID_1_">
			<path class="st12" d="M100.5,411.6l0,0.5c0.1,0,0.3,0.2,0.6,0.5c0.3,0.3,0.6,0.9,1,1.6c0.4,0.8,0.7,1.5,1,2
				c0.2,0.4,0.4,0.8,0.6,1.1c0.2,0.3,0.4,0.5,0.6,0.7c0.1,0.1,0.3,0.4,0.6,0.7l0.3,0.4l0,0.1l0.1,0c0.3,0.2,0.9,1,1.1,1.3l0.4,0.6
				l0.4-0.7c0.7-1.2,1.4-2.4,2.1-3.7c0.4-0.6,0.7-1.2,1.3-2l0,0l0,0c0.4-0.6,0.7-1.3,1-1.9c0.4-0.1,0.7-0.2,1-0.2c0.1,0,0.2,0,0.3,0
				c0.8,0.5,1.2,1,1.2,1.7c-0.1,0.7-0.2,0.9-0.3,1c-0.1,0.1-0.1,0.2-0.2,0.4c0,0.1-0.1,0.2-0.1,0.3c-0.2,0.3-0.4,0.6-0.8,1
				c-0.4,0.5-0.8,1.2-1.5,2.1l-0.2,0.3l0,0.1l0,0.1c-0.4,1-1.1,2.2-2.1,3.3l0,0.1l0,0.1c-0.5,1-1.2,1.9-1.8,2.4l-0.1,0.1l0,0.1
				c-0.1,0.2-0.4,0.6-0.6,0.9l-1.2,1.5l-0.8,1l-0.4,0.5c-0.4,0.5-0.7,0.9-0.9,1.2c0,0-0.1,0.1-0.1,0.2c-0.1,0.1-0.2,0.2-0.3,0.4l0,0
				l0,0c-0.2,0.3-0.5,0.5-0.7,0.8c-0.3,0.3-0.5,0.5-0.9,0.7c-0.3,0.2-0.6,0.2-0.8,0.2c-0.4-0.1-0.7-0.3-1-0.6
				c-0.3-0.3-0.4-0.6-0.4-0.8c0-0.1,0.2-0.4,0.3-0.5c0.1-0.1,0.2-0.3,0.4-0.5c0.1-0.2,0.3-0.3,0.4-0.5c0.1-0.2,0.3-0.3,0.5-0.5
				c0.2-0.2,0.4-0.4,0.5-0.6c0.4-0.4,0.7-0.7,0.9-1l0,0l0,0c0.1-0.1,0.2-0.4,0.6-0.8l0.7-1l0.2-0.2c0.2-0.2,0.3-0.4,0.5-0.7
				c0.1-0.2,0.3-0.4,0.4-0.6c0.3-0.4,0.6-0.8,0.7-1.1l0.1-0.3l-0.2-0.2c-0.1-0.1-0.2-0.2-0.3-0.4c-0.1-0.2-0.2-0.3-0.3-0.4
				c-0.1-0.1-0.2-0.2-0.3-0.4c-0.1-0.2-0.2-0.3-0.4-0.5c-0.1-0.1-0.2-0.3-0.3-0.4c-0.2-0.3-0.5-0.6-0.7-0.7
				c-0.1-0.2-0.2-0.4-0.3-0.6c-0.1-0.1-0.2-0.2-0.2-0.3l0-0.1l0-0.1c-0.1-0.1-0.2-0.3-0.3-0.4c-0.1-0.1-0.2-0.2-0.2-0.3l0-0.1
				l-0.1-0.1c-0.1-0.1-0.1-0.2-0.2-0.2c-0.1-0.1-0.2-0.2-0.3-0.4c-0.1-0.1-0.2-0.3-0.4-0.7l0,0l0,0c-0.1-0.1-0.2-0.3-0.3-0.5
				c-0.1-0.2-0.2-0.5-0.4-0.8c-0.2-0.4-0.5-1-0.8-1.7l-0.1-0.2l0-0.2l0-0.1c0.1-0.5,0.3-0.8,0.6-1.1c0.4-0.3,0.7-0.4,1.1-0.4V411.6
				 M100.5,411.6c-0.5,0-0.9,0.1-1.4,0.5c-0.5,0.4-0.7,0.9-0.8,1.4c0,0.2,0,0.3,0,0.4c0.4,0.9,0.7,1.6,1,2.1c0.3,0.5,0.5,1,0.7,1.3
				c0.2,0.4,0.3,0.6,0.5,0.8c0.2,0.2,0.3,0.4,0.5,0.6c0.1,0.2,0.3,0.4,0.5,0.7c0.1,0.3,0.4,0.6,0.6,1.1c0.2,0.1,0.5,0.3,0.7,0.6
				c0.2,0.3,0.5,0.6,0.7,0.9s0.4,0.5,0.6,0.8c0.2,0.3,0.3,0.4,0.4,0.5c-0.1,0.3-0.3,0.6-0.6,1s-0.6,0.9-0.9,1.3
				c-0.3,0.4-0.6,0.8-0.9,1.2c-0.3,0.4-0.5,0.7-0.6,0.9c-0.2,0.3-0.5,0.6-0.9,1c-0.3,0.4-0.7,0.7-1,1.1s-0.6,0.7-0.8,1
				c-0.2,0.3-0.4,0.6-0.4,0.8c0,0.4,0.1,0.8,0.5,1.2c0.4,0.4,0.8,0.6,1.3,0.7c0,0,0,0,0,0c0.4,0,0.7-0.1,1.1-0.3
				c0.4-0.2,0.7-0.5,1-0.8c0.3-0.3,0.6-0.6,0.8-0.9c0.3-0.3,0.4-0.5,0.5-0.6c0.2-0.3,0.5-0.7,0.9-1.2c0.4-0.5,0.8-1,1.2-1.5
				s0.8-1,1.2-1.5c0.3-0.4,0.6-0.8,0.7-1c0.6-0.5,1.3-1.4,1.9-2.6c1-1.1,1.8-2.3,2.2-3.5c0.7-1.1,1.2-1.9,1.6-2.4
				c0.4-0.5,0.6-0.8,0.8-1.1c0.1-0.2,0.2-0.5,0.3-0.7c0.1-0.2,0.2-0.6,0.3-1.2c0-1-0.5-1.6-1.5-2.2c-0.2,0-0.3,0-0.5,0
				c-0.5,0-0.9,0.1-1.4,0.3c-0.2,0.6-0.6,1.3-1,2c-0.5,0.7-0.9,1.3-1.3,2c-0.7,1.3-1.4,2.5-2.1,3.7c-0.5-0.7-0.9-1.2-1.2-1.4
				c-0.4-0.5-0.7-0.9-0.9-1.1c-0.2-0.2-0.4-0.4-0.6-0.7c-0.2-0.2-0.4-0.6-0.6-1c-0.3-0.4-0.6-1-1-1.9c-0.4-0.8-0.8-1.4-1.1-1.7
				C101.1,411.8,100.8,411.6,100.5,411.6C100.5,411.6,100.5,411.6,100.5,411.6L100.5,411.6z"/>
		</g>
	</g>
	<g id="SLogan">
		<path class="st13" d="M-67.9,442.8c-0.4-0.3-1-0.5-1.8-0.5c-0.6-0.1-1-0.2-1.1-0.2h0v0c-0.1,0-0.4,0-1.1,0c-0.5,0-0.7,0.1-0.8,0.2
			c-0.3,0.6-0.5,1.5-0.5,2.9c0,0.3,0,0.6,0,0.8v0.7c0,0.2,0,0.4,0,0.5c0,0.2,0,0.3,0,0.5c0,0.2,0,0.4,0,0.6c0,0.2,0,0.4,0.1,0.6l0,0
			c0,0,0,0,0,0.1c0,0.1,0,0.3,0.1,0.4l0.1,0.6l0-0.3c0,0.1,0.1,0.1,0.1,0.2c0.1,0.2,0.3,0.2,0.6,0.2c0.3,0,0.7-0.1,0.7-0.8l0,0l0,0
			c-0.1-0.2-0.1-0.5-0.1-0.8v-0.2c0-0.1,0-0.1,0-0.2l0-1.3c0.1,0,0.2,0,0.3,0l0.7,0c0.4,0,0.6-0.1,0.9-0.1c0.3,0,0.4,0,0.6-0.1
			c0.2,0,0.3-0.1,0.4-0.2c0.1-0.1,0.1-0.3,0.1-0.5c0-0.2-0.1-0.4-0.2-0.5c-0.1-0.2-0.3-0.2-0.5-0.2c-0.1,0-0.2,0-0.4,0
			c-0.2,0-0.3,0-0.5,0l-0.4,0c-0.1,0-0.2,0-0.2,0l-0.9,0c0,0,0,0,0,0c0-0.1,0-0.2,0-0.3c0-0.1,0-0.2,0-0.3c0-0.1,0-0.2,0-0.3V444
			c0-0.1,0-0.2,0-0.2c0-0.1,0-0.1,0.1-0.2c0,0,0,0,0.1,0c0.2,0,0.5,0,0.8,0c0.3,0,0.5,0.1,0.9,0.2h0.1c0.1,0,0.2,0,0.3,0
			c0.1,0,0.2,0.1,0.4,0.1c0.1,0,0.2,0.1,0.3,0.1c0.1,0,0.2,0,0.2,0c0.1,0,0.3-0.1,0.5-0.3c0.1-0.2,0.1-0.4,0.1-0.6
			C-67.8,443-67.8,442.9-67.9,442.8L-67.9,442.8z"/>
		<path class="st13" d="M-62.4,448c-0.6,0.5-1.1,0.7-1.4,0.7c-0.2,0-0.5-0.1-0.6-0.2c-0.2-0.1-0.3-0.3-0.4-0.6
			c0.6-0.1,1-0.2,1.4-0.3c0.4-0.1,0.7-0.2,0.9-0.3c0.6-0.3,0.9-1,0.9-1.9c0-0.1-0.1-0.2-0.2-0.3c-0.1-0.1-0.2-0.2-0.3-0.3
			c-0.1-0.1-0.3-0.2-0.4-0.3c-0.1-0.1-0.2-0.2-0.3-0.2s-0.2-0.1-0.3-0.1c-0.1,0-0.2,0-0.4,0c-0.3,0-0.7,0.1-1.3,0.2l0,0
			c-0.4,0.2-0.7,0.5-0.9,0.8c-0.2,0.3-0.4,0.6-0.6,0.9l0,0.1c0,0.2,0,0.3,0,0.5c0,0.1,0,0.3,0,0.4c0,0.1,0,0.2,0,0.3
			c0,0.3,0,0.5,0.1,0.8c0.1,0.3,0.2,0.5,0.4,0.7c0.2,0.2,0.3,0.4,0.5,0.6c0.2,0.2,0.4,0.3,0.6,0.5l0,0c0.5,0.1,1,0.2,1.4,0.2
			c0.4,0,0.8-0.1,1.2-0.3c0.4-0.2,0.7-0.5,1-0.8l0,0c0.1-0.1,0.1-0.3,0.1-0.4c0-0.2-0.1-0.4-0.2-0.5
			C-61.8,447.8-62.2,447.8-62.4,448z M-64.4,445.8c0.1,0,0.2-0.1,0.4-0.1c0.1,0,0.2,0,0.3,0c0.2,0,0.3,0.1,0.5,0.3
			c0,0.1-0.1,0.1-0.1,0.2c-0.1,0.1-0.2,0.1-0.4,0.1c-0.2,0-0.4,0.1-0.6,0.1c-0.2,0-0.4,0-0.6,0.1l0.1-0.2c0.1-0.1,0.1-0.2,0.2-0.2
			C-64.6,445.9-64.5,445.8-64.4,445.8z"/>
		<path class="st13" d="M-56,444.1c-0.1-0.1-0.3-0.1-0.6-0.1c0,0-0.1,0-0.2,0c-0.1,0-0.1,0-0.2,0h-0.1c-0.1,0-0.1,0-0.2,0
			c0,0,0,0,0,0l0-0.5c0,0,0-0.1,0-0.2c0-0.1,0-0.3,0.1-0.4l0.1-0.4c0-0.1,0-0.2,0-0.2c-0.1-0.4-0.3-0.6-0.7-0.6
			c-0.2,0-0.4,0.1-0.6,0.3c-0.1,0.2-0.2,0.4-0.3,0.7c-0.1,0.3-0.1,0.5-0.1,0.8c0,0.3,0,0.5,0,0.7c-0.1,0-0.1,0-0.2,0
			c-0.1,0-0.2,0-0.2,0l-0.2,0c-0.1,0-0.2,0-0.3,0.1c-0.3,0.1-0.5,0.2-0.6,0.3c-0.1,0.1-0.1,0.3-0.1,0.4c0,0.2,0.1,0.4,0.3,0.5
			c0.2,0.1,0.4,0.2,0.6,0.2l0,0c0.3-0.1,0.5-0.1,0.6-0.1c0,0.2,0,0.4,0,0.5c0,0.1,0,0.2,0,0.3c0,0.1,0,0.2,0,0.3c0,0.1,0,0.3,0,0.6
			c0,0.3,0,0.5,0.1,0.8c0.1,0.2,0.2,0.5,0.3,0.7c0.1,0.1,0.2,0.2,0.3,0.3c0.1,0.1,0.3,0.2,0.4,0.2c0.1,0.1,0.3,0.1,0.4,0.1
			c0.1,0,0.3,0.1,0.3,0.1c0.2,0,0.4-0.1,0.6-0.2c0.2-0.1,0.2-0.3,0.2-0.5c0-0.2-0.1-0.5-0.5-0.7l-0.4-0.1c-0.1,0-0.1-0.1-0.1-0.1
			c0-0.1-0.1-0.2-0.1-0.3v-0.6c0,0,0-0.1,0-0.1c0,0,0,0,0-0.1c0-0.3,0-0.6,0-0.9c0-0.2,0-0.4,0-0.5c0.2,0,0.4,0,0.5-0.1l0.5,0h0.1
			c0.2,0,0.6-0.1,0.6-0.7C-55.7,444.4-55.8,444.2-56,444.1L-56,444.1z"/>
		<path class="st13" d="M-50.9,444.1c-0.1-0.1-0.3-0.1-0.6-0.1c0,0-0.1,0-0.2,0c-0.1,0-0.1,0-0.2,0H-52c-0.1,0-0.1,0-0.2,0
			c0,0,0,0,0,0l0-0.5c0,0,0-0.1,0-0.2c0-0.1,0-0.3,0.1-0.4l0.1-0.4c0-0.1,0-0.2,0-0.2c-0.1-0.4-0.3-0.6-0.7-0.6
			c-0.2,0-0.4,0.1-0.6,0.3c-0.1,0.2-0.2,0.4-0.3,0.7c-0.1,0.3-0.1,0.5-0.1,0.8c0,0.3,0,0.5,0,0.7c-0.1,0-0.1,0-0.2,0
			c-0.1,0-0.2,0-0.2,0l-0.2,0c-0.1,0-0.2,0-0.3,0.1c-0.3,0.1-0.5,0.2-0.6,0.3c-0.1,0.1-0.1,0.3-0.1,0.4c0,0.2,0.1,0.4,0.3,0.5
			c0.2,0.1,0.4,0.2,0.6,0.2l0,0c0.3-0.1,0.5-0.1,0.6-0.1c0,0.2,0,0.4,0,0.5c0,0.1,0,0.2,0,0.3c0,0.1,0,0.2,0,0.3c0,0.1,0,0.3,0,0.6
			c0,0.3,0,0.5,0.1,0.8c0.1,0.2,0.2,0.5,0.3,0.7c0.1,0.1,0.2,0.2,0.3,0.3c0.1,0.1,0.3,0.2,0.4,0.2c0.1,0.1,0.3,0.1,0.4,0.1
			c0.1,0,0.3,0.1,0.3,0.1c0.2,0,0.4-0.1,0.6-0.2c0.2-0.1,0.2-0.3,0.2-0.5c0-0.2-0.1-0.5-0.5-0.7l-0.4-0.1c-0.1,0-0.1-0.1-0.1-0.1
			c0-0.1-0.1-0.2-0.1-0.3v-0.6c0,0,0-0.1,0-0.1c0,0,0,0,0-0.1c0-0.3,0-0.6,0-0.9c0-0.2,0-0.4,0-0.5c0.2,0,0.4,0,0.5-0.1l0.5,0h0.1
			c0.2,0,0.6-0.1,0.6-0.7C-50.7,444.4-50.8,444.2-50.9,444.1L-50.9,444.1z"/>
		<path class="st13" d="M-45.4,448c-0.6,0.5-1.1,0.7-1.4,0.7c-0.2,0-0.5-0.1-0.6-0.2c-0.2-0.1-0.3-0.3-0.4-0.6
			c0.6-0.1,1-0.2,1.4-0.3c0.4-0.1,0.7-0.2,0.9-0.3c0.6-0.3,0.9-1,0.9-1.9c0-0.1-0.1-0.2-0.2-0.3c-0.1-0.1-0.2-0.2-0.3-0.3
			c-0.1-0.1-0.3-0.2-0.4-0.3c-0.1-0.1-0.2-0.2-0.3-0.2s-0.2-0.1-0.3-0.1c-0.1,0-0.2,0-0.4,0c-0.3,0-0.7,0.1-1.3,0.2l0,0
			c-0.4,0.2-0.7,0.5-0.9,0.8c-0.2,0.3-0.4,0.6-0.6,0.9l0,0.1c0,0.2,0,0.3,0,0.5c0,0.1,0,0.3,0,0.4c0,0.1,0,0.2,0,0.3
			c0,0.3,0,0.5,0.1,0.8c0.1,0.3,0.2,0.5,0.4,0.7c0.2,0.2,0.3,0.4,0.5,0.6c0.2,0.2,0.4,0.3,0.6,0.5l0,0c0.5,0.1,1,0.2,1.4,0.2
			c0.4,0,0.8-0.1,1.2-0.3c0.4-0.2,0.7-0.5,1-0.8l0,0c0.1-0.1,0.1-0.3,0.1-0.4c0-0.2-0.1-0.4-0.2-0.5
			C-44.8,447.8-45.2,447.8-45.4,448z M-47.4,445.8c0.1,0,0.2-0.1,0.4-0.1c0.1,0,0.2,0,0.3,0c0.2,0,0.3,0.1,0.5,0.3
			c0,0.1-0.1,0.1-0.1,0.2c-0.1,0.1-0.2,0.1-0.4,0.1c-0.2,0-0.4,0.1-0.6,0.1c-0.2,0-0.4,0-0.6,0.1l0.1-0.2c0.1-0.1,0.1-0.2,0.2-0.2
			C-47.6,445.9-47.5,445.8-47.4,445.8z"/>
		<path class="st13" d="M-31.3,443.4c-0.1-0.2-0.2-0.3-0.3-0.4c-0.1-0.1-0.3-0.2-0.4-0.3l-0.6-0.3l0,0c-0.6-0.1-1-0.2-1.1-0.2
			c-0.4,0-0.7,0.1-1.1,0.2h-0.1c-0.4,0-0.7,0.1-1,0.2l0,0l0,0c0,0.1-0.1,0.2-0.1,0.3c0,0.1,0,0.3,0,0.4c0,0.1,0,0.2,0,0.3
			c0,0.1,0,0.2,0,0.2c0,0.1,0,0.2,0,0.3c0,0.1,0,0.2,0,0.4c0,0.1,0,0.2,0,0.4l0,1c0,0.1,0,0.2,0,0.3c0,0,0,0.1,0,0.2
			c0,0.1,0,0.2,0,0.3c0,0.1,0,0.2,0,0.3c0,0.1,0,0.2,0,0.2v0.1c0,0.3,0,0.6,0,0.8c0,0.2,0,0.4,0,0.6c0,0.2,0,0.3,0,0.4h0
			c0,0.2,0,0.3,0,0.5c0,0.2,0,0.3,0.1,0.4c0,0.1,0.1,0.3,0.2,0.3c0.1,0.1,0.3,0.1,0.5,0.1c0.2,0,0.4,0,0.5-0.1
			c0.1-0.1,0.2-0.2,0.2-0.3c0-0.1,0.1-0.3,0.1-0.4v-0.4c0-0.2,0-0.3,0-0.4c0-0.1,0-0.3,0-0.4l0-0.8c0.2-0.1,0.4-0.1,0.6-0.2
			c0.2-0.1,0.4-0.1,0.5-0.2c0.6-0.1,1.1-0.3,1.5-0.7c0.2-0.2,0.3-0.3,0.4-0.4c0.1-0.1,0.2-0.3,0.3-0.4c0.1-0.1,0.1-0.3,0.1-0.4
			c0-0.1,0-0.3,0.1-0.5l0,0c0-0.3,0-0.5,0-0.8C-31.2,443.8-31.3,443.6-31.3,443.4z M-34.7,445.2C-34.7,445.2-34.7,445.2-34.7,445.2
			L-34.7,445.2c0-0.4,0-0.7,0-0.9c0-0.2,0-0.4,0-0.5c0.4-0.1,0.7-0.2,0.8-0.2c0.4,0,0.7,0.1,0.9,0.3c0.2,0.2,0.3,0.4,0.3,0.6
			c0,0.1,0,0.3,0,0.4c-0.2,0.4-0.6,0.7-1.2,0.9c-0.1,0.1-0.2,0.1-0.3,0.1c-0.1,0-0.2,0.1-0.3,0.1c0,0-0.1,0-0.1,0c0-0.1,0-0.2,0-0.3
			v-0.3C-34.7,445.3-34.7,445.2-34.7,445.2z"/>
		<path class="st13" d="M-24.8,447.3c-0.1-0.2-0.2-0.3-0.3-0.6l-0.2-0.7c0-0.2-0.1-0.5-0.1-0.7c0-0.3-0.1-0.5-0.2-0.7
			c-0.1-0.2-0.2-0.4-0.3-0.5c-0.1-0.2-0.3-0.3-0.5-0.3c-0.3,0-0.5,0.1-0.7,0.3c-0.1,0-0.3,0.1-0.5,0.1c-0.3,0.1-0.5,0.2-0.8,0.3l0,0
			c-0.2,0.2-0.4,0.4-0.6,0.7s-0.3,0.5-0.4,0.7c-0.1,0.2-0.2,0.5-0.3,0.7c-0.1,0.2-0.1,0.5-0.1,0.7c0,0.6,0.2,1.1,0.6,1.4l0.8,0.5
			l0,0c0.3,0.1,0.5,0.1,0.7,0.1c0.1,0,0.2,0,0.8-0.1l0.1,0c0.4-0.3,0.7-0.6,0.9-1c0,0,0.1,0.1,0.1,0.1c0.1,0.1,0.2,0.2,0.3,0.3
			c0.1,0.1,0.2,0.2,0.3,0.2c0.1,0.1,0.2,0.1,0.3,0.2l0,0c0.1,0,0.2,0,0.3-0.1c0.1,0,0.2-0.1,0.3-0.2c0.1-0.1,0.2-0.2,0.2-0.3
			c0.1-0.1,0.1-0.2,0.1-0.3c0-0.2-0.1-0.4-0.3-0.5C-24.5,447.6-24.7,447.5-24.8,447.3z M-27.5,447.9c-0.1,0-0.1,0.1-0.2,0.1
			c-0.3-0.2-0.5-0.4-0.6-0.6c0-0.3,0.1-0.7,0.3-1c0.1-0.2,0.3-0.4,0.4-0.5c0.1-0.1,0.3-0.2,0.4-0.2c0.1,0,0.2-0.1,0.3-0.1h0.1
			c0.1,0.5,0.2,0.7,0.2,0.8c0,0.1,0,0.2-0.1,0.3c0,0.2-0.1,0.3-0.3,0.6c-0.1,0.1-0.1,0.3-0.2,0.4c0,0.1-0.1,0.2-0.1,0.2
			C-27.4,447.9-27.4,447.9-27.5,447.9z"/>
		<path class="st13" d="M-18.1,448L-18.1,448c0-0.2-0.1-0.4-0.1-0.5c0-0.1,0-0.3-0.1-0.4s0-0.2-0.1-0.4c0-0.1,0-0.3-0.1-0.5
			c-0.1-0.6-0.4-1-0.8-1.2c-0.4-0.2-0.8-0.4-1.3-0.4c-0.2,0-0.3,0-0.4,0c-0.1,0-0.2,0.1-0.4,0.1c-0.1-0.2-0.2-0.3-0.3-0.3
			c-0.1-0.1-0.2-0.1-0.4-0.1c-0.2,0-0.4,0.1-0.6,0.2c-0.1,0.2-0.2,0.3-0.2,0.5c0,0.1,0,0.2,0.1,0.4c0,0.1,0.1,0.2,0.1,0.3l-0.1,0.7
			l-0.1,1.3c0,0.1,0,0.2,0,0.3c0,0.1,0,0.2,0,0.3c0,0.1,0,0.3,0,0.4c0,0.1,0,0.3,0.1,0.4c0,0.1,0.1,0.3,0.2,0.3
			c0.1,0.1,0.2,0.1,0.4,0.1c0.2,0,0.4-0.1,0.6-0.2c0.2-0.1,0.3-0.3,0.3-0.5c0-0.2,0-0.5,0-0.6c0-0.2,0-0.4,0-0.5c0-0.2,0-0.4,0-0.6
			c0-0.2,0-0.3,0-0.4c0.1-0.4,0.2-0.6,0.3-0.7c0.1-0.1,0.3-0.2,0.5-0.2c0.1,0,0.3,0.1,0.5,0.2c0,0,0.1,0.1,0.2,0.4
			c0,0.2,0.1,0.5,0.1,0.8c0,0.3,0,0.5,0,0.8v0.6c0,0.1,0,0.1,0,0.2l0,0l0,0c0.1,0.2,0.2,0.5,0.8,0.5c0.2,0,0.4-0.1,0.5-0.2
			c0.1-0.1,0.2-0.3,0.2-0.5c0-0.2,0-0.3,0-0.5c0-0.1,0-0.2,0-0.3V448z"/>
		<path class="st13" d="M-12.3,448.3L-12.3,448.3c-0.1,0-0.1,0-0.1,0c0,0,0,0,0,0h-0.3c-0.2,0-0.3,0-0.6,0c-0.2,0-0.4,0-0.7-0.1
			c-0.2,0-0.3,0-0.4-0.1c0.1-0.1,0.1-0.1,0.2-0.2c0.1-0.1,0.2-0.2,0.3-0.3c0.1-0.1,0.2-0.2,0.2-0.2c0.2-0.1,0.3-0.2,0.5-0.3
			c0.2-0.1,0.3-0.3,0.5-0.5c0.1-0.1,0.1-0.2,0.2-0.3c0.1-0.1,0.2-0.2,0.2-0.3c0.1-0.1,0.1-0.2,0.2-0.4c0.1-0.1,0.1-0.3,0.1-0.4
			c0,0,0-0.1,0-0.2c0-0.1,0-0.2,0-0.3l0-0.1l-0.1,0c-0.5-0.2-0.9-0.3-1.2-0.4c-0.4-0.1-0.7-0.1-0.9-0.1c-0.4,0.1-0.7,0.1-0.9,0.1
			c-0.2,0-0.4,0.1-0.5,0.1c-0.2,0.1-0.2,0.2-0.2,0.3v0.3c0,0.6,0.3,0.8,0.5,0.8c0,0,0.2,0,0.5,0l0.5-0.1h0.5
			c-0.1,0.1-0.2,0.3-0.4,0.4c-0.2,0.2-0.5,0.4-0.7,0.7c-0.2,0.2-0.3,0.3-0.4,0.5c-0.1,0.1-0.3,0.3-0.4,0.3l0,0
			c-0.3,0.4-0.5,0.8-0.5,1l0,0l0,0c0.2,0.3,0.6,0.6,1.1,0.9l0,0c0,0,0.1,0,0.2,0c0.1,0,0.3,0,0.5,0.1c0.2,0,0.4,0,0.6,0.1
			c0.2,0,0.4,0,0.5,0c0.1,0,0.1,0,0.2,0c0.1,0,0.2,0,0.3,0l0.3,0c0.1,0,0.2,0,0.3,0c0.2,0,0.4-0.1,0.5-0.3c0.1-0.2,0.2-0.3,0.2-0.5
			C-11.8,448.7-11.9,448.5-12.3,448.3z"/>
		<path class="st13" d="M-6.2,448c-0.6,0.5-1.1,0.7-1.4,0.7c-0.2,0-0.5-0.1-0.6-0.2c-0.2-0.1-0.3-0.3-0.4-0.6c0.6-0.1,1-0.2,1.4-0.3
			c0.4-0.1,0.7-0.2,0.9-0.3c0.6-0.3,0.9-1,0.9-1.9c0-0.1-0.1-0.2-0.2-0.3c-0.1-0.1-0.2-0.2-0.3-0.3c-0.1-0.1-0.3-0.2-0.4-0.3
			c-0.1-0.1-0.2-0.2-0.3-0.2s-0.2-0.1-0.3-0.1c-0.1,0-0.2,0-0.4,0c-0.3,0-0.7,0.1-1.3,0.2l0,0c-0.4,0.2-0.7,0.5-0.9,0.8
			c-0.2,0.3-0.4,0.6-0.6,0.9l0,0.1c0,0.2,0,0.3,0,0.5c0,0.1,0,0.3,0,0.4c0,0.1,0,0.2,0,0.3c0,0.3,0,0.5,0.1,0.8
			c0.1,0.3,0.2,0.5,0.4,0.7c0.2,0.2,0.3,0.4,0.5,0.6c0.2,0.2,0.4,0.3,0.6,0.5l0,0c0.5,0.1,1,0.2,1.4,0.2c0.4,0,0.8-0.1,1.2-0.3
			c0.4-0.2,0.7-0.5,1-0.8l0,0c0.1-0.1,0.1-0.3,0.1-0.4c0-0.2-0.1-0.4-0.2-0.5C-5.5,447.8-5.9,447.8-6.2,448z M-8.1,445.8
			c0.1,0,0.2-0.1,0.4-0.1c0.1,0,0.2,0,0.3,0c0.2,0,0.3,0.1,0.5,0.3c0,0.1-0.1,0.1-0.1,0.2c-0.1,0.1-0.2,0.1-0.4,0.1
			c-0.2,0-0.4,0.1-0.6,0.1c-0.2,0-0.4,0-0.6,0.1l0.1-0.2c0.1-0.1,0.1-0.2,0.2-0.2C-8.4,445.9-8.3,445.8-8.1,445.8z"/>
		<path class="st13" d="M0.1,444.5c-0.1,0-0.2,0-0.3-0.1c-0.1,0-0.2,0-0.3,0c-0.1,0-0.2,0-0.3,0c-0.1,0-0.2,0-0.3,0.1
			c-0.1,0-0.2,0.1-0.3,0.2c-0.1,0.1-0.2,0.2-0.4,0.3c-0.2-0.2-0.4-0.3-0.5-0.3c-0.3,0-0.5,0.1-0.6,0.2c-0.1,0.1-0.2,0.3-0.2,0.5
			c0,0.1,0,0.2,0,0.3c0,0.1,0,0.2,0.1,0.4l0,0c0,0.1,0,0.3,0,0.8c0,0.4,0,0.7,0,1.1c0,0.3,0,0.6,0.1,0.9c0,0.3,0.1,0.5,0.2,0.6
			c0.1,0.2,0.3,0.3,0.6,0.3c0.5,0,0.8-0.3,0.8-0.8l-0.1-1.3c0-0.1,0-0.3,0-0.4c0-0.1,0-0.2,0-0.4c0-0.1,0-0.2,0-0.2c0,0,0-0.1,0-0.1
			l0.4-0.4c0.1-0.1,0.2-0.2,0.3-0.2c0.2-0.1,0.4-0.1,0.6,0c0.3,0.2,0.7,0.1,0.9-0.2c0.1-0.2,0.2-0.4,0.2-0.6c0-0.3-0.1-0.5-0.3-0.6
			L0.1,444.5z"/>
		<path class="st13" d="M13.9,444.9L13.9,444.9c-0.3,0-0.5-0.1-0.7-0.1c-0.2,0-0.4,0-0.5-0.1c-0.6,0-1.1,0-1.5,0c-0.1,0-0.1,0-0.2,0
			c-0.1,0-0.1,0-0.2,0c-0.3,0-0.5,0-0.7,0c-0.2,0-0.4,0-0.5,0.1l-0.1,0c-0.3,0.2-0.5,0.5-0.5,0.8c0,0.3,0.1,0.7,0.8,0.7
			c0.3,0,0.6,0,0.8-0.1c0.2,0,0.4,0,0.6-0.1l0,0l0,0c0,0,0.1-0.1,0.4-0.1c0.3,0,0.5,0,0.7,0c0.2,0,0.2,0,0.3,0c0.1,0,0.3,0,0.4,0
			c0.2,0,0.3,0,0.4,0c0.1,0,0.2,0,0.4,0l0,0l0,0c0.2-0.2,0.3-0.4,0.3-0.6C14.4,445.4,14.2,445.1,13.9,444.9L13.9,444.9z"/>
		<path class="st13" d="M29,442.8L29,442.8c-0.4-0.4-1-0.5-1.9-0.5c-0.6-0.1-1-0.2-1.1-0.2h0v0c-0.1,0-0.4,0-1.1,0
			c-0.5,0-0.7,0.1-0.8,0.2c-0.3,0.6-0.5,1.5-0.5,2.9c0,0.3,0,0.6,0,0.8v0.7c0,0.2,0,0.4,0,0.5c0,0.2,0,0.3,0,0.5c0,0.2,0,0.4,0,0.6
			c0,0.2,0,0.4,0.1,0.6l0,0c0,0,0,0,0,0.1c0,0.1,0,0.3,0.1,0.4l0.1,0.6l0-0.3c0,0.1,0.1,0.1,0.1,0.2c0.1,0.2,0.3,0.3,0.6,0.3
			c0.3,0,0.7-0.1,0.7-0.8l0,0l0,0c-0.1-0.2-0.1-0.5-0.1-0.8v-0.2c0-0.1,0-0.1,0-0.2l0-1.3c0.1,0,0.2,0,0.3,0l0.7,0
			c0.4,0,0.6-0.1,0.9-0.1c0.3,0,0.4,0,0.6-0.1c0.2,0,0.3-0.1,0.4-0.2c0.1-0.1,0.1-0.3,0.1-0.5c0-0.2-0.1-0.4-0.2-0.5
			c-0.1-0.2-0.3-0.2-0.5-0.2c-0.1,0-0.2,0-0.4,0c-0.2,0-0.3,0-0.5,0l-0.4,0c-0.1,0-0.2,0-0.2,0l-0.9,0c0,0,0,0,0,0
			c0-0.1,0-0.2,0-0.3c0-0.1,0-0.2,0-0.3c0-0.1,0-0.2,0-0.3V444c0-0.1,0-0.2,0-0.2c0-0.1,0-0.1,0.1-0.2c0,0,0,0,0.1,0
			c0.3,0,0.5,0,0.8,0c0.3,0,0.5,0.1,0.9,0.2h0.1c0.1,0,0.2,0,0.3,0c0.1,0,0.2,0.1,0.4,0.1c0.1,0,0.2,0.1,0.3,0.1c0.1,0,0.2,0,0.2,0
			c0.1,0,0.3-0.1,0.5-0.3c0.1-0.2,0.1-0.4,0.1-0.6C29.1,443,29,442.9,29,442.8L29,442.8z"/>
		<path class="st13" d="M34.5,448c-0.6,0.5-1.1,0.7-1.4,0.7c-0.2,0-0.5-0.1-0.6-0.2c-0.2-0.1-0.3-0.3-0.4-0.6c0.6-0.1,1-0.2,1.4-0.3
			c0.4-0.1,0.7-0.2,0.9-0.3c0.6-0.3,0.9-1,0.9-1.9c0-0.1-0.1-0.2-0.2-0.3c-0.1,0-0.2-0.1-0.3-0.3c-0.1-0.1-0.3-0.2-0.4-0.3
			c-0.1-0.1-0.2-0.2-0.3-0.2c-0.1,0-0.2-0.1-0.3-0.1c-0.1,0-0.2,0-0.4,0c-0.3,0-0.7,0.1-1.3,0.2l0,0c-0.4,0.2-0.7,0.5-0.9,0.8
			c-0.2,0.3-0.4,0.6-0.6,0.9l0,0.1c0,0.2,0,0.3,0,0.5c0,0.1,0,0.3,0,0.4c0,0.1,0,0.2,0,0.3c0,0.3,0,0.5,0.1,0.8
			c0.1,0.3,0.2,0.5,0.4,0.7c0.2,0.2,0.3,0.4,0.5,0.6c0.2,0.2,0.4,0.3,0.6,0.5l0,0c0.5,0.1,1,0.2,1.4,0.2c0.4,0,0.8-0.1,1.2-0.3
			c0.4-0.2,0.7-0.5,1-0.8l0,0c0.1-0.1,0.1-0.3,0.1-0.4c0-0.2-0.1-0.4-0.2-0.5C35.1,447.8,34.7,447.8,34.5,448z M32.5,445.8
			c0.1,0,0.2-0.1,0.4-0.1c0.1,0,0.2,0,0.3,0c0.2,0,0.3,0.1,0.5,0.3c0,0.1-0.1,0.1-0.1,0.2c-0.1,0.1-0.2,0.1-0.4,0.1
			c-0.2,0-0.4,0.1-0.6,0.1c-0.2,0-0.4,0-0.6,0.1l0.1-0.2c0.1-0.1,0.1-0.2,0.2-0.2C32.3,445.9,32.4,445.8,32.5,445.8z"/>
		<path class="st13" d="M40.9,444.1c-0.1-0.1-0.3-0.1-0.6-0.1c0,0-0.1,0-0.2,0c-0.1,0-0.1,0-0.2,0h-0.1c-0.1,0-0.1,0-0.2,0
			c0,0,0,0,0,0l0-0.5c0,0,0-0.1,0-0.2c0-0.1,0-0.3,0.1-0.4l0.1-0.5c0-0.1,0-0.1,0-0.2c-0.1-0.4-0.3-0.6-0.7-0.6
			c-0.2,0-0.4,0.1-0.6,0.3c-0.1,0.2-0.2,0.4-0.3,0.7c-0.1,0.3-0.1,0.5-0.1,0.8c0,0.3,0,0.5,0,0.7c-0.1,0-0.1,0-0.2,0
			c-0.1,0-0.2,0-0.2,0l-0.2,0c-0.1,0-0.2,0-0.3,0.1c-0.3,0.1-0.5,0.2-0.6,0.3c-0.1,0.1-0.1,0.3-0.1,0.4c0,0.2,0.1,0.4,0.3,0.5
			c0.2,0.1,0.4,0.2,0.6,0.2l0,0c0.3-0.1,0.5-0.1,0.6-0.1c0,0.2,0,0.4,0,0.5c0,0.1,0,0.2,0,0.3c0,0.1,0,0.2,0,0.3c0,0.1,0,0.3,0,0.6
			c0,0.3,0,0.5,0.1,0.8c0.1,0.2,0.2,0.5,0.3,0.7c0.1,0.1,0.2,0.2,0.3,0.3c0.1,0.1,0.3,0.2,0.4,0.2c0.1,0.1,0.3,0.1,0.4,0.1
			c0.1,0,0.3,0.1,0.3,0.1c0.2,0,0.4-0.1,0.6-0.2c0.2-0.1,0.2-0.3,0.2-0.5c0-0.2-0.1-0.5-0.5-0.7l-0.4-0.1c-0.1,0-0.1-0.1-0.1-0.1
			c0-0.1-0.1-0.2-0.1-0.3v-0.6c0,0,0-0.1,0-0.1c0,0,0,0,0-0.1c0-0.3,0-0.6,0-0.9c0-0.2,0-0.4,0-0.5c0.2,0,0.4,0,0.5-0.1l0.5,0h0.1
			c0.2,0,0.6-0.1,0.6-0.7C41.1,444.4,41.1,444.2,40.9,444.1L40.9,444.1z"/>
		<path class="st13" d="M46,444.1c-0.1-0.1-0.3-0.1-0.6-0.1c0,0-0.1,0-0.2,0c-0.1,0-0.1,0-0.2,0h-0.1c-0.1,0-0.1,0-0.2,0
			c0,0,0,0,0,0l0-0.5c0,0,0-0.1,0-0.2c0-0.1,0-0.3,0.1-0.4l0.1-0.4c0-0.2,0-0.2,0-0.2c-0.1-0.4-0.3-0.6-0.7-0.6
			c-0.2,0-0.4,0.1-0.6,0.3c-0.1,0.2-0.2,0.4-0.3,0.7c-0.1,0.3-0.1,0.5-0.1,0.8c0,0.3,0,0.5,0,0.7c-0.1,0-0.1,0-0.2,0
			c-0.1,0-0.2,0-0.2,0l-0.2,0c-0.1,0-0.2,0-0.3,0.1c-0.3,0.1-0.5,0.2-0.6,0.3c-0.1,0.1-0.1,0.3-0.1,0.4c0,0.2,0.1,0.4,0.3,0.5
			c0.2,0.1,0.4,0.2,0.6,0.2l0,0c0.3-0.1,0.5-0.1,0.6-0.1c0,0.2,0,0.4,0,0.5c0,0.1,0,0.2,0,0.3c0,0.1,0,0.2,0,0.3c0,0.1,0,0.3,0,0.6
			c0,0.3,0,0.5,0.1,0.8c0.1,0.2,0.2,0.5,0.3,0.7c0.1,0.1,0.2,0.2,0.3,0.3c0.1,0.1,0.3,0.2,0.4,0.2c0.1,0.1,0.3,0.1,0.4,0.1
			c0.2,0,0.3,0.1,0.3,0.1c0.2,0,0.4-0.1,0.6-0.2c0.2-0.1,0.2-0.3,0.2-0.5c0-0.2-0.1-0.5-0.5-0.7l-0.4-0.1c-0.1,0-0.1-0.1-0.1-0.1
			c0-0.1-0.1-0.2-0.1-0.3v-0.6c0,0,0-0.1,0-0.1c0,0,0,0,0-0.1c0-0.4,0-0.6,0-0.9c0-0.2,0-0.4,0-0.5c0.2,0,0.4,0,0.5-0.1l0.5,0h0.1
			c0.2,0,0.6-0.1,0.6-0.7C46.2,444.4,46.1,444.2,46,444.1L46,444.1z"/>
		<path class="st13" d="M51.5,448c-0.6,0.5-1.1,0.7-1.4,0.7c-0.2,0-0.5-0.1-0.6-0.2c-0.2-0.1-0.3-0.3-0.4-0.6c0.6-0.1,1-0.2,1.4-0.3
			c0.4-0.1,0.7-0.2,0.9-0.3c0.6-0.3,0.9-1,0.9-1.9c0-0.1-0.1-0.2-0.2-0.3c-0.1-0.1-0.2-0.2-0.3-0.3c-0.1-0.1-0.3-0.2-0.4-0.3
			c-0.1-0.1-0.2-0.2-0.3-0.2c-0.1,0-0.2-0.1-0.3-0.1c-0.1,0-0.2,0-0.4,0c-0.3,0-0.7,0.1-1.3,0.2l0,0c-0.4,0.2-0.7,0.5-0.9,0.8
			c-0.2,0.3-0.4,0.6-0.6,0.9l0,0.2c0,0.1,0,0.2,0,0.3c0,0.1,0,0.3,0,0.4c0,0.1,0,0.2,0,0.3c0,0.3,0,0.5,0.1,0.8
			c0.1,0.3,0.2,0.5,0.4,0.7c0.2,0.2,0.3,0.4,0.5,0.6c0.2,0.2,0.4,0.3,0.6,0.5l0,0c0.5,0.1,1,0.2,1.4,0.2c0.4,0,0.8-0.1,1.2-0.3
			c0.4-0.2,0.7-0.5,1-0.8l0,0c0.1-0.1,0.1-0.3,0.1-0.4c0-0.2-0.1-0.4-0.2-0.5C52.1,447.8,51.7,447.8,51.5,448z M49.5,445.8
			c0.1,0,0.2-0.1,0.4-0.1c0.1,0,0.2,0,0.3,0c0.2,0,0.3,0.1,0.5,0.3c0,0.1-0.1,0.1-0.1,0.2c-0.1,0.1-0.2,0.1-0.4,0.1
			c-0.2,0-0.4,0.1-0.6,0.1l0,0c-0.2,0-0.4,0-0.6,0.1l0.1-0.2c0.1-0.1,0.1-0.2,0.2-0.2C49.3,445.9,49.4,445.8,49.5,445.8z"/>
		<path class="st13" d="M65.6,443.4c-0.1-0.2-0.2-0.3-0.3-0.4c-0.1-0.1-0.3-0.2-0.4-0.3l-0.6-0.3l0,0c-0.6-0.1-1-0.2-1.1-0.2
			c-0.4,0-0.7,0.1-1.1,0.2h-0.1c-0.4,0-0.7,0.1-1,0.2l0,0l0,0c0,0.1-0.1,0.2-0.1,0.3c0,0.1,0,0.3,0,0.4c0,0.1,0,0.2,0,0.3
			c0,0.1,0,0.2,0,0.2c0,0.1,0,0.2,0,0.3c0,0.1,0,0.2,0,0.4c0,0.1,0,0.2,0,0.4l0,1c0,0.1,0,0.2,0,0.3c0,0,0,0.1,0,0.1l0,0
			c0,0.1,0,0.2,0,0.3c0,0.1,0,0.2,0,0.3c0,0.1,0,0.2,0,0.2v0.1c0,0.3,0,0.6,0,0.8c0,0.2,0,0.4,0,0.6c0,0.2,0,0.3,0,0.4h0
			c0,0.2,0,0.3,0,0.5c0,0.2,0,0.3,0.1,0.4c0,0.1,0.1,0.3,0.2,0.3c0.1,0.1,0.3,0.1,0.5,0.1c0.2,0,0.4,0,0.5-0.1
			c0.1-0.1,0.2-0.2,0.2-0.3c0-0.1,0.1-0.3,0.1-0.4v-0.4c0-0.2,0-0.3,0-0.4c0-0.1,0-0.3,0-0.4l0-0.8c0.2-0.1,0.4-0.1,0.6-0.2
			c0.2-0.1,0.4-0.1,0.5-0.2c0.6-0.1,1.1-0.3,1.5-0.7c0.2-0.2,0.3-0.3,0.4-0.4c0.1-0.1,0.2-0.3,0.3-0.4c0.1-0.1,0.1-0.3,0.1-0.4
			c0-0.1,0-0.3,0.1-0.5l0,0c0-0.3,0-0.5,0-0.8C65.7,443.8,65.6,443.6,65.6,443.4z M62.4,446c0,0-0.1,0-0.1,0c0-0.1,0-0.2,0-0.3v-0.3
			c0-0.2,0-0.2,0-0.2c0,0,0,0,0,0l0-0.1c0-0.3,0-0.6,0-0.9c0-0.2,0-0.4,0-0.5c0.4-0.1,0.7-0.2,0.8-0.2c0.4,0,0.7,0.1,0.9,0.3
			c0.2,0.2,0.3,0.4,0.3,0.6c0,0.1,0,0.3,0,0.4c-0.2,0.4-0.6,0.7-1.2,0.9c-0.1,0.1-0.2,0.1-0.3,0.1C62.6,445.9,62.5,446,62.4,446z"/>
		<path class="st13" d="M72.1,447.3c-0.1-0.2-0.2-0.3-0.3-0.6l-0.2-0.7c0-0.2-0.1-0.5-0.1-0.7c0-0.3-0.1-0.5-0.2-0.7
			c-0.1-0.2-0.2-0.4-0.3-0.5c-0.1-0.2-0.3-0.3-0.5-0.3c-0.3,0-0.5,0.1-0.7,0.3c-0.1,0-0.3,0.1-0.5,0.1c-0.3,0.1-0.5,0.2-0.8,0.3l0,0
			c-0.2,0.2-0.4,0.4-0.6,0.7c-0.2,0.2-0.3,0.5-0.4,0.7c-0.1,0.2-0.2,0.5-0.3,0.7c-0.1,0.2-0.1,0.5-0.1,0.7c0,0.6,0.2,1.1,0.6,1.4
			l0.8,0.5l0,0c0.3,0.1,0.5,0.1,0.7,0.1c0.1,0,0.2,0,0.8-0.1l0.1,0c0.4-0.3,0.7-0.6,0.9-1c0,0,0.1,0.1,0.1,0.1
			c0.1,0.1,0.2,0.2,0.3,0.3c0.1,0.1,0.2,0.2,0.3,0.2c0.1,0.1,0.2,0.1,0.3,0.2l0,0c0.1,0,0.2,0,0.3-0.1c0.1,0,0.2-0.1,0.3-0.2
			c0.1-0.1,0.2-0.2,0.2-0.3c0.1-0.1,0.1-0.2,0.1-0.3c0-0.2-0.1-0.4-0.3-0.5C72.3,447.6,72.2,447.5,72.1,447.3z M69.4,447.9
			c-0.1,0-0.1,0.1-0.2,0.1c-0.3-0.2-0.5-0.4-0.6-0.6c0-0.3,0.1-0.7,0.3-1c0.1-0.2,0.3-0.4,0.4-0.5c0.1-0.1,0.3-0.2,0.4-0.2
			c0.1,0,0.2-0.1,0.3-0.1H70c0.1,0.5,0.2,0.7,0.2,0.8c0,0.1,0,0.2-0.1,0.3c0,0.2-0.1,0.3-0.3,0.6c-0.1,0.1-0.1,0.3-0.2,0.4
			c0,0.1-0.1,0.2-0.1,0.2C69.5,447.9,69.4,447.9,69.4,447.9z"/>
		<path class="st13" d="M77.5,444.5c-0.1,0-0.2,0-0.3-0.1c-0.1,0-0.2,0-0.3,0c-0.1,0-0.2,0-0.3,0c-0.1,0-0.2,0-0.3,0.1
			c-0.1,0-0.2,0.1-0.3,0.2c-0.1,0.1-0.2,0.2-0.4,0.3c-0.2-0.2-0.4-0.3-0.5-0.3c-0.3,0-0.5,0.1-0.6,0.2c-0.1,0.1-0.2,0.3-0.2,0.5
			c0,0.1,0,0.2,0,0.3c0,0.1,0,0.2,0.1,0.4l0,0c0,0.1,0,0.3,0,0.8c0,0.4,0,0.7,0,1.1c0,0.3,0,0.6,0,0.9c0,0.3,0.1,0.5,0.2,0.6
			c0.1,0.2,0.3,0.3,0.6,0.3c0.5,0,0.8-0.3,0.8-0.8l-0.1-1.3c0-0.1,0-0.3,0-0.4c0-0.1,0-0.2,0-0.4c0-0.1,0-0.2,0-0.2c0,0,0-0.1,0-0.1
			l0.4-0.4c0.1-0.1,0.2-0.2,0.3-0.2c0.2-0.1,0.4-0.1,0.6,0c0.3,0.2,0.7,0.1,0.9-0.2c0.1-0.2,0.2-0.4,0.2-0.6c0-0.3-0.1-0.5-0.3-0.6
			L77.5,444.5z"/>
		<path class="st13" d="M83.2,444.1c-0.1-0.1-0.3-0.1-0.6-0.1c0,0-0.1,0-0.2,0c-0.1,0-0.1,0-0.2,0h-0.1c-0.1,0-0.1,0-0.2,0
			c0,0,0,0,0,0l0-0.5c0,0,0-0.1,0-0.2c0-0.1,0-0.3,0.1-0.4l0.1-0.5c0-0.1,0-0.1,0-0.2c-0.1-0.4-0.3-0.6-0.7-0.6
			c-0.2,0-0.4,0.1-0.6,0.3c-0.1,0.2-0.2,0.4-0.3,0.7c-0.1,0.3-0.1,0.5-0.1,0.8c0,0.3,0,0.5,0,0.7c-0.1,0-0.1,0-0.2,0
			c-0.1,0-0.2,0-0.2,0l-0.2,0c-0.1,0-0.2,0-0.3,0.1c-0.3,0.1-0.5,0.2-0.6,0.3c-0.1,0.1-0.1,0.3-0.1,0.4c0,0.2,0.1,0.4,0.3,0.5
			c0.2,0.1,0.4,0.2,0.6,0.2l0,0c0.3-0.1,0.5-0.1,0.6-0.1c0,0.2,0,0.4,0,0.5c0,0.1,0,0.2,0,0.3c0,0.1,0,0.2,0,0.3c0,0.1,0,0.3,0,0.6
			c0,0.3,0,0.5,0.1,0.8c0.1,0.2,0.2,0.5,0.3,0.7c0.1,0.1,0.2,0.2,0.3,0.3c0.1,0.1,0.3,0.2,0.4,0.2c0.1,0.1,0.3,0.1,0.4,0.1
			c0.1,0,0.3,0.1,0.3,0.1c0.2,0,0.4-0.1,0.6-0.2c0.2-0.1,0.2-0.3,0.2-0.5c0-0.2-0.1-0.5-0.5-0.7l-0.4-0.1c-0.1,0-0.1-0.1-0.1-0.1
			c0-0.1-0.1-0.2-0.1-0.3v-0.6c0,0,0-0.1,0-0.1c0,0,0,0,0-0.1c0-0.3,0-0.6,0-0.9c0-0.2,0-0.4,0-0.5c0.2,0,0.4,0,0.5-0.1l0.5,0h0.1
			c0.2,0,0.6-0.1,0.6-0.7C83.4,444.4,83.3,444.2,83.2,444.1L83.2,444.1z"/>
		<path class="st13" d="M89.8,445.4c-0.1-0.4-0.3-0.6-0.7-0.6c-0.2,0-0.5,0.1-0.7,0.2l0,0l0,0.1c0,0.2-0.1,0.5-0.2,0.7l-0.2,0.6
			l-0.5,1.4c-0.1-0.1-0.2-0.2-0.3-0.3c-0.1-0.1-0.3-0.3-0.3-0.3c-0.1-0.1-0.1-0.1-0.2-0.2c-0.1-0.1-0.2-0.2-0.2-0.3
			c-0.1-0.1-0.2-0.3-0.4-0.6c-0.2-0.3-0.3-0.4-0.5-0.6c-0.4-0.3-0.7-0.2-0.9,0.1c-0.2,0.2-0.2,0.4-0.2,0.6c0,0.1,0,0.1,0,0.2
			c0.2,0.3,0.3,0.5,0.4,0.7c0.1,0.2,0.2,0.3,0.3,0.4c0.1,0.1,0.2,0.2,0.2,0.3c0.1,0.1,0.1,0.1,0.2,0.2c0.1,0.1,0.1,0.1,0.2,0.2
			c0.1,0.1,0.2,0.2,0.3,0.3l0,0l0,0c0.1,0,0.1,0.1,0.2,0.2c0.1,0.1,0.2,0.2,0.3,0.3c0.1,0.1,0.2,0.2,0.2,0.3c0,0,0.1,0.1,0.1,0.1
			c0,0.1-0.1,0.2-0.1,0.3c-0.1,0.2-0.2,0.3-0.3,0.5c-0.1,0.2-0.2,0.3-0.2,0.5c-0.1,0.2-0.1,0.3-0.1,0.3c-0.1,0.1-0.2,0.3-0.3,0.4
			c-0.1,0.1-0.2,0.3-0.3,0.4l0,0c-0.1,0.1-0.2,0.3-0.2,0.4c-0.1,0.1-0.1,0.3-0.1,0.3c0,0.2,0.1,0.4,0.3,0.5c0.2,0.1,0.3,0.2,0.5,0.2
			c0.1,0,0.3-0.1,0.4-0.2c0.1-0.1,0.2-0.2,0.3-0.4c0.1-0.1,0.2-0.3,0.2-0.4c0.1-0.1,0.1-0.2,0.1-0.3c0-0.1,0.1-0.2,0.2-0.4
			c0.1-0.2,0.2-0.4,0.3-0.6l0.3-0.6c0.1-0.2,0.2-0.3,0.2-0.4c0.2-0.2,0.4-0.5,0.5-1c0.3-0.4,0.5-0.9,0.6-1.3
			c0.2-0.4,0.3-0.7,0.4-0.9c0.1-0.2,0.2-0.3,0.2-0.4c0-0.1,0.1-0.2,0.1-0.3C89.8,445.8,89.8,445.6,89.8,445.4L89.8,445.4z"/>
	</g>
	<g id="lines">
	</g>
</g>
</svg>
