<?xml version="1.0" encoding="utf-8"?>
<!-- Generator: Adobe Illustrator 19.0.0, SVG Export Plug-In . SVG Version: 6.00 Build 0)  -->
<svg version="1.1" xmlns="http://www.w3.org/2000/svg" xmlns:xlink="http://www.w3.org/1999/xlink" x="0px" y="0px"
	 viewBox="0 0 304.3 66.7" style="enable-background:new 0 0 304.3 66.7;" xml:space="preserve">
<style type="text/css">
	.st0{fill:#FCFCFC;stroke:#000000;stroke-width:2;stroke-linecap:round;stroke-linejoin:round;stroke-miterlimit:10;}
	.st1{fill:none;stroke:#000000;stroke-width:2;stroke-linecap:round;stroke-linejoin:round;stroke-miterlimit:10;}
	.st2{fill:#14AD85;}
	.st3{fill:#1DBAE0;}
	.st4{fill:#EA5455;}
	.st5{fill:#C474AE;}
	.st6{fill:#F59D48;}
</style>
<g id="Ebene_1">
	<g id="XMLID_73_">
		<g id="XMLID_74_">
			<path id="XMLID_79_" class="st0" d="M256.6,58.4c13,1.5,26,3.2,38.9,5.3c-3.3-7.4-6.6-14.8-10-22.2c5.4-6.1,10.9-12.2,16.4-18.3
				c-13.5-2.1-27.1-4-40.6-5.5C259.6,31.3,258.1,44.8,256.6,58.4z"/>
			<path id="XMLID_78_" class="st1" d="M270.9,52.2c-4.8,2-9.6,4.1-14.3,6.2"/>
			<path id="XMLID_77_" class="st0" d="M47.8,58.4c-13,1.5-26,3.2-38.9,5.3c3.3-7.4,6.6-14.8,10-22.2C13.6,35.3,8.1,29.2,2.5,23.2
				c13.5-2.1,27.1-4,40.6-5.5C44.7,31.3,46.2,44.8,47.8,58.4z"/>
			<path id="XMLID_76_" class="st0" d="M271,52.2C192.1,42,112.3,42,33.5,52.2c-1.7-13.6-3.5-27.1-5.2-40.7
				c82.3-10.6,165.7-10.6,248,0C274.5,25.1,272.7,38.6,271,52.2z"/>
			<path id="XMLID_75_" class="st1" d="M33.5,52.2c4.8,2,9.6,4.1,14.3,6.2"/>
		</g>
	</g>
</g>
<g id="Ebene_2_1_">
	<g id="XMLID_177_">
		<g id="Ebene_2_10_">
			<g id="XMLID_178_">
				<path id="XMLID_197_" class="st2" d="M59.9,23.8c0,0.5,0,0.9,0,1.3c0,0.4-0.1,0.8-0.2,1.1c-0.1,0.4-0.4,0.7-0.6,1.1
					c-0.3,0.4-0.6,0.9-1.1,1.4c-1.1,1.4-2.5,2.3-4,2.7c-0.3,0.2-0.8,0.4-1.3,0.7c-0.6,0.3-1.2,0.6-2,0.9c0.2,0.9,0.3,1.7,0.5,2.6
					c0.1,0.4,0.2,0.7,0.3,1.1c0.1,0.4,0.2,0.8,0.2,1.2c0,0.3,0.1,0.7,0.2,1c0.1,0.4,0.1,0.7,0,1.1c0,0.3-0.2,0.6-0.4,0.9
					c-0.2,0.3-0.6,0.4-1.1,0.5c-0.5,0.1-0.9,0-1.2-0.1c-0.3-0.1-0.5-0.4-0.6-0.7c-0.1-0.3-0.2-0.7-0.3-1.2C48.1,39,48,38.5,47.8,38
					c0,0,0,0,0,0c-0.1-0.3-0.2-0.8-0.3-1.2c-0.1-0.4-0.2-0.9-0.3-1.6c-0.1-0.6-0.3-1.4-0.5-2.2c0-0.1,0-0.2,0-0.2
					c0-0.2-0.1-0.4-0.1-0.6c-0.1-0.3-0.1-0.5-0.2-0.8c-0.1-0.3-0.1-0.5-0.2-0.8c0-0.2-0.1-0.4-0.1-0.5c0-0.2-0.1-0.5-0.1-0.9
					c-0.1-0.4-0.1-0.9-0.2-1.4c-0.1-0.5-0.1-1-0.2-1.4c-0.1-0.4-0.1-0.8-0.1-1c-0.1-0.4-0.1-0.8-0.2-1.2c-0.1-0.3-0.2-0.7-0.3-0.9
					c0-0.1,0-0.2-0.1-0.5c0-0.3-0.1-0.6-0.1-1c0-0.4,0-0.7,0-1.1c0-0.4,0-0.7,0.1-0.9c0.7-0.5,1.6-0.8,2.6-0.9c0.1,0,0.2,0,0.3-0.1
					c1.2-0.5,2.3-0.9,3.3-1c0.4-0.1,1.5-0.1,3.4,0c0.7,0.2,1.3,0.5,2,0.7c0.5,0.2,1,0.5,1.4,0.7c0.4,0.3,0.7,0.6,0.9,1
					c0.3,0.4,0.5,0.9,0.6,1.4C59.6,22.3,59.8,23,59.9,23.8z M56,24.9c0-0.5,0-1-0.1-1.4c-0.1-0.7-0.5-1.3-1.2-1.9
					c-0.7-0.5-1.8-0.7-3.2-0.5c-0.6,0.1-1.6,0.5-2.8,1.1c0.1,0.5,0.3,1.1,0.4,1.8c0.1,0.7,0.3,1.5,0.4,2.5c0,0.1,0,0.3,0.1,0.8
					c0,0.2,0.1,0.5,0.1,0.9c0.1,0.3,0.1,0.7,0.2,1.1c0.2-0.1,0.5-0.2,0.8-0.3c0.3-0.1,0.6-0.3,0.9-0.4c0.3-0.1,0.6-0.3,0.9-0.5
					C54.6,27.4,55.7,26.3,56,24.9z"/>
				<path id="XMLID_194_" class="st3" d="M80.6,30.4c0.5,0.3,0.8,0.6,0.9,1.1c0,0.2,0,0.5-0.1,0.8c-0.1,0.3-0.3,0.5-0.5,0.7
					c-0.2,0.2-0.4,0.4-0.6,0.6c-0.2,0.2-0.5,0.3-0.7,0.3c-0.2-0.1-0.5-0.2-0.8-0.3c-0.3-0.2-0.6-0.4-1-0.6c-0.3-0.2-0.6-0.5-0.9-0.8
					c-0.3-0.3-0.5-0.6-0.7-0.9c-0.1,0.2-0.1,0.5-0.2,0.7c-0.4,1-1.1,2-2.2,3c-1.3,0.4-2.1,0.6-2.3,0.6c-0.5,0.1-1.2,0.1-1.9,0
					c-0.8-0.4-1.6-0.8-2.5-1.3c-1.1-0.8-1.8-2-2-3.6c-0.1-0.6-0.1-1.2,0-1.9c0.1-0.7,0.3-1.4,0.5-2.2c0.3-0.7,0.6-1.5,1-2.2
					c0.4-0.7,0.9-1.4,1.5-2c0.8-0.4,1.5-0.7,2.3-1c0.7-0.3,1.3-0.5,1.7-0.6c0.5-0.6,1.1-1,1.8-1.1c0.4,0,0.8,0.1,1.2,0.5
					c0.4,0.4,0.7,0.8,1,1.4c0.3,0.6,0.6,1.2,0.8,1.9c0.2,0.7,0.4,1.4,0.5,2c0.3,0.7,0.5,1.4,0.8,2.1c0.2,0.7,0.6,1.2,1,1.6
					C79.5,29.7,80,30,80.6,30.4z M73.8,26.6c-0.1,0-0.4-0.8-0.9-2.5c-0.1,0-0.4,0-0.6,0.1c-0.3,0-0.6,0.1-1,0.3
					c-0.4,0.2-0.7,0.5-1.1,0.9c-0.4,0.4-0.7,1-1,1.8c-0.5,1.1-0.6,2.2-0.5,3.2c0.6,0.8,1.4,1.4,2.5,1.8c0.3-0.1,0.5-0.2,0.7-0.4
					c0.2-0.1,0.4-0.3,0.5-0.5c0.1-0.2,0.3-0.5,0.4-0.8c0.1-0.3,0.3-0.7,0.4-1.1c0.3-0.7,0.5-1.2,0.6-1.7
					C73.8,27.3,73.9,26.9,73.8,26.6z"/>
				<path id="XMLID_193_" class="st4" d="M98.6,29c0,0.1,0,0.2,0,0.3c0,0.2,0,0.5,0.1,0.9c0,0.4,0,0.8,0,1.3
					c-0.1,0.4-0.2,0.8-0.5,1.2C98,33,97.6,33.2,97,33.3c-1.1,0.1-1.7-0.3-2-1.1c0-0.2,0-0.3,0-0.6c0-0.2,0-0.4-0.1-0.7
					c0-0.1,0-0.5-0.1-1.2c-0.1-0.7-0.1-1.4-0.3-2.2c-0.1-0.8-0.3-1.6-0.5-2.3s-0.5-1.1-0.7-1.3c-0.7-0.4-1.3-0.5-1.8-0.5
					c-0.7,0.1-1.2,0.3-1.6,0.7c-0.4,0.4-0.7,1.2-0.9,2.4c0,0.4,0,0.8,0,1.3c0,0.5,0,1,0,1.6c0,0.5,0.1,1,0.2,1.5
					c0.1,0.5,0.2,1.2,0.3,1.9c0,0.5-0.1,1-0.5,1.3c-0.4,0.4-0.8,0.6-1.4,0.6c-0.4,0-0.7,0-1-0.2c-0.3-0.2-0.5-0.5-0.6-0.8
					c-0.2-0.3-0.3-0.7-0.4-1.1c-0.1-0.4-0.1-0.8-0.2-1.2c0-0.3,0-0.6,0-0.9c0-0.3,0-0.6,0-1c0-1.3,0-2.6-0.1-3.9
					c0-0.7,0.1-1.3,0.1-2c-0.1-0.3-0.2-0.7-0.4-1c-0.2-0.4-0.3-0.6-0.3-0.9c0-0.5,0.1-0.9,0.4-1.3c0.3-0.4,0.8-0.7,1.4-0.7
					c0.4,0,0.7,0,0.9,0.1c0.2,0.1,0.6,0.5,1.1,1c0.5-0.3,1-0.5,1.3-0.6c0.3-0.1,0.7-0.2,1.2-0.2c1.5-0.1,2.8,0.1,3.9,0.7
					c1.2,0.6,1.9,1.6,2.3,3.1c0.1,0.6,0.2,1,0.3,1.4c0.1,0.4,0.2,0.7,0.3,1.1c0.1,0.3,0.2,0.7,0.3,1.1C98.3,27.9,98.4,28.4,98.6,29z
					"/>
				<path id="XMLID_192_" class="st5" d="M115,18.5c0.1,0.4,0.1,0.7,0.2,1c0.1,0.2,0.1,0.4,0.1,0.5c0,0.3,0,0.6-0.2,1
					c-0.1,0.4-0.3,0.7-0.5,1c-0.2,0.3-0.4,0.6-0.7,1c-0.2,0.3-0.4,0.5-0.6,0.7c-0.4,0.7-0.9,1.2-1.3,1.6c-0.4,0.4-0.8,0.8-1.3,1
					c-0.2,0.2-0.4,0.5-0.6,0.8c-0.3,0.3-0.6,0.6-0.8,0.8c-0.3,0.3-0.5,0.5-0.7,0.7c-0.2,0.2-0.3,0.3-0.4,0.4
					c0.6,0.1,1.3,0.2,2.1,0.3c0.7,0,1.4,0.1,2.1,0.1c0.6,0,1.2,0,1.7,0c0.5,0,0.8,0,1-0.1c0.1,0,0.1,0,0.2,0c0.1,0,0.1,0,0.1,0
					c1,0.4,1.5,1,1.5,1.8c0,0.5-0.1,0.9-0.3,1.3c-0.2,0.4-0.6,0.6-1.1,0.6c-0.2,0-0.4,0-0.7,0c-0.3,0-0.6,0-1-0.1
					c-0.3,0-0.6,0-1-0.1c-0.3,0-0.5,0-0.7,0c-0.4,0-0.9,0-1.4,0c-0.6,0-1.1,0-1.6-0.1c-0.5,0-1-0.1-1.4-0.1c-0.4,0-0.6,0-0.7,0
					c-1.6-0.5-2.7-1.2-3.3-2.1c0.1-0.6,0.5-1.5,1.2-2.8c0.3-0.3,0.7-0.7,1-1.1c0.4-0.4,0.8-0.9,1.2-1.4c0.8-0.7,1.4-1.4,2-2
					c0.6-0.6,1.1-1.2,1.5-1.8c-0.1,0-0.3-0.1-0.5-0.1c-0.2,0-0.4,0-0.7,0c-0.3,0-0.7,0-1,0.1c-0.5,0.1-1.1,0.2-1.6,0.3
					c-0.7,0.1-1.2,0.2-1.3,0.2c-0.7,0-1.1-0.6-1.2-1.8c0-0.4,0-0.6-0.1-0.8c0-0.2,0.1-0.4,0.3-0.5c0.2-0.1,0.7-0.3,1.3-0.4
					c0.6-0.1,1.5-0.3,2.7-0.6c0.7,0,1.6,0,2.7,0.1C112.4,17.8,113.6,18,115,18.5z"/>
				<path id="XMLID_189_" class="st6" d="M135.7,29.9c-0.9,0.9-1.8,1.7-2.9,2.3c-1.1,0.6-2.2,1-3.3,1c-1,0-2.3-0.1-3.9-0.3
					c-0.6-0.3-1.1-0.7-1.7-1.2c-0.6-0.5-1.1-1-1.6-1.6c-0.5-0.6-0.9-1.2-1.2-1.9c-0.3-0.7-0.5-1.4-0.5-2.2c0-0.2,0-0.5,0-0.9
					c0-0.4,0-0.7,0.1-1.1c0-0.4,0-0.8,0.1-1.4c0.5-0.9,1.1-1.8,1.7-2.7c0.6-0.9,1.4-1.7,2.6-2.4c1.8-0.4,3.1-0.7,3.9-0.7
					c0.4,0,0.8,0,1.1,0c0.3,0,0.6,0.1,0.9,0.2c0.3,0.1,0.6,0.3,0.9,0.5c0.3,0.2,0.7,0.5,1.1,0.9c0.5,0.4,0.8,0.7,1.1,0.9
					c0.3,0.2,0.4,0.3,0.4,0.4c0.1,2.5-0.7,4.2-2.2,5.1c-0.7,0.3-1.6,0.6-2.7,0.9c-1.1,0.3-2.6,0.6-4.5,1c0.4,1,1,1.8,1.6,2.2
					c0.7,0.5,1.4,0.7,2.2,0.7c1.2,0,2.6-0.8,4.4-2.2c0.3-0.2,0.6-0.4,1-0.4c0.4,0,0.8,0.1,1.2,0.5c0.3,0.3,0.5,0.7,0.6,1.2
					C136,29.2,135.9,29.5,135.7,29.9z M130.8,21.3c-0.6-0.8-1.2-1.2-1.9-1.2c-0.3,0-0.6,0.1-1,0.2c-0.4,0.1-0.7,0.2-1.1,0.4
					c-0.4,0.2-0.7,0.4-1,0.6c-0.3,0.2-0.6,0.5-0.7,0.8c-0.1,0.4-0.2,0.8-0.4,1.2c0.9-0.1,1.8-0.2,2.5-0.3c0.7-0.1,1.3-0.2,1.9-0.3
					c0.5-0.1,0.9-0.3,1.2-0.5C130.5,22,130.7,21.7,130.8,21.3z"/>
				<path id="XMLID_188_" class="st3" d="M152.3,17.5c0.5,0.3,0.7,0.8,0.7,1.5c0,0.6-0.2,1.1-0.5,1.5c-0.3,0.4-0.7,0.6-1.3,0.6
					c-0.3,0-0.7-0.1-1-0.3c-0.4-0.2-0.7-0.3-1.1-0.3c-0.3,0-0.7,0.1-1,0.2c-0.3,0.1-0.7,0.4-1.1,0.8c-0.4,0.4-0.8,0.8-1.2,1.2
					c0,0.2,0,0.4,0,0.6c0,0.2,0,0.4,0,0.6c0,0.3,0,0.7,0,1c0,0.4,0,0.7-0.1,1.1c0.1,1.2,0.3,2.5,0.4,3.7c-0.1,1.2-0.7,1.9-1.9,1.9
					c-0.6,0-1.1-0.2-1.4-0.6c-0.3-0.4-0.5-0.9-0.6-1.6c-0.1-0.7-0.2-1.5-0.2-2.5c0-0.9,0-2-0.1-3.1c-0.1-1.7-0.1-2.6-0.2-2.6
					c0,0,0,0,0,0c-0.1-0.4-0.2-0.8-0.3-1.1c-0.1-0.3-0.1-0.6-0.1-0.8c0-0.5,0.2-0.9,0.5-1.2c0.4-0.3,0.9-0.5,1.6-0.5
					c0.5,0,1,0.3,1.6,1c0.6-0.5,1.1-0.9,1.5-1.1c0.3-0.2,0.6-0.4,0.9-0.5c0.2-0.1,0.5-0.2,0.7-0.2c0.2,0,0.5,0,0.9,0
					c0.3,0,0.6,0,0.9,0c0.3,0.1,0.6,0.1,0.9,0.2C151.3,17.3,151.8,17.4,152.3,17.5z"/>
				<path id="XMLID_185_" class="st2" d="M190.2,18.5c-0.1,0.5-0.2,0.9-0.3,1.3c-0.1,0.4-0.2,0.7-0.5,1c-0.2,0.3-0.5,0.7-0.8,1
					c-0.3,0.3-0.8,0.7-1.3,1.2c-1.4,1.1-2.8,1.7-4.4,1.9c-0.4,0.1-0.8,0.3-1.4,0.4c-0.6,0.2-1.3,0.3-2.1,0.5c0,0.9,0,1.8,0,2.6
					c0,0.4,0.1,0.8,0.1,1.1c0,0.4,0,0.8,0,1.3c0,0.3,0,0.7,0,1.1c0,0.4-0.1,0.7-0.2,1c-0.1,0.3-0.3,0.6-0.6,0.8
					c-0.3,0.2-0.6,0.3-1.1,0.3c-0.5,0-0.9-0.1-1.1-0.3c-0.2-0.2-0.4-0.5-0.5-0.8c-0.1-0.3-0.1-0.7-0.1-1.2c0-0.5,0-0.9-0.1-1.5
					c0,0,0,0,0,0c0-0.4,0-0.8,0-1.3c0-0.4,0-1,0-1.6c0-0.6,0-1.4-0.1-2.3c0-0.1,0-0.2,0-0.2c0-0.2,0-0.4,0-0.6c0-0.3,0-0.6,0-0.9
					c0-0.3,0-0.6,0-0.8c0-0.2,0-0.4,0-0.5c0-0.2,0-0.5,0.1-0.9c0-0.4,0.1-0.9,0.1-1.4c0-0.5,0.1-1,0.1-1.4c0-0.4,0-0.8,0.1-1
					c0-0.4,0-0.8,0-1.2c0-0.4-0.1-0.7-0.1-1c0-0.1,0-0.2,0-0.5c0-0.3,0.1-0.6,0.1-1c0-0.4,0.1-0.7,0.2-1.1c0.1-0.4,0.2-0.7,0.2-0.9
					c0.8-0.3,1.7-0.5,2.8-0.4c0.1,0,0.2,0,0.3,0c1.2-0.3,2.4-0.4,3.4-0.4c0.4,0,1.5,0.2,3.3,0.6c0.6,0.4,1.2,0.7,1.8,1.1
					c0.5,0.3,0.9,0.7,1.2,1c0.3,0.3,0.5,0.7,0.7,1.2c0.2,0.4,0.3,1,0.3,1.5C190.2,17,190.2,17.7,190.2,18.5z M186.2,18.9
					c0.1-0.5,0.2-1,0.2-1.4c0-0.7-0.2-1.4-0.8-2.1c-0.6-0.6-1.6-1-3-1.1c-0.7,0-1.6,0.1-3,0.5c0,0.5,0.1,1.1,0.1,1.8
					c0,0.7,0,1.6-0.1,2.5c0,0.1-0.1,0.3-0.1,0.8c0,0.2,0,0.5,0,0.9c0,0.3,0,0.7,0,1.2c0.2,0,0.5-0.1,0.9-0.1
					c0.3-0.1,0.6-0.1,0.9-0.2c0.3-0.1,0.6-0.2,1-0.3C184.3,21.1,185.6,20.2,186.2,18.9z"/>
				<path id="XMLID_182_" class="st3" d="M209.3,28.9c0.5,0.4,0.7,0.8,0.6,1.2c0,0.2-0.1,0.5-0.3,0.7c-0.2,0.2-0.4,0.5-0.6,0.6
					c-0.2,0.2-0.5,0.3-0.7,0.4c-0.3,0.1-0.5,0.2-0.8,0.1c-0.2-0.1-0.5-0.3-0.7-0.5c-0.3-0.2-0.6-0.5-0.9-0.8
					c-0.3-0.3-0.5-0.6-0.8-0.9c-0.2-0.3-0.4-0.7-0.5-1c-0.1,0.2-0.2,0.4-0.3,0.7c-0.6,0.9-1.5,1.8-2.7,2.6c-1.4,0.1-2.2,0.2-2.4,0.2
					c-0.5,0-1.1-0.2-1.9-0.4c-0.7-0.6-1.4-1.2-2.2-1.7c-0.9-1-1.4-2.3-1.3-3.9c0-0.6,0.2-1.2,0.4-1.9c0.2-0.7,0.5-1.4,0.9-2
					c0.4-0.7,0.9-1.3,1.4-2c0.5-0.6,1.2-1.2,1.9-1.7c0.8-0.2,1.6-0.4,2.4-0.6c0.8-0.1,1.4-0.2,1.8-0.3c0.6-0.5,1.2-0.8,2-0.7
					c0.4,0,0.8,0.3,1.1,0.7c0.3,0.4,0.5,0.9,0.7,1.5c0.2,0.6,0.3,1.3,0.4,2c0.1,0.7,0.1,1.4,0.1,2.1c0.1,0.7,0.2,1.5,0.4,2.2
					c0.1,0.7,0.3,1.3,0.7,1.8C208.3,28,208.7,28.5,209.3,28.9z M203.3,23.9c-0.1,0-0.2-0.9-0.4-2.6c-0.1,0-0.4,0-0.6,0
					c-0.3,0-0.6,0-1,0.1c-0.4,0.1-0.8,0.3-1.3,0.7c-0.5,0.3-0.9,0.9-1.3,1.6c-0.7,1-1,2-1.1,3.1c0.4,0.9,1.1,1.7,2.1,2.3
					c0.3-0.1,0.6-0.1,0.8-0.2c0.2-0.1,0.4-0.2,0.6-0.4c0.2-0.2,0.4-0.4,0.5-0.7c0.2-0.3,0.4-0.6,0.6-1c0.4-0.6,0.7-1.1,0.9-1.6
					C203.2,24.6,203.3,24.2,203.3,23.9z"/>
				<path id="XMLID_181_" class="st4" d="M225.9,21.4c0.4,0.3,0.6,0.8,0.5,1.6c-0.1,0.6-0.3,1-0.6,1.4c-0.4,0.4-0.8,0.5-1.3,0.5
					c-0.3,0-0.7-0.2-1-0.4c-0.3-0.2-0.7-0.3-1.1-0.4c-0.3,0-0.7,0-1,0.1c-0.3,0.1-0.7,0.3-1.2,0.7c-0.5,0.4-0.9,0.7-1.4,1.1
					c0,0.2,0,0.4,0,0.6c0,0.2,0,0.4,0,0.6c0,0.3-0.1,0.7-0.1,1c0,0.4-0.1,0.7-0.2,1.1c0,1.2,0,2.5,0,3.7c-0.2,1.2-0.9,1.8-2.1,1.7
					c-0.6-0.1-1.1-0.3-1.3-0.7c-0.3-0.4-0.4-1-0.5-1.7c0-0.7,0-1.5,0.1-2.5c0.1-0.9,0.2-2,0.3-3.1c0.1-1.7,0.1-2.6,0.1-2.6
					c0,0,0,0,0,0c-0.1-0.4-0.1-0.8-0.1-1.1c0-0.3,0-0.6,0-0.8c0-0.5,0.3-0.9,0.7-1.1c0.4-0.3,0.9-0.4,1.6-0.3c0.5,0,0.9,0.4,1.5,1.2
					c0.7-0.4,1.2-0.7,1.6-0.9c0.4-0.2,0.7-0.4,0.9-0.4c0.2-0.1,0.5-0.1,0.7-0.1c0.2,0,0.5,0,0.9,0.1c0.3,0,0.6,0.1,0.9,0.1
					c0.3,0.1,0.5,0.2,0.8,0.3C224.9,21.1,225.4,21.3,225.9,21.4z"/>
				<path id="XMLID_180_" class="st5" d="M241,21.7c0.3,0.3,0.4,0.7,0.3,1.4c-0.2,1.2-0.7,1.7-1.6,1.6c-0.1,0-0.1,0-0.2,0
					c-0.4,0-0.9-0.1-1.5-0.1c-0.6,0-1.2,0-1.9,0c-0.1,0.4-0.2,1-0.4,1.7c-0.1,0.7-0.3,1.5-0.4,2.6c0,0.1,0,0.2,0,0.2
					c0,0.1,0,0.2,0,0.3c-0.1,0.6-0.2,1.2-0.2,1.8c-0.1,0.4,0,0.8,0.1,1.1c0.1,0.3,0.3,0.5,0.5,0.6c0.4,0.2,0.7,0.3,1.1,0.5
					c0.9,0.4,1.3,1,1.2,1.8c-0.1,0.5-0.3,0.8-0.7,1.1c-0.4,0.3-0.9,0.4-1.5,0.3c-0.2,0-0.4-0.1-0.8-0.2c-0.4-0.1-0.8-0.3-1.2-0.5
					c-0.4-0.2-0.8-0.5-1.1-0.7c-0.3-0.3-0.6-0.6-0.7-0.9c-0.2-0.7-0.4-1.3-0.5-2c-0.1-0.7-0.1-1.4,0-2.2c0.1-0.8,0.2-1.4,0.3-1.8
					c0.1-0.3,0.1-0.7,0.2-0.9c0.1-0.3,0.1-0.6,0.2-1c0.1-0.4,0.2-1,0.3-1.8c-0.5,0-1.3,0.1-2.4,0.2c-0.6-0.1-1.1-0.3-1.5-0.6
					c-0.4-0.4-0.6-0.8-0.5-1.3c0-0.4,0.2-0.7,0.5-1c0.3-0.3,0.8-0.5,1.6-0.7c0.3-0.1,0.5-0.1,0.7-0.1c0.2,0,0.4,0,0.6,0
					c0.2,0,0.4,0,0.7,0c0.2,0,0.6,0,0.9,0c0.1-0.7,0.2-1.4,0.4-2.3c0.2-0.8,0.4-1.6,0.7-2.3c0.3-0.7,0.6-1.3,1-1.7
					c0.4-0.5,0.9-0.6,1.5-0.6c1,0.1,1.6,0.6,1.7,1.6c0,0-0.1,0.2-0.2,0.5c-0.1,0.3-0.2,0.7-0.4,1.1c-0.1,0.4-0.3,0.8-0.4,1.1
					c-0.1,0.4-0.2,0.6-0.2,0.7c-0.1,0.7-0.2,1.3-0.4,2c0.2,0,0.4,0,0.6,0c0.2,0,0.3,0,0.6,0c0.1,0,0.3,0,0.4,0c0.2,0,0.4,0,0.6,0
					c0.2,0,0.3,0,0.5,0C240.2,21.4,240.7,21.5,241,21.7z"/>
				<path id="XMLID_179_" class="st6" d="M259.7,26.8c-0.1,0.6-0.2,1-0.3,1.2c-0.1,0.2-0.2,0.5-0.3,0.7c-0.2,0.3-0.4,0.6-0.8,1.1
					c-0.4,0.5-0.9,1.3-1.6,2.4c-0.4,1.2-1.2,2.4-2.2,3.5c-0.6,1.2-1.3,2.1-1.9,2.6c-0.1,0.2-0.4,0.6-0.7,1c-0.4,0.5-0.8,1-1.2,1.5
					c-0.4,0.5-0.8,1-1.2,1.5c-0.4,0.5-0.7,0.9-0.9,1.2c-0.1,0.1-0.2,0.3-0.5,0.6c-0.2,0.3-0.5,0.6-0.8,0.9c-0.3,0.3-0.6,0.6-1,0.8
					c-0.4,0.2-0.7,0.3-1.1,0.3c-0.5-0.1-0.9-0.3-1.3-0.7c-0.4-0.4-0.5-0.8-0.5-1.2c0-0.2,0.2-0.5,0.4-0.8c0.2-0.3,0.5-0.6,0.8-1
					c0.3-0.4,0.7-0.7,1-1.1c0.4-0.4,0.7-0.7,0.9-1c0.1-0.2,0.3-0.5,0.6-0.9c0.3-0.4,0.6-0.8,0.9-1.2c0.3-0.4,0.6-0.9,0.9-1.3
					c0.3-0.4,0.5-0.7,0.6-1c-0.1-0.1-0.2-0.2-0.4-0.5c-0.2-0.3-0.4-0.5-0.6-0.8c-0.2-0.3-0.5-0.6-0.7-0.9c-0.2-0.3-0.5-0.5-0.7-0.6
					c-0.2-0.5-0.5-0.8-0.6-1.1c-0.2-0.3-0.4-0.5-0.5-0.7c-0.2-0.2-0.3-0.4-0.5-0.6c-0.2-0.2-0.3-0.4-0.5-0.8
					c-0.2-0.3-0.4-0.8-0.7-1.3c-0.3-0.5-0.6-1.2-1-2.1c0-0.1,0-0.2,0-0.4c0.1-0.5,0.3-1,0.8-1.4c0.5-0.4,0.9-0.5,1.4-0.5
					c0.3,0,0.6,0.2,1,0.6c0.3,0.3,0.7,0.9,1.1,1.7c0.4,0.9,0.7,1.5,1,1.9c0.2,0.4,0.4,0.8,0.6,1c0.2,0.3,0.4,0.5,0.6,0.7
					c0.2,0.2,0.5,0.6,0.9,1.1c0.3,0.2,0.7,0.7,1.2,1.4c0.7-1.2,1.4-2.4,2.1-3.7c0.4-0.7,0.8-1.3,1.3-2c0.4-0.7,0.8-1.4,1-2
					c0.7-0.3,1.3-0.4,1.9-0.3C259.2,25.2,259.7,25.8,259.7,26.8z"/>
			</g>
		</g>
	</g>
</g>
</svg>
