<?xml version="1.0" encoding="utf-8"?>
<!-- Generator: Adobe Illustrator 19.0.0, SVG Export Plug-In . SVG Version: 6.00 Build 0)  -->
<svg version="1.1" id="Ebene_1" xmlns="http://www.w3.org/2000/svg" xmlns:xlink="http://www.w3.org/1999/xlink" x="0px" y="0px"
	 viewBox="-145 387.2 304.3 66.7" style="enable-background:new -145 387.2 304.3 66.7;" xml:space="preserve">
<style type="text/css">
	.st0{fill:#FCFCFC;stroke:#666666;stroke-linecap:round;stroke-linejoin:round;stroke-miterlimit:10;}
	.st1{fill:#C6C6C6;stroke:#666666;stroke-linecap:round;stroke-linejoin:round;stroke-miterlimit:10;}
	.st2{fill:#14AD85;}
	.st3{fill:#1DBAE0;}
	.st4{fill:#EA5455;}
	.st5{fill:#C474AE;}
	.st6{fill:#F59D48;}
</style>
<g id="Banner">
	<path id="right_x5F_main" class="st0" d="M111.5,445.3c13,1.5,26,3.2,38.9,5.3c-3.3-7.4-6.6-14.8-10-22.2
		c5.4-6.1,10.9-12.2,16.4-18.3c-13.5-2.1-27.1-4-40.6-5.5C114.5,418.2,113,431.7,111.5,445.3z"/>
	<path id="right_x5F_shadow" class="st1" d="M125.8,439.1c-4.8,2-9.6,4.1-14.3,6.2l0.9-7.8L125.8,439.1"/>
	<path id="left_x5F_main" class="st0" d="M-97.3,445.3c-13,1.5-26,3.2-38.9,5.3c3.3-7.4,6.6-14.8,10-22.2
		c-5.3-6.2-10.8-12.3-16.4-18.3c13.5-2.1,27.1-4,40.6-5.5C-100.4,418.2-98.9,431.7-97.3,445.3z"/>
	<path id="left_x5F_shadow" class="st1" d="M-111.6,439.1c4.8,2,9.6,4.1,14.3,6.2l-0.9-7.8L-111.6,439.1z"/>
	<path id="main" class="st0" d="M125.9,439.1c-78.9-10.2-158.7-10.2-237.5,0c-1.7-13.6-3.5-27.1-5.2-40.7
		c82.3-10.6,165.7-10.6,248,0C129.4,412,127.6,425.5,125.9,439.1z"/>
</g>
<g id="Schrift">
	<path id="XMLID_197_" class="st2" d="M-85.2,410.7c0,0.5,0,0.9,0,1.3s-0.1,0.8-0.2,1.1c-0.1,0.4-0.4,0.7-0.6,1.1
		c-0.3,0.4-0.6,0.9-1.1,1.4c-1.1,1.4-2.5,2.3-4,2.7c-0.3,0.2-0.8,0.4-1.3,0.7c-0.6,0.3-1.2,0.6-2,0.9c0.2,0.9,0.3,1.7,0.5,2.6
		c0.1,0.4,0.2,0.7,0.3,1.1c0.1,0.4,0.2,0.8,0.2,1.2c0,0.3,0.1,0.7,0.2,1c0.1,0.4,0.1,0.7,0,1.1c0,0.3-0.2,0.6-0.4,0.9
		c-0.2,0.3-0.6,0.4-1.1,0.5s-0.9,0-1.2-0.1s-0.5-0.4-0.6-0.7c-0.1-0.3-0.2-0.7-0.3-1.2c-0.2-0.4-0.3-0.9-0.5-1.4l0,0
		c-0.1-0.3-0.2-0.8-0.3-1.2s-0.2-0.9-0.3-1.6c-0.1-0.6-0.3-1.4-0.5-2.2c0-0.1,0-0.2,0-0.2c0-0.2-0.1-0.4-0.1-0.6
		c-0.1-0.3-0.1-0.5-0.2-0.8s-0.1-0.5-0.2-0.8c0-0.2-0.1-0.4-0.1-0.5c0-0.2-0.1-0.5-0.1-0.9c-0.1-0.4-0.1-0.9-0.2-1.4s-0.1-1-0.2-1.4
		s-0.1-0.8-0.1-1c-0.1-0.4-0.1-0.8-0.2-1.2c-0.1-0.3-0.2-0.7-0.3-0.9c0-0.1,0-0.2-0.1-0.5c0-0.3-0.1-0.6-0.1-1s0-0.7,0-1.1
		s0-0.7,0.1-0.9c0.7-0.5,1.6-0.8,2.6-0.9c0.1,0,0.2,0,0.3-0.1c1.2-0.5,2.3-0.9,3.3-1c0.4-0.1,1.5-0.1,3.4,0c0.7,0.2,1.3,0.5,2,0.7
		c0.5,0.2,1,0.5,1.4,0.7c0.4,0.3,0.7,0.6,0.9,1c0.3,0.4,0.5,0.9,0.6,1.4C-85.5,409.2-85.3,409.9-85.2,410.7z M-89.1,411.8
		c0-0.5,0-1-0.1-1.4c-0.1-0.7-0.5-1.3-1.2-1.9c-0.7-0.5-1.8-0.7-3.2-0.5c-0.6,0.1-1.6,0.5-2.8,1.1c0.1,0.5,0.3,1.1,0.4,1.8
		c0.1,0.7,0.3,1.5,0.4,2.5c0,0.1,0,0.3,0.1,0.8c0,0.2,0.1,0.5,0.1,0.9c0.1,0.3,0.1,0.7,0.2,1.1c0.2-0.1,0.5-0.2,0.8-0.3
		c0.3-0.1,0.6-0.3,0.9-0.4s0.6-0.3,0.9-0.5C-90.5,414.3-89.4,413.2-89.1,411.8z"/>
	<path id="XMLID_194_" class="st3" d="M-64.5,417.3c0.5,0.3,0.8,0.6,0.9,1.1c0,0.2,0,0.5-0.1,0.8s-0.3,0.5-0.5,0.7
		c-0.2,0.2-0.4,0.4-0.6,0.6s-0.5,0.3-0.7,0.3c-0.2-0.1-0.5-0.2-0.8-0.3c-0.3-0.2-0.6-0.4-1-0.6c-0.3-0.2-0.6-0.5-0.9-0.8
		s-0.5-0.6-0.7-0.9c-0.1,0.2-0.1,0.5-0.2,0.7c-0.4,1-1.1,2-2.2,3c-1.3,0.4-2.1,0.6-2.3,0.6c-0.5,0.1-1.2,0.1-1.9,0
		c-0.8-0.4-1.6-0.8-2.5-1.3c-1.1-0.8-1.8-2-2-3.6c-0.1-0.6-0.1-1.2,0-1.9c0.1-0.7,0.3-1.4,0.5-2.2c0.3-0.7,0.6-1.5,1-2.2
		s0.9-1.4,1.5-2c0.8-0.4,1.5-0.7,2.3-1c0.7-0.3,1.3-0.5,1.7-0.6c0.5-0.6,1.1-1,1.8-1.1c0.4,0,0.8,0.1,1.2,0.5c0.4,0.4,0.7,0.8,1,1.4
		s0.6,1.2,0.8,1.9c0.2,0.7,0.4,1.4,0.5,2c0.3,0.7,0.5,1.4,0.8,2.1c0.2,0.7,0.6,1.2,1,1.6C-65.6,416.6-65.1,416.9-64.5,417.3z
		 M-71.3,413.5c-0.1,0-0.4-0.8-0.9-2.5c-0.1,0-0.4,0-0.6,0.1c-0.3,0-0.6,0.1-1,0.3c-0.4,0.2-0.7,0.5-1.1,0.9s-0.7,1-1,1.8
		c-0.5,1.1-0.6,2.2-0.5,3.2c0.6,0.8,1.4,1.4,2.5,1.8c0.3-0.1,0.5-0.2,0.7-0.4c0.2-0.1,0.4-0.3,0.5-0.5s0.3-0.5,0.4-0.8
		s0.3-0.7,0.4-1.1c0.3-0.7,0.5-1.2,0.6-1.7C-71.3,414.2-71.2,413.8-71.3,413.5z"/>
	<path id="XMLID_193_" class="st4" d="M-46.5,415.9c0,0.1,0,0.2,0,0.3c0,0.2,0,0.5,0.1,0.9c0,0.4,0,0.8,0,1.3
		c-0.1,0.4-0.2,0.8-0.5,1.2c-0.2,0.3-0.6,0.5-1.2,0.6c-1.1,0.1-1.7-0.3-2-1.1c0-0.2,0-0.3,0-0.6c0-0.2,0-0.4-0.1-0.7
		c0-0.1,0-0.5-0.1-1.2s-0.1-1.4-0.3-2.2c-0.1-0.8-0.3-1.6-0.5-2.3c-0.2-0.7-0.5-1.1-0.7-1.3c-0.7-0.4-1.3-0.5-1.8-0.5
		c-0.7,0.1-1.2,0.3-1.6,0.7c-0.4,0.4-0.7,1.2-0.9,2.4c0,0.4,0,0.8,0,1.3s0,1,0,1.6c0,0.5,0.1,1,0.2,1.5s0.2,1.2,0.3,1.9
		c0,0.5-0.1,1-0.5,1.3c-0.4,0.4-0.8,0.6-1.4,0.6c-0.4,0-0.7,0-1-0.2s-0.5-0.5-0.6-0.8c-0.2-0.3-0.3-0.7-0.4-1.1s-0.1-0.8-0.2-1.2
		c0-0.3,0-0.6,0-0.9s0-0.6,0-1c0-1.3,0-2.6-0.1-3.9c0-0.7,0.1-1.3,0.1-2c-0.1-0.3-0.2-0.7-0.4-1c-0.2-0.4-0.3-0.6-0.3-0.9
		c0-0.5,0.1-0.9,0.4-1.3s0.8-0.7,1.4-0.7c0.4,0,0.7,0,0.9,0.1s0.6,0.5,1.1,1c0.5-0.3,1-0.5,1.3-0.6s0.7-0.2,1.2-0.2
		c1.5-0.1,2.8,0.1,3.9,0.7c1.2,0.6,1.9,1.6,2.3,3.1c0.1,0.6,0.2,1,0.3,1.4s0.2,0.7,0.3,1.1c0.1,0.3,0.2,0.7,0.3,1.1
		C-46.8,414.8-46.7,415.3-46.5,415.9z"/>
	<path id="XMLID_192_" class="st5" d="M-30.1,405.4c0.1,0.4,0.1,0.7,0.2,1c0.1,0.2,0.1,0.4,0.1,0.5c0,0.3,0,0.6-0.2,1
		c-0.1,0.4-0.3,0.7-0.5,1s-0.4,0.6-0.7,1c-0.2,0.3-0.4,0.5-0.6,0.7c-0.4,0.7-0.9,1.2-1.3,1.6s-0.8,0.8-1.3,1
		c-0.2,0.2-0.4,0.5-0.6,0.8c-0.3,0.3-0.6,0.6-0.8,0.8c-0.3,0.3-0.5,0.5-0.7,0.7s-0.3,0.3-0.4,0.4c0.6,0.1,1.3,0.2,2.1,0.3
		c0.7,0,1.4,0.1,2.1,0.1c0.6,0,1.2,0,1.7,0s0.8,0,1-0.1c0.1,0,0.1,0,0.2,0s0.1,0,0.1,0c1,0.4,1.5,1,1.5,1.8c0,0.5-0.1,0.9-0.3,1.3
		c-0.2,0.4-0.6,0.6-1.1,0.6c-0.2,0-0.4,0-0.7,0c-0.3,0-0.6,0-1-0.1c-0.3,0-0.6,0-1-0.1c-0.3,0-0.5,0-0.7,0c-0.4,0-0.9,0-1.4,0
		c-0.6,0-1.1,0-1.6-0.1c-0.5,0-1-0.1-1.4-0.1s-0.6,0-0.7,0c-1.6-0.5-2.7-1.2-3.3-2.1c0.1-0.6,0.5-1.5,1.2-2.8c0.3-0.3,0.7-0.7,1-1.1
		c0.4-0.4,0.8-0.9,1.2-1.4c0.8-0.7,1.4-1.4,2-2s1.1-1.2,1.5-1.8c-0.1,0-0.3-0.1-0.5-0.1s-0.4,0-0.7,0s-0.7,0-1,0.1
		c-0.5,0.1-1.1,0.2-1.6,0.3c-0.7,0.1-1.2,0.2-1.3,0.2c-0.7,0-1.1-0.6-1.2-1.8c0-0.4,0-0.6-0.1-0.8c0-0.2,0.1-0.4,0.3-0.5
		s0.7-0.3,1.3-0.4s1.5-0.3,2.7-0.6c0.7,0,1.6,0,2.7,0.1C-32.7,404.7-31.5,404.9-30.1,405.4z"/>
	<path id="XMLID_189_" class="st6" d="M-9.4,416.8c-0.9,0.9-1.8,1.7-2.9,2.3c-1.1,0.6-2.2,1-3.3,1c-1,0-2.3-0.1-3.9-0.3
		c-0.6-0.3-1.1-0.7-1.7-1.2s-1.1-1-1.6-1.6s-0.9-1.2-1.2-1.9c-0.3-0.7-0.5-1.4-0.5-2.2c0-0.2,0-0.5,0-0.9s0-0.7,0.1-1.1
		c0-0.4,0-0.8,0.1-1.4c0.5-0.9,1.1-1.8,1.7-2.7s1.4-1.7,2.6-2.4c1.8-0.4,3.1-0.7,3.9-0.7c0.4,0,0.8,0,1.1,0s0.6,0.1,0.9,0.2
		c0.3,0.1,0.6,0.3,0.9,0.5c0.3,0.2,0.7,0.5,1.1,0.9c0.5,0.4,0.8,0.7,1.1,0.9s0.4,0.3,0.4,0.4c0.1,2.5-0.7,4.2-2.2,5.1
		c-0.7,0.3-1.6,0.6-2.7,0.9s-2.6,0.6-4.5,1c0.4,1,1,1.8,1.6,2.2c0.7,0.5,1.4,0.7,2.2,0.7c1.2,0,2.6-0.8,4.4-2.2
		c0.3-0.2,0.6-0.4,1-0.4s0.8,0.1,1.2,0.5c0.3,0.3,0.5,0.7,0.6,1.2C-9.1,416.1-9.2,416.4-9.4,416.8z M-14.3,408.2
		c-0.6-0.8-1.2-1.2-1.9-1.2c-0.3,0-0.6,0.1-1,0.2s-0.7,0.2-1.1,0.4c-0.4,0.2-0.7,0.4-1,0.6s-0.6,0.5-0.7,0.8
		c-0.1,0.4-0.2,0.8-0.4,1.2c0.9-0.1,1.8-0.2,2.5-0.3c0.7-0.1,1.3-0.2,1.9-0.3c0.5-0.1,0.9-0.3,1.2-0.5
		C-14.6,408.9-14.4,408.6-14.3,408.2z"/>
	<path id="XMLID_188_" class="st3" d="M7.2,404.4c0.5,0.3,0.7,0.8,0.7,1.5c0,0.6-0.2,1.1-0.5,1.5S6.7,408,6.1,408
		c-0.3,0-0.7-0.1-1-0.3c-0.4-0.2-0.7-0.3-1.1-0.3c-0.3,0-0.7,0.1-1,0.2s-0.7,0.4-1.1,0.8s-0.8,0.8-1.2,1.2c0,0.2,0,0.4,0,0.6
		s0,0.4,0,0.6c0,0.3,0,0.7,0,1c0,0.4,0,0.7-0.1,1.1c0.1,1.2,0.3,2.5,0.4,3.7c-0.1,1.2-0.7,1.9-1.9,1.9c-0.6,0-1.1-0.2-1.4-0.6
		s-0.5-0.9-0.6-1.6s-0.2-1.5-0.2-2.5c0-0.9,0-2-0.1-3.1c-0.1-1.7-0.1-2.6-0.2-2.6l0,0c-0.1-0.4-0.2-0.8-0.3-1.1
		c-0.1-0.3-0.1-0.6-0.1-0.8c0-0.5,0.2-0.9,0.5-1.2c0.4-0.3,0.9-0.5,1.6-0.5c0.5,0,1,0.3,1.6,1c0.6-0.5,1.1-0.9,1.5-1.1
		c0.3-0.2,0.6-0.4,0.9-0.5c0.2-0.1,0.5-0.2,0.7-0.2s0.5,0,0.9,0c0.3,0,0.6,0,0.9,0c0.3,0.1,0.6,0.1,0.9,0.2
		C6.2,404.2,6.7,404.3,7.2,404.4z"/>
	<path id="XMLID_185_" class="st2" d="M45.1,405.4c-0.1,0.5-0.2,0.9-0.3,1.3s-0.2,0.7-0.5,1c-0.2,0.3-0.5,0.7-0.8,1
		s-0.8,0.7-1.3,1.2c-1.4,1.1-2.8,1.7-4.4,1.9c-0.4,0.1-0.8,0.3-1.4,0.4c-0.6,0.2-1.3,0.3-2.1,0.5c0,0.9,0,1.8,0,2.6
		c0,0.4,0.1,0.8,0.1,1.1c0,0.4,0,0.8,0,1.3c0,0.3,0,0.7,0,1.1s-0.1,0.7-0.2,1c-0.1,0.3-0.3,0.6-0.6,0.8c-0.3,0.2-0.6,0.3-1.1,0.3
		s-0.9-0.1-1.1-0.3c-0.2-0.2-0.4-0.5-0.5-0.8s-0.1-0.7-0.1-1.2s0-0.9-0.1-1.5l0,0c0-0.4,0-0.8,0-1.3c0-0.4,0-1,0-1.6s0-1.4-0.1-2.3
		c0-0.1,0-0.2,0-0.2c0-0.2,0-0.4,0-0.6c0-0.3,0-0.6,0-0.9s0-0.6,0-0.8c0-0.2,0-0.4,0-0.5c0-0.2,0-0.5,0.1-0.9c0-0.4,0.1-0.9,0.1-1.4
		s0.1-1,0.1-1.4s0-0.8,0.1-1c0-0.4,0-0.8,0-1.2c0-0.4-0.1-0.7-0.1-1c0-0.1,0-0.2,0-0.5s0.1-0.6,0.1-1s0.1-0.7,0.2-1.1
		s0.2-0.7,0.2-0.9c0.8-0.3,1.7-0.5,2.8-0.4c0.1,0,0.2,0,0.3,0c1.2-0.3,2.4-0.4,3.4-0.4c0.4,0,1.5,0.2,3.3,0.6
		c0.6,0.4,1.2,0.7,1.8,1.1c0.5,0.3,0.9,0.7,1.2,1s0.5,0.7,0.7,1.2c0.2,0.4,0.3,1,0.3,1.5C45.1,403.9,45.1,404.6,45.1,405.4z
		 M41.1,405.8c0.1-0.5,0.2-1,0.2-1.4c0-0.7-0.2-1.4-0.8-2.1c-0.6-0.6-1.6-1-3-1.1c-0.7,0-1.6,0.1-3,0.5c0,0.5,0.1,1.1,0.1,1.8
		c0,0.7,0,1.6-0.1,2.5c0,0.1-0.1,0.3-0.1,0.8c0,0.2,0,0.5,0,0.9c0,0.3,0,0.7,0,1.2c0.2,0,0.5-0.1,0.9-0.1c0.3-0.1,0.6-0.1,0.9-0.2
		c0.3-0.1,0.6-0.2,1-0.3C39.2,408,40.5,407.1,41.1,405.8z"/>
	<path id="XMLID_182_" class="st3" d="M64.3,415.8c0.5,0.4,0.7,0.8,0.6,1.2c0,0.2-0.1,0.5-0.3,0.7s-0.4,0.5-0.6,0.6
		c-0.2,0.2-0.5,0.3-0.7,0.4c-0.3,0.1-0.5,0.2-0.8,0.1c-0.2-0.1-0.5-0.3-0.7-0.5c-0.3-0.2-0.6-0.5-0.9-0.8c-0.3-0.3-0.5-0.6-0.8-0.9
		c-0.2-0.3-0.4-0.7-0.5-1c-0.1,0.2-0.2,0.4-0.3,0.7c-0.6,0.9-1.5,1.8-2.7,2.6c-1.4,0.1-2.2,0.2-2.4,0.2c-0.5,0-1.1-0.2-1.9-0.4
		c-0.7-0.6-1.4-1.2-2.2-1.7c-0.9-1-1.4-2.3-1.3-3.9c0-0.6,0.2-1.2,0.4-1.9s0.5-1.4,0.9-2c0.4-0.7,0.9-1.3,1.4-2
		c0.5-0.6,1.2-1.2,1.9-1.7c0.8-0.2,1.6-0.4,2.4-0.6c0.8-0.1,1.4-0.2,1.8-0.3c0.6-0.5,1.2-0.8,2-0.7c0.4,0,0.8,0.3,1.1,0.7
		s0.5,0.9,0.7,1.5s0.3,1.3,0.4,2c0.1,0.7,0.1,1.4,0.1,2.1c0.1,0.7,0.2,1.5,0.4,2.2c0.1,0.7,0.3,1.3,0.7,1.8
		C63.2,414.9,63.6,415.4,64.3,415.8z M58.2,410.8c-0.1,0-0.2-0.9-0.4-2.6c-0.1,0-0.4,0-0.6,0c-0.3,0-0.6,0-1,0.1s-0.8,0.3-1.3,0.7
		c-0.5,0.3-0.9,0.9-1.3,1.6c-0.7,1-1,2-1.1,3.1c0.4,0.9,1.1,1.7,2.1,2.3c0.3-0.1,0.6-0.1,0.8-0.2s0.4-0.2,0.6-0.4
		c0.2-0.2,0.4-0.4,0.5-0.7c0.2-0.3,0.4-0.6,0.6-1c0.4-0.6,0.7-1.1,0.9-1.6C58.1,411.5,58.2,411.1,58.2,410.8z"/>
	<path id="XMLID_181_" class="st4" d="M80.8,408.3c0.4,0.3,0.6,0.8,0.5,1.6c-0.1,0.6-0.3,1-0.6,1.4c-0.4,0.4-0.8,0.5-1.3,0.5
		c-0.3,0-0.7-0.2-1-0.4c-0.3-0.2-0.7-0.3-1.1-0.4c-0.3,0-0.7,0-1,0.1s-0.7,0.3-1.2,0.7s-0.9,0.7-1.4,1.1c0,0.2,0,0.4,0,0.6
		s0,0.4,0,0.6c0,0.3-0.1,0.7-0.1,1c0,0.4-0.1,0.7-0.2,1.1c0,1.2,0,2.5,0,3.7c-0.2,1.2-0.9,1.8-2.1,1.7c-0.6-0.1-1.1-0.3-1.3-0.7
		c-0.3-0.4-0.4-1-0.5-1.7c0-0.7,0-1.5,0.1-2.5c0.1-0.9,0.2-2,0.3-3.1c0.1-1.7,0.1-2.6,0.1-2.6l0,0c-0.1-0.4-0.1-0.8-0.1-1.1
		c0-0.3,0-0.6,0-0.8c0-0.5,0.3-0.9,0.7-1.1c0.4-0.3,0.9-0.4,1.6-0.3c0.5,0,0.9,0.4,1.5,1.2c0.7-0.4,1.2-0.7,1.6-0.9
		c0.4-0.2,0.7-0.4,0.9-0.4c0.2-0.1,0.5-0.1,0.7-0.1s0.5,0,0.9,0.1c0.3,0,0.6,0.1,0.9,0.1c0.3,0.1,0.5,0.2,0.8,0.3
		C79.8,408,80.3,408.2,80.8,408.3z"/>
	<path id="XMLID_180_" class="st5" d="M95.9,408.6c0.3,0.3,0.4,0.7,0.3,1.4c-0.2,1.2-0.7,1.7-1.6,1.6c-0.1,0-0.1,0-0.2,0
		c-0.4,0-0.9-0.1-1.5-0.1s-1.2,0-1.9,0c-0.1,0.4-0.2,1-0.4,1.7c-0.1,0.7-0.3,1.5-0.4,2.6c0,0.1,0,0.2,0,0.2c0,0.1,0,0.2,0,0.3
		c-0.1,0.6-0.2,1.2-0.2,1.8c-0.1,0.4,0,0.8,0.1,1.1s0.3,0.5,0.5,0.6c0.4,0.2,0.7,0.3,1.1,0.5c0.9,0.4,1.3,1,1.2,1.8
		c-0.1,0.5-0.3,0.8-0.7,1.1c-0.4,0.3-0.9,0.4-1.5,0.3c-0.2,0-0.4-0.1-0.8-0.2s-0.8-0.3-1.2-0.5c-0.4-0.2-0.8-0.5-1.1-0.7
		c-0.3-0.3-0.6-0.6-0.7-0.9c-0.2-0.7-0.4-1.3-0.5-2s-0.1-1.4,0-2.2s0.2-1.4,0.3-1.8c0.1-0.3,0.1-0.7,0.2-0.9c0.1-0.3,0.1-0.6,0.2-1
		s0.2-1,0.3-1.8c-0.5,0-1.3,0.1-2.4,0.2c-0.6-0.1-1.1-0.3-1.5-0.6c-0.4-0.4-0.6-0.8-0.5-1.3c0-0.4,0.2-0.7,0.5-1s0.8-0.5,1.6-0.7
		c0.3-0.1,0.5-0.1,0.7-0.1s0.4,0,0.6,0s0.4,0,0.7,0c0.2,0,0.6,0,0.9,0c0.1-0.7,0.2-1.4,0.4-2.3c0.2-0.8,0.4-1.6,0.7-2.3
		c0.3-0.7,0.6-1.3,1-1.7c0.4-0.5,0.9-0.6,1.5-0.6c1,0.1,1.6,0.6,1.7,1.6c0,0-0.1,0.2-0.2,0.5s-0.2,0.7-0.4,1.1
		c-0.1,0.4-0.3,0.8-0.4,1.1c-0.1,0.4-0.2,0.6-0.2,0.7c-0.1,0.7-0.2,1.3-0.4,2c0.2,0,0.4,0,0.6,0s0.3,0,0.6,0c0.1,0,0.3,0,0.4,0
		c0.2,0,0.4,0,0.6,0s0.3,0,0.5,0C95.1,408.3,95.6,408.4,95.9,408.6z"/>
	<path id="XMLID_179_" class="st6" d="M114.6,413.7c-0.1,0.6-0.2,1-0.3,1.2c-0.1,0.2-0.2,0.5-0.3,0.7c-0.2,0.3-0.4,0.6-0.8,1.1
		s-0.9,1.3-1.6,2.4c-0.4,1.2-1.2,2.4-2.2,3.5c-0.6,1.2-1.3,2.1-1.9,2.6c-0.1,0.2-0.4,0.6-0.7,1c-0.4,0.5-0.8,1-1.2,1.5
		s-0.8,1-1.2,1.5s-0.7,0.9-0.9,1.2c-0.1,0.1-0.2,0.3-0.5,0.6c-0.2,0.3-0.5,0.6-0.8,0.9s-0.6,0.6-1,0.8s-0.7,0.3-1.1,0.3
		c-0.5-0.1-0.9-0.3-1.3-0.7c-0.4-0.4-0.5-0.8-0.5-1.2c0-0.2,0.2-0.5,0.4-0.8c0.2-0.3,0.5-0.6,0.8-1s0.7-0.7,1-1.1
		c0.4-0.4,0.7-0.7,0.9-1c0.1-0.2,0.3-0.5,0.6-0.9c0.3-0.4,0.6-0.8,0.9-1.2c0.3-0.4,0.6-0.9,0.9-1.3s0.5-0.7,0.6-1
		c-0.1-0.1-0.2-0.2-0.4-0.5c-0.2-0.3-0.4-0.5-0.6-0.8s-0.5-0.6-0.7-0.9s-0.5-0.5-0.7-0.6c-0.2-0.5-0.5-0.8-0.6-1.1
		c-0.2-0.3-0.4-0.5-0.5-0.7c-0.2-0.2-0.3-0.4-0.5-0.6s-0.3-0.4-0.5-0.8c-0.2-0.3-0.4-0.8-0.7-1.3s-0.6-1.2-1-2.1c0-0.1,0-0.2,0-0.4
		c0.1-0.5,0.3-1,0.8-1.4s0.9-0.5,1.4-0.5c0.3,0,0.6,0.2,1,0.6c0.3,0.3,0.7,0.9,1.1,1.7c0.4,0.9,0.7,1.5,1,1.9c0.2,0.4,0.4,0.8,0.6,1
		c0.2,0.3,0.4,0.5,0.6,0.7s0.5,0.6,0.9,1.1c0.3,0.2,0.7,0.7,1.2,1.4c0.7-1.2,1.4-2.4,2.1-3.7c0.4-0.7,0.8-1.3,1.3-2
		c0.4-0.7,0.8-1.4,1-2c0.7-0.3,1.3-0.4,1.9-0.3C114.1,412.1,114.6,412.7,114.6,413.7z"/>
</g>
</svg>
