<?xml version="1.0" encoding="utf-8"?>
<!-- Generator: Adobe Illustrator 19.0.0, SVG Export Plug-In . SVG Version: 6.00 Build 0)  -->
<svg version="1.1" id="Ebene_1" xmlns="http://www.w3.org/2000/svg" xmlns:xlink="http://www.w3.org/1999/xlink" x="0px" y="0px"
	 viewBox="-145 383.3 304.3 75.6" style="enable-background:new -145 383.3 304.3 75.6;" xml:space="preserve">
<style type="text/css">
	.st0{display:none;opacity:0.12;}
	.st1{display:inline;fill:#222222;stroke:#222222;stroke-miterlimit:10;}
	.st2{fill:#FCF9F5;stroke:#666666;stroke-linecap:round;stroke-linejoin:round;stroke-miterlimit:10;}
	.st3{fill:#BABABA;stroke:#666666;stroke-linecap:round;stroke-linejoin:round;stroke-miterlimit:10;}
	.st4{fill:#0DAB76;}
	.st5{fill:none;stroke:#086644;stroke-miterlimit:10;}
	.st6{opacity:0.15;fill:#222222;enable-background:new    ;}
	.st7{fill:#FBFBFB;}
	.st8{fill:#067BC2;stroke:#055575;stroke-width:0.5;stroke-miterlimit:10;}
	.st9{fill:#FFD72F;stroke:#B29622;stroke-width:0.5;stroke-miterlimit:10;}
	.st10{fill:#F37748;stroke:#A54D32;stroke-width:0.5;stroke-miterlimit:10;}
	.st11{fill:#0DAB76;stroke:#086644;stroke-width:0.5;stroke-miterlimit:10;}
	.st12{fill:#D56062;stroke:#873E42;stroke-width:0.5;stroke-miterlimit:10;}
</style>
<g id="Shatten" class="st0">
	<path class="st1" d="M157.3,406.8c-0.1-0.2-0.2-0.3-0.4-0.3c-15-2.3-28.3-4.1-40.6-5.5c-0.3,0-0.5,0.2-0.6,0.4
		c-0.1,1.1-0.3,2.3-0.4,3.4h-0.4c-3.8,0.2-7.5,0.3-11.3,0.5H-89.3c-3.8-0.2-7.5-0.3-11.3-0.5h-0.4c-0.1-1.1-0.3-2.3-0.4-3.4
		c0-0.3-0.3-0.5-0.6-0.4c-12.4,1.4-25.6,3.2-40.6,5.5c-0.2,0-0.3,0.2-0.4,0.3c-0.1,0.2,0,0.4,0.1,0.5c6,6.4,11.3,12.3,16.2,18
		c-3.4,7.3-6.7,14.7-9.9,21.9c-0.1,0.2-0.1,0.4,0.1,0.5c0.1,0.1,0.2,0.2,0.4,0.2h0.1c10.6-1.7,21.8-3.3,34.9-4.8v10.8h0.5
		c35.8,1.7,71.8,2.5,107.8,2.5s72.1-0.8,107.8-2.5h0.5v-10.8c13.1,1.6,24.3,3.1,34.9,4.8h0.1c0.2,0,0.3-0.1,0.4-0.2
		c0.1-0.1,0.1-0.3,0.1-0.5c-3.2-7.2-6.5-14.6-9.9-21.9c5.4-6.1,10.9-12.2,16.2-18.1C157.3,407.2,157.4,407,157.3,406.8z"/>
</g>
<g id="Ebene_1_1_">
	<g id="Banner">
		<path id="right_x5F_main" class="st2" d="M111.4,440.7c13,1.5,26,3.2,38.9,5.3c-3.3-7.4-6.6-14.8-10-22.2
			c5.4-6.1,10.9-12.2,16.4-18.3c-13.5-2.1-27.1-4-40.6-5.5C114.4,413.6,112.9,427.1,111.4,440.7z"/>
		<path id="right_x5F_shadow" class="st3" d="M125.7,434.5c-4.8,2-9.6,4.1-14.3,6.2l0.9-7.8L125.7,434.5"/>
		<path id="left_x5F_main" class="st2" d="M-97.4,440.7c-13,1.5-26,3.2-38.9,5.3c3.3-7.4,6.6-14.8,10-22.2
			c-5.3-6.2-10.8-12.3-16.4-18.3c13.5-2.1,27.1-4,40.6-5.5C-100.5,413.6-99,427.1-97.4,440.7z"/>
		<path id="left_x5F_shadow" class="st3" d="M-111.7,434.5c4.8,2,9.6,4.1,14.3,6.2l-0.9-7.8L-111.7,434.5z"/>
		<g id="subline">
			<path class="st4" d="M114.9,452c-71.8,3.4-143.8,3.4-215.6,0c0-16,0-32.1,0-48.1c71.8,3.4,143.8,3.4,215.6,0
				C114.9,419.9,114.9,436,114.9,452z"/>
			<path class="st5" d="M114.9,452c-71.8,3.4-143.8,3.4-215.6,0c0-16,0-32.1,0-48.1c71.8,3.4,143.8,3.4,215.6,0
				C114.9,419.9,114.9,436,114.9,452z"/>
		</g>
		<path id="shadow" class="st6" d="M-100.7,403.8h-0.5v31.8c71.9-8.5,144.6-8.5,216.6,0v-31.9h-0.5
			C43.3,407.1-29.2,407.1-100.7,403.8z"/>
		<path id="main" class="st2" d="M125.8,434.5c-78.9-10.2-158.7-10.2-237.5,0c-1.7-13.6-3.5-27.1-5.2-40.7
			c82.3-10.6,165.7-10.6,248,0C129.3,407.4,127.5,420.9,125.8,434.5z"/>
	</g>
	<g id="Slogan">
		<path class="st7" d="M-68,438.2c-0.4-0.3-1-0.5-1.8-0.5c-0.6-0.1-1-0.2-1.1-0.2l0,0l0,0c-0.1,0-0.4,0-1.1,0
			c-0.5,0-0.7,0.1-0.8,0.2c-0.3,0.6-0.5,1.5-0.5,2.9c0,0.3,0,0.6,0,0.8v0.7c0,0.2,0,0.4,0,0.5c0,0.2,0,0.3,0,0.5s0,0.4,0,0.6
			s0,0.4,0.1,0.6l0,0c0,0,0,0,0,0.1s0,0.3,0.1,0.4l0.1,0.6v-0.3c0,0.1,0.1,0.1,0.1,0.2c0.1,0.2,0.3,0.2,0.6,0.2
			c0.3,0,0.7-0.1,0.7-0.8l0,0l0,0c-0.1-0.2-0.1-0.5-0.1-0.8v-0.2c0-0.1,0-0.1,0-0.2v-1.3c0.1,0,0.2,0,0.3,0h0.7
			c0.4,0,0.6-0.1,0.9-0.1s0.4,0,0.6-0.1c0.2,0,0.3-0.1,0.4-0.2s0.1-0.3,0.1-0.5s-0.1-0.4-0.2-0.5c-0.1-0.2-0.3-0.2-0.5-0.2
			c-0.1,0-0.2,0-0.4,0c-0.2,0-0.3,0-0.5,0h-0.4c-0.1,0-0.2,0-0.2,0h-0.9l0,0c0-0.1,0-0.2,0-0.3c0-0.1,0-0.2,0-0.3c0-0.1,0-0.2,0-0.3
			v-0.3c0-0.1,0-0.2,0-0.2c0-0.1,0-0.1,0.1-0.2c0,0,0,0,0.1,0c0.2,0,0.5,0,0.8,0s0.5,0.1,0.9,0.2h0.1c0.1,0,0.2,0,0.3,0
			c0.1,0,0.2,0.1,0.4,0.1c0.1,0,0.2,0.1,0.3,0.1c0.1,0,0.2,0,0.2,0c0.1,0,0.3-0.1,0.5-0.3c0.1-0.2,0.1-0.4,0.1-0.6
			C-67.9,438.4-67.9,438.3-68,438.2L-68,438.2z"/>
		<path class="st7" d="M-62.5,443.4c-0.6,0.5-1.1,0.7-1.4,0.7c-0.2,0-0.5-0.1-0.6-0.2c-0.2-0.1-0.3-0.3-0.4-0.6
			c0.6-0.1,1-0.2,1.4-0.3c0.4-0.1,0.7-0.2,0.9-0.3c0.6-0.3,0.9-1,0.9-1.9c0-0.1-0.1-0.2-0.2-0.3c-0.1-0.1-0.2-0.2-0.3-0.3
			c-0.1-0.1-0.3-0.2-0.4-0.3c-0.1-0.1-0.2-0.2-0.3-0.2s-0.2-0.1-0.3-0.1s-0.2,0-0.4,0c-0.3,0-0.7,0.1-1.3,0.2l0,0
			c-0.4,0.2-0.7,0.5-0.9,0.8c-0.2,0.3-0.4,0.6-0.6,0.9v0.1c0,0.2,0,0.3,0,0.5c0,0.1,0,0.3,0,0.4s0,0.2,0,0.3c0,0.3,0,0.5,0.1,0.8
			s0.2,0.5,0.4,0.7c0.2,0.2,0.3,0.4,0.5,0.6s0.4,0.3,0.6,0.5l0,0c0.5,0.1,1,0.2,1.4,0.2s0.8-0.1,1.2-0.3c0.4-0.2,0.7-0.5,1-0.8l0,0
			c0.1-0.1,0.1-0.3,0.1-0.4c0-0.2-0.1-0.4-0.2-0.5C-61.9,443.2-62.3,443.2-62.5,443.4z M-64.5,441.2c0.1,0,0.2-0.1,0.4-0.1
			c0.1,0,0.2,0,0.3,0c0.2,0,0.3,0.1,0.5,0.3c0,0.1-0.1,0.1-0.1,0.2c-0.1,0.1-0.2,0.1-0.4,0.1s-0.4,0.1-0.6,0.1c-0.2,0-0.4,0-0.6,0.1
			l0.1-0.2c0.1-0.1,0.1-0.2,0.2-0.2C-64.7,441.3-64.6,441.2-64.5,441.2z"/>
		<path class="st7" d="M-56.1,439.5c-0.1-0.1-0.3-0.1-0.6-0.1c0,0-0.1,0-0.2,0c-0.1,0-0.1,0-0.2,0h-0.1c-0.1,0-0.1,0-0.2,0l0,0v-0.5
			c0,0,0-0.1,0-0.2s0-0.3,0.1-0.4l0.1-0.4c0-0.1,0-0.2,0-0.2c-0.1-0.4-0.3-0.6-0.7-0.6c-0.2,0-0.4,0.1-0.6,0.3
			c-0.1,0.2-0.2,0.4-0.3,0.7c-0.1,0.3-0.1,0.5-0.1,0.8s0,0.5,0,0.7c-0.1,0-0.1,0-0.2,0c-0.1,0-0.2,0-0.2,0h-0.2
			c-0.1,0-0.2,0-0.3,0.1c-0.3,0.1-0.5,0.2-0.6,0.3c-0.1,0.1-0.1,0.3-0.1,0.4c0,0.2,0.1,0.4,0.3,0.5s0.4,0.2,0.6,0.2l0,0
			c0.3-0.1,0.5-0.1,0.6-0.1c0,0.2,0,0.4,0,0.5s0,0.2,0,0.3c0,0.1,0,0.2,0,0.3c0,0.1,0,0.3,0,0.6c0,0.3,0,0.5,0.1,0.8
			c0.1,0.2,0.2,0.5,0.3,0.7c0.1,0.1,0.2,0.2,0.3,0.3c0.1,0.1,0.3,0.2,0.4,0.2c0.1,0.1,0.3,0.1,0.4,0.1c0.1,0,0.3,0.1,0.3,0.1
			c0.2,0,0.4-0.1,0.6-0.2c0.2-0.1,0.2-0.3,0.2-0.5s-0.1-0.5-0.5-0.7l-0.4-0.1c-0.1,0-0.1-0.1-0.1-0.1c0-0.1-0.1-0.2-0.1-0.3v-0.6
			v-0.1c0,0,0,0,0-0.1c0-0.3,0-0.6,0-0.9c0-0.2,0-0.4,0-0.5c0.2,0,0.4,0,0.5-0.1h0.5h0.1c0.2,0,0.6-0.1,0.6-0.7
			C-55.8,439.8-55.9,439.6-56.1,439.5L-56.1,439.5z"/>
		<path class="st7" d="M-51,439.5c-0.1-0.1-0.3-0.1-0.6-0.1c0,0-0.1,0-0.2,0c-0.1,0-0.1,0-0.2,0h-0.1c-0.1,0-0.1,0-0.2,0l0,0v-0.5
			c0,0,0-0.1,0-0.2s0-0.3,0.1-0.4l0.1-0.4c0-0.1,0-0.2,0-0.2c-0.1-0.4-0.3-0.6-0.7-0.6c-0.2,0-0.4,0.1-0.6,0.3
			c-0.1,0.2-0.2,0.4-0.3,0.7c-0.1,0.3-0.1,0.5-0.1,0.8s0,0.5,0,0.7c-0.1,0-0.1,0-0.2,0c-0.1,0-0.2,0-0.2,0h-0.2
			c-0.1,0-0.2,0-0.3,0.1c-0.3,0.1-0.5,0.2-0.6,0.3c-0.1,0.1-0.1,0.3-0.1,0.4c0,0.2,0.1,0.4,0.3,0.5s0.4,0.2,0.6,0.2l0,0
			c0.3-0.1,0.5-0.1,0.6-0.1c0,0.2,0,0.4,0,0.5s0,0.2,0,0.3c0,0.1,0,0.2,0,0.3c0,0.1,0,0.3,0,0.6c0,0.3,0,0.5,0.1,0.8
			c0.1,0.2,0.2,0.5,0.3,0.7c0.1,0.1,0.2,0.2,0.3,0.3c0.1,0.1,0.3,0.2,0.4,0.2c0.1,0.1,0.3,0.1,0.4,0.1c0.1,0,0.3,0.1,0.3,0.1
			c0.2,0,0.4-0.1,0.6-0.2c0.2-0.1,0.2-0.3,0.2-0.5s-0.1-0.5-0.5-0.7l-0.4-0.1c-0.1,0-0.1-0.1-0.1-0.1c0-0.1-0.1-0.2-0.1-0.3v-0.6
			v-0.1c0,0,0,0,0-0.1c0-0.3,0-0.6,0-0.9c0-0.2,0-0.4,0-0.5c0.2,0,0.4,0,0.5-0.1h0.5h0.1c0.2,0,0.6-0.1,0.6-0.7
			C-50.8,439.8-50.9,439.6-51,439.5L-51,439.5z"/>
		<path class="st7" d="M-45.5,443.4c-0.6,0.5-1.1,0.7-1.4,0.7c-0.2,0-0.5-0.1-0.6-0.2c-0.2-0.1-0.3-0.3-0.4-0.6
			c0.6-0.1,1-0.2,1.4-0.3c0.4-0.1,0.7-0.2,0.9-0.3c0.6-0.3,0.9-1,0.9-1.9c0-0.1-0.1-0.2-0.2-0.3c-0.1-0.1-0.2-0.2-0.3-0.3
			c-0.1-0.1-0.3-0.2-0.4-0.3c-0.1-0.1-0.2-0.2-0.3-0.2s-0.2-0.1-0.3-0.1s-0.2,0-0.4,0c-0.3,0-0.7,0.1-1.3,0.2l0,0
			c-0.4,0.2-0.7,0.5-0.9,0.8s-0.4,0.6-0.6,0.9v0.1c0,0.2,0,0.3,0,0.5c0,0.1,0,0.3,0,0.4s0,0.2,0,0.3c0,0.3,0,0.5,0.1,0.8
			s0.2,0.5,0.4,0.7s0.3,0.4,0.5,0.6s0.4,0.3,0.6,0.5l0,0c0.5,0.1,1,0.2,1.4,0.2s0.8-0.1,1.2-0.3c0.4-0.2,0.7-0.5,1-0.8l0,0
			c0.1-0.1,0.1-0.3,0.1-0.4c0-0.2-0.1-0.4-0.2-0.5C-44.9,443.2-45.3,443.2-45.5,443.4z M-47.5,441.2c0.1,0,0.2-0.1,0.4-0.1
			c0.1,0,0.2,0,0.3,0c0.2,0,0.3,0.1,0.5,0.3c0,0.1-0.1,0.1-0.1,0.2c-0.1,0.1-0.2,0.1-0.4,0.1s-0.4,0.1-0.6,0.1c-0.2,0-0.4,0-0.6,0.1
			l0.1-0.2c0.1-0.1,0.1-0.2,0.2-0.2C-47.7,441.3-47.6,441.2-47.5,441.2z"/>
		<path class="st7" d="M-31.4,438.8c-0.1-0.2-0.2-0.3-0.3-0.4c-0.1-0.1-0.3-0.2-0.4-0.3l-0.6-0.3l0,0c-0.6-0.1-1-0.2-1.1-0.2
			c-0.4,0-0.7,0.1-1.1,0.2H-35c-0.4,0-0.7,0.1-1,0.2l0,0l0,0c0,0.1-0.1,0.2-0.1,0.3c0,0.1,0,0.3,0,0.4s0,0.2,0,0.3
			c0,0.1,0,0.2,0,0.2c0,0.1,0,0.2,0,0.3c0,0.1,0,0.2,0,0.4c0,0.1,0,0.2,0,0.4v1c0,0.1,0,0.2,0,0.3c0,0,0,0.1,0,0.2s0,0.2,0,0.3
			c0,0.1,0,0.2,0,0.3c0,0.1,0,0.2,0,0.2v0.1c0,0.3,0,0.6,0,0.8c0,0.2,0,0.4,0,0.6s0,0.3,0,0.4l0,0c0,0.2,0,0.3,0,0.5s0,0.3,0.1,0.4
			c0,0.1,0.1,0.3,0.2,0.3c0.1,0.1,0.3,0.1,0.5,0.1s0.4,0,0.5-0.1s0.2-0.2,0.2-0.3c0-0.1,0.1-0.3,0.1-0.4v-0.4c0-0.2,0-0.3,0-0.4
			s0-0.3,0-0.4V443c0.2-0.1,0.4-0.1,0.6-0.2c0.2-0.1,0.4-0.1,0.5-0.2c0.6-0.1,1.1-0.3,1.5-0.7c0.2-0.2,0.3-0.3,0.4-0.4
			s0.2-0.3,0.3-0.4c0.1-0.1,0.1-0.3,0.1-0.4s0-0.3,0.1-0.5l0,0c0-0.3,0-0.5,0-0.8C-31.3,439.2-31.4,439-31.4,438.8z M-34.8,440.6
			L-34.8,440.6L-34.8,440.6c0-0.4,0-0.7,0-0.9c0-0.2,0-0.4,0-0.5c0.4-0.1,0.7-0.2,0.8-0.2c0.4,0,0.7,0.1,0.9,0.3
			c0.2,0.2,0.3,0.4,0.3,0.6c0,0.1,0,0.3,0,0.4c-0.2,0.4-0.6,0.7-1.2,0.9c-0.1,0.1-0.2,0.1-0.3,0.1s-0.2,0.1-0.3,0.1h-0.1
			c0-0.1,0-0.2,0-0.3v-0.3C-34.8,440.7-34.8,440.6-34.8,440.6z"/>
		<path class="st7" d="M-24.9,442.7c-0.1-0.2-0.2-0.3-0.3-0.6l-0.2-0.7c0-0.2-0.1-0.5-0.1-0.7c0-0.3-0.1-0.5-0.2-0.7
			s-0.2-0.4-0.3-0.5c-0.1-0.2-0.3-0.3-0.5-0.3c-0.3,0-0.5,0.1-0.7,0.3c-0.1,0-0.3,0.1-0.5,0.1c-0.3,0.1-0.5,0.2-0.8,0.3l0,0
			c-0.2,0.2-0.4,0.4-0.6,0.7s-0.3,0.5-0.4,0.7s-0.2,0.5-0.3,0.7c-0.1,0.2-0.1,0.5-0.1,0.7c0,0.6,0.2,1.1,0.6,1.4l0.8,0.5l0,0
			c0.3,0.1,0.5,0.1,0.7,0.1c0.1,0,0.2,0,0.8-0.1h0.1c0.4-0.3,0.7-0.6,0.9-1l0.1,0.1c0.1,0.1,0.2,0.2,0.3,0.3
			c0.1,0.1,0.2,0.2,0.3,0.2c0.1,0.1,0.2,0.1,0.3,0.2l0,0c0.1,0,0.2,0,0.3-0.1c0.1,0,0.2-0.1,0.3-0.2c0.1-0.1,0.2-0.2,0.2-0.3
			c0.1-0.1,0.1-0.2,0.1-0.3c0-0.2-0.1-0.4-0.3-0.5C-24.6,443-24.8,442.9-24.9,442.7z M-27.6,443.3c-0.1,0-0.1,0.1-0.2,0.1
			c-0.3-0.2-0.5-0.4-0.6-0.6c0-0.3,0.1-0.7,0.3-1c0.1-0.2,0.3-0.4,0.4-0.5s0.3-0.2,0.4-0.2s0.2-0.1,0.3-0.1h0.1
			c0.1,0.5,0.2,0.7,0.2,0.8c0,0.1,0,0.2-0.1,0.3c0,0.2-0.1,0.3-0.3,0.6c-0.1,0.1-0.1,0.3-0.2,0.4c0,0.1-0.1,0.2-0.1,0.2
			C-27.5,443.3-27.5,443.3-27.6,443.3z"/>
		<path class="st7" d="M-18.2,443.4L-18.2,443.4c0-0.2-0.1-0.4-0.1-0.5s0-0.3-0.1-0.4s0-0.2-0.1-0.4c0-0.1,0-0.3-0.1-0.5
			c-0.1-0.6-0.4-1-0.8-1.2s-0.8-0.4-1.3-0.4c-0.2,0-0.3,0-0.4,0s-0.2,0.1-0.4,0.1c-0.1-0.2-0.2-0.3-0.3-0.3
			c-0.1-0.1-0.2-0.1-0.4-0.1c-0.2,0-0.4,0.1-0.6,0.2c-0.1,0.2-0.2,0.3-0.2,0.5c0,0.1,0,0.2,0.1,0.4c0,0.1,0.1,0.2,0.1,0.3l-0.1,0.7
			l-0.1,1.3c0,0.1,0,0.2,0,0.3c0,0.1,0,0.2,0,0.3c0,0.1,0,0.3,0,0.4s0,0.3,0.1,0.4c0,0.1,0.1,0.3,0.2,0.3c0.1,0.1,0.2,0.1,0.4,0.1
			c0.2,0,0.4-0.1,0.6-0.2s0.3-0.3,0.3-0.5s0-0.5,0-0.6c0-0.2,0-0.4,0-0.5c0-0.2,0-0.4,0-0.6s0-0.3,0-0.4c0.1-0.4,0.2-0.6,0.3-0.7
			c0.1-0.1,0.3-0.2,0.5-0.2c0.1,0,0.3,0.1,0.5,0.2c0,0,0.1,0.1,0.2,0.4c0,0.2,0.1,0.5,0.1,0.8s0,0.5,0,0.8v0.6c0,0.1,0,0.1,0,0.2
			l0,0l0,0c0.1,0.2,0.2,0.5,0.8,0.5c0.2,0,0.4-0.1,0.5-0.2s0.2-0.3,0.2-0.5S-18.3,443.7-18.2,443.4c-0.1,0-0.1-0.1-0.1-0.2
			L-18.2,443.4L-18.2,443.4z"/>
		<path class="st7" d="M-12.4,443.7L-12.4,443.7c-0.1,0-0.1,0-0.1,0l0,0h-0.3c-0.2,0-0.3,0-0.6,0c-0.2,0-0.4,0-0.7-0.1
			c-0.2,0-0.3,0-0.4-0.1c0.1-0.1,0.1-0.1,0.2-0.2c0.1-0.1,0.2-0.2,0.3-0.3c0.1-0.1,0.2-0.2,0.2-0.2c0.2-0.1,0.3-0.2,0.5-0.3
			c0.2-0.1,0.3-0.3,0.5-0.5c0.1-0.1,0.1-0.2,0.2-0.3c0.1-0.1,0.2-0.2,0.2-0.3c0.1-0.1,0.1-0.2,0.2-0.4c0.1-0.1,0.1-0.3,0.1-0.4
			c0,0,0-0.1,0-0.2s0-0.2,0-0.3V440h-0.1c-0.5-0.2-0.9-0.3-1.2-0.4c-0.4-0.1-0.7-0.1-0.9-0.1c-0.4,0.1-0.7,0.1-0.9,0.1
			s-0.4,0.1-0.5,0.1c-0.2,0.1-0.2,0.2-0.2,0.3v0.3c0,0.6,0.3,0.8,0.5,0.8c0,0,0.2,0,0.5,0l0.5-0.1h0.5c-0.1,0.1-0.2,0.3-0.4,0.4
			c-0.2,0.2-0.5,0.4-0.7,0.7c-0.2,0.2-0.3,0.3-0.4,0.5c-0.1,0.1-0.3,0.3-0.4,0.3l0,0c-0.3,0.4-0.5,0.8-0.5,1l0,0l0,0
			c0.2,0.3,0.6,0.6,1.1,0.9l0,0c0,0,0.1,0,0.2,0c0.1,0,0.3,0,0.5,0.1c0.2,0,0.4,0,0.6,0.1c0.2,0,0.4,0,0.5,0s0.1,0,0.2,0
			c0.1,0,0.2,0,0.3,0h0.3c0.1,0,0.2,0,0.3,0c0.2,0,0.4-0.1,0.5-0.3c0.1-0.2,0.2-0.3,0.2-0.5C-11.9,444.1-12,443.9-12.4,443.7z"/>
		<path class="st7" d="M-6.3,443.4c-0.6,0.5-1.1,0.7-1.4,0.7c-0.2,0-0.5-0.1-0.6-0.2c-0.2-0.1-0.3-0.3-0.4-0.6
			c0.6-0.1,1-0.2,1.4-0.3c0.4-0.1,0.7-0.2,0.9-0.3c0.6-0.3,0.9-1,0.9-1.9c0-0.1-0.1-0.2-0.2-0.3c-0.1-0.1-0.2-0.2-0.3-0.3
			c-0.1-0.1-0.3-0.2-0.4-0.3c-0.1-0.1-0.2-0.2-0.3-0.2s-0.2-0.1-0.3-0.1c-0.1,0-0.2,0-0.4,0c-0.3,0-0.7,0.1-1.3,0.2l0,0
			c-0.4,0.2-0.7,0.5-0.9,0.8s-0.4,0.6-0.6,0.9v0.1c0,0.2,0,0.3,0,0.5c0,0.1,0,0.3,0,0.4s0,0.2,0,0.3c0,0.3,0,0.5,0.1,0.8
			s0.2,0.5,0.4,0.7s0.3,0.4,0.5,0.6s0.4,0.3,0.6,0.5l0,0c0.5,0.1,1,0.2,1.4,0.2s0.8-0.1,1.2-0.3c0.4-0.2,0.7-0.5,1-0.8l0,0
			c0.1-0.1,0.1-0.3,0.1-0.4c0-0.2-0.1-0.4-0.2-0.5C-5.6,443.2-6,443.2-6.3,443.4z M-8.2,441.2c0.1,0,0.2-0.1,0.4-0.1
			c0.1,0,0.2,0,0.3,0c0.2,0,0.3,0.1,0.5,0.3c0,0.1-0.1,0.1-0.1,0.2c-0.1,0.1-0.2,0.1-0.4,0.1c-0.2,0-0.4,0.1-0.6,0.1s-0.4,0-0.6,0.1
			l0.1-0.2c0.1-0.1,0.1-0.2,0.2-0.2C-8.5,441.3-8.4,441.2-8.2,441.2z"/>
		<path class="st7" d="M0,439.9c-0.1,0-0.2,0-0.3-0.1c-0.1,0-0.2,0-0.3,0s-0.2,0-0.3,0s-0.2,0-0.3,0.1c-0.1,0-0.2,0.1-0.3,0.2
			s-0.2,0.2-0.4,0.3c-0.2-0.2-0.4-0.3-0.5-0.3c-0.3,0-0.5,0.1-0.6,0.2s-0.2,0.3-0.2,0.5c0,0.1,0,0.2,0,0.3c0,0.1,0,0.2,0.1,0.4l0,0
			c0,0.1,0,0.3,0,0.8c0,0.4,0,0.7,0,1.1c0,0.3,0,0.6,0.1,0.9c0,0.3,0.1,0.5,0.2,0.6c0.1,0.2,0.3,0.3,0.6,0.3c0.5,0,0.8-0.3,0.8-0.8
			l-0.1-1.3c0-0.1,0-0.3,0-0.4s0-0.2,0-0.4c0-0.1,0-0.2,0-0.2V442l0.4-0.4c0.1-0.1,0.2-0.2,0.3-0.2c0.2-0.1,0.4-0.1,0.6,0
			c0.3,0.2,0.7,0.1,0.9-0.2c0.1-0.2,0.2-0.4,0.2-0.6c0-0.3-0.1-0.5-0.3-0.6L0,439.9z"/>
		<path class="st7" d="M13.8,440.3L13.8,440.3c-0.3,0-0.5-0.1-0.7-0.1s-0.4,0-0.5-0.1c-0.6,0-1.1,0-1.5,0c-0.1,0-0.1,0-0.2,0
			c-0.1,0-0.1,0-0.2,0c-0.3,0-0.5,0-0.7,0s-0.4,0-0.5,0.1H9.4c-0.3,0.2-0.5,0.5-0.5,0.8s0.1,0.7,0.8,0.7c0.3,0,0.6,0,0.8-0.1
			c0.2,0,0.4,0,0.6-0.1l0,0l0,0c0,0,0.1-0.1,0.4-0.1c0.3,0,0.5,0,0.7,0s0.2,0,0.3,0s0.3,0,0.4,0c0.2,0,0.3,0,0.4,0
			c0.1,0,0.2,0,0.4,0l0,0l0,0c0.2-0.2,0.3-0.4,0.3-0.6C14.3,440.8,14.1,440.5,13.8,440.3L13.8,440.3z"/>
		<path class="st7" d="M28.9,438.2L28.9,438.2c-0.4-0.4-1-0.5-1.9-0.5c-0.6-0.1-1-0.2-1.1-0.2l0,0l0,0c-0.1,0-0.4,0-1.1,0
			c-0.5,0-0.7,0.1-0.8,0.2c-0.3,0.6-0.5,1.5-0.5,2.9c0,0.3,0,0.6,0,0.8v0.7c0,0.2,0,0.4,0,0.5c0,0.2,0,0.3,0,0.5s0,0.4,0,0.6
			s0,0.4,0.1,0.6l0,0c0,0,0,0,0,0.1s0,0.3,0.1,0.4l0.1,0.6v-0.3c0,0.1,0.1,0.1,0.1,0.2c0.1,0.2,0.3,0.3,0.6,0.3
			c0.3,0,0.7-0.1,0.7-0.8l0,0l0,0c-0.1-0.2-0.1-0.5-0.1-0.8v-0.2c0-0.1,0-0.1,0-0.2v-1.3c0.1,0,0.2,0,0.3,0h0.7
			c0.4,0,0.6-0.1,0.9-0.1s0.4,0,0.6-0.1c0.2,0,0.3-0.1,0.4-0.2s0.1-0.3,0.1-0.5s-0.1-0.4-0.2-0.5c-0.1-0.2-0.3-0.2-0.5-0.2
			c-0.1,0-0.2,0-0.4,0c-0.2,0-0.3,0-0.5,0h-0.4c-0.1,0-0.2,0-0.2,0H25l0,0c0-0.1,0-0.2,0-0.3c0-0.1,0-0.2,0-0.3c0-0.1,0-0.2,0-0.3
			v-0.4c0-0.1,0-0.2,0-0.2c0-0.1,0-0.1,0.1-0.2c0,0,0,0,0.1,0c0.3,0,0.5,0,0.8,0s0.5,0.1,0.9,0.2H27c0.1,0,0.2,0,0.3,0
			c0.1,0,0.2,0.1,0.4,0.1c0.1,0,0.2,0.1,0.3,0.1c0.1,0,0.2,0,0.2,0c0.1,0,0.3-0.1,0.5-0.3c0.1-0.2,0.1-0.4,0.1-0.6
			C29,438.4,28.9,438.3,28.9,438.2L28.9,438.2z"/>
		<path class="st7" d="M34.4,443.4c-0.6,0.5-1.1,0.7-1.4,0.7c-0.2,0-0.5-0.1-0.6-0.2c-0.2-0.1-0.3-0.3-0.4-0.6
			c0.6-0.1,1-0.2,1.4-0.3c0.4-0.1,0.7-0.2,0.9-0.3c0.6-0.3,0.9-1,0.9-1.9c0-0.1-0.1-0.2-0.2-0.3c-0.1,0-0.2-0.1-0.3-0.3
			c-0.1-0.1-0.3-0.2-0.4-0.3c-0.1-0.1-0.2-0.2-0.3-0.2s-0.2-0.1-0.3-0.1s-0.2,0-0.4,0c-0.3,0-0.7,0.1-1.3,0.2l0,0
			c-0.4,0.2-0.7,0.5-0.9,0.8c-0.2,0.3-0.4,0.6-0.6,0.9v0.1c0,0.2,0,0.3,0,0.5c0,0.1,0,0.3,0,0.4s0,0.2,0,0.3c0,0.3,0,0.5,0.1,0.8
			s0.2,0.5,0.4,0.7c0.2,0.2,0.3,0.4,0.5,0.6s0.4,0.3,0.6,0.5l0,0c0.5,0.1,1,0.2,1.4,0.2s0.8-0.1,1.2-0.3c0.4-0.2,0.7-0.5,1-0.8l0,0
			c0.1-0.1,0.1-0.3,0.1-0.4c0-0.2-0.1-0.4-0.2-0.5C35,443.2,34.6,443.2,34.4,443.4z M32.4,441.2c0.1,0,0.2-0.1,0.4-0.1
			c0.1,0,0.2,0,0.3,0c0.2,0,0.3,0.1,0.5,0.3c0,0.1-0.1,0.1-0.1,0.2c-0.1,0.1-0.2,0.1-0.4,0.1s-0.4,0.1-0.6,0.1c-0.2,0-0.4,0-0.6,0.1
			l0.1-0.2c0.1-0.1,0.1-0.2,0.2-0.2C32.2,441.3,32.3,441.2,32.4,441.2z"/>
		<path class="st7" d="M40.8,439.5c-0.1-0.1-0.3-0.1-0.6-0.1c0,0-0.1,0-0.2,0c-0.1,0-0.1,0-0.2,0h-0.1c-0.1,0-0.1,0-0.2,0l0,0v-0.5
			c0,0,0-0.1,0-0.2s0-0.3,0.1-0.4l0.1-0.5c0-0.1,0-0.1,0-0.2c-0.1-0.4-0.3-0.6-0.7-0.6c-0.2,0-0.4,0.1-0.6,0.3
			c-0.1,0.2-0.2,0.4-0.3,0.7c-0.1,0.3-0.1,0.5-0.1,0.8s0,0.5,0,0.7c-0.1,0-0.1,0-0.2,0c-0.1,0-0.2,0-0.2,0h-0.2
			c-0.1,0-0.2,0-0.3,0.1c-0.3,0.1-0.5,0.2-0.6,0.3c-0.1,0.1-0.1,0.3-0.1,0.4c0,0.2,0.1,0.4,0.3,0.5s0.4,0.2,0.6,0.2l0,0
			c0.3-0.1,0.5-0.1,0.6-0.1c0,0.2,0,0.4,0,0.5s0,0.2,0,0.3c0,0.1,0,0.2,0,0.3c0,0.1,0,0.3,0,0.6c0,0.3,0,0.5,0.1,0.8
			c0.1,0.2,0.2,0.5,0.3,0.7c0.1,0.1,0.2,0.2,0.3,0.3c0.1,0.1,0.3,0.2,0.4,0.2c0.1,0.1,0.3,0.1,0.4,0.1c0.1,0,0.3,0.1,0.3,0.1
			c0.2,0,0.4-0.1,0.6-0.2c0.2-0.1,0.2-0.3,0.2-0.5s-0.1-0.5-0.5-0.7l-0.4-0.1c-0.1,0-0.1-0.1-0.1-0.1c0-0.1-0.1-0.2-0.1-0.3v-0.6
			v-0.1c0,0,0,0,0-0.1c0-0.3,0-0.6,0-0.9c0-0.2,0-0.4,0-0.5c0.2,0,0.4,0,0.5-0.1h0.5h0.1c0.2,0,0.6-0.1,0.6-0.7
			C41,439.8,41,439.6,40.8,439.5L40.8,439.5z"/>
		<path class="st7" d="M45.9,439.5c-0.1-0.1-0.3-0.1-0.6-0.1c0,0-0.1,0-0.2,0c-0.1,0-0.1,0-0.2,0h-0.1c-0.1,0-0.1,0-0.2,0l0,0v-0.5
			c0,0,0-0.1,0-0.2s0-0.3,0.1-0.4l0.1-0.4c0-0.2,0-0.2,0-0.2c-0.1-0.4-0.3-0.6-0.7-0.6c-0.2,0-0.4,0.1-0.6,0.3
			c-0.1,0.2-0.2,0.4-0.3,0.7c-0.1,0.3-0.1,0.5-0.1,0.8s0,0.5,0,0.7c-0.1,0-0.1,0-0.2,0c-0.1,0-0.2,0-0.2,0h-0.2
			c-0.1,0-0.2,0-0.3,0.1c-0.3,0.1-0.5,0.2-0.6,0.3c-0.1,0.1-0.1,0.3-0.1,0.4c0,0.2,0.1,0.4,0.3,0.5s0.4,0.2,0.6,0.2l0,0
			c0.3-0.1,0.5-0.1,0.6-0.1c0,0.2,0,0.4,0,0.5s0,0.2,0,0.3c0,0.1,0,0.2,0,0.3c0,0.1,0,0.3,0,0.6c0,0.3,0,0.5,0.1,0.8
			c0.1,0.2,0.2,0.5,0.3,0.7c0.1,0.1,0.2,0.2,0.3,0.3c0.1,0.1,0.3,0.2,0.4,0.2c0.1,0.1,0.3,0.1,0.4,0.1c0.2,0,0.3,0.1,0.3,0.1
			c0.2,0,0.4-0.1,0.6-0.2c0.2-0.1,0.2-0.3,0.2-0.5s-0.1-0.5-0.5-0.7l-0.4-0.1c-0.1,0-0.1-0.1-0.1-0.1c0-0.1-0.1-0.2-0.1-0.3v-0.6
			v-0.1c0,0,0,0,0-0.1c0-0.4,0-0.6,0-0.9c0-0.2,0-0.4,0-0.5c0.2,0,0.4,0,0.5-0.1h0.5h0.1c0.2,0,0.6-0.1,0.6-0.7
			C46.1,439.8,46,439.6,45.9,439.5L45.9,439.5z"/>
		<path class="st7" d="M51.4,443.4c-0.6,0.5-1.1,0.7-1.4,0.7c-0.2,0-0.5-0.1-0.6-0.2c-0.2-0.1-0.3-0.3-0.4-0.6
			c0.6-0.1,1-0.2,1.4-0.3c0.4-0.1,0.7-0.2,0.9-0.3c0.6-0.3,0.9-1,0.9-1.9c0-0.1-0.1-0.2-0.2-0.3c-0.1-0.1-0.2-0.2-0.3-0.3
			c-0.1-0.1-0.3-0.2-0.4-0.3c-0.1-0.1-0.2-0.2-0.3-0.2s-0.2-0.1-0.3-0.1s-0.2,0-0.4,0c-0.3,0-0.7,0.1-1.3,0.2l0,0
			c-0.4,0.2-0.7,0.5-0.9,0.8s-0.4,0.6-0.6,0.9v0.2c0,0.1,0,0.2,0,0.3c0,0.1,0,0.3,0,0.4s0,0.2,0,0.3c0,0.3,0,0.5,0.1,0.8
			s0.2,0.5,0.4,0.7s0.3,0.4,0.5,0.6s0.4,0.3,0.6,0.5l0,0c0.5,0.1,1,0.2,1.4,0.2s0.8-0.1,1.2-0.3c0.4-0.2,0.7-0.5,1-0.8l0,0
			c0.1-0.1,0.1-0.3,0.1-0.4c0-0.2-0.1-0.4-0.2-0.5C52,443.2,51.6,443.2,51.4,443.4z M49.4,441.2c0.1,0,0.2-0.1,0.4-0.1
			c0.1,0,0.2,0,0.3,0c0.2,0,0.3,0.1,0.5,0.3c0,0.1-0.1,0.1-0.1,0.2c-0.1,0.1-0.2,0.1-0.4,0.1s-0.4,0.1-0.6,0.1l0,0
			c-0.2,0-0.4,0-0.6,0.1l0.1-0.2c0.1-0.1,0.1-0.2,0.2-0.2C49.2,441.3,49.3,441.2,49.4,441.2z"/>
		<path class="st7" d="M65.5,438.8c-0.1-0.2-0.2-0.3-0.3-0.4c-0.1-0.1-0.3-0.2-0.4-0.3l-0.6-0.3l0,0c-0.6-0.1-1-0.2-1.1-0.2
			c-0.4,0-0.7,0.1-1.1,0.2h-0.1c-0.4,0-0.7,0.1-1,0.2l0,0l0,0c0,0.1-0.1,0.2-0.1,0.3c0,0.1,0,0.3,0,0.4s0,0.2,0,0.3
			c0,0.1,0,0.2,0,0.2c0,0.1,0,0.2,0,0.3c0,0.1,0,0.2,0,0.4c0,0.1,0,0.2,0,0.4v1c0,0.1,0,0.2,0,0.3v0.1l0,0c0,0.1,0,0.2,0,0.3
			c0,0.1,0,0.2,0,0.3c0,0.1,0,0.2,0,0.2v0.1c0,0.3,0,0.6,0,0.8c0,0.2,0,0.4,0,0.6s0,0.3,0,0.4l0,0c0,0.2,0,0.3,0,0.5s0,0.3,0.1,0.4
			c0,0.1,0.1,0.3,0.2,0.3c0.1,0.1,0.3,0.1,0.5,0.1s0.4,0,0.5-0.1s0.2-0.2,0.2-0.3c0-0.1,0.1-0.3,0.1-0.4v-0.4c0-0.2,0-0.3,0-0.4
			s0-0.3,0-0.4v-0.8c0.2-0.1,0.4-0.1,0.6-0.2c0.2-0.1,0.4-0.1,0.5-0.2c0.6-0.1,1.1-0.3,1.5-0.7c0.2-0.2,0.3-0.3,0.4-0.4
			s0.2-0.3,0.3-0.4c0.1-0.1,0.1-0.3,0.1-0.4s0-0.3,0.1-0.5l0,0c0-0.3,0-0.5,0-0.8C65.6,439.2,65.5,439,65.5,438.8z M62.3,441.4
			L62.3,441.4c-0.1-0.1-0.1-0.2-0.1-0.3v-0.3c0-0.2,0-0.2,0-0.2l0,0v-0.1c0-0.3,0-0.6,0-0.9c0-0.2,0-0.4,0-0.5
			c0.4-0.1,0.7-0.2,0.8-0.2c0.4,0,0.7,0.1,0.9,0.3c0.2,0.2,0.3,0.4,0.3,0.6c0,0.1,0,0.3,0,0.4c-0.2,0.4-0.6,0.7-1.2,0.9
			c-0.1,0.1-0.2,0.1-0.3,0.1C62.5,441.3,62.4,441.4,62.3,441.4z"/>
		<path class="st7" d="M72,442.7c-0.1-0.2-0.2-0.3-0.3-0.6l-0.2-0.7c0-0.2-0.1-0.5-0.1-0.7c0-0.3-0.1-0.5-0.2-0.7s-0.2-0.4-0.3-0.5
			c-0.1-0.2-0.3-0.3-0.5-0.3c-0.3,0-0.5,0.1-0.7,0.3c-0.1,0-0.3,0.1-0.5,0.1c-0.3,0.1-0.5,0.2-0.8,0.3l0,0c-0.2,0.2-0.4,0.4-0.6,0.7
			c-0.2,0.2-0.3,0.5-0.4,0.7s-0.2,0.5-0.3,0.7c-0.1,0.2-0.1,0.5-0.1,0.7c0,0.6,0.2,1.1,0.6,1.4l0.8,0.5l0,0c0.3,0.1,0.5,0.1,0.7,0.1
			c0.1,0,0.2,0,0.8-0.1H70c0.4-0.3,0.7-0.6,0.9-1l0.1,0.1c0.1,0.1,0.2,0.2,0.3,0.3c0.1,0.1,0.2,0.2,0.3,0.2c0.1,0.1,0.2,0.1,0.3,0.2
			l0,0c0.1,0,0.2,0,0.3-0.1c0.1,0,0.2-0.1,0.3-0.2c0.1-0.1,0.2-0.2,0.2-0.3c0.1-0.1,0.1-0.2,0.1-0.3c0-0.2-0.1-0.4-0.3-0.5
			C72.2,443,72.1,442.9,72,442.7z M69.3,443.3c-0.1,0-0.1,0.1-0.2,0.1c-0.3-0.2-0.5-0.4-0.6-0.6c0-0.3,0.1-0.7,0.3-1
			c0.1-0.2,0.3-0.4,0.4-0.5s0.3-0.2,0.4-0.2s0.2-0.1,0.3-0.1h0c0.1,0.5,0.2,0.7,0.2,0.8c0,0.1,0,0.2-0.1,0.3c0,0.2-0.1,0.3-0.3,0.6
			c-0.1,0.1-0.1,0.3-0.2,0.4C69.5,443.2,69.4,443.3,69.3,443.3L69.3,443.3z"/>
		<path class="st7" d="M77.4,439.9c-0.1,0-0.2,0-0.3-0.1c-0.1,0-0.2,0-0.3,0c-0.1,0-0.2,0-0.3,0c-0.1,0-0.2,0-0.3,0.1
			c-0.1,0-0.2,0.1-0.3,0.2c-0.1,0.1-0.2,0.2-0.4,0.3c-0.2-0.2-0.4-0.3-0.5-0.3c-0.3,0-0.5,0.1-0.6,0.2s-0.2,0.3-0.2,0.5
			c0,0.1,0,0.2,0,0.3c0,0.1,0,0.2,0.1,0.4l0,0c0,0.1,0,0.3,0,0.8c0,0.4,0,0.7,0,1.1c0,0.3,0,0.6,0,0.9s0.1,0.5,0.2,0.6
			c0.1,0.2,0.3,0.3,0.6,0.3c0.5,0,0.8-0.3,0.8-0.8l-0.1-1.3c0-0.1,0-0.3,0-0.4s0-0.2,0-0.4c0-0.1,0-0.2,0-0.2V442l0.4-0.4
			c0.1-0.1,0.2-0.2,0.3-0.2c0.2-0.1,0.4-0.1,0.6,0c0.3,0.2,0.7,0.1,0.9-0.2c0.1-0.2,0.2-0.4,0.2-0.6c0-0.3-0.1-0.5-0.3-0.6
			L77.4,439.9z"/>
		<path class="st7" d="M83.1,439.5c-0.1-0.1-0.3-0.1-0.6-0.1c0,0-0.1,0-0.2,0s-0.1,0-0.2,0H82c-0.1,0-0.1,0-0.2,0l0,0v-0.5
			c0,0,0-0.1,0-0.2s0-0.3,0.1-0.4l0.1-0.5c0-0.1,0-0.1,0-0.2c-0.1-0.4-0.3-0.6-0.7-0.6c-0.2,0-0.4,0.1-0.6,0.3
			c-0.1,0.2-0.2,0.4-0.3,0.7c-0.1,0.3-0.1,0.5-0.1,0.8s0,0.5,0,0.7c-0.1,0-0.1,0-0.2,0s-0.2,0-0.2,0h-0.2c-0.1,0-0.2,0-0.3,0.1
			c-0.3,0.1-0.5,0.2-0.6,0.3c-0.1,0.1-0.1,0.3-0.1,0.4c0,0.2,0.1,0.4,0.3,0.5c0.2,0.1,0.4,0.2,0.6,0.2l0,0c0.3-0.1,0.5-0.1,0.6-0.1
			c0,0.2,0,0.4,0,0.5s0,0.2,0,0.3c0,0.1,0,0.2,0,0.3c0,0.1,0,0.3,0,0.6c0,0.3,0,0.5,0.1,0.8c0.1,0.2,0.2,0.5,0.3,0.7
			c0.1,0.1,0.2,0.2,0.3,0.3c0.1,0.1,0.3,0.2,0.4,0.2c0.1,0.1,0.3,0.1,0.4,0.1s0.3,0.1,0.3,0.1c0.2,0,0.4-0.1,0.6-0.2
			s0.2-0.3,0.2-0.5s-0.1-0.5-0.5-0.7l-0.4-0.1c-0.1,0-0.1-0.1-0.1-0.1c0-0.1-0.1-0.2-0.1-0.3v-0.6v-0.1c0,0,0,0,0-0.1
			c0-0.3,0-0.6,0-0.9c0-0.2,0-0.4,0-0.5c0.2,0,0.4,0,0.5-0.1h0.5h0.1c0.2,0,0.6-0.1,0.6-0.7C83.3,439.8,83.2,439.6,83.1,439.5
			L83.1,439.5z"/>
		<path class="st7" d="M89.7,440.8c-0.1-0.4-0.3-0.6-0.7-0.6c-0.2,0-0.5,0.1-0.7,0.2l0,0v0.1c0,0.2-0.1,0.5-0.2,0.7l-0.2,0.6
			l-0.5,1.4c-0.1-0.1-0.2-0.2-0.3-0.3c-0.1-0.1-0.3-0.3-0.3-0.3c-0.1-0.1-0.1-0.1-0.2-0.2s-0.2-0.2-0.2-0.3
			c-0.1-0.1-0.2-0.3-0.4-0.6c-0.2-0.3-0.3-0.4-0.5-0.6c-0.4-0.3-0.7-0.2-0.9,0.1c-0.2,0.2-0.2,0.4-0.2,0.6c0,0.1,0,0.1,0,0.2
			c0.2,0.3,0.3,0.5,0.4,0.7s0.2,0.3,0.3,0.4c0.1,0.1,0.2,0.2,0.2,0.3c0.1,0.1,0.1,0.1,0.2,0.2s0.1,0.1,0.2,0.2s0.2,0.2,0.3,0.3l0,0
			l0,0c0.1,0,0.1,0.1,0.2,0.2s0.2,0.2,0.3,0.3c0.1,0.1,0.2,0.2,0.2,0.3l0.1,0.1c0,0.1-0.1,0.2-0.1,0.3c-0.1,0.2-0.2,0.3-0.3,0.5
			c-0.1,0.2-0.2,0.3-0.2,0.5c-0.1,0.2-0.1,0.3-0.1,0.3c-0.1,0.1-0.2,0.3-0.3,0.4c-0.1,0.1-0.2,0.3-0.3,0.4l0,0
			c-0.1,0.1-0.2,0.3-0.2,0.4c-0.1,0.1-0.1,0.3-0.1,0.3c0,0.2,0.1,0.4,0.3,0.5c0.2,0.1,0.3,0.2,0.5,0.2c0.1,0,0.3-0.1,0.4-0.2
			s0.2-0.2,0.3-0.4c0.1-0.1,0.2-0.3,0.2-0.4c0.1-0.1,0.1-0.2,0.1-0.3c0-0.1,0.1-0.2,0.2-0.4c0.1-0.2,0.2-0.4,0.3-0.6l0.3-0.6
			c0.1-0.2,0.2-0.3,0.2-0.4c0.2-0.2,0.4-0.5,0.5-1c0.3-0.4,0.5-0.9,0.6-1.3c0.2-0.4,0.3-0.7,0.4-0.9c0.1-0.2,0.2-0.3,0.2-0.4
			s0.1-0.2,0.1-0.3C89.7,441.2,89.7,441,89.7,440.8L89.7,440.8z"/>
	</g>
	<g id="Schrift_1_">
		<path id="XMLID_22_" class="st8" d="M-84.2,405.5c0,0.5,0,0.9,0,1.3s-0.1,0.8-0.2,1.1c-0.1,0.4-0.4,0.7-0.6,1.1
			c-0.3,0.4-0.6,0.9-1.1,1.4c-1.1,1.4-2.5,2.3-4,2.7c-0.3,0.2-0.8,0.4-1.3,0.7c-0.6,0.3-1.2,0.6-2,0.9c0.2,0.9,0.3,1.7,0.5,2.6
			c0.1,0.4,0.2,0.7,0.3,1.1c0.1,0.4,0.2,0.8,0.2,1.2c0,0.3,0.1,0.7,0.2,1c0.1,0.4,0.1,0.7,0,1.1c0,0.3-0.2,0.6-0.4,0.9
			s-0.6,0.4-1.1,0.5s-0.9,0-1.2-0.1c-0.3-0.1-0.5-0.4-0.6-0.7c-0.1-0.3-0.2-0.7-0.3-1.2c-0.2-0.4-0.3-0.9-0.5-1.4l0,0
			c-0.1-0.3-0.2-0.8-0.3-1.2c-0.1-0.4-0.2-0.9-0.3-1.6c-0.1-0.6-0.3-1.4-0.5-2.2c0-0.1,0-0.2,0-0.2c0-0.2-0.1-0.4-0.1-0.6
			c-0.1-0.3-0.1-0.5-0.2-0.8s-0.1-0.5-0.2-0.8c0-0.2-0.1-0.4-0.1-0.5c0-0.2-0.1-0.5-0.1-0.9c-0.1-0.4-0.1-0.9-0.2-1.4
			s-0.1-1-0.2-1.4s-0.1-0.8-0.1-1c-0.1-0.4-0.1-0.8-0.2-1.2c-0.1-0.3-0.2-0.7-0.3-0.9c0-0.1,0-0.2-0.1-0.5c0-0.3-0.1-0.6-0.1-1
			s0-0.7,0-1.1s0-0.7,0.1-0.9c0.7-0.5,1.6-0.8,2.6-0.9c0.1,0,0.2,0,0.3-0.1c1.2-0.5,2.3-0.9,3.3-1c0.4-0.1,1.5-0.1,3.4,0
			c0.7,0.2,1.3,0.5,2,0.7c0.5,0.2,1,0.5,1.4,0.7c0.4,0.3,0.7,0.6,0.9,1c0.3,0.4,0.5,0.9,0.6,1.4C-84.5,404-84.3,404.7-84.2,405.5z
			 M-88.1,406.6c0-0.5,0-1-0.1-1.4c-0.1-0.7-0.5-1.3-1.2-1.9c-0.7-0.5-1.8-0.7-3.2-0.5c-0.6,0.1-1.6,0.5-2.8,1.1
			c0.1,0.5,0.3,1.1,0.4,1.8c0.1,0.7,0.3,1.5,0.4,2.5c0,0.1,0,0.3,0.1,0.8c0,0.2,0.1,0.5,0.1,0.9c0.1,0.3,0.1,0.7,0.2,1.1
			c0.2-0.1,0.5-0.2,0.8-0.3c0.3-0.1,0.6-0.3,0.9-0.4s0.6-0.3,0.9-0.5C-89.5,409.1-88.4,408-88.1,406.6z"/>
		<path id="XMLID_21_" class="st9" d="M-63.6,412.2c0.5,0.3,0.8,0.6,0.9,1.1c0,0.2,0,0.5-0.1,0.8s-0.3,0.5-0.5,0.7
			c-0.2,0.2-0.4,0.4-0.6,0.6s-0.5,0.3-0.7,0.3c-0.2-0.1-0.5-0.2-0.8-0.3c-0.3-0.2-0.6-0.4-1-0.6c-0.3-0.2-0.6-0.5-0.9-0.8
			s-0.5-0.6-0.7-0.9c-0.1,0.2-0.1,0.5-0.2,0.7c-0.4,1-1.1,2-2.2,3c-1.3,0.4-2.1,0.6-2.3,0.6c-0.5,0.1-1.2,0.1-1.9,0
			c-0.8-0.4-1.6-0.8-2.5-1.3c-1.1-0.8-1.8-2-2-3.6c-0.1-0.6-0.1-1.2,0-1.9s0.3-1.4,0.5-2.2c0.3-0.7,0.6-1.5,1-2.2s0.9-1.4,1.5-2
			c0.8-0.4,1.5-0.7,2.3-1c0.7-0.3,1.3-0.5,1.7-0.6c0.5-0.6,1.1-1,1.8-1.1c0.4,0,0.8,0.1,1.2,0.5c0.4,0.4,0.7,0.8,1,1.4
			s0.6,1.2,0.8,1.9c0.2,0.7,0.4,1.4,0.5,2c0.3,0.7,0.5,1.4,0.8,2.1c0.2,0.7,0.6,1.2,1,1.6C-64.7,411.5-64.2,411.8-63.6,412.2z
			 M-70.3,408.4c-0.1,0-0.4-0.8-0.9-2.5c-0.1,0-0.4,0-0.6,0.1c-0.3,0-0.6,0.1-1,0.3c-0.4,0.2-0.7,0.5-1.1,0.9s-0.7,1-1,1.8
			c-0.5,1.1-0.6,2.2-0.5,3.2c0.6,0.8,1.4,1.4,2.5,1.8c0.3-0.1,0.5-0.2,0.7-0.4c0.2-0.1,0.4-0.3,0.5-0.5s0.3-0.5,0.4-0.8
			s0.3-0.7,0.4-1.1c0.3-0.7,0.5-1.2,0.6-1.7C-70.3,409.1-70.2,408.7-70.3,408.4z"/>
		<path id="XMLID_20_" class="st10" d="M-45.6,410.9c0,0.1,0,0.2,0,0.3c0,0.2,0,0.5,0.1,0.9c0,0.4,0,0.8,0,1.3
			c-0.1,0.4-0.2,0.8-0.5,1.2c-0.2,0.3-0.6,0.5-1.2,0.6c-1.1,0.1-1.7-0.3-2-1.1c0-0.2,0-0.3,0-0.6c0-0.2,0-0.4-0.1-0.7
			c0-0.1,0-0.5-0.1-1.2s-0.1-1.4-0.3-2.2c-0.1-0.8-0.3-1.6-0.5-2.3c-0.2-0.7-0.5-1.1-0.7-1.3c-0.7-0.4-1.3-0.5-1.8-0.5
			c-0.7,0.1-1.2,0.3-1.6,0.7c-0.4,0.4-0.7,1.2-0.9,2.4c0,0.4,0,0.8,0,1.3s0,1,0,1.6c0,0.5,0.1,1,0.2,1.5s0.2,1.2,0.3,1.9
			c0,0.5-0.1,1-0.5,1.3c-0.4,0.4-0.8,0.6-1.4,0.6c-0.4,0-0.7,0-1-0.2s-0.5-0.5-0.6-0.8c-0.2-0.3-0.3-0.7-0.4-1.1s-0.1-0.8-0.2-1.2
			c0-0.3,0-0.6,0-0.9s0-0.6,0-1c0-1.3,0-2.6-0.1-3.9c0-0.7,0.1-1.3,0.1-2c-0.1-0.3-0.2-0.7-0.4-1c-0.2-0.4-0.3-0.6-0.3-0.9
			c0-0.5,0.1-0.9,0.4-1.3c0.3-0.4,0.8-0.7,1.4-0.7c0.4,0,0.7,0,0.9,0.1s0.6,0.5,1.1,1c0.5-0.3,1-0.5,1.3-0.6s0.7-0.2,1.2-0.2
			c1.5-0.1,2.8,0.1,3.9,0.7c1.2,0.6,1.9,1.6,2.3,3.1c0.1,0.6,0.2,1,0.3,1.4s0.2,0.7,0.3,1.1c0.1,0.3,0.2,0.7,0.3,1.1
			C-45.8,409.8-45.7,410.3-45.6,410.9z"/>
		<path id="XMLID_19_" class="st11" d="M-29.1,400.5c0.1,0.4,0.1,0.7,0.2,1c0.1,0.2,0.1,0.4,0.1,0.5c0,0.3,0,0.6-0.2,1
			c-0.1,0.4-0.3,0.7-0.5,1s-0.4,0.6-0.7,1c-0.2,0.3-0.4,0.5-0.6,0.7c-0.4,0.7-0.9,1.2-1.3,1.6s-0.8,0.8-1.3,1
			c-0.2,0.2-0.4,0.5-0.6,0.8c-0.3,0.3-0.6,0.6-0.8,0.8c-0.3,0.3-0.5,0.5-0.7,0.7s-0.3,0.3-0.4,0.4c0.6,0.1,1.3,0.2,2.1,0.3
			c0.7,0,1.4,0.1,2.1,0.1c0.6,0,1.2,0,1.7,0s0.8,0,1-0.1c0.1,0,0.1,0,0.2,0s0.1,0,0.1,0c1,0.4,1.5,1,1.5,1.8c0,0.5-0.1,0.9-0.3,1.3
			s-0.6,0.6-1.1,0.6c-0.2,0-0.4,0-0.7,0c-0.3,0-0.6,0-1-0.1c-0.3,0-0.6,0-1-0.1c-0.3,0-0.5,0-0.7,0c-0.4,0-0.9,0-1.4,0
			c-0.6,0-1.1,0-1.6-0.1c-0.5,0-1-0.1-1.4-0.1s-0.6,0-0.7,0c-1.6-0.5-2.7-1.2-3.3-2.1c0.1-0.6,0.5-1.5,1.2-2.8
			c0.3-0.3,0.7-0.7,1-1.1c0.4-0.4,0.8-0.9,1.2-1.4c0.8-0.7,1.4-1.4,2-2s1.1-1.2,1.5-1.8c-0.1,0-0.3-0.1-0.5-0.1s-0.4,0-0.7,0
			s-0.7,0-1,0.1c-0.5,0.1-1.1,0.2-1.6,0.3c-0.7,0.1-1.2,0.2-1.3,0.2c-0.7,0-1.1-0.6-1.2-1.8c0-0.4,0-0.6-0.1-0.8
			c0-0.2,0.1-0.4,0.3-0.5s0.7-0.3,1.3-0.4s1.5-0.3,2.7-0.6c0.7,0,1.6,0,2.7,0.1C-31.7,399.8-30.5,400-29.1,400.5z"/>
		<path id="XMLID_18_" class="st8" d="M-8.5,412c-0.9,0.9-1.8,1.7-2.9,2.3c-1.1,0.6-2.2,1-3.3,1c-1,0-2.3-0.1-3.9-0.3
			c-0.6-0.3-1.1-0.7-1.7-1.2s-1.1-1-1.6-1.6s-0.9-1.2-1.2-1.9c-0.3-0.7-0.5-1.4-0.5-2.2c0-0.2,0-0.5,0-0.9s0-0.7,0.1-1.1
			c0-0.4,0-0.8,0.1-1.4c0.5-0.9,1.1-1.8,1.7-2.7c0.6-0.9,1.4-1.7,2.6-2.4c1.8-0.4,3.1-0.7,3.9-0.7c0.4,0,0.8,0,1.1,0
			s0.6,0.1,0.9,0.2c0.3,0.1,0.6,0.3,0.9,0.5c0.3,0.2,0.7,0.5,1.1,0.9c0.5,0.4,0.8,0.7,1.1,0.9s0.4,0.3,0.4,0.4
			c0.1,2.5-0.7,4.2-2.2,5.1c-0.7,0.3-1.6,0.6-2.7,0.9s-2.6,0.6-4.5,1c0.4,1,1,1.8,1.6,2.2c0.7,0.5,1.4,0.7,2.2,0.7
			c1.2,0,2.6-0.8,4.4-2.2c0.3-0.2,0.6-0.4,1-0.4s0.8,0.1,1.2,0.5c0.3,0.3,0.5,0.7,0.6,1.2C-8.2,411.3-8.3,411.6-8.5,412z
			 M-13.3,403.4c-0.6-0.8-1.2-1.2-1.9-1.2c-0.3,0-0.6,0.1-1,0.2s-0.7,0.2-1.1,0.4c-0.4,0.2-0.7,0.4-1,0.6s-0.6,0.5-0.7,0.8
			c-0.1,0.4-0.2,0.8-0.4,1.2c0.9-0.1,1.8-0.2,2.5-0.3c0.7-0.1,1.3-0.2,1.9-0.3c0.5-0.1,0.9-0.3,1.2-0.5
			C-13.6,404.1-13.4,403.8-13.3,403.4z"/>
		<path id="XMLID_17_" class="st12" d="M8.2,399.7c0.5,0.3,0.7,0.8,0.7,1.5c0,0.6-0.2,1.1-0.5,1.5s-0.7,0.6-1.3,0.6
			c-0.3,0-0.7-0.1-1-0.3c-0.4-0.2-0.7-0.3-1.1-0.3c-0.3,0-0.7,0.1-1,0.2s-0.7,0.4-1.1,0.8s-0.8,0.8-1.2,1.2c0,0.2,0,0.4,0,0.6
			s0,0.4,0,0.6c0,0.3,0,0.7,0,1c0,0.4,0,0.7-0.1,1.1c0.1,1.2,0.3,2.5,0.4,3.7c-0.1,1.2-0.7,1.9-1.9,1.9c-0.6,0-1.1-0.2-1.4-0.6
			s-0.5-0.9-0.6-1.6s-0.2-1.5-0.2-2.5c0-0.9,0-2-0.1-3.1c-0.1-1.7-0.1-2.6-0.2-2.6l0,0c-0.1-0.4-0.2-0.8-0.3-1.1
			c-0.1-0.3-0.1-0.6-0.1-0.8c0-0.5,0.2-0.9,0.5-1.2c0.4-0.3,0.9-0.5,1.6-0.5c0.5,0,1,0.3,1.6,1c0.6-0.5,1.1-0.9,1.5-1.1
			c0.3-0.2,0.6-0.4,0.9-0.5c0.2-0.1,0.5-0.2,0.7-0.2s0.5,0,0.9,0c0.3,0,0.6,0,0.9,0c0.3,0.1,0.6,0.1,0.9,0.2
			C7.2,399.5,7.7,399.6,8.2,399.7z"/>
		<path id="XMLID_16_" class="st9" d="M46.1,400.9c-0.1,0.5-0.2,0.9-0.3,1.3s-0.2,0.7-0.5,1c-0.2,0.3-0.5,0.7-0.8,1
			s-0.8,0.7-1.3,1.2c-1.4,1.1-2.8,1.7-4.4,1.9c-0.4,0.1-0.8,0.3-1.4,0.4c-0.6,0.2-1.3,0.3-2.1,0.5c0,0.9,0,1.8,0,2.6
			c0,0.4,0.1,0.8,0.1,1.1c0,0.4,0,0.8,0,1.3c0,0.3,0,0.7,0,1.1s-0.1,0.7-0.2,1c-0.1,0.3-0.3,0.6-0.6,0.8s-0.6,0.3-1.1,0.3
			s-0.9-0.1-1.1-0.3c-0.2-0.2-0.4-0.5-0.5-0.8s-0.1-0.7-0.1-1.2s0-0.9-0.1-1.5l0,0c0-0.4,0-0.8,0-1.3c0-0.4,0-1,0-1.6s0-1.4-0.1-2.3
			c0-0.1,0-0.2,0-0.2c0-0.2,0-0.4,0-0.6c0-0.3,0-0.6,0-0.9s0-0.6,0-0.8c0-0.2,0-0.4,0-0.5c0-0.2,0-0.5,0.1-0.9
			c0-0.4,0.1-0.9,0.1-1.4s0.1-1,0.1-1.4s0-0.8,0.1-1c0-0.4,0-0.8,0-1.2c0-0.4-0.1-0.7-0.1-1c0-0.1,0-0.2,0-0.5s0.1-0.6,0.1-1
			s0.1-0.7,0.2-1.1s0.2-0.7,0.2-0.9c0.8-0.3,1.7-0.5,2.8-0.4c0.1,0,0.2,0,0.3,0c1.2-0.3,2.4-0.4,3.4-0.4c0.4,0,1.5,0.2,3.3,0.6
			c0.6,0.4,1.2,0.7,1.8,1.1c0.5,0.3,0.9,0.7,1.2,1s0.5,0.7,0.7,1.2c0.2,0.4,0.3,1,0.3,1.5C46.1,399.4,46.1,400.1,46.1,400.9z
			 M42.1,401.3c0.1-0.5,0.2-1,0.2-1.4c0-0.7-0.2-1.4-0.8-2.1c-0.6-0.6-1.6-1-3-1.1c-0.7,0-1.6,0.1-3,0.5c0,0.5,0.1,1.1,0.1,1.8
			c0,0.7,0,1.6-0.1,2.5c0,0.1-0.1,0.3-0.1,0.8c0,0.2,0,0.5,0,0.9c0,0.3,0,0.7,0,1.2c0.2,0,0.5-0.1,0.9-0.1c0.3-0.1,0.6-0.1,0.9-0.2
			c0.3-0.1,0.6-0.2,1-0.3C40.2,403.5,41.5,402.6,42.1,401.3z"/>
		<path id="XMLID_15_" class="st10" d="M65.1,411.4c0.5,0.4,0.7,0.8,0.6,1.2c0,0.2-0.1,0.5-0.3,0.7c-0.2,0.2-0.4,0.5-0.6,0.6
			c-0.2,0.2-0.5,0.3-0.7,0.4c-0.3,0.1-0.5,0.2-0.8,0.1c-0.2-0.1-0.5-0.3-0.7-0.5c-0.3-0.2-0.6-0.5-0.9-0.8c-0.3-0.3-0.5-0.6-0.8-0.9
			c-0.2-0.3-0.4-0.7-0.5-1c-0.1,0.2-0.2,0.4-0.3,0.7c-0.6,0.9-1.5,1.8-2.7,2.6c-1.4,0.1-2.2,0.2-2.4,0.2c-0.5,0-1.1-0.2-1.9-0.4
			c-0.7-0.6-1.4-1.2-2.2-1.7c-0.9-1-1.4-2.3-1.3-3.9c0-0.6,0.2-1.2,0.4-1.9s0.5-1.4,0.9-2c0.4-0.7,0.9-1.3,1.4-2
			c0.5-0.6,1.2-1.2,1.9-1.7c0.8-0.2,1.6-0.4,2.4-0.6c0.8-0.1,1.4-0.2,1.8-0.3c0.6-0.5,1.2-0.8,2-0.7c0.4,0,0.8,0.3,1.1,0.7
			c0.3,0.4,0.5,0.9,0.7,1.5s0.3,1.3,0.4,2c0.1,0.7,0.1,1.4,0.1,2.1c0.1,0.7,0.2,1.5,0.4,2.2c0.1,0.7,0.3,1.3,0.7,1.8
			C64.2,410.5,64.5,411,65.1,411.4z M59.2,406.4c-0.1,0-0.2-0.9-0.4-2.6c-0.1,0-0.4,0-0.6,0c-0.3,0-0.6,0-1,0.1s-0.8,0.3-1.3,0.7
			c-0.5,0.3-0.9,0.9-1.3,1.6c-0.7,1-1,2-1.1,3.1c0.4,0.9,1.1,1.7,2.1,2.3c0.3-0.1,0.6-0.1,0.8-0.2s0.4-0.2,0.6-0.4
			c0.2-0.2,0.4-0.4,0.5-0.7c0.2-0.3,0.4-0.6,0.6-1c0.4-0.6,0.7-1.1,0.9-1.6C59.1,407.1,59.2,406.7,59.2,406.4z"/>
		<path id="XMLID_14_" class="st11" d="M81.8,404c0.4,0.3,0.6,0.8,0.5,1.6c-0.1,0.6-0.3,1-0.6,1.4c-0.4,0.4-0.8,0.5-1.3,0.5
			c-0.3,0-0.7-0.2-1-0.4c-0.3-0.2-0.7-0.3-1.1-0.4c-0.3,0-0.7,0-1,0.1s-0.7,0.3-1.2,0.7c-0.5,0.4-0.9,0.7-1.4,1.1c0,0.2,0,0.4,0,0.6
			s0,0.4,0,0.6c0,0.3-0.1,0.7-0.1,1c0,0.4-0.1,0.7-0.2,1.1c0,1.2,0,2.5,0,3.7c-0.2,1.2-0.9,1.8-2.1,1.7c-0.6-0.1-1.1-0.3-1.3-0.7
			c-0.3-0.4-0.4-1-0.5-1.7c0-0.7,0-1.5,0.1-2.5c0.1-0.9,0.2-2,0.3-3.1c0.1-1.7,0.1-2.6,0.1-2.6l0,0c-0.1-0.4-0.1-0.8-0.1-1.1
			c0-0.3,0-0.6,0-0.8c0-0.5,0.3-0.9,0.7-1.1c0.4-0.3,0.9-0.4,1.6-0.3c0.5,0,0.9,0.4,1.5,1.2c0.7-0.4,1.2-0.7,1.6-0.9
			c0.4-0.2,0.7-0.4,0.9-0.4c0.2-0.1,0.5-0.1,0.7-0.1s0.5,0,0.9,0.1c0.3,0,0.6,0.1,0.9,0.1c0.3,0.1,0.5,0.2,0.8,0.3
			C80.8,403.7,81.3,403.9,81.8,404z"/>
		<path id="XMLID_13_" class="st8" d="M96.9,404.4c0.3,0.3,0.4,0.7,0.3,1.4c-0.2,1.2-0.7,1.7-1.6,1.6c-0.1,0-0.1,0-0.2,0
			c-0.4,0-0.9-0.1-1.5-0.1s-1.2,0-1.9,0c-0.1,0.4-0.2,1-0.4,1.7c-0.1,0.7-0.3,1.5-0.4,2.6c0,0.1,0,0.2,0,0.2c0,0.1,0,0.2,0,0.3
			c-0.1,0.6-0.2,1.2-0.2,1.8c-0.1,0.4,0,0.8,0.1,1.1c0.1,0.3,0.3,0.5,0.5,0.6c0.4,0.2,0.7,0.3,1.1,0.5c0.9,0.4,1.3,1,1.2,1.8
			c-0.1,0.5-0.3,0.8-0.7,1.1s-0.9,0.4-1.5,0.3c-0.2,0-0.4-0.1-0.8-0.2s-0.8-0.3-1.2-0.5c-0.4-0.2-0.8-0.5-1.1-0.7
			c-0.3-0.3-0.6-0.6-0.7-0.9c-0.2-0.7-0.4-1.3-0.5-2s-0.1-1.4,0-2.2c0.1-0.8,0.2-1.4,0.3-1.8c0.1-0.3,0.1-0.7,0.2-0.9
			c0.1-0.3,0.1-0.6,0.2-1s0.2-1,0.3-1.8c-0.5,0-1.3,0.1-2.4,0.2c-0.6-0.1-1.1-0.3-1.5-0.6c-0.4-0.4-0.6-0.8-0.5-1.3
			c0-0.4,0.2-0.7,0.5-1s0.8-0.5,1.6-0.7c0.3-0.1,0.5-0.1,0.7-0.1s0.4,0,0.6,0s0.4,0,0.7,0c0.2,0,0.6,0,0.9,0
			c0.1-0.7,0.2-1.4,0.4-2.3c0.2-0.8,0.4-1.6,0.7-2.3c0.3-0.7,0.6-1.3,1-1.7c0.4-0.5,0.9-0.6,1.5-0.6c1,0.1,1.6,0.6,1.7,1.6
			c0,0-0.1,0.2-0.2,0.5s-0.2,0.7-0.4,1.1c-0.1,0.4-0.3,0.8-0.4,1.1c-0.1,0.4-0.2,0.6-0.2,0.7c-0.1,0.7-0.2,1.3-0.4,2
			c0.2,0,0.4,0,0.6,0s0.3,0,0.6,0c0.1,0,0.3,0,0.4,0c0.2,0,0.4,0,0.6,0s0.3,0,0.5,0C96.1,404.1,96.6,404.2,96.9,404.4z"/>
		<path id="XMLID_12_" class="st12" d="M115.6,409.6c-0.1,0.6-0.2,1-0.3,1.2c-0.1,0.2-0.2,0.5-0.3,0.7c-0.2,0.3-0.4,0.6-0.8,1.1
			s-0.9,1.3-1.6,2.4c-0.4,1.2-1.2,2.4-2.2,3.5c-0.6,1.2-1.3,2.1-1.9,2.6c-0.1,0.2-0.4,0.6-0.7,1c-0.4,0.5-0.8,1-1.2,1.5
			c-0.4,0.5-0.8,1-1.2,1.5c-0.4,0.5-0.7,0.9-0.9,1.2c-0.1,0.1-0.2,0.3-0.5,0.6c-0.2,0.3-0.5,0.6-0.8,0.9s-0.6,0.6-1,0.8
			c-0.4,0.2-0.7,0.3-1.1,0.3c-0.5-0.1-0.9-0.3-1.3-0.7c-0.4-0.4-0.5-0.8-0.5-1.2c0-0.2,0.2-0.5,0.4-0.8c0.2-0.3,0.5-0.6,0.8-1
			s0.7-0.7,1-1.1c0.4-0.4,0.7-0.7,0.9-1c0.1-0.2,0.3-0.5,0.6-0.9s0.6-0.8,0.9-1.2c0.3-0.4,0.6-0.9,0.9-1.3s0.5-0.7,0.6-1
			c-0.1-0.1-0.2-0.2-0.4-0.5c-0.2-0.3-0.4-0.5-0.6-0.8s-0.5-0.6-0.7-0.9s-0.5-0.5-0.7-0.6c-0.2-0.5-0.5-0.8-0.6-1.1
			c-0.2-0.3-0.4-0.5-0.5-0.7c-0.2-0.2-0.3-0.4-0.5-0.6s-0.3-0.4-0.5-0.8c-0.2-0.3-0.4-0.8-0.7-1.3c-0.3-0.5-0.6-1.2-1-2.1
			c0-0.1,0-0.2,0-0.4c0.1-0.5,0.3-1,0.8-1.4s0.9-0.5,1.4-0.5c0.3,0,0.6,0.2,1,0.6c0.3,0.3,0.7,0.9,1.1,1.7c0.4,0.9,0.7,1.5,1,1.9
			c0.2,0.4,0.4,0.8,0.6,1c0.2,0.3,0.4,0.5,0.6,0.7s0.5,0.6,0.9,1.1c0.3,0.2,0.7,0.7,1.2,1.4c0.7-1.2,1.4-2.4,2.1-3.7
			c0.4-0.7,0.8-1.3,1.3-2c0.4-0.7,0.8-1.4,1-2c0.7-0.3,1.3-0.4,1.9-0.3C115.1,408,115.6,408.6,115.6,409.6z"/>
	</g>
	<g id="lines">
	</g>
</g>
</svg>
