<?xml version="1.0" encoding="utf-8"?>
<!-- Generator: Adobe Illustrator 19.0.0, SVG Export Plug-In . SVG Version: 6.00 Build 0)  -->
<svg version="1.1" id="Ebene_1" xmlns="http://www.w3.org/2000/svg" xmlns:xlink="http://www.w3.org/1999/xlink" x="0px" y="0px"
	 viewBox="-145 387.2 304.3 66.7" style="enable-background:new -145 387.2 304.3 66.7;" xml:space="preserve">
<style type="text/css">
	.st0{fill:#FCFCFC;stroke:#000000;stroke-width:2;stroke-linecap:round;stroke-linejoin:round;stroke-miterlimit:10;}
	.st1{fill:#C6C6C6;stroke:#000000;stroke-width:2;stroke-linecap:round;stroke-linejoin:round;stroke-miterlimit:10;}
	.st2{fill:#14AD85;}
	.st3{fill:#1DBAE0;}
	.st4{fill:#EA5455;}
	.st5{fill:#C474AE;}
	.st6{fill:#F59D48;}
</style>
<g id="Banner">
	<path id="right_x5F_main" class="st0" d="M111.6,445.6c13,1.5,26,3.2,38.9,5.3c-3.3-7.4-6.6-14.8-10-22.2
		c5.4-6.1,10.9-12.2,16.4-18.3c-13.5-2.1-27.1-4-40.6-5.5C114.6,418.5,113.1,432,111.6,445.6z"/>
	<path id="right_x5F_shadow" class="st1" d="M125.9,439.4c-4.8,2-9.6,4.1-14.3,6.2l0.9-7.8l13.5,1.6"/>
	<path id="left_x5F_main" class="st0" d="M-97.2,445.6c-13,1.5-26,3.2-38.9,5.3c3.3-7.4,6.6-14.8,10-22.2
		c-5.3-6.2-10.8-12.3-16.4-18.3c13.5-2.1,27.1-4,40.6-5.5C-100.3,418.5-98.8,432-97.2,445.6z"/>
	<path id="left_x5F_shadow" class="st1" d="M-111.5,439.4c4.8,2,9.6,4.1,14.3,6.2l-0.9-7.8L-111.5,439.4z"/>
	<path id="main" class="st0" d="M126,439.4c-78.9-10.2-158.7-10.2-237.5,0c-1.7-13.6-3.5-27.1-5.2-40.7c82.3-10.6,165.7-10.6,248,0
		C129.5,412.3,127.7,425.8,126,439.4z"/>
</g>
<g id="Schrift">
	<path id="XMLID_197_" class="st2" d="M-85.1,411c0,0.5,0,0.9,0,1.3s-0.1,0.8-0.2,1.1c-0.1,0.4-0.4,0.7-0.6,1.1
		c-0.3,0.4-0.6,0.9-1.1,1.4c-1.1,1.4-2.5,2.3-4,2.7c-0.3,0.2-0.8,0.4-1.3,0.7c-0.6,0.3-1.2,0.6-2,0.9c0.2,0.9,0.3,1.7,0.5,2.6
		c0.1,0.4,0.2,0.7,0.3,1.1c0.1,0.4,0.2,0.8,0.2,1.2c0,0.3,0.1,0.7,0.2,1c0.1,0.4,0.1,0.7,0,1.1c0,0.3-0.2,0.6-0.4,0.9
		c-0.2,0.3-0.6,0.4-1.1,0.5c-0.5,0.1-0.9,0-1.2-0.1s-0.5-0.4-0.6-0.7c-0.1-0.3-0.2-0.7-0.3-1.2c-0.2-0.4-0.3-0.9-0.5-1.4l0,0
		c-0.1-0.3-0.2-0.8-0.3-1.2s-0.2-0.9-0.3-1.6c-0.1-0.6-0.3-1.4-0.5-2.2c0-0.1,0-0.2,0-0.2c0-0.2-0.1-0.4-0.1-0.6
		c-0.1-0.3-0.1-0.5-0.2-0.8c-0.1-0.3-0.1-0.5-0.2-0.8c0-0.2-0.1-0.4-0.1-0.5c0-0.2-0.1-0.5-0.1-0.9c-0.1-0.4-0.1-0.9-0.2-1.4
		c-0.1-0.5-0.1-1-0.2-1.4c-0.1-0.4-0.1-0.8-0.1-1c-0.1-0.4-0.1-0.8-0.2-1.2c-0.1-0.3-0.2-0.7-0.3-0.9c0-0.1,0-0.2-0.1-0.5
		c0-0.3-0.1-0.6-0.1-1s0-0.7,0-1.1s0-0.7,0.1-0.9c0.7-0.5,1.6-0.8,2.6-0.9c0.1,0,0.2,0,0.3-0.1c1.2-0.5,2.3-0.9,3.3-1
		c0.4-0.1,1.5-0.1,3.4,0c0.7,0.2,1.3,0.5,2,0.7c0.5,0.2,1,0.5,1.4,0.7c0.4,0.3,0.7,0.6,0.9,1c0.3,0.4,0.5,0.9,0.6,1.4
		C-85.4,409.5-85.2,410.2-85.1,411z M-89,412.1c0-0.5,0-1-0.1-1.4c-0.1-0.7-0.5-1.3-1.2-1.9c-0.7-0.5-1.8-0.7-3.2-0.5
		c-0.6,0.1-1.6,0.5-2.8,1.1c0.1,0.5,0.3,1.1,0.4,1.8c0.1,0.7,0.3,1.5,0.4,2.5c0,0.1,0,0.3,0.1,0.8c0,0.2,0.1,0.5,0.1,0.9
		c0.1,0.3,0.1,0.7,0.2,1.1c0.2-0.1,0.5-0.2,0.8-0.3c0.3-0.1,0.6-0.3,0.9-0.4c0.3-0.1,0.6-0.3,0.9-0.5
		C-90.4,414.6-89.3,413.5-89,412.1z"/>
	<path id="XMLID_194_" class="st3" d="M-64.4,417.6c0.5,0.3,0.8,0.6,0.9,1.1c0,0.2,0,0.5-0.1,0.8s-0.3,0.5-0.5,0.7
		c-0.2,0.2-0.4,0.4-0.6,0.6c-0.2,0.2-0.5,0.3-0.7,0.3c-0.2-0.1-0.5-0.2-0.8-0.3c-0.3-0.2-0.6-0.4-1-0.6c-0.3-0.2-0.6-0.5-0.9-0.8
		c-0.3-0.3-0.5-0.6-0.7-0.9c-0.1,0.2-0.1,0.5-0.2,0.7c-0.4,1-1.1,2-2.2,3c-1.3,0.4-2.1,0.6-2.3,0.6c-0.5,0.1-1.2,0.1-1.9,0
		c-0.8-0.4-1.6-0.8-2.5-1.3c-1.1-0.8-1.8-2-2-3.6c-0.1-0.6-0.1-1.2,0-1.9c0.1-0.7,0.3-1.4,0.5-2.2c0.3-0.7,0.6-1.5,1-2.2
		c0.4-0.7,0.9-1.4,1.5-2c0.8-0.4,1.5-0.7,2.3-1c0.7-0.3,1.3-0.5,1.7-0.6c0.5-0.6,1.1-1,1.8-1.1c0.4,0,0.8,0.1,1.2,0.5
		c0.4,0.4,0.7,0.8,1,1.4s0.6,1.2,0.8,1.9c0.2,0.7,0.4,1.4,0.5,2c0.3,0.7,0.5,1.4,0.8,2.1c0.2,0.7,0.6,1.2,1,1.6
		C-65.5,416.9-65,417.2-64.4,417.6z M-71.2,413.8c-0.1,0-0.4-0.8-0.9-2.5c-0.1,0-0.4,0-0.6,0.1c-0.3,0-0.6,0.1-1,0.3
		c-0.4,0.2-0.7,0.5-1.1,0.9s-0.7,1-1,1.8c-0.5,1.1-0.6,2.2-0.5,3.2c0.6,0.8,1.4,1.4,2.5,1.8c0.3-0.1,0.5-0.2,0.7-0.4
		c0.2-0.1,0.4-0.3,0.5-0.5s0.3-0.5,0.4-0.8c0.1-0.3,0.3-0.7,0.4-1.1c0.3-0.7,0.5-1.2,0.6-1.7C-71.2,414.5-71.1,414.1-71.2,413.8z"/>
	<path id="XMLID_193_" class="st4" d="M-46.4,416.2c0,0.1,0,0.2,0,0.3c0,0.2,0,0.5,0.1,0.9c0,0.4,0,0.8,0,1.3
		c-0.1,0.4-0.2,0.8-0.5,1.2c-0.2,0.3-0.6,0.5-1.2,0.6c-1.1,0.1-1.7-0.3-2-1.1c0-0.2,0-0.3,0-0.6c0-0.2,0-0.4-0.1-0.7
		c0-0.1,0-0.5-0.1-1.2s-0.1-1.4-0.3-2.2c-0.1-0.8-0.3-1.6-0.5-2.3c-0.2-0.7-0.5-1.1-0.7-1.3c-0.7-0.4-1.3-0.5-1.8-0.5
		c-0.7,0.1-1.2,0.3-1.6,0.7c-0.4,0.4-0.7,1.2-0.9,2.4c0,0.4,0,0.8,0,1.3s0,1,0,1.6c0,0.5,0.1,1,0.2,1.5s0.2,1.2,0.3,1.9
		c0,0.5-0.1,1-0.5,1.3c-0.4,0.4-0.8,0.6-1.4,0.6c-0.4,0-0.7,0-1-0.2c-0.3-0.2-0.5-0.5-0.6-0.8c-0.2-0.3-0.3-0.7-0.4-1.1
		s-0.1-0.8-0.2-1.2c0-0.3,0-0.6,0-0.9c0-0.3,0-0.6,0-1c0-1.3,0-2.6-0.1-3.9c0-0.7,0.1-1.3,0.1-2c-0.1-0.3-0.2-0.7-0.4-1
		c-0.2-0.4-0.3-0.6-0.3-0.9c0-0.5,0.1-0.9,0.4-1.3s0.8-0.7,1.4-0.7c0.4,0,0.7,0,0.9,0.1c0.2,0.1,0.6,0.5,1.1,1
		c0.5-0.3,1-0.5,1.3-0.6s0.7-0.2,1.2-0.2c1.5-0.1,2.8,0.1,3.9,0.7c1.2,0.6,1.9,1.6,2.3,3.1c0.1,0.6,0.2,1,0.3,1.4
		c0.1,0.4,0.2,0.7,0.3,1.1c0.1,0.3,0.2,0.7,0.3,1.1C-46.7,415.1-46.6,415.6-46.4,416.2z"/>
	<path id="XMLID_192_" class="st5" d="M-30,405.7c0.1,0.4,0.1,0.7,0.2,1c0.1,0.2,0.1,0.4,0.1,0.5c0,0.3,0,0.6-0.2,1
		c-0.1,0.4-0.3,0.7-0.5,1c-0.2,0.3-0.4,0.6-0.7,1c-0.2,0.3-0.4,0.5-0.6,0.7c-0.4,0.7-0.9,1.2-1.3,1.6s-0.8,0.8-1.3,1
		c-0.2,0.2-0.4,0.5-0.6,0.8c-0.3,0.3-0.6,0.6-0.8,0.8c-0.3,0.3-0.5,0.5-0.7,0.7c-0.2,0.2-0.3,0.3-0.4,0.4c0.6,0.1,1.3,0.2,2.1,0.3
		c0.7,0,1.4,0.1,2.1,0.1c0.6,0,1.2,0,1.7,0s0.8,0,1-0.1c0.1,0,0.1,0,0.2,0s0.1,0,0.1,0c1,0.4,1.5,1,1.5,1.8c0,0.5-0.1,0.9-0.3,1.3
		c-0.2,0.4-0.6,0.6-1.1,0.6c-0.2,0-0.4,0-0.7,0c-0.3,0-0.6,0-1-0.1c-0.3,0-0.6,0-1-0.1c-0.3,0-0.5,0-0.7,0c-0.4,0-0.9,0-1.4,0
		c-0.6,0-1.1,0-1.6-0.1c-0.5,0-1-0.1-1.4-0.1s-0.6,0-0.7,0c-1.6-0.5-2.7-1.2-3.3-2.1c0.1-0.6,0.5-1.5,1.2-2.8c0.3-0.3,0.7-0.7,1-1.1
		c0.4-0.4,0.8-0.9,1.2-1.4c0.8-0.7,1.4-1.4,2-2s1.1-1.2,1.5-1.8c-0.1,0-0.3-0.1-0.5-0.1s-0.4,0-0.7,0c-0.3,0-0.7,0-1,0.1
		c-0.5,0.1-1.1,0.2-1.6,0.3c-0.7,0.1-1.2,0.2-1.3,0.2c-0.7,0-1.1-0.6-1.2-1.8c0-0.4,0-0.6-0.1-0.8c0-0.2,0.1-0.4,0.3-0.5
		c0.2-0.1,0.7-0.3,1.3-0.4c0.6-0.1,1.5-0.3,2.7-0.6c0.7,0,1.6,0,2.7,0.1C-32.6,405-31.4,405.2-30,405.7z"/>
	<path id="XMLID_189_" class="st6" d="M-9.3,417.1c-0.9,0.9-1.8,1.7-2.9,2.3c-1.1,0.6-2.2,1-3.3,1c-1,0-2.3-0.1-3.9-0.3
		c-0.6-0.3-1.1-0.7-1.7-1.2s-1.1-1-1.6-1.6c-0.5-0.6-0.9-1.2-1.2-1.9c-0.3-0.7-0.5-1.4-0.5-2.2c0-0.2,0-0.5,0-0.9
		c0-0.4,0-0.7,0.1-1.1c0-0.4,0-0.8,0.1-1.4c0.5-0.9,1.1-1.8,1.7-2.7s1.4-1.7,2.6-2.4c1.8-0.4,3.1-0.7,3.9-0.7c0.4,0,0.8,0,1.1,0
		s0.6,0.1,0.9,0.2c0.3,0.1,0.6,0.3,0.9,0.5c0.3,0.2,0.7,0.5,1.1,0.9c0.5,0.4,0.8,0.7,1.1,0.9s0.4,0.3,0.4,0.4
		c0.1,2.5-0.7,4.2-2.2,5.1c-0.7,0.3-1.6,0.6-2.7,0.9c-1.1,0.3-2.6,0.6-4.5,1c0.4,1,1,1.8,1.6,2.2c0.7,0.5,1.4,0.7,2.2,0.7
		c1.2,0,2.6-0.8,4.4-2.2c0.3-0.2,0.6-0.4,1-0.4s0.8,0.1,1.2,0.5c0.3,0.3,0.5,0.7,0.6,1.2C-9,416.4-9.1,416.7-9.3,417.1z
		 M-14.2,408.5c-0.6-0.8-1.2-1.2-1.9-1.2c-0.3,0-0.6,0.1-1,0.2c-0.4,0.1-0.7,0.2-1.1,0.4c-0.4,0.2-0.7,0.4-1,0.6s-0.6,0.5-0.7,0.8
		c-0.1,0.4-0.2,0.8-0.4,1.2c0.9-0.1,1.8-0.2,2.5-0.3c0.7-0.1,1.3-0.2,1.9-0.3c0.5-0.1,0.9-0.3,1.2-0.5
		C-14.5,409.2-14.3,408.9-14.2,408.5z"/>
	<path id="XMLID_188_" class="st3" d="M7.3,404.7c0.5,0.3,0.7,0.8,0.7,1.5c0,0.6-0.2,1.1-0.5,1.5c-0.3,0.4-0.7,0.6-1.3,0.6
		c-0.3,0-0.7-0.1-1-0.3c-0.4-0.2-0.7-0.3-1.1-0.3c-0.3,0-0.7,0.1-1,0.2s-0.7,0.4-1.1,0.8c-0.4,0.4-0.8,0.8-1.2,1.2
		c0,0.2,0,0.4,0,0.6s0,0.4,0,0.6c0,0.3,0,0.7,0,1c0,0.4,0,0.7-0.1,1.1c0.1,1.2,0.3,2.5,0.4,3.7c-0.1,1.2-0.7,1.9-1.9,1.9
		c-0.6,0-1.1-0.2-1.4-0.6c-0.3-0.4-0.5-0.9-0.6-1.6c-0.1-0.7-0.2-1.5-0.2-2.5c0-0.9,0-2-0.1-3.1c-0.1-1.7-0.1-2.6-0.2-2.6l0,0
		c-0.1-0.4-0.2-0.8-0.3-1.1c-0.1-0.3-0.1-0.6-0.1-0.8c0-0.5,0.2-0.9,0.5-1.2c0.4-0.3,0.9-0.5,1.6-0.5c0.5,0,1,0.3,1.6,1
		c0.6-0.5,1.1-0.9,1.5-1.1c0.3-0.2,0.6-0.4,0.9-0.5c0.2-0.1,0.5-0.2,0.7-0.2s0.5,0,0.9,0c0.3,0,0.6,0,0.9,0c0.3,0.1,0.6,0.1,0.9,0.2
		C6.3,404.5,6.8,404.6,7.3,404.7z"/>
	<path id="XMLID_185_" class="st2" d="M45.2,405.7c-0.1,0.5-0.2,0.9-0.3,1.3s-0.2,0.7-0.5,1c-0.2,0.3-0.5,0.7-0.8,1
		s-0.8,0.7-1.3,1.2c-1.4,1.1-2.8,1.7-4.4,1.9c-0.4,0.1-0.8,0.3-1.4,0.4c-0.6,0.2-1.3,0.3-2.1,0.5c0,0.9,0,1.8,0,2.6
		c0,0.4,0.1,0.8,0.1,1.1c0,0.4,0,0.8,0,1.3c0,0.3,0,0.7,0,1.1s-0.1,0.7-0.2,1c-0.1,0.3-0.3,0.6-0.6,0.8c-0.3,0.2-0.6,0.3-1.1,0.3
		s-0.9-0.1-1.1-0.3c-0.2-0.2-0.4-0.5-0.5-0.8c-0.1-0.3-0.1-0.7-0.1-1.2s0-0.9-0.1-1.5l0,0c0-0.4,0-0.8,0-1.3c0-0.4,0-1,0-1.6
		s0-1.4-0.1-2.3c0-0.1,0-0.2,0-0.2c0-0.2,0-0.4,0-0.6c0-0.3,0-0.6,0-0.9s0-0.6,0-0.8c0-0.2,0-0.4,0-0.5c0-0.2,0-0.5,0.1-0.9
		c0-0.4,0.1-0.9,0.1-1.4s0.1-1,0.1-1.4s0-0.8,0.1-1c0-0.4,0-0.8,0-1.2c0-0.4-0.1-0.7-0.1-1c0-0.1,0-0.2,0-0.5c0-0.3,0.1-0.6,0.1-1
		c0-0.4,0.1-0.7,0.2-1.1c0.1-0.4,0.2-0.7,0.2-0.9c0.8-0.3,1.7-0.5,2.8-0.4c0.1,0,0.2,0,0.3,0c1.2-0.3,2.4-0.4,3.4-0.4
		c0.4,0,1.5,0.2,3.3,0.6c0.6,0.4,1.2,0.7,1.8,1.1c0.5,0.3,0.9,0.7,1.2,1c0.3,0.3,0.5,0.7,0.7,1.2c0.2,0.4,0.3,1,0.3,1.5
		C45.2,404.2,45.2,404.9,45.2,405.7z M41.2,406.1c0.1-0.5,0.2-1,0.2-1.4c0-0.7-0.2-1.4-0.8-2.1c-0.6-0.6-1.6-1-3-1.1
		c-0.7,0-1.6,0.1-3,0.5c0,0.5,0.1,1.1,0.1,1.8c0,0.7,0,1.6-0.1,2.5c0,0.1-0.1,0.3-0.1,0.8c0,0.2,0,0.5,0,0.9c0,0.3,0,0.7,0,1.2
		c0.2,0,0.5-0.1,0.9-0.1c0.3-0.1,0.6-0.1,0.9-0.2c0.3-0.1,0.6-0.2,1-0.3C39.3,408.3,40.6,407.4,41.2,406.1z"/>
	<path id="XMLID_182_" class="st3" d="M64.3,416.1c0.5,0.4,0.7,0.8,0.6,1.2c0,0.2-0.1,0.5-0.3,0.7s-0.4,0.5-0.6,0.6
		c-0.2,0.2-0.5,0.3-0.7,0.4c-0.3,0.1-0.5,0.2-0.8,0.1c-0.2-0.1-0.5-0.3-0.7-0.5c-0.3-0.2-0.6-0.5-0.9-0.8c-0.3-0.3-0.5-0.6-0.8-0.9
		c-0.2-0.3-0.4-0.7-0.5-1c-0.1,0.2-0.2,0.4-0.3,0.7c-0.6,0.9-1.5,1.8-2.7,2.6c-1.4,0.1-2.2,0.2-2.4,0.2c-0.5,0-1.1-0.2-1.9-0.4
		c-0.7-0.6-1.4-1.2-2.2-1.7c-0.9-1-1.4-2.3-1.3-3.9c0-0.6,0.2-1.2,0.4-1.9s0.5-1.4,0.9-2c0.4-0.7,0.9-1.3,1.4-2
		c0.5-0.6,1.2-1.2,1.9-1.7c0.8-0.2,1.6-0.4,2.4-0.6c0.8-0.1,1.4-0.2,1.8-0.3c0.6-0.5,1.2-0.8,2-0.7c0.4,0,0.8,0.3,1.1,0.7
		s0.5,0.9,0.7,1.5s0.3,1.3,0.4,2c0.1,0.7,0.1,1.4,0.1,2.1c0.1,0.7,0.2,1.5,0.4,2.2c0.1,0.7,0.3,1.3,0.7,1.8
		C63.3,415.2,63.7,415.7,64.3,416.1z M58.3,411.1c-0.1,0-0.2-0.9-0.4-2.6c-0.1,0-0.4,0-0.6,0c-0.3,0-0.6,0-1,0.1s-0.8,0.3-1.3,0.7
		c-0.5,0.3-0.9,0.9-1.3,1.6c-0.7,1-1,2-1.1,3.1c0.4,0.9,1.1,1.7,2.1,2.3c0.3-0.1,0.6-0.1,0.8-0.2s0.4-0.2,0.6-0.4
		c0.2-0.2,0.4-0.4,0.5-0.7c0.2-0.3,0.4-0.6,0.6-1c0.4-0.6,0.7-1.1,0.9-1.6C58.2,411.8,58.3,411.4,58.3,411.1z"/>
	<path id="XMLID_181_" class="st4" d="M80.9,408.6c0.4,0.3,0.6,0.8,0.5,1.6c-0.1,0.6-0.3,1-0.6,1.4c-0.4,0.4-0.8,0.5-1.3,0.5
		c-0.3,0-0.7-0.2-1-0.4c-0.3-0.2-0.7-0.3-1.1-0.4c-0.3,0-0.7,0-1,0.1s-0.7,0.3-1.2,0.7s-0.9,0.7-1.4,1.1c0,0.2,0,0.4,0,0.6
		c0,0.2,0,0.4,0,0.6c0,0.3-0.1,0.7-0.1,1c0,0.4-0.1,0.7-0.2,1.1c0,1.2,0,2.5,0,3.7c-0.2,1.2-0.9,1.8-2.1,1.7
		c-0.6-0.1-1.1-0.3-1.3-0.7c-0.3-0.4-0.4-1-0.5-1.7c0-0.7,0-1.5,0.1-2.5c0.1-0.9,0.2-2,0.3-3.1c0.1-1.7,0.1-2.6,0.1-2.6l0,0
		c-0.1-0.4-0.1-0.8-0.1-1.1c0-0.3,0-0.6,0-0.8c0-0.5,0.3-0.9,0.7-1.1c0.4-0.3,0.9-0.4,1.6-0.3c0.5,0,0.9,0.4,1.5,1.2
		c0.7-0.4,1.2-0.7,1.6-0.9c0.4-0.2,0.7-0.4,0.9-0.4c0.2-0.1,0.5-0.1,0.7-0.1s0.5,0,0.9,0.1c0.3,0,0.6,0.1,0.9,0.1
		c0.3,0.1,0.5,0.2,0.8,0.3C79.9,408.3,80.4,408.5,80.9,408.6z"/>
	<path id="XMLID_180_" class="st5" d="M96,408.9c0.3,0.3,0.4,0.7,0.3,1.4c-0.2,1.2-0.7,1.7-1.6,1.6c-0.1,0-0.1,0-0.2,0
		c-0.4,0-0.9-0.1-1.5-0.1s-1.2,0-1.9,0c-0.1,0.4-0.2,1-0.4,1.7c-0.1,0.7-0.3,1.5-0.4,2.6c0,0.1,0,0.2,0,0.2c0,0.1,0,0.2,0,0.3
		c-0.1,0.6-0.2,1.2-0.2,1.8c-0.1,0.4,0,0.8,0.1,1.1s0.3,0.5,0.5,0.6c0.4,0.2,0.7,0.3,1.1,0.5c0.9,0.4,1.3,1,1.2,1.8
		c-0.1,0.5-0.3,0.8-0.7,1.1c-0.4,0.3-0.9,0.4-1.5,0.3c-0.2,0-0.4-0.1-0.8-0.2c-0.4-0.1-0.8-0.3-1.2-0.5c-0.4-0.2-0.8-0.5-1.1-0.7
		c-0.3-0.3-0.6-0.6-0.7-0.9c-0.2-0.7-0.4-1.3-0.5-2c-0.1-0.7-0.1-1.4,0-2.2s0.2-1.4,0.3-1.8c0.1-0.3,0.1-0.7,0.2-0.9
		c0.1-0.3,0.1-0.6,0.2-1c0.1-0.4,0.2-1,0.3-1.8c-0.5,0-1.3,0.1-2.4,0.2c-0.6-0.1-1.1-0.3-1.5-0.6c-0.4-0.4-0.6-0.8-0.5-1.3
		c0-0.4,0.2-0.7,0.5-1c0.3-0.3,0.8-0.5,1.6-0.7c0.3-0.1,0.5-0.1,0.7-0.1s0.4,0,0.6,0c0.2,0,0.4,0,0.7,0c0.2,0,0.6,0,0.9,0
		c0.1-0.7,0.2-1.4,0.4-2.3c0.2-0.8,0.4-1.6,0.7-2.3c0.3-0.7,0.6-1.3,1-1.7c0.4-0.5,0.9-0.6,1.5-0.6c1,0.1,1.6,0.6,1.7,1.6
		c0,0-0.1,0.2-0.2,0.5c-0.1,0.3-0.2,0.7-0.4,1.1c-0.1,0.4-0.3,0.8-0.4,1.1c-0.1,0.4-0.2,0.6-0.2,0.7c-0.1,0.7-0.2,1.3-0.4,2
		c0.2,0,0.4,0,0.6,0c0.2,0,0.3,0,0.6,0c0.1,0,0.3,0,0.4,0c0.2,0,0.4,0,0.6,0c0.2,0,0.3,0,0.5,0C95.2,408.6,95.7,408.7,96,408.9z"/>
	<path id="XMLID_179_" class="st6" d="M114.7,414c-0.1,0.6-0.2,1-0.3,1.2c-0.1,0.2-0.2,0.5-0.3,0.7c-0.2,0.3-0.4,0.6-0.8,1.1
		s-0.9,1.3-1.6,2.4c-0.4,1.2-1.2,2.4-2.2,3.5c-0.6,1.2-1.3,2.1-1.9,2.6c-0.1,0.2-0.4,0.6-0.7,1c-0.4,0.5-0.8,1-1.2,1.5
		s-0.8,1-1.2,1.5s-0.7,0.9-0.9,1.2c-0.1,0.1-0.2,0.3-0.5,0.6c-0.2,0.3-0.5,0.6-0.8,0.9c-0.3,0.3-0.6,0.6-1,0.8s-0.7,0.3-1.1,0.3
		c-0.5-0.1-0.9-0.3-1.3-0.7c-0.4-0.4-0.5-0.8-0.5-1.2c0-0.2,0.2-0.5,0.4-0.8c0.2-0.3,0.5-0.6,0.8-1c0.3-0.4,0.7-0.7,1-1.1
		c0.4-0.4,0.7-0.7,0.9-1c0.1-0.2,0.3-0.5,0.6-0.9c0.3-0.4,0.6-0.8,0.9-1.2c0.3-0.4,0.6-0.9,0.9-1.3c0.3-0.4,0.5-0.7,0.6-1
		c-0.1-0.1-0.2-0.2-0.4-0.5c-0.2-0.3-0.4-0.5-0.6-0.8c-0.2-0.3-0.5-0.6-0.7-0.9c-0.2-0.3-0.5-0.5-0.7-0.6c-0.2-0.5-0.5-0.8-0.6-1.1
		c-0.2-0.3-0.4-0.5-0.5-0.7c-0.2-0.2-0.3-0.4-0.5-0.6s-0.3-0.4-0.5-0.8c-0.2-0.3-0.4-0.8-0.7-1.3s-0.6-1.2-1-2.1c0-0.1,0-0.2,0-0.4
		c0.1-0.5,0.3-1,0.8-1.4s0.9-0.5,1.4-0.5c0.3,0,0.6,0.2,1,0.6c0.3,0.3,0.7,0.9,1.1,1.7c0.4,0.9,0.7,1.5,1,1.9c0.2,0.4,0.4,0.8,0.6,1
		c0.2,0.3,0.4,0.5,0.6,0.7c0.2,0.2,0.5,0.6,0.9,1.1c0.3,0.2,0.7,0.7,1.2,1.4c0.7-1.2,1.4-2.4,2.1-3.7c0.4-0.7,0.8-1.3,1.3-2
		c0.4-0.7,0.8-1.4,1-2c0.7-0.3,1.3-0.4,1.9-0.3C114.2,412.4,114.7,413,114.7,414z"/>
</g>
</svg>
