<?xml version="1.0" encoding="utf-8"?>
<!-- Generator: Adobe Illustrator 19.0.0, SVG Export Plug-In . SVG Version: 6.00 Build 0)  -->
<svg version="1.1" id="Ebene_1" xmlns="http://www.w3.org/2000/svg" xmlns:xlink="http://www.w3.org/1999/xlink" x="0px" y="0px"
	 viewBox="0 0 383.5 61.8" style="enable-background:new 0 0 383.5 61.8;" xml:space="preserve">
<style type="text/css">
	.st0{fill:#FCFCFC;}
</style>
<g id="XMLID_59_">
	<path id="XMLID_60_" class="st0" d="M35.2,18.6c-0.1,0.9-0.2,1.6-0.3,2.3c-0.1,0.7-0.3,1.3-0.7,1.9c-0.3,0.6-0.8,1.2-1.3,1.9
		c-0.6,0.6-1.3,1.4-2.1,2.2c-2.3,2.1-4.8,3.3-7.5,3.7c-0.6,0.2-1.4,0.5-2.4,0.8c-1,0.3-2.2,0.7-3.6,1l0.2,4.7c0.1,0.7,0.2,1.3,0.2,2
		c0,0.7,0.1,1.4,0.1,2.2c0,0.6,0,1.2,0,1.9c0,0.7-0.1,1.3-0.3,1.9c-0.2,0.6-0.5,1.1-0.9,1.4c-0.5,0.4-1.1,0.6-2,0.6
		c-0.9,0-1.6-0.2-2-0.5c-0.4-0.3-0.7-0.8-0.9-1.4c-0.1-0.6-0.2-1.3-0.3-2.1c0-0.8-0.1-1.7-0.3-2.6v0.1c0-0.6-0.1-1.4-0.1-2.2
		c0-0.8-0.1-1.7-0.1-2.8c0-1.1-0.1-2.5-0.2-4V31c0-0.3,0-0.7,0-1.2c0-0.5-0.1-1-0.1-1.5c0-0.5-0.1-1-0.1-1.4c0-0.4,0-0.7,0-0.8
		c0-0.3,0-0.8,0-1.5c0-0.7,0-1.5,0.1-2.4c0-0.9,0-1.7,0.1-2.5c0-0.8,0-1.4,0-1.8c0-0.8,0-1.5-0.1-2.1c-0.1-0.6-0.2-1.2-0.3-1.7
		c0-0.1,0-0.4,0-0.9c0-0.5,0.1-1.1,0.1-1.8c0-0.6,0.1-1.3,0.2-1.9c0.1-0.6,0.2-1.2,0.4-1.6c1.3-0.6,2.9-0.9,4.7-0.9h0.6
		c2.1-0.6,4-0.9,5.8-0.9c0.7,0,2.6,0.3,5.7,0.9l3.2,1.7c0.9,0.5,1.6,1.1,2.1,1.6c0.6,0.6,1,1.2,1.3,2c0.3,0.8,0.6,1.7,0.7,2.7
		C35.1,15.8,35.2,17.1,35.2,18.6z M28.4,19.6c0.1-0.9,0.2-1.7,0.2-2.4c0-1.3-0.5-2.5-1.6-3.6c-1.1-1.1-2.8-1.6-5.2-1.6
		c-1.1,0-2.8,0.4-5,1.2c0.1,0.9,0.2,2,0.2,3.3c0,1.3,0.1,2.7,0.1,4.4c0,0.1-0.1,0.6-0.1,1.4c0,0.4,0,0.9,0,1.5c0,0.6,0,1.3,0.1,2.1
		c0.4,0,0.9-0.1,1.5-0.3c0.6-0.1,1.1-0.3,1.5-0.5c0.5-0.2,1.1-0.4,1.7-0.7C25.3,23.6,27.5,22,28.4,19.6z"/>
	<path id="XMLID_63_" class="st0" d="M69.3,34.5c0.9,0.6,1.3,1.3,1.3,2.1c0,0.4-0.1,0.9-0.4,1.3c-0.2,0.5-0.6,0.9-0.9,1.2
		c-0.4,0.4-0.8,0.7-1.2,0.9c-0.4,0.2-0.9,0.4-1.3,0.4c-0.4-0.1-0.8-0.4-1.4-0.8c-0.5-0.4-1.1-0.8-1.6-1.2c-0.5-0.5-1-1-1.5-1.5
		c-0.5-0.6-0.8-1.2-1-1.7l-0.5,1.2c-0.9,1.7-2.4,3.4-4.3,4.9C54,41.7,52.6,42,52.3,42c-0.9,0-2-0.1-3.3-0.4l-4-2.8
		c-1.7-1.6-2.6-3.9-2.6-6.7c0-1,0.2-2.1,0.5-3.3c0.3-1.2,0.8-2.5,1.4-3.7c0.6-1.2,1.3-2.5,2.2-3.7c0.9-1.2,1.9-2.3,3-3.2
		c1.4-0.5,2.7-1,4-1.3s2.3-0.6,3-0.7c0.9-1,2-1.5,3.2-1.5c0.7,0,1.4,0.3,1.9,1c0.6,0.7,1,1.6,1.4,2.6c0.4,1.1,0.7,2.2,1,3.5
		c0.2,1.3,0.4,2.5,0.5,3.6l0.9,3.8c0.3,1.2,0.8,2.2,1.4,3.1C67.5,33.1,68.3,33.9,69.3,34.5z M58.3,26.5c-0.1,0-0.5-1.6-1.1-4.5
		c-0.2,0-0.6,0-1.1,0c-0.5,0-1,0.1-1.7,0.4c-0.6,0.3-1.3,0.7-2.1,1.4c-0.7,0.6-1.5,1.6-2.1,2.9c-1,1.9-1.5,3.7-1.5,5.6
		c0.8,1.6,2.1,2.8,3.8,3.7c0.5-0.1,1-0.3,1.3-0.5c0.4-0.2,0.7-0.5,1-0.8c0.3-0.3,0.6-0.8,0.8-1.3c0.3-0.5,0.6-1.1,0.9-1.9
		c0.6-1.1,1.1-2.1,1.3-2.9C58.2,27.8,58.3,27.1,58.3,26.5z"/>
	<path id="XMLID_66_" class="st0" d="M96.5,18.6c0.8,0.5,1.2,1.4,1.2,2.7c0,1-0.3,1.9-0.8,2.6c-0.5,0.7-1.2,1.1-2.2,1.1
		c-0.6,0-1.2-0.2-1.8-0.5C92.3,24.2,91.7,24,91,24c-0.6,0-1.1,0.1-1.7,0.3c-0.6,0.2-1.2,0.7-1.9,1.4l-2.2,2.2c0,0.3,0,0.7,0,1
		c0,0.3,0,0.7,0,1.1c0,0.6,0,1.2,0,1.8c0,0.6-0.1,1.3-0.1,2l0.6,6.6c-0.1,2.2-1.3,3.3-3.4,3.3c-1.1,0-1.9-0.3-2.4-1
		c-0.5-0.7-0.9-1.7-1.1-2.9c-0.2-1.2-0.3-2.7-0.3-4.4c0-1.7,0-3.5,0-5.5c-0.1-3-0.2-4.5-0.2-4.5v0.1c-0.2-0.7-0.3-1.4-0.4-1.9
		c-0.1-0.6-0.1-1-0.1-1.5c0-0.9,0.3-1.6,0.9-2.1c0.6-0.6,1.5-0.8,2.7-0.8c0.8,0,1.7,0.6,2.7,1.8c1.1-0.9,2-1.5,2.6-1.9
		c0.6-0.4,1.1-0.7,1.5-0.9c0.4-0.2,0.8-0.3,1.2-0.3c0.4,0,0.9,0,1.5,0c0.5,0,1,0,1.5,0.1c0.5,0.1,0.9,0.2,1.5,0.3L96.5,18.6z"/>
	<path id="XMLID_68_" class="st0" d="M122.2,15.9c0.5,0.4,0.8,1.2,0.8,2.4c0,2.1-0.8,3.2-2.4,3.2h-0.3c-0.7,0-1.6,0.1-2.5,0.2
		c-1,0.1-2,0.2-3.2,0.3c-0.1,0.8-0.2,1.8-0.3,3.1c-0.1,1.3-0.1,2.8-0.1,4.6c0,0.1,0,0.3,0,0.4c0,0.1,0,0.3,0,0.5v3.3
		c0,0.8,0.1,1.4,0.4,1.8c0.3,0.5,0.6,0.8,1,1l2,0.6c1.6,0.5,2.4,1.5,2.4,2.9c0,0.8-0.3,1.5-1,2.2c-0.6,0.6-1.5,0.9-2.5,0.9
		c-0.3,0-0.8-0.1-1.5-0.3c-0.7-0.2-1.4-0.4-2.2-0.7c-0.7-0.3-1.4-0.6-2.1-1.1c-0.6-0.4-1.1-0.9-1.3-1.4c-0.5-1.1-1-2.3-1.3-3.5
		c-0.3-1.2-0.5-2.5-0.5-3.9c0-1.5,0-2.5,0.1-3.2c0-0.6,0.1-1.2,0.1-1.7c0-0.5,0.1-1.1,0.1-1.7c0-0.7,0.1-1.8,0.1-3.3
		c-0.9,0.1-2.3,0.4-4,0.9c-1.1,0-2-0.3-2.7-0.8c-0.7-0.6-1.1-1.3-1.1-2.2c0-0.7,0.2-1.3,0.6-1.9c0.4-0.6,1.3-1.1,2.6-1.5
		c0.4-0.1,0.8-0.2,1.2-0.3c0.4,0,0.7-0.1,1.1-0.1c0.4,0,0.8-0.1,1.2-0.1c0.4,0,1-0.1,1.6-0.2c0-1.2,0.1-2.6,0.3-4.1
		c0.1-1.5,0.3-2.9,0.6-4.2c0.3-1.3,0.8-2.4,1.4-3.3c0.6-0.9,1.4-1.3,2.4-1.3c1.7,0,2.8,0.8,3.2,2.4c0,0-0.1,0.4-0.2,1
		c-0.1,0.6-0.3,1.3-0.4,2s-0.3,1.4-0.4,2.1c-0.1,0.7-0.2,1.1-0.2,1.3l-0.2,3.5c0.3,0,0.6-0.1,0.9-0.1c0.3,0,0.6,0,0.9,0h0.6
		c0.3,0,0.6,0,0.9,0c0.3,0,0.6,0,0.8,0C120.7,15.5,121.7,15.6,122.2,15.9z"/>
	<path id="XMLID_70_" class="st0" d="M155,21.9c0,1.1-0.1,1.8-0.1,2.2c0,0.4-0.2,0.9-0.4,1.4c-0.2,0.5-0.6,1.2-1,2.2
		c-0.5,1-1.2,2.5-2,4.6c-0.4,2.3-1.3,4.5-2.9,6.7c-0.8,2.4-1.6,4-2.6,5c-0.1,0.4-0.5,1.1-1,2c-0.5,0.9-1.1,1.9-1.7,2.9
		c-0.6,1-1.2,2-1.7,3c-0.6,1-0.9,1.7-1.2,2.3c-0.1,0.2-0.3,0.7-0.6,1.3c-0.3,0.6-0.7,1.2-1.2,1.8c-0.5,0.6-1,1.2-1.6,1.7
		c-0.6,0.5-1.2,0.8-1.8,0.8c-0.9,0-1.7-0.3-2.4-0.8c-0.7-0.6-1.1-1.2-1.1-2c0-0.4,0.2-0.9,0.5-1.5c0.3-0.6,0.7-1.2,1.2-1.9
		c0.5-0.7,1-1.4,1.5-2.2c0.5-0.7,1-1.4,1.4-2.1c0.1-0.4,0.4-1,0.8-1.7c0.4-0.8,0.8-1.6,1.3-2.4c0.5-0.8,0.9-1.7,1.3-2.4
		c0.4-0.8,0.7-1.4,0.8-1.8c-0.1-0.1-0.4-0.3-0.8-0.8c-0.4-0.4-0.8-0.8-1.3-1.3c-0.5-0.5-0.9-0.9-1.4-1.3c-0.5-0.4-0.9-0.7-1.3-0.9
		c-0.5-0.8-1-1.4-1.4-1.8c-0.4-0.4-0.7-0.8-1-1.1c-0.3-0.3-0.6-0.6-1-0.9c-0.3-0.3-0.7-0.7-1.1-1.2c-0.4-0.5-0.9-1.2-1.5-2.1
		c-0.6-0.9-1.3-2-2.1-3.5c0-0.1-0.1-0.4-0.1-0.6c0-1,0.3-1.8,1-2.6c0.7-0.8,1.4-1.2,2.2-1.2c0.5,0,1.1,0.3,1.8,0.8
		c0.7,0.5,1.4,1.4,2.3,2.7c0.9,1.4,1.6,2.5,2.1,3.2c0.5,0.7,0.9,1.2,1.3,1.6c0.4,0.4,0.7,0.8,1.2,1.2c0.4,0.4,1,0.9,1.8,1.8
		c0.6,0.3,1.3,1,2.3,2.1l2.6-7c0.5-1.2,1.1-2.5,1.6-3.9c0.6-1.3,0.9-2.6,1.1-3.8c1.1-0.7,2.1-1.1,3.2-1.1
		C153.7,19.3,154.7,20.1,155,21.9z"/>
	<path id="XMLID_72_" class="st0" d="M218.4,28.3v0.4c0,0.8-0.1,1.5-0.3,2.2c-0.1,0.7-0.3,1.4-0.7,2.2l-1.4,3.1
		c-0.4,0.5-1,1.1-1.8,1.7c-0.8,0.6-1.7,1.2-2.7,1.7c-1,0.5-1.9,1-2.9,1.3c-1,0.4-1.8,0.5-2.4,0.5h-0.7c-0.2,0-0.6,0-1,0.1
		c-0.4,0.1-0.8,0.2-1.2,0.3c-0.4,0.1-0.8,0.2-1.1,0.3c-0.3,0.1-0.6,0.1-0.7,0.1c0,0.7,0,1.2,0,1.4c0,0.2,0,0.6-0.1,1
		c0,0.5,0,1.2-0.1,2.3c0,1.1,0,2.8,0,5.2c0,0.7-0.1,1.5-0.2,2.4c-0.1,0.9-0.3,2-0.6,3.2c-0.6,0.5-1.4,0.8-2.4,0.8
		c-1,0-1.7-0.2-2.2-0.6c-0.5-0.4-0.8-1-1-1.6c-0.2-0.6-0.2-1.2-0.2-1.8c0-0.6,0-1.1,0-1.5c0-0.9,0-1.6,0.1-2.2
		c0.1-0.6,0.1-1.3,0.1-2.3c0-0.5,0-1.1,0-1.7c0-0.6,0-1.3,0-2c0-1.1,0-2.1,0.1-3.1c0.1-1,0.2-1.9,0.3-2.8c-0.2-1-0.3-2.6-0.3-5
		c0-2.1,0.1-3.8,0.4-5.2c-0.3-1.5-0.5-2.9-0.6-4c-0.1-1.1-0.2-2-0.2-2.7c0-1.1,0.3-1.9,0.8-2.4c0.5-0.5,1.4-0.8,2.7-0.8
		c0.9,0,1.5,0.2,2,0.5l0.7,0.9c0.9-0.5,1.9-0.9,3.2-1.2c1.2-0.3,2.6-0.5,4-0.5c3.3,0,5.8,0.8,7.6,2.3
		C217.3,22.6,218.3,25,218.4,28.3z M211.7,30.1c0.1-0.8,0.2-1.4,0.2-1.9c0-0.9-0.3-1.6-0.9-2.2c-0.6-0.6-1.5-0.9-2.8-0.9h-0.7
		c-1,0-1.6,0-1.9-0.1c-1.2,0.1-2.5,0.9-4,2.2c0,0.1,0,0.4,0.1,0.9c0,0.5,0.1,1.2,0.1,2c0,1.1-0.1,2-0.2,2.8
		c-0.1,0.8-0.2,1.5-0.2,2.1c0,0.2,0,0.5,0,0.8s0.1,0.4,0.2,0.4s0.4,0,0.8-0.1c0.4-0.1,0.8-0.2,1.2-0.3c0.4-0.1,0.8-0.2,1.1-0.3
		c0.4-0.1,0.6-0.1,0.7-0.1c0.3,0,0.6-0.1,1-0.2c0.4-0.1,0.8-0.3,1.2-0.4c0.4-0.1,0.8-0.3,1.1-0.4c0.3-0.1,0.5-0.2,0.7-0.2
		C210.5,33.1,211.3,31.8,211.7,30.1z"/>
	<path id="XMLID_75_" class="st0" d="M238.4,5.2c-0.1,1.2-0.4,2.6-0.8,4.1c-0.5,1.5-0.8,2.7-1,3.7v0.9c0,0.7,0,1.4-0.1,2.2
		c-0.1,0.8-0.2,1.5-0.3,2.2c-0.1,0.7-0.2,1.3-0.3,1.8c-0.1,0.5-0.2,0.9-0.2,1.1c0,0.2-0.1,0.8-0.1,1.7c0,0.9,0,2.1,0,3.7v0.9
		c0,1,0,1.8-0.1,2.5c-0.1,0.7-0.2,1.4-0.4,1.9l0.6,5.4c0.2,0.5,0.8,1.3,1.9,2.4c-0.2,0.9-0.9,1.6-1.9,2.3c-1,0.7-2,1-3.1,1
		c-1.4,0-2.5-0.7-3.3-2.1c-0.7-1.4-1.1-3.7-1.1-6.9c0-0.5,0-1,0.1-1.4c0.1-0.4,0.1-0.9,0.1-1.4c0-1.2-0.1-2.6-0.4-4.3
		c0.2-0.5,0.4-1.2,0.5-2c0.1-0.8,0.2-1.6,0.3-2.3c0-0.7,0.1-1.4,0.1-1.9c0-0.5,0-0.7,0-0.6c0,0,0.1-0.3,0.2-1
		c0.1-0.7,0.3-1.6,0.4-2.6c0.1-1,0.3-2,0.4-3.1c0.1-1.1,0.2-1.9,0.2-2.5v-0.6l1.2-6c0.6-1.1,1.7-1.6,3.2-1.6
		C236.2,2.6,237.5,3.5,238.4,5.2z"/>
	<path id="XMLID_77_" class="st0" d="M274.8,34.5c0.9,0.6,1.3,1.3,1.3,2.1c0,0.4-0.1,0.9-0.4,1.3c-0.2,0.5-0.6,0.9-0.9,1.2
		c-0.4,0.4-0.8,0.7-1.2,0.9c-0.4,0.2-0.9,0.4-1.3,0.4c-0.4-0.1-0.8-0.4-1.4-0.8c-0.5-0.4-1.1-0.8-1.6-1.2c-0.5-0.5-1-1-1.5-1.5
		c-0.5-0.6-0.8-1.2-1-1.7l-0.5,1.2c-0.9,1.7-2.4,3.4-4.3,4.9c-2.4,0.4-3.8,0.6-4.2,0.6c-0.9,0-2-0.1-3.3-0.4l-4-2.8
		c-1.7-1.6-2.6-3.9-2.6-6.7c0-1,0.2-2.1,0.5-3.3c0.3-1.2,0.8-2.5,1.4-3.7c0.6-1.2,1.3-2.5,2.2-3.7c0.9-1.2,1.9-2.3,3-3.2
		c1.4-0.5,2.7-1,4-1.3s2.3-0.6,3-0.7c0.9-1,2-1.5,3.2-1.5c0.7,0,1.4,0.3,1.9,1c0.6,0.7,1,1.6,1.4,2.6c0.4,1.1,0.7,2.2,1,3.5
		c0.2,1.3,0.4,2.5,0.5,3.6l0.9,3.8c0.3,1.2,0.8,2.2,1.4,3.1C273,33.1,273.8,33.9,274.8,34.5z M263.9,26.5c-0.1,0-0.5-1.6-1.1-4.5
		c-0.2,0-0.6,0-1.1,0c-0.5,0-1,0.1-1.7,0.4c-0.6,0.3-1.3,0.7-2.1,1.4c-0.7,0.6-1.5,1.6-2.1,2.9c-1,1.9-1.5,3.7-1.5,5.6
		c0.8,1.6,2.1,2.8,3.8,3.7c0.5-0.1,1-0.3,1.3-0.5c0.4-0.2,0.7-0.5,1-0.8c0.3-0.3,0.6-0.8,0.8-1.3c0.3-0.5,0.6-1.1,0.9-1.9
		c0.6-1.1,1.1-2.1,1.3-2.9C263.7,27.8,263.9,27.1,263.9,26.5z"/>
	<path id="XMLID_80_" class="st0" d="M306,35v0.6c0,0.3,0,0.8,0,1.5c0,0.7,0,1.5-0.2,2.3c-0.2,0.8-0.5,1.5-1,2.1
		c-0.5,0.6-1.2,0.9-2.2,0.9c-1.9,0-3-0.7-3.3-2.2c0-0.3,0.1-0.6,0.1-1s0-0.8,0-1.2c0-0.2,0-0.9,0-2.1s0-2.6-0.1-4s-0.2-2.8-0.5-4.1
		c-0.2-1.3-0.6-2.1-1.1-2.4c-1.1-0.8-2.1-1.2-3-1.2c-1.2,0-2.1,0.3-2.9,1c-0.8,0.7-1.5,2.1-2,4.1c0,0.7-0.1,1.4-0.1,2.3
		c0,0.8-0.1,1.8-0.2,2.8c0,0.8,0,1.7,0.1,2.7c0,1,0.1,2.1,0.2,3.3c0,0.9-0.4,1.7-1.1,2.3s-1.5,0.9-2.4,0.9c-0.7,0-1.3-0.2-1.7-0.6
		c-0.4-0.4-0.8-0.9-1-1.5c-0.2-0.6-0.4-1.3-0.4-2c-0.1-0.7-0.1-1.4-0.1-2.2c0-0.5,0-1.1,0.1-1.6c0-0.6,0.1-1.1,0.2-1.7l0.6-6.9
		l0.6-3.5c-0.1-0.6-0.3-1.2-0.6-1.9c-0.3-0.7-0.4-1.2-0.4-1.6c0-0.8,0.3-1.6,1-2.2c0.6-0.7,1.5-1,2.4-1c0.7,0,1.2,0.1,1.5,0.4
		c0.3,0.3,0.9,0.9,1.7,1.9c1-0.4,1.7-0.7,2.3-0.8c0.6-0.1,1.2-0.2,2-0.2c2.5,0,4.7,0.6,6.6,1.8c1.9,1.2,3.1,3.1,3.6,5.9
		c0.1,1,0.3,1.8,0.4,2.5c0.1,0.7,0.2,1.3,0.3,1.9c0.1,0.6,0.2,1.3,0.3,2C305.6,33.1,305.8,34,306,35z"/>
	<path id="XMLID_82_" class="st0" d="M341.6,40.2c-1.5,1.5-3.3,2.8-5.2,3.9c-1.9,1.1-3.9,1.6-5.8,1.6c-1.8,0-4.1-0.3-6.8-0.9
		c-1-0.6-1.9-1.4-2.9-2.3c-1-0.9-1.8-1.9-2.6-3c-0.8-1.1-1.4-2.3-1.9-3.5c-0.5-1.3-0.7-2.6-0.7-3.9c0-0.4,0-0.9,0.1-1.5
		c0-0.6,0.1-1.3,0.2-1.9c0.1-0.6,0.2-1.5,0.3-2.4c1-1.5,2-3.1,3.1-4.6c1.1-1.5,2.6-2.8,4.6-4c3.1-0.7,5.4-1,6.8-1
		c0.7,0,1.3,0,1.9,0.1c0.5,0.1,1,0.2,1.5,0.4s1,0.5,1.5,1c0.5,0.4,1.1,1,1.8,1.7c0.8,0.8,1.4,1.4,1.8,1.7c0.5,0.3,0.7,0.6,0.7,0.8
		c0,4.4-1.4,7.4-4.1,9c-1.2,0.4-2.8,0.9-4.7,1.4c-1.9,0.5-4.5,1-7.8,1.4c0.7,1.8,1.6,3.2,2.7,4.1c1.1,0.9,2.4,1.4,3.7,1.4
		c2.1,0,4.7-1.2,7.8-3.7c0.5-0.4,1.1-0.6,1.8-0.6c0.8,0,1.5,0.3,2.1,0.9c0.6,0.6,0.9,1.3,0.9,2.2C342.1,38.9,342,39.5,341.6,40.2z
		 M333.5,24.7c-0.9-1.5-2-2.2-3.2-2.2c-0.5,0-1.1,0.1-1.7,0.2c-0.6,0.1-1.3,0.3-1.9,0.6c-0.6,0.3-1.2,0.6-1.8,1
		c-0.6,0.4-1,0.8-1.3,1.4l-0.7,2.2c1.6-0.1,3.1-0.3,4.3-0.4c1.2-0.1,2.3-0.2,3.2-0.4c0.9-0.2,1.6-0.5,2.2-0.8
		C333,25.9,333.3,25.4,333.5,24.7z"/>
	<path id="XMLID_85_" class="st0" d="M374.5,35v0.6c0,0.3,0,0.8,0,1.5c0,0.7,0,1.5-0.2,2.3c-0.2,0.8-0.5,1.5-1,2.1
		c-0.5,0.6-1.2,0.9-2.2,0.9c-1.9,0-3-0.7-3.3-2.2c0-0.3,0.1-0.6,0.1-1s0-0.8,0-1.2c0-0.2,0-0.9,0-2.1s0-2.6-0.1-4s-0.2-2.8-0.5-4.1
		c-0.2-1.3-0.6-2.1-1.1-2.4c-1.1-0.8-2.1-1.2-3-1.2c-1.2,0-2.1,0.3-2.9,1c-0.8,0.7-1.5,2.1-2,4.1c0,0.7-0.1,1.4-0.1,2.3
		c0,0.8-0.1,1.8-0.2,2.8c0,0.8,0,1.7,0.1,2.7c0,1,0.1,2.1,0.2,3.3c0,0.9-0.4,1.7-1.1,2.3s-1.5,0.9-2.4,0.9c-0.7,0-1.3-0.2-1.7-0.6
		c-0.4-0.4-0.8-0.9-1-1.5c-0.2-0.6-0.4-1.3-0.4-2c-0.1-0.7-0.1-1.4-0.1-2.2c0-0.5,0-1.1,0.1-1.6c0-0.6,0.1-1.1,0.2-1.7l0.6-6.9
		l0.6-3.5c-0.1-0.6-0.3-1.2-0.6-1.9c-0.3-0.7-0.4-1.2-0.4-1.6c0-0.8,0.3-1.6,1-2.2c0.6-0.7,1.5-1,2.4-1c0.7,0,1.2,0.1,1.5,0.4
		c0.3,0.3,0.9,0.9,1.7,1.9c1-0.4,1.7-0.7,2.3-0.8c0.6-0.1,1.2-0.2,2-0.2c2.5,0,4.7,0.6,6.6,1.8c1.9,1.2,3.1,3.1,3.6,5.9
		c0.1,1,0.3,1.8,0.4,2.5c0.1,0.7,0.2,1.3,0.3,1.9c0.1,0.6,0.2,1.3,0.3,2C374.2,33.1,374.3,34,374.5,35z"/>
</g>
<g id="XMLID_2_">
	<path id="XMLID_4_" class="st0" d="M130.7,51.9c0.5-0.7,1-1.4,1.5-2.2c0.4-0.5,0.7-1,1-1.4c-14.4,0-28.8,0-43.2,0.2
		c-28,0.4-56,1.7-83.9,3.6c-3.2,0.2-3.2,5.2,0,5c41.2-2.8,82.4-3.5,123.6-3.5C129.9,53.1,130.3,52.5,130.7,51.9z"/>
	<g id="XMLID_5_">
		<path id="XMLID_6_" class="st0" d="M191.6,53.1c0-1.1,0.1-2,0.2-2.7c0-0.2,0.1-0.7,0.1-1.6c-15-0.2-30-0.4-45-0.5l-1.3,2.2
			c-0.6,1-1.2,2-1.7,3c0,0.1-0.1,0.1-0.1,0.2c15.9,0.1,31.8,0.2,47.7,0.4C191.6,53.7,191.6,53.4,191.6,53.1z"/>
		<path id="XMLID_8_" class="st0" d="M376.3,46.2c-62.1,4.8-109.9,3.5-172.1,2.8c0,0.9,0,2,0,3.3c0,0.6-0.1,1.2-0.1,1.9
			c33.9,0.3,66.7,0.9,100.6,0.4c28.4-0.4,43.4-1.2,71.6-3.4C379.4,51,379.5,45.9,376.3,46.2z"/>
	</g>
</g>
</svg>
