<?xml version="1.0" encoding="utf-8"?>
<!-- Generator: Adobe Illustrator 19.0.0, SVG Export Plug-In . SVG Version: 6.00 Build 0)  -->
<svg version="1.1" id="Ebene_1" xmlns="http://www.w3.org/2000/svg" xmlns:xlink="http://www.w3.org/1999/xlink" x="0px" y="0px"
	 viewBox="0 0 869.6 238.1" style="enable-background:new 0 0 869.6 238.1;" xml:space="preserve">
<style type="text/css">
	.st0{fill:none;stroke:#000000;stroke-width:6;stroke-linecap:round;stroke-miterlimit:10;}
	.st1{fill:none;stroke:#000000;stroke-width:6;stroke-linecap:round;stroke-linejoin:round;stroke-miterlimit:10;}
</style>
<g id="XMLID_14_">
	<path id="XMLID_16_" d="M221.6,59.5c-0.1,1.2-0.5,2.2-1.3,3c-0.7,0.8-1.4,1.2-2,1.2c-0.5-0.2-1-0.4-1.7-0.8
		c-0.6-0.4-1.4-0.9-2.2-1.6l-2.1-1.8c-1,0.8-2.4,1.5-4,2.3c-1.6,0.7-3.6,1.1-6,1.1c-1.2,0-2.2-0.1-3-0.3c-0.8-0.2-1.6-0.6-2.3-1.1
		c-0.7-0.5-1.4-1.2-2.2-2c-0.7-0.8-1.5-1.8-2.3-3c-1.5-2-2.2-4.8-2.2-8.5c0-2.8,0.3-5.3,0.9-7.4c0.6-2.2,1.4-4.1,2.5-5.7
		c1-1.6,2.2-3,3.5-4c1.3-1.1,2.6-2,4-2.6c2.3-0.6,4.4-0.9,6.5-0.9c1.9,0,3.7,0.5,5.2,1.6c1.5,1.1,2.8,2.5,3.9,4.2
		c1,1.8,1.9,3.8,2.4,6s0.9,4.5,0.9,6.8c-0.5,2.6-1.7,5.5-3.6,8.9c0.5,0.5,1.2,1.1,2.1,1.9L221.6,59.5z M214,45.6
		c0-0.2,0.1-0.4,0.1-0.7c0-0.2,0-0.5,0-0.7c0-1.4-0.2-2.7-0.5-4.1c-0.4-1.4-0.8-2.6-1.4-3.7c-0.6-1.1-1.3-2-2-2.7
		c-0.7-0.7-1.4-1-2.1-1c-1.5,0-3,0.3-4.4,0.9s-2.7,1.5-3.8,2.7c-1.1,1.2-2,2.7-2.6,4.5c-0.7,1.8-1,3.9-1,6.3c0,2.1,0.3,3.9,0.8,5.4
		c0.5-1.1,1-1.9,1.5-2.4c0.6-0.6,1.1-1,1.7-1.2c0.6-0.2,1.2-0.4,1.8-0.4c0.6,0,1.2,0,1.7,0c0.9,0,1.6,0,2.1,0.1
		c0.5,0,1.1,0.2,1.6,0.4c0.5,0.2,1.1,0.5,1.8,0.9c0.7,0.4,1.6,1,2.7,1.8C213,49.8,213.7,47.9,214,45.6z M208.2,55.9
		c-0.3-0.4-0.7-0.8-1.2-1c-0.4-0.3-0.9-0.4-1.3-0.6c-0.4-0.1-0.8-0.2-1.2-0.3c-0.4,0-0.6-0.1-0.8-0.1c-0.3,0-0.8,0.1-1.3,0.4
		c-0.5,0.3-0.7,0.9-0.7,1.9c0,0.5,0.2,0.8,0.7,0.9c0.5,0.1,1,0.2,1.4,0.2c0.6,0,1.1,0,1.7-0.1C206.3,57.1,207.1,56.6,208.2,55.9z"/>
	<path id="XMLID_24_" d="M254.6,60.4c0,0.8-0.3,1.5-1,2.1c-0.7,0.7-1.4,1-2.1,1c-0.3,0-0.6-0.1-0.8-0.3c0,0-0.2-0.2-0.6-0.6
		c-0.3-0.4-0.7-1-1.2-1.6c-0.5-0.6-1-1.3-1.5-2.1c-0.6-0.7-1.1-1.4-1.5-2.1c-0.5-0.6-0.8-1.2-1.1-1.6c-0.3-0.4-0.4-0.6-0.4-0.5
		c-0.1-0.3-0.3-0.7-0.6-1.2c-0.3-0.6-0.7-1.1-1.1-1.8c-0.4-0.6-0.8-1.2-1.1-1.7c-0.3-0.5-0.5-0.9-0.6-1c-0.1,0-0.3,0-0.7,0.1
		c-0.4,0.1-0.8,0.1-1.3,0.2c-0.5,0.1-1,0.1-1.4,0.2c-0.5,0.1-0.9,0.1-1.1,0.1H236c-0.1,1.3-0.2,2.4-0.3,3.3
		c-0.1,0.9-0.1,1.5-0.1,1.9v2c0,2.3-0.2,4.8-0.6,7.5c-0.5,0.8-1.3,1.2-2.2,1.2c-0.9,0-1.6-0.2-2.2-0.7c-0.6-0.4-0.9-1.2-0.9-2.3
		c0-0.3,0-0.8,0-1.3c0-0.5,0-1,0.1-1.5c0-0.5,0-1,0.1-1.4c0-0.4,0-0.7,0-0.8v-0.3l0.4-9.7c0-0.6,0.1-1.2,0-2.1c0-0.8,0-1.8,0.1-2.8
		l0.5-3.9c0.3-1.3,0.4-2.5,0.4-3.4c0-0.3,0-0.6,0-0.9c0-0.3-0.1-0.6-0.1-0.9l0.2-2.2c0-1,0.2-1.9,0.6-2.5c0.3-0.6,1.2-1,2.4-1
		c0.9,0,1.8,0.2,2.7,0.4c0.9-0.1,1.6-0.1,2.3-0.1c0.7,0,1.2,0,1.7,0c0.4,0,0.8,0,1.2,0c0.3,0,0.7,0.1,1,0.1c0.3,0.1,0.7,0.2,1.2,0.3
		c0.4,0.1,0.9,0.2,1.5,0.4l2.8,1.9c1.6,1.2,2.6,2.5,3.2,3.7c0.5,1.2,0.8,2.5,0.8,3.9c0,0.9,0,1.7-0.1,2.4c-0.1,0.7-0.3,1.3-0.7,2
		c-0.4,0.6-1,1.3-1.8,2c-0.8,0.7-2,1.5-3.5,2.6c1,1.2,2.1,3.1,3.3,5.5C250.8,53.7,252.3,56.2,254.6,60.4z M246.7,40
		c0-0.2,0.1-0.4,0.1-0.7c0-0.4,0-0.9-0.1-1.3c-0.1-0.4-0.3-0.9-0.6-1.3c-0.3-0.4-0.7-0.9-1.3-1.3s-1.4-0.9-2.4-1.3
		c-0.9-0.3-1.6-0.5-2.2-0.5c-0.2,0-0.4,0.1-0.7,0.1c-0.3,0.1-0.6,0.2-1,0.2c-0.4,0.1-0.8,0.1-1.3,0.2c0,0.3,0.1,0.5,0.1,0.7
		c0,0.2,0,0.7-0.1,1.3s-0.2,1.6-0.3,2.8c-0.1,1.2-0.3,2.9-0.4,5c0.2,0,0.3,0.1,0.5,0.1c0.2,0,0.3,0,0.5,0c0.8,0,1.7-0.1,2.7-0.4
		c1-0.2,2-0.5,2.9-0.9c0.9-0.4,1.7-0.8,2.4-1.3C246,40.9,246.5,40.4,246.7,40z"/>
	<path id="XMLID_27_" d="M287.3,47.7c-0.6,0.1-1.1,0.2-1.6,0.2c-0.4,0-1-0.1-1.9-0.2c-0.9-0.1-1.6-0.2-2.2-0.2h0.1
		c0,0-0.4,0-1.1-0.1c-0.7-0.1-1.7-0.1-3.1-0.1c-1.2,0-1.9,0.1-2.2,0.4c-0.7,0.1-1.6,0.2-2.7,0.3c-1.1,0.1-2.3,0.2-3.8,0.3
		c-2.2-0.2-3.3-1.1-3.3-2.8c0-1.2,0.6-2.3,1.9-3.3c0.6-0.1,1.3-0.2,2.2-0.3c0.9-0.1,1.9-0.1,3.2-0.2c0.2,0,0.5,0,0.7,0
		c0.3,0,0.6,0,0.9,0c1.7,0,4-0.1,7-0.2c0.7,0.1,1.5,0.2,2.4,0.3c0.9,0.1,1.8,0.2,2.8,0.3c1.2,0.9,1.7,1.9,1.7,3.1
		C288.4,46.1,288,46.9,287.3,47.7z"/>
	<path id="XMLID_29_" d="M328.1,54.1c-0.1,0.5-0.4,1.1-0.9,1.9c-0.5,0.7-1.1,1.5-1.8,2.2c-0.7,0.7-1.5,1.4-2.3,2
		c-0.8,0.6-1.6,1-2.4,1.3c-2.2,1-4.7,1.5-7.5,1.5c-0.9,0-1.7,0-2.3-0.1c-0.7,0-1.3-0.2-2-0.4c-0.6-0.2-1.3-0.6-1.9-1
		c-0.6-0.5-1.4-1.2-2.2-2.1c-0.9-0.9-1.6-1.9-2.1-2.8c-0.5-0.9-0.9-1.8-1.2-2.7c-0.3-0.9-0.4-1.7-0.5-2.5c-0.1-0.8-0.1-1.5-0.1-2.2
		c0-1.4,0.2-3.1,0.5-5c0.3-1.9,1.3-4.3,2.8-7.1c0.6-1,1-1.8,1.3-2.4c0.3-0.6,0.5-1,0.5-1.2l4-2.4c1.4-0.8,2.7-1.5,3.9-2
		c1.2-0.5,2.6-0.7,4.1-0.7c0.4,0,1.1,0,1.9,0c0.9,0,1.7,0.1,2.5,0.3s1.6,0.5,2.2,1c0.6,0.5,1,1.2,1,2.2c0,1.6-0.9,2.5-2.8,2.8
		c0,0-0.1,0-0.4-0.1c-0.3,0-0.7-0.1-1.2-0.1c-0.5,0-1.1-0.1-1.7-0.1c-0.6,0-1.3-0.1-1.9-0.1c-1.1,0-2.2,0.3-3.4,0.9
		c-1.1,0.6-2.5,1.7-4.1,3.2c-0.9,1.8-1.5,3.2-1.9,4.2c-0.4,1-0.6,1.7-0.6,2c-0.5,0.9-0.7,2.1-0.7,3.8c0,3.1,0.6,5.3,1.7,6.6
		c1.1,1.3,2.6,2,4.6,2c1.2,0,3.2-0.3,5.8-1c1.6-0.9,3-2.4,4.1-4.5c0.7-0.7,1.5-1.1,2.2-1.1c0.8,0,1.5,0.3,2.2,1c0.6,0.6,1,1.4,1,2.2
		c0,0.1,0,0.2,0,0.2C328.1,53.9,328.1,54,328.1,54.1z"/>
	<path id="XMLID_31_" d="M352.8,61.1c-0.6,0.4-1.5,0.8-2.7,1.1c-1.2,0.4-2.5,0.7-3.9,0.9l-2.6-0.5c-0.4-0.1-1-0.4-1.9-0.9
		c-0.9-0.5-1.8-1.2-2.7-2.2c-0.9-1-1.7-2.2-2.4-3.7c-0.7-1.5-1-3.4-1-5.6c0-0.8,0.2-1.7,0.5-2.7c0.4-1,0.9-2,1.6-3
		c0.7-0.9,1.6-1.7,2.7-2.3c1.1-0.6,2.4-1,3.8-1c2.9,0,5.5,0.9,7.9,2.8c2.1,2.8,3.1,5.9,3.1,9.4C355.4,56.1,354.5,58.6,352.8,61.1z
		 M349.7,52c-0.2-1.7-0.7-3-1.6-3.9s-1.9-1.4-3.2-1.4c-0.9,0-1.7,0.4-2.4,1.3c-0.7,0.8-1.1,2-1.1,3.6c0,0.6,0.1,1.3,0.3,2
		c0.2,0.7,0.4,1.3,0.8,1.9s0.9,1,1.5,1.4c0.6,0.4,1.3,0.5,2.2,0.5c1.4,0,2.3-0.4,2.8-1.3s0.8-1.9,0.8-3.1c0-0.2,0-0.3,0-0.5
		C349.7,52.4,349.7,52.2,349.7,52z"/>
	<path id="XMLID_34_" d="M384.6,31.4c-0.1,0.4-0.2,1.1-0.2,2.2c0,0.6,0,1.5,0,2.4c0,1,0,1.8,0,2.4c0,0.6,0,1.1,0,1.6
		c0,0.5,0,0.9-0.1,1.2c0,0.2,0.1,0.4,0.1,0.6c0,0.2,0,0.4,0,0.7c0,0.6,0,1.4-0.1,2.3c-0.1,0.9-0.1,1.6-0.1,1.9c0,0.1,0,0.2,0,0.2
		c0,0.1,0,0.1,0,0.2c-0.4,2.3-0.6,4.4-0.7,6.3c-0.1,1.9-0.3,3.5-0.4,4.8c-0.2,1.3-0.5,2.3-1,3s-1.2,1.1-2.3,1.1
		c-0.9,0-1.7-0.2-2.4-0.6v-0.4c-1.3,0.6-3,0.8-5.1,0.8c-1.4,0-2.7-0.3-3.9-0.8c-1.2-0.5-2.2-1.2-3-2.2c-0.9-0.9-1.5-2-2-3.2
		c-0.5-1.2-0.7-2.6-0.7-4c0-0.8,0.1-1.6,0.3-2.4c0.2-0.8,0.4-1.5,0.7-2.2c0.3-0.7,0.6-1.3,1-1.9c0.4-0.6,0.7-1.1,1.1-1.4
		c0.9-0.9,2.1-1.8,3.7-2.6c1.6-0.8,3.4-1.2,5.2-1.2c1.2,0,2.5,0.2,3.8,0.7c0-0.6,0-1.4,0.1-2.3c0.1-0.9,0.1-1.9,0.2-3.1l-0.3-4.4
		c0-0.2,0-0.4,0-0.5c0-0.1,0-0.3,0-0.5c0-1.4,0.2-2.5,0.5-3.2c0.4-0.7,1.1-1.1,2.2-1.1c0.7,0,1.2,0.1,1.6,0.3c0.4,0.2,0.7,0.5,1,0.9
		c0.2,0.4,0.4,1,0.5,1.7C384.3,29.2,384.5,30.2,384.6,31.4z M378,46.7c-0.9-0.6-1.9-0.9-3.1-0.9c-0.9,0-1.7,0.1-2.3,0.2
		c-0.6,0.1-1.1,0.4-1.6,0.7c-0.4,0.3-0.8,0.7-1.1,1.3c-0.3,0.5-0.6,1.2-0.9,2c-0.3,0.7-0.4,1.4-0.4,2.1c0,1.4,0.5,2.4,1.4,3.2
		c1,0.8,2.1,1.2,3.5,1.2c1.2,0,2.4-0.4,3.5-1.3c0.4-1.8,0.7-3,0.8-3.7c0.1-0.7,0.2-1.3,0.2-1.8c0-0.5,0-0.9-0.1-1.3
		c0-0.4-0.1-0.8-0.1-1.1c0-0.1,0-0.2,0-0.2C378,46.9,378,46.8,378,46.7z"/>
	<path id="XMLID_37_" d="M416.4,60.2c-1.4,1.4-2.9,2.5-4.6,3.5c-1.7,1-3.4,1.4-5.2,1.4c-1.6,0-3.6-0.3-6.1-0.8
		c-0.9-0.6-1.7-1.2-2.6-2c-0.9-0.8-1.6-1.7-2.3-2.6s-1.2-2-1.7-3.1c-0.4-1.1-0.6-2.3-0.6-3.5c0-0.3,0-0.8,0.1-1.4s0.1-1.2,0.2-1.7
		c0.1-0.6,0.1-1.3,0.2-2.2c0.9-1.4,1.8-2.7,2.7-4.1c1-1.3,2.3-2.5,4.1-3.6c2.8-0.6,4.8-0.9,6-0.9c0.6,0,1.2,0,1.7,0.1
		c0.5,0.1,0.9,0.2,1.4,0.4c0.4,0.2,0.9,0.5,1.3,0.9c0.4,0.4,1,0.9,1.6,1.5c0.7,0.7,1.2,1.2,1.6,1.5c0.4,0.3,0.6,0.5,0.6,0.7
		c0,3.9-1.2,6.6-3.7,8c-1.1,0.4-2.5,0.8-4.2,1.3c-1.7,0.4-4,0.9-7,1.3c0.6,1.6,1.4,2.8,2.4,3.7c1,0.8,2.1,1.2,3.3,1.2
		c1.8,0,4.2-1.1,6.9-3.3c0.4-0.4,1-0.6,1.6-0.6c0.7,0,1.3,0.3,1.8,0.8c0.5,0.5,0.8,1.2,0.8,1.9C416.8,59.1,416.6,59.6,416.4,60.2z
		 M409.1,46.4c-0.8-1.3-1.8-2-2.9-2c-0.5,0-1,0.1-1.5,0.2c-0.6,0.1-1.1,0.3-1.7,0.5c-0.6,0.2-1.1,0.5-1.6,0.9
		c-0.5,0.3-0.9,0.7-1.2,1.2l-0.6,1.9c1.5-0.1,2.7-0.2,3.9-0.3c1.1-0.1,2.1-0.2,2.9-0.4c0.8-0.2,1.5-0.4,1.9-0.7
		C408.7,47.5,409,47,409.1,46.4z"/>
	<path id="XMLID_40_" d="M468.8,55.4c-0.1,1.3-0.6,2.5-1.3,3.6s-1.5,2.2-2.3,3.3c-0.5,0.4-1.1,0.7-2,1c-0.9,0.3-1.7,0.5-2.6,0.7
		c-0.9,0.2-1.6,0.3-2.2,0.4c-0.6,0.1-0.9,0.1-0.8,0.1c-0.4,0-1-0.1-1.6-0.2c-0.7-0.2-1.3-0.3-1.9-0.4c-0.6-0.2-1.1-0.3-1.5-0.4
		c-0.4-0.2-0.6-0.2-0.5-0.2c-0.4,0-0.9-0.2-1.5-0.4c-0.6-0.2-1.2-0.5-1.7-0.8c-0.5-0.3-1-0.7-1.4-1c-0.4-0.4-0.6-0.7-0.6-1.1
		c0-0.3,0.1-0.7,0.3-1.1c0.2-0.4,0.4-0.7,0.7-1c0.3-0.3,0.6-0.6,0.9-0.8c0.3-0.2,0.7-0.3,1-0.3l4.4,1.7c0.8,0.3,1.6,0.4,2.4,0.5
		c0.8,0.1,1.6,0.2,2.3,0.2c0.7,0,1.4-0.1,2-0.4c0.6-0.3,1-0.6,1.3-1l1-1.9c-0.1-0.8-0.4-1.4-0.9-1.8c-0.5-0.4-1.2-0.8-2-1.1
		c-0.8-0.3-1.6-0.6-2.5-0.8c-0.9-0.3-1.7-0.6-2.5-1l-2.8-1.7c-0.9-1.2-1.4-2.9-1.4-5.3c0.3-1.5,0.9-2.7,1.9-3.6c0,0,0.3-0.2,0.8-0.6
		c0.5-0.4,1.3-0.9,2.4-1.6c0.2,0,0.7,0,1.6-0.1c0.9-0.1,2.2-0.2,3.8-0.4c0.7,0,2.5,0.5,5.3,1.5c0.6,0.6,0.8,1.3,0.8,2.3
		c0,0.8-0.2,1.4-0.5,2c-0.4,0.5-0.9,0.8-1.6,0.8c-0.7,0-1.5-0.2-2.4-0.5c-0.9-0.4-1.7-0.5-2.5-0.5c-1.1,0-2,0.1-2.9,0.3
		c-0.9,0.2-1.3,0.6-1.3,1.3c0,1,0.4,1.6,1.3,1.8C464.2,48,467.9,50.9,468.8,55.4z"/>
	<path id="XMLID_42_" d="M497.5,56.6c-0.8,1.7-2.1,3.1-4,4.1c-1.8,1-3.9,1.5-6.2,1.5c-0.3,0-0.8,0-1.5-0.1c-0.7-0.1-1.4-0.3-2.3-0.5
		c-0.8-0.3-1.7-0.6-2.6-1.1c-0.9-0.4-1.7-1-2.4-1.8c-0.7-0.7-1.3-1.7-1.8-2.7c-0.5-1.1-0.7-2.3-0.7-3.8c0-1.9,0.2-3.7,0.8-5.3
		c0.6-1.6,1.5-3.2,2.8-4.8l2.1-2.6c2.4-1.6,5.1-2.4,8.1-2.4c1.6,0,2.9,0.3,3.9,0.9c1,0.6,1.4,1.5,1.4,2.6c0,0.9-0.3,1.6-0.9,2.1
		c-0.6,0.5-1.4,0.8-2.4,0.8c0,0-0.2,0-0.5-0.1c-0.3-0.1-0.6-0.1-0.9-0.2c-0.3-0.1-0.7-0.2-1-0.2c-0.3-0.1-0.6-0.1-0.8-0.1
		c-1,0-2.1,0.5-3.4,1.5c-1.3,1-2.3,2.7-3,4.9c-0.3,0.9-0.4,1.7-0.4,2.3c0,1.2,0.3,2.1,1,2.8c0.7,0.7,1.4,1.2,2.2,1.6
		c0.8,0.4,1.6,0.6,2.2,0.7c0.7,0.1,1,0.2,1.1,0.2c0.6,0,1.2-0.2,1.8-0.5c0.6-0.3,1.1-0.7,1.6-1.2c0.5-0.4,0.9-0.8,1.2-1.1
		c0.3-0.3,0.4-0.5,0.4-0.5c0.4-0.4,0.9-0.6,1.5-0.6c0.7,0,1.3,0.4,1.9,1.1c0.6,0.7,0.9,1.4,0.9,2.2
		C497.6,56.3,497.6,56.5,497.5,56.6z"/>
	<path id="XMLID_44_" d="M527.5,55.2c0.8,0.5,1.2,1.1,1.2,1.9c0,0.4-0.1,0.8-0.3,1.2c-0.2,0.4-0.5,0.8-0.8,1.1s-0.7,0.6-1.1,0.8
		c-0.4,0.2-0.8,0.3-1.2,0.3c-0.3-0.1-0.7-0.4-1.2-0.7c-0.5-0.3-0.9-0.7-1.4-1.1c-0.5-0.4-0.9-0.9-1.3-1.4c-0.4-0.5-0.7-1-0.9-1.5
		l-0.4,1.1c-0.8,1.5-2.1,3-3.9,4.4c-2.1,0.4-3.4,0.6-3.7,0.6c-0.8,0-1.8-0.1-3-0.4l-3.5-2.5c-1.5-1.5-2.3-3.4-2.3-6
		c0-0.9,0.1-1.9,0.4-3s0.7-2.2,1.2-3.3c0.5-1.1,1.2-2.2,2-3.3c0.8-1.1,1.7-2,2.7-2.9c1.2-0.5,2.4-0.9,3.6-1.2c1.2-0.3,2-0.5,2.6-0.6
		c0.8-0.9,1.8-1.3,2.9-1.3c0.6,0,1.2,0.3,1.7,0.9c0.5,0.6,0.9,1.4,1.3,2.3c0.4,0.9,0.7,2,0.9,3.1c0.2,1.1,0.4,2.2,0.4,3.2l0.8,3.4
		c0.3,1.1,0.7,2,1.3,2.8C525.9,53.9,526.6,54.6,527.5,55.2z M517.7,48c-0.1,0-0.4-1.4-1-4c-0.2,0-0.5,0-1,0s-0.9,0.1-1.5,0.4
		c-0.6,0.2-1.2,0.6-1.9,1.2s-1.3,1.4-1.9,2.6c-0.9,1.7-1.3,3.3-1.3,5c0.7,1.4,1.9,2.5,3.4,3.3c0.5-0.1,0.9-0.3,1.2-0.4
		c0.3-0.2,0.6-0.4,0.9-0.7c0.3-0.3,0.5-0.7,0.7-1.1c0.2-0.4,0.5-1,0.8-1.7c0.6-1,1-1.9,1.2-2.6C517.6,49.2,517.7,48.6,517.7,48z"/>
	<path id="XMLID_47_" d="M555.2,55.6v0.5c0,0.3,0,0.7,0,1.4c0,0.7,0,1.3-0.2,2c-0.2,0.7-0.4,1.3-0.9,1.8c-0.4,0.5-1.1,0.8-1.9,0.8
		c-1.7,0-2.7-0.7-3-2c0-0.3,0.1-0.5,0.1-0.9s0-0.7,0-1.1c0-0.2,0-0.8,0-1.9c0-1.1,0-2.3-0.1-3.6c-0.1-1.3-0.2-2.5-0.4-3.6
		c-0.2-1.1-0.5-1.9-1-2.1c-1-0.7-1.9-1-2.6-1c-1,0-1.9,0.3-2.6,0.9c-0.7,0.6-1.3,1.8-1.8,3.6c0,0.6-0.1,1.3-0.1,2
		c0,0.7-0.1,1.6-0.2,2.5c0,0.7,0,1.5,0.1,2.4c0,0.9,0.1,1.9,0.2,3c0,0.8-0.3,1.5-1,2c-0.6,0.5-1.4,0.8-2.2,0.8
		c-0.6,0-1.2-0.2-1.5-0.5c-0.4-0.3-0.7-0.8-0.9-1.3c-0.2-0.6-0.3-1.2-0.4-1.8c-0.1-0.6-0.1-1.3-0.1-1.9c0-0.5,0-1,0.1-1.4
		c0-0.5,0.1-1,0.2-1.5l0.5-6.2l0.5-3.1c-0.1-0.5-0.3-1.1-0.5-1.7c-0.3-0.6-0.4-1.1-0.4-1.4c0-0.7,0.3-1.4,0.9-2
		c0.6-0.6,1.3-0.9,2.2-0.9c0.6,0,1,0.1,1.3,0.4c0.3,0.2,0.8,0.8,1.5,1.7c0.9-0.4,1.5-0.6,2.1-0.7c0.5-0.1,1.1-0.2,1.8-0.2
		c2.2,0,4.2,0.5,5.9,1.6c1.7,1,2.7,2.8,3.2,5.2c0.1,0.9,0.2,1.6,0.4,2.2c0.1,0.6,0.2,1.2,0.3,1.7c0.1,0.6,0.2,1.1,0.3,1.8
		C554.9,53.9,555.1,54.7,555.2,55.6z"/>
	<path id="XMLID_49_" d="M585.7,55.6v0.5c0,0.3,0,0.7,0,1.4c0,0.7,0,1.3-0.2,2c-0.2,0.7-0.4,1.3-0.9,1.8c-0.4,0.5-1.1,0.8-1.9,0.8
		c-1.7,0-2.7-0.7-3-2c0-0.3,0.1-0.5,0.1-0.9s0-0.7,0-1.1c0-0.2,0-0.8,0-1.9c0-1.1,0-2.3-0.1-3.6c-0.1-1.3-0.2-2.5-0.4-3.6
		c-0.2-1.1-0.5-1.9-1-2.1c-1-0.7-1.9-1-2.6-1c-1,0-1.9,0.3-2.6,0.9c-0.7,0.6-1.3,1.8-1.8,3.6c0,0.6-0.1,1.3-0.1,2
		c0,0.7-0.1,1.6-0.2,2.5c0,0.7,0,1.5,0.1,2.4c0,0.9,0.1,1.9,0.2,3c0,0.8-0.3,1.5-1,2c-0.6,0.5-1.4,0.8-2.2,0.8
		c-0.6,0-1.2-0.2-1.5-0.5c-0.4-0.3-0.7-0.8-0.9-1.3c-0.2-0.6-0.3-1.2-0.4-1.8c-0.1-0.6-0.1-1.3-0.1-1.9c0-0.5,0-1,0.1-1.4
		c0-0.5,0.1-1,0.2-1.5l0.5-6.2l0.5-3.1c-0.1-0.5-0.3-1.1-0.5-1.7c-0.3-0.6-0.4-1.1-0.4-1.4c0-0.7,0.3-1.4,0.9-2
		c0.6-0.6,1.3-0.9,2.2-0.9c0.6,0,1,0.1,1.3,0.4c0.3,0.2,0.8,0.8,1.5,1.7c0.9-0.4,1.5-0.6,2.1-0.7c0.5-0.1,1.1-0.2,1.8-0.2
		c2.2,0,4.2,0.5,5.9,1.6c1.7,1,2.7,2.8,3.2,5.2c0.1,0.9,0.2,1.6,0.4,2.2c0.1,0.6,0.2,1.2,0.3,1.7c0.1,0.6,0.2,1.1,0.3,1.8
		C585.4,53.9,585.5,54.7,585.7,55.6z"/>
	<path id="XMLID_51_" d="M617.4,60.2c-1.4,1.4-2.9,2.5-4.6,3.5c-1.7,1-3.4,1.4-5.2,1.4c-1.6,0-3.6-0.3-6.1-0.8
		c-0.9-0.6-1.7-1.2-2.6-2c-0.9-0.8-1.6-1.7-2.3-2.6s-1.2-2-1.7-3.1c-0.4-1.1-0.6-2.3-0.6-3.5c0-0.3,0-0.8,0.1-1.4
		c0-0.6,0.1-1.2,0.2-1.7s0.1-1.3,0.2-2.2c0.9-1.4,1.8-2.7,2.7-4.1c1-1.3,2.3-2.5,4.1-3.6c2.8-0.6,4.8-0.9,6-0.9c0.6,0,1.2,0,1.7,0.1
		c0.5,0.1,0.9,0.2,1.4,0.4c0.4,0.2,0.9,0.5,1.3,0.9c0.4,0.4,1,0.9,1.6,1.5c0.7,0.7,1.2,1.2,1.6,1.5c0.4,0.3,0.6,0.5,0.6,0.7
		c0,3.9-1.2,6.6-3.7,8c-1.1,0.4-2.5,0.8-4.2,1.3c-1.7,0.4-4,0.9-7,1.3c0.6,1.6,1.4,2.8,2.4,3.7c1,0.8,2.1,1.2,3.3,1.2
		c1.8,0,4.2-1.1,6.9-3.3c0.4-0.4,1-0.6,1.6-0.6c0.7,0,1.3,0.3,1.8,0.8c0.5,0.5,0.8,1.2,0.8,1.9C617.9,59.1,617.7,59.6,617.4,60.2z
		 M610.2,46.4c-0.8-1.3-1.8-2-2.9-2c-0.5,0-1,0.1-1.5,0.2c-0.6,0.1-1.1,0.3-1.7,0.5c-0.6,0.2-1.1,0.5-1.6,0.9
		c-0.5,0.3-0.9,0.7-1.2,1.2l-0.6,1.9c1.5-0.1,2.7-0.2,3.9-0.3c1.1-0.1,2.1-0.2,2.9-0.4c0.8-0.2,1.5-0.4,1.9-0.7
		C609.8,47.5,610.1,47,610.2,46.4z"/>
	<path id="XMLID_54_" d="M646.8,55.6v0.5c0,0.3,0,0.7,0,1.4c0,0.7,0,1.3-0.2,2c-0.2,0.7-0.4,1.3-0.9,1.8c-0.4,0.5-1.1,0.8-1.9,0.8
		c-1.7,0-2.7-0.7-3-2c0-0.3,0.1-0.5,0.1-0.9s0-0.7,0-1.1c0-0.2,0-0.8,0-1.9c0-1.1,0-2.3-0.1-3.6c-0.1-1.3-0.2-2.5-0.4-3.6
		c-0.2-1.1-0.5-1.9-1-2.1c-1-0.7-1.9-1-2.6-1c-1,0-1.9,0.3-2.6,0.9c-0.7,0.6-1.3,1.8-1.8,3.6c0,0.6-0.1,1.3-0.1,2
		c0,0.7-0.1,1.6-0.2,2.5c0,0.7,0,1.5,0.1,2.4c0,0.9,0.1,1.9,0.2,3c0,0.8-0.3,1.5-1,2c-0.6,0.5-1.4,0.8-2.2,0.8
		c-0.6,0-1.2-0.2-1.5-0.5c-0.4-0.3-0.7-0.8-0.9-1.3c-0.2-0.6-0.3-1.2-0.4-1.8c-0.1-0.6-0.1-1.3-0.1-1.9c0-0.5,0-1,0.1-1.4
		c0-0.5,0.1-1,0.2-1.5l0.5-6.2l0.5-3.1c-0.1-0.5-0.3-1.1-0.5-1.7c-0.3-0.6-0.4-1.1-0.4-1.4c0-0.7,0.3-1.4,0.9-2
		c0.6-0.6,1.3-0.9,2.2-0.9c0.6,0,1,0.1,1.3,0.4c0.3,0.2,0.8,0.8,1.5,1.7c0.9-0.4,1.5-0.6,2.1-0.7c0.5-0.1,1.1-0.2,1.8-0.2
		c2.2,0,4.2,0.5,5.9,1.6c1.7,1,2.7,2.8,3.2,5.2c0.1,0.9,0.2,1.6,0.4,2.2c0.1,0.6,0.2,1.2,0.3,1.7c0.1,0.6,0.2,1.1,0.3,1.8
		C646.5,53.9,646.6,54.7,646.8,55.6z"/>
	<path id="XMLID_56_" d="M699.7,61.1c-0.6,0.4-1.5,0.8-2.7,1.1c-1.2,0.4-2.5,0.7-3.9,0.9l-2.6-0.5c-0.4-0.1-1-0.4-1.9-0.9
		c-0.9-0.5-1.8-1.2-2.7-2.2c-0.9-1-1.7-2.2-2.4-3.7c-0.7-1.5-1-3.4-1-5.6c0-0.8,0.2-1.7,0.5-2.7c0.4-1,0.9-2,1.6-3
		c0.7-0.9,1.6-1.7,2.7-2.3c1.1-0.6,2.4-1,3.8-1c2.9,0,5.5,0.9,7.9,2.8c2.1,2.8,3.1,5.9,3.1,9.4C702.2,56.1,701.4,58.6,699.7,61.1z
		 M696.5,52c-0.2-1.7-0.7-3-1.6-3.9c-0.8-1-1.9-1.4-3.2-1.4c-0.9,0-1.7,0.4-2.4,1.3s-1.1,2-1.1,3.6c0,0.6,0.1,1.3,0.3,2
		c0.2,0.7,0.4,1.3,0.8,1.9c0.4,0.6,0.9,1,1.5,1.4c0.6,0.4,1.3,0.5,2.2,0.5c1.4,0,2.3-0.4,2.8-1.3s0.8-1.9,0.8-3.1c0-0.2,0-0.3,0-0.5
		C696.5,52.4,696.5,52.2,696.5,52z"/>
	<path id="XMLID_59_" d="M731.4,31.4c-0.1,0.4-0.2,1.1-0.2,2.2c0,0.6,0,1.5,0,2.4c0,1,0,1.8,0,2.4c0,0.6,0,1.1,0,1.6
		c0,0.5,0,0.9-0.1,1.2c0,0.2,0.1,0.4,0.1,0.6c0,0.2,0,0.4,0,0.7c0,0.6,0,1.4-0.1,2.3c-0.1,0.9-0.1,1.6-0.1,1.9c0,0.1,0,0.2,0,0.2
		c0,0.1,0,0.1,0,0.2c-0.4,2.3-0.6,4.4-0.7,6.3c-0.1,1.9-0.3,3.5-0.4,4.8c-0.2,1.3-0.5,2.3-1,3c-0.4,0.7-1.2,1.1-2.3,1.1
		c-0.9,0-1.7-0.2-2.4-0.6v-0.4c-1.3,0.6-3,0.8-5.1,0.8c-1.4,0-2.7-0.3-3.9-0.8c-1.2-0.5-2.2-1.2-3-2.2c-0.9-0.9-1.5-2-2-3.2
		c-0.5-1.2-0.7-2.6-0.7-4c0-0.8,0.1-1.6,0.3-2.4c0.2-0.8,0.4-1.5,0.7-2.2c0.3-0.7,0.6-1.3,1-1.9s0.7-1.1,1.1-1.4
		c0.9-0.9,2.1-1.8,3.7-2.6c1.6-0.8,3.4-1.2,5.2-1.2c1.2,0,2.5,0.2,3.8,0.7c0-0.6,0-1.4,0.1-2.3c0.1-0.9,0.1-1.9,0.2-3.1l-0.3-4.4
		c0-0.2,0-0.4,0-0.5c0-0.1,0-0.3,0-0.5c0-1.4,0.2-2.5,0.5-3.2c0.4-0.7,1.1-1.1,2.2-1.1c0.7,0,1.2,0.1,1.6,0.3c0.4,0.2,0.7,0.5,1,0.9
		c0.2,0.4,0.4,1,0.5,1.7C731.2,29.2,731.3,30.2,731.4,31.4z M724.8,46.7c-0.9-0.6-1.9-0.9-3.1-0.9c-0.9,0-1.7,0.1-2.3,0.2
		c-0.6,0.1-1.1,0.4-1.6,0.7c-0.4,0.3-0.8,0.7-1.1,1.3c-0.3,0.5-0.6,1.2-0.9,2c-0.3,0.7-0.4,1.4-0.4,2.1c0,1.4,0.5,2.4,1.4,3.2
		c1,0.8,2.1,1.2,3.5,1.2c1.2,0,2.4-0.4,3.5-1.3c0.4-1.8,0.7-3,0.8-3.7c0.1-0.7,0.2-1.3,0.2-1.8c0-0.5,0-0.9-0.1-1.3
		c0-0.4-0.1-0.8-0.1-1.1c0-0.1,0-0.2,0-0.2C724.8,46.9,724.8,46.8,724.8,46.7z"/>
	<path id="XMLID_62_" d="M763.2,60.2c-1.4,1.4-2.9,2.5-4.6,3.5c-1.7,1-3.4,1.4-5.2,1.4c-1.6,0-3.6-0.3-6.1-0.8
		c-0.9-0.6-1.7-1.2-2.6-2c-0.9-0.8-1.6-1.7-2.3-2.6s-1.2-2-1.7-3.1c-0.4-1.1-0.6-2.3-0.6-3.5c0-0.3,0-0.8,0.1-1.4
		c0-0.6,0.1-1.2,0.2-1.7s0.1-1.3,0.2-2.2c0.9-1.4,1.8-2.7,2.7-4.1c1-1.3,2.3-2.5,4.1-3.6c2.8-0.6,4.8-0.9,6-0.9c0.6,0,1.2,0,1.7,0.1
		c0.5,0.1,0.9,0.2,1.4,0.4c0.4,0.2,0.9,0.5,1.3,0.9c0.4,0.4,1,0.9,1.6,1.5c0.7,0.7,1.2,1.2,1.6,1.5c0.4,0.3,0.6,0.5,0.6,0.7
		c0,3.9-1.2,6.6-3.7,8c-1.1,0.4-2.5,0.8-4.2,1.3c-1.7,0.4-4,0.9-7,1.3c0.6,1.6,1.4,2.8,2.4,3.7c1,0.8,2.1,1.2,3.3,1.2
		c1.8,0,4.2-1.1,6.9-3.3c0.4-0.4,1-0.6,1.6-0.6c0.7,0,1.3,0.3,1.8,0.8c0.5,0.5,0.8,1.2,0.8,1.9C763.7,59.1,763.5,59.6,763.2,60.2z
		 M756,46.4c-0.8-1.3-1.8-2-2.9-2c-0.5,0-1,0.1-1.5,0.2c-0.6,0.1-1.1,0.3-1.7,0.5c-0.6,0.2-1.1,0.5-1.6,0.9
		c-0.5,0.3-0.9,0.7-1.2,1.2l-0.6,1.9c1.5-0.1,2.7-0.2,3.9-0.3c1.1-0.1,2.1-0.2,2.9-0.4c0.8-0.2,1.5-0.4,1.9-0.7
		C755.5,47.5,755.8,47,756,46.4z"/>
	<path id="XMLID_65_" d="M789,40.9c0.7,0.4,1,1.2,1,2.4c0,0.9-0.2,1.7-0.7,2.3c-0.5,0.6-1.1,1-1.9,1c-0.5,0-1-0.1-1.6-0.4
		c-0.5-0.3-1.1-0.4-1.7-0.4c-0.5,0-1,0.1-1.5,0.3c-0.5,0.2-1.1,0.6-1.7,1.3l-1.9,1.9c0,0.3,0,0.6,0,0.9c0,0.3,0,0.6,0,1
		c0,0.5,0,1,0,1.6c0,0.6-0.1,1.2-0.1,1.8l0.6,5.8c-0.1,2-1.1,3-3,3c-1,0-1.7-0.3-2.2-0.9c-0.5-0.6-0.8-1.5-1-2.6
		c-0.2-1.1-0.2-2.4-0.2-3.9c0-1.5,0-3.1,0-4.9c-0.1-2.7-0.2-4-0.2-4V47c-0.2-0.6-0.3-1.2-0.4-1.7c-0.1-0.5-0.1-0.9-0.1-1.3
		c0-0.8,0.3-1.4,0.8-1.9c0.6-0.5,1.4-0.7,2.4-0.7c0.7,0,1.5,0.5,2.4,1.6c1-0.8,1.7-1.3,2.3-1.7c0.5-0.4,1-0.7,1.3-0.8
		c0.4-0.2,0.7-0.3,1.1-0.3c0.3,0,0.8,0,1.3,0c0.5,0,0.9,0,1.3,0.1c0.4,0.1,0.8,0.2,1.3,0.3L789,40.9z"/>
	<path id="XMLID_67_" d="M203.8,150.3c-0.1,0.2-0.4,0.4-0.7,0.5c-0.3,0.2-0.7,0.3-1.1,0.3c-0.4,0.1-0.7,0.1-1,0.2
		c-0.3,0-0.5,0.1-0.5,0.1c-0.6,0-1.2,0.1-1.9,0.1c-0.7,0-1.6,0.1-2.6,0.2c-0.1,0-0.3-0.1-0.5-0.1c-0.2,0-0.4,0-0.8,0.1
		c-0.3,0.1-0.6,0.1-0.8,0.1c-1.4,0-2.1-0.8-2.1-2.4c0-1.2,0.4-2.1,1.2-2.6l2.7-0.9c0-1.2,0.1-2.8,0.4-4.9c0-0.2-0.1-0.5-0.1-0.7
		c0-0.3,0-0.6,0-0.9c0-1.5,0-2.7,0.1-3.5c0.1-0.8,0.1-1.3,0.1-1.3c0-0.4,0-0.8,0-1.3c0-0.5-0.1-1.2-0.1-2c-0.1-0.8-0.2-1.9-0.3-3.1
		c-0.1-1.2-0.2-2.8-0.4-4.6l-2.2-0.3c-0.6-1-1-1.9-1-2.8c0-0.5,0.1-0.9,0.2-1.2c0.1-0.3,0.4-0.6,0.7-0.8c0.4-0.2,0.9-0.4,1.5-0.4
		c0.7-0.1,1.5-0.1,2.6-0.1c0.6,0,1.1,0,1.5,0.1c0.5,0.1,0.9,0.2,1.2,0.3c1,0,1.9,0,2.5,0.1c0.6,0.1,1.1,0.2,1.4,0.4s0.5,0.4,0.6,0.8
		c0.1,0.3,0.2,0.7,0.2,1.3c0,1.1-0.5,2.1-1.4,3c-0.2,0-0.9,0.1-2.3,0.1c0,0.6,0.1,1.2,0.1,1.7c0,0.5,0.1,1.1,0.2,1.8
		c0.1,0.7,0.1,1.7,0.2,3c0,1.2,0.1,2.9,0.1,5c0,1,0,1.8,0,2.5c0,0.7,0,1.3,0,1.9c0,1.1,0,1.7,0.1,1.9l-0.3,4.2
		c1.2,0.2,2.1,0.5,2.5,0.9c0.4,0.4,0.7,1.1,0.7,1.9C204.5,149.3,204.3,149.8,203.8,150.3z"/>
	<path id="XMLID_69_" d="M239.2,129.9c-0.1,0.8-0.2,1.5-0.3,2.1c-0.1,0.6-0.3,1.2-0.6,1.7c-0.3,0.5-0.7,1.1-1.2,1.7
		c-0.5,0.6-1.1,1.2-1.9,2c-2,1.9-4.2,3-6.7,3.3c-0.6,0.2-1.3,0.5-2.2,0.7c-0.9,0.3-2,0.6-3.2,0.9l0.2,4.2c0.1,0.6,0.1,1.2,0.2,1.8
		c0,0.6,0.1,1.3,0.1,2c0,0.5,0,1.1,0,1.7c0,0.6-0.1,1.2-0.2,1.7c-0.2,0.5-0.4,0.9-0.8,1.3c-0.4,0.3-1,0.5-1.8,0.5
		c-0.8,0-1.4-0.2-1.8-0.4c-0.4-0.3-0.6-0.7-0.8-1.3c-0.1-0.5-0.2-1.2-0.2-1.9c0-0.7-0.1-1.5-0.2-2.3v0.1c0-0.6-0.1-1.2-0.1-2
		c0-0.7-0.1-1.5-0.1-2.5c0-1-0.1-2.2-0.2-3.6V141c0-0.3,0-0.6,0-1c0-0.4-0.1-0.9-0.1-1.3c0-0.5-0.1-0.9-0.1-1.3c0-0.4,0-0.6,0-0.7
		c0-0.3,0-0.7,0-1.4c0-0.7,0-1.4,0.1-2.2c0-0.8,0-1.5,0.1-2.2c0-0.7,0-1.3,0-1.6c0-0.7,0-1.3-0.1-1.9c-0.1-0.6-0.1-1.1-0.2-1.5
		c0-0.1,0-0.4,0-0.8c0-0.5,0.1-1,0.1-1.6c0-0.6,0.1-1.2,0.2-1.7c0.1-0.6,0.2-1.1,0.3-1.4c1.2-0.6,2.5-0.8,4.2-0.8h0.5
		c1.8-0.6,3.6-0.8,5.1-0.8c0.6,0,2.3,0.3,5.1,0.8l2.8,1.5c0.8,0.5,1.4,1,1.9,1.4c0.5,0.5,0.9,1.1,1.2,1.8c0.3,0.7,0.5,1.5,0.6,2.4
		C239.1,127.5,239.2,128.6,239.2,129.9z M233.2,130.8c0.1-0.8,0.2-1.5,0.2-2.2c0-1.2-0.5-2.2-1.4-3.2c-0.9-1-2.5-1.4-4.6-1.4
		c-1,0-2.5,0.3-4.5,1c0.1,0.8,0.1,1.8,0.2,2.9c0,1.1,0.1,2.5,0.1,3.9c0,0.1-0.1,0.5-0.1,1.3c0,0.4,0,0.8,0,1.4c0,0.5,0,1.1,0.1,1.8
		c0.4,0,0.8-0.1,1.3-0.3c0.5-0.1,1-0.3,1.4-0.4c0.4-0.1,0.9-0.4,1.5-0.6C230.4,134.4,232.4,133,233.2,130.8z"/>
	<path id="XMLID_72_" d="M281.8,132.3v0.8c0,0.2,0,0.4,0,0.7s0,0.5-0.1,0.7l-0.5,2.9v0.6c0,0.3,0,0.6-0.1,1c0,0.4-0.1,0.9-0.2,1.3
		c-0.1,0.4-0.1,0.8-0.2,1.2c0,0.4-0.1,0.7-0.1,1c0,0.2,0,0.4,0,0.5c0,0.1,0,0.3,0,0.5c0,0.4,0,0.8-0.1,1.3c-0.1,0.4-0.1,1-0.1,1.5
		c0,0.5,0.1,1,0.2,1.6c-0.5,1.9-1.5,2.9-3,2.9c-2.1,0-3.1-2-3.1-5.9c0-1.3,0.1-2.6,0.2-3.9c0.1-1.3,0.3-2.5,0.4-3.6
		c0.2-1.1,0.4-2.1,0.5-2.9c0.2-0.8,0.4-1.5,0.5-2c0.6-0.9,1.5-1.4,2.7-1.4C280,131,281,131.4,281.8,132.3z M283.8,121.5
		c0.1,0.3,0.1,0.7,0.1,1c0,1.4-0.4,2.5-1.2,3.5c-1.3,0.5-2.6,0.8-3.9,0.8c-0.8-0.5-1.5-1.1-2-1.8c-0.5-0.7-0.8-1.3-0.8-2
		c0-0.6,0.6-1.9,1.9-4.1c0.6,0.1,1.1,0.2,1.8,0.2c0.6,0,1.2,0.2,1.7,0.3c0.5,0.2,1,0.4,1.4,0.7C283.3,120.5,283.6,120.9,283.8,121.5
		z"/>
	<path id="XMLID_75_" d="M330.6,148.1c0,0.6-0.3,1-0.9,1.4c-0.6,0.4-1.3,0.5-2,0.5c-0.9,0-1.5-0.3-1.9-0.8c-0.4-0.6-0.7-1.3-0.9-2.2
		c-0.2-0.9-0.3-1.9-0.3-2.9c0-1.1-0.1-2.1-0.1-3.1c-0.1-0.3-0.2-0.7-0.3-1.3c-0.1-0.6-0.2-1.3-0.3-2.1c-1.2-1.3-2.5-1.9-4.2-1.9
		c-0.6,0-1.2,0.1-1.8,0.2c-0.6,0.1-1.2,0.3-1.7,0.7s-1,0.9-1.4,1.6c-0.4,0.7-0.8,1.7-1,3c0,0.2,0.1,0.6,0.1,1.2c0,0.5,0,1-0.1,1.7
		c-0.1,0.7-0.1,1.4-0.2,2.3v0.3c0,0.2,0,0.6,0,1.3s-0.1,1.3-0.3,2.1c-0.2,0.7-0.5,1.3-0.9,1.9s-1.1,0.8-2,0.8
		c-0.8,0-1.5-0.2-2.1-0.7c-0.6-0.4-0.9-1-0.9-1.6c0-0.1,0-0.4,0.1-1c0.1-0.6,0.1-1.2,0.3-1.9c0.1-0.7,0.2-1.4,0.3-2.1
		c0.1-0.7,0.1-1.3,0.1-1.7c0-0.7-0.1-1.5-0.2-2.2v-0.8c0-2.2-0.4-4.2-1.3-6.2c-0.6-0.5-1.6-0.9-3-1c-0.3,0.1-0.6,0.2-1,0.4
		c-0.4,0.2-0.8,0.5-1.2,1.1s-0.7,1.3-1,2.3c-0.3,1-0.5,2.3-0.6,4l-0.2,2.6c0.3,1.3,0.4,2.4,0.4,3.3c0,1.1-0.2,2-0.5,2.7
		c-0.4,0.7-1.2,1-2.4,1c-0.6,0-1.2-0.1-1.6-0.2c-0.4-0.1-0.7-0.5-1-1c-0.2-0.5-0.4-1.3-0.5-2.4c-0.1-1-0.1-2.4-0.1-4.2
		c0-1.4,0.1-2.8,0.3-4.1c0.2-1.3,0.4-3.1,0.8-5.2c-0.1-0.7-0.3-1.4-0.5-2c-0.2-0.6-0.4-1.1-0.4-1.4c0-0.7,0.3-1.4,1-1.9
		c0.6-0.6,1.4-0.8,2.2-0.8c0.6,0,1.2,0.2,1.7,0.6l1.1,1.4c0.5-0.4,1-0.8,1.3-1c0.4-0.2,0.7-0.4,1-0.5c0.3-0.1,0.6-0.2,0.9-0.2
		c0.3,0,0.6,0,1,0c0.6,0,1,0,1.3,0c0.3,0,0.7,0.1,1,0.2c0.3,0.1,0.7,0.3,1.2,0.6c0.4,0.3,1.1,0.7,1.9,1.3c0.5,0.3,1.2,1.5,2.1,3.3
		l0.4-0.4c0.3-0.3,0.8-0.6,1.4-0.9c0.6-0.3,1.3-0.6,2-0.8c0.7-0.2,1.4-0.4,2.2-0.6c0.7-0.1,1.4-0.2,2-0.2c1.4,0,2.6,0.1,3.7,0.4
		c1,0.3,1.9,0.7,2.6,1.2c0.7,0.5,1.4,1.2,1.9,2.1c0.6,0.8,1.1,1.8,1.6,2.9v0.4c0,0.3,0,1,0.1,1.9c0.1,0.9,0.2,1.8,0.3,2.7
		c0.1,0.9,0.2,1.7,0.3,2.3c0.1,0.7,0.1,1,0.1,0.9c0,0,0,0.2,0,0.4c0,0.2,0,0.5,0.1,0.8c0,0.3,0,0.6,0.1,1c0,0.3,0,0.6,0,0.7V148.1z"
		/>
	<path id="XMLID_77_" d="M395.6,140.3v0.4c0,1.5-0.6,3.1-1.7,4.9c-1.2,1.8-3.1,3.5-5.9,5.1c-1.1,0.6-2.1,1.1-3,1.5
		c-0.9,0.4-1.8,0.7-2.7,1c-0.9,0.3-1.9,0.5-2.9,0.8c-1,0.3-2.2,0.6-3.5,1h-3.3c-1-0.1-1.8-0.3-2.3-0.5s-0.9-0.6-1.1-1.1
		s-0.3-1-0.3-1.6c0-0.6,0-1.4,0-2.2c0-0.3,0-0.5,0-0.8c0-0.3,0-0.5,0.1-0.8c0-0.2-0.1-0.4-0.1-0.7s0-0.6,0-0.9
		c0-2.9,0.1-5.2,0.3-6.8c0.2-1.6,0.3-2.9,0.3-3.8c0-0.5,0-1.1,0-1.7c0-0.6,0-1.3,0-2c0.1-1.2,0.2-2.5,0.3-3.9
		c0.1-1.5,0.2-3.1,0.3-4.9c0-0.3-0.2-0.8-0.3-1.4c-0.2-0.6-0.4-1.2-0.5-1.7c-0.2-0.6-0.4-1.3-0.7-2.2c0-0.7,0.4-1.3,1.3-2
		c0.9-0.6,2.1-1,3.7-1.1c2.2-1,4.2-1.5,6.1-1.5c0.2,0,0.4,0,0.8,0c0.3,0,0.8,0,1.3,0.1s1.1,0.3,1.8,0.5c0.7,0.3,1.5,0.7,2.3,1.3
		l2.6,2.1l1,2.1c0.4,0.9,0.6,1.8,0.6,2.7c0,2.1-0.8,4-2.3,5.8c2.9,1.2,4.7,2.2,5.3,3c0.3,0.5,0.7,1.1,1,1.9c0.3,0.8,0.6,1.7,0.8,2.9
		L395.6,140.3z M389.5,141.8c0.2-0.5,0.3-1.1,0.3-1.8c0-1.3-0.2-2.4-0.6-3.4s-1-1.7-1.7-2.3c-0.7-0.6-1.5-1-2.5-1.3
		c-0.9-0.3-1.9-0.4-3-0.4c-0.4,0-1,0.1-1.6,0.3c-0.7,0.2-1.3,0.4-2.1,0.6c-0.7,0.2-1.3,0.4-1.9,0.6c-0.6,0.2-1,0.3-1.2,0.4v1.5
		c0,1.2,0,2.2-0.1,3c0,0.9-0.1,1.8-0.1,2.8c0,1-0.1,2-0.1,3.2c0,1.2-0.1,2.7-0.1,4.4h0.3c1,0,2.2-0.3,3.7-0.8l4.8-1.7
		c0.5-0.2,1.1-0.5,1.7-0.9c0.6-0.4,1.2-0.9,1.8-1.3c0.6-0.5,1.1-1,1.5-1.4C389,142.6,389.3,142.2,389.5,141.8z M383.8,121.2
		c0-0.1-0.2-0.3-0.4-0.6c-0.2-0.3-0.5-0.6-0.8-0.8c-0.3-0.3-0.7-0.5-1.2-0.7c-0.5-0.2-1-0.3-1.6-0.3c-1.8,0-3.2,0.4-4,1.1
		c-0.1,0.3-0.1,0.6-0.1,1c0,0.4,0,0.8,0,1.3c0,0.5,0,1.1-0.1,1.8c-0.1,0.7-0.2,1.5-0.4,2.5c-0.3,1-0.4,1.7-0.4,1.9
		c2.7-0.5,4.9-1.3,6.6-2.4c1.7-1.1,2.6-2.3,2.6-3.7c0-0.2,0-0.4,0-0.6C383.9,121.6,383.9,121.4,383.8,121.2z"/>
	<path id="XMLID_81_" d="M421.2,129.9c0.7,0.4,1,1.2,1,2.4c0,0.9-0.2,1.7-0.7,2.3c-0.5,0.6-1.1,1-1.9,1c-0.5,0-1-0.1-1.6-0.4
		c-0.5-0.3-1.1-0.4-1.7-0.4c-0.5,0-1,0.1-1.5,0.3c-0.5,0.2-1.1,0.6-1.7,1.3l-1.9,1.9c0,0.3,0,0.6,0,0.9c0,0.3,0,0.6,0,1
		c0,0.5,0,1,0,1.6c0,0.6-0.1,1.2-0.1,1.8l0.6,5.8c-0.1,2-1.1,3-3,3c-1,0-1.7-0.3-2.2-0.9c-0.5-0.6-0.8-1.5-1-2.6
		c-0.2-1.1-0.2-2.4-0.2-3.9c0-1.5,0-3.1,0-4.9c-0.1-2.7-0.2-4-0.2-4v0.1c-0.2-0.6-0.3-1.2-0.4-1.7c-0.1-0.5-0.1-0.9-0.1-1.3
		c0-0.8,0.3-1.4,0.8-1.9c0.6-0.5,1.4-0.7,2.4-0.7c0.7,0,1.5,0.5,2.4,1.6c1-0.8,1.7-1.3,2.3-1.7c0.5-0.4,1-0.7,1.3-0.8
		c0.4-0.2,0.7-0.3,1.1-0.3c0.3,0,0.8,0,1.3,0c0.5,0,0.9,0,1.3,0.1c0.4,0.1,0.8,0.2,1.3,0.3L421.2,129.9z"/>
	<path id="XMLID_83_" d="M444.8,150.2c-0.6,0.4-1.5,0.8-2.7,1.1c-1.2,0.4-2.5,0.7-3.9,0.9l-2.6-0.5c-0.4-0.1-1-0.4-1.9-0.9
		c-0.9-0.5-1.8-1.2-2.7-2.2s-1.7-2.2-2.4-3.7c-0.7-1.5-1-3.4-1-5.6c0-0.8,0.2-1.7,0.5-2.7c0.4-1,0.9-2,1.6-3
		c0.7-0.9,1.6-1.7,2.7-2.3c1.1-0.6,2.4-1,3.8-1c2.9,0,5.5,0.9,7.9,2.8c2.1,2.8,3.1,5.9,3.1,9.4C447.4,145.1,446.5,147.6,444.8,150.2
		z M441.6,141c-0.2-1.7-0.7-3-1.6-3.9c-0.8-1-1.9-1.4-3.2-1.4c-0.9,0-1.7,0.4-2.4,1.3c-0.7,0.8-1.1,2-1.1,3.6c0,0.6,0.1,1.3,0.3,2
		c0.2,0.7,0.4,1.3,0.8,1.9c0.4,0.6,0.9,1,1.5,1.4c0.6,0.4,1.3,0.5,2.2,0.5c1.4,0,2.3-0.4,2.8-1.3s0.8-1.9,0.8-3.1c0-0.2,0-0.3,0-0.5
		C441.6,141.4,441.6,141.3,441.6,141z"/>
	<path id="XMLID_86_" d="M490.9,129.1c-0.3,0.7-0.5,1.7-0.9,2.8c-0.3,1.2-0.7,2.5-1,4l-2.1,5.3c0,0.1-0.2,0.6-0.5,1.3
		c-0.3,0.7-0.7,1.6-1.1,2.5c-0.4,0.9-0.8,1.8-1.2,2.6c-0.4,0.8-0.7,1.4-0.9,1.7c-1.4,1.5-2.8,2.4-4.4,2.8c-1.2-0.6-2.4-1.9-3.5-3.8
		c-1.1-1.9-2.2-4.7-3.3-8.4l-1.2,2.4c-0.4,0.8-0.9,1.6-1.6,2.5c-0.7,0.9-1.4,1.7-2.1,2.5c-0.7,0.8-1.4,1.5-2.1,2
		c-0.7,0.6-1.3,0.9-1.7,0.9c-0.9-0.6-2-1.5-3.1-3c-1.1-1.4-2.1-3.3-2.8-5.6c-0.3-0.8-0.5-1.4-0.7-1.9s-0.4-0.8-0.5-1.3
		c-0.2-0.4-0.4-0.9-0.5-1.4c-0.2-0.5-0.4-1.3-0.7-2.3c-0.5-1.9-0.7-3.2-0.7-3.9c0-0.9,0.3-1.5,0.8-1.9c0.5-0.4,1.1-0.6,1.9-0.6
		c0.9,0,1.6,0.2,2.1,0.5c0.5,0.4,0.8,0.9,1.1,1.5s0.5,1.4,0.7,2.3c0.2,0.9,0.5,1.9,0.8,3c0.3,0.9,0.6,1.8,1,3
		c0.4,1.1,0.9,2.4,1.4,3.7c0.3-0.5,0.6-1.1,0.9-1.7c0.4-0.6,0.8-1.3,1.3-2.1c0.2-0.1,0.4-0.4,0.7-1c0.3-0.5,0.6-1,0.9-1.6
		c0.3-0.6,0.5-1,0.7-1.5c0.2-0.4,0.3-0.6,0.3-0.6c1.5-2.2,3.1-3.5,4.9-4c0.1,0.1,0.3,0.4,0.6,0.9c0.3,0.5,0.5,1,0.8,1.6
		c0.3,0.6,0.5,1.1,0.8,1.6s0.5,0.8,0.6,0.9c0.2,0.6,0.4,1.2,0.6,1.7c0.2,0.5,0.4,1.1,0.5,1.8c0.2,0.7,0.4,1.4,0.8,2.3s0.7,2,1.3,3.3
		c0.9-1.9,1.3-3.3,1.4-4.3c0.6-1.7,1.1-3.1,1.6-4.2c0.4-1.1,0.8-1.9,1-2.4c0.1-0.7,0.3-1.4,0.5-2.3c0.2-0.8,0.5-1.6,0.8-2.3
		c0.3-0.7,0.7-1.3,1.2-1.8c0.5-0.5,1.1-0.7,1.8-0.7C489.3,126.2,490.3,127.2,490.9,129.1z"/>
	<path id="XMLID_88_" d="M514.1,144.4c-0.1,1.3-0.6,2.5-1.3,3.6s-1.5,2.2-2.3,3.3c-0.5,0.4-1.1,0.7-2,1c-0.9,0.3-1.7,0.5-2.6,0.7
		c-0.9,0.2-1.6,0.3-2.2,0.4c-0.6,0.1-0.9,0.1-0.8,0.1c-0.4,0-1-0.1-1.6-0.2c-0.7-0.2-1.3-0.3-1.9-0.5c-0.6-0.2-1.1-0.3-1.5-0.4
		c-0.4-0.2-0.6-0.2-0.5-0.2c-0.4,0-0.9-0.2-1.5-0.4c-0.6-0.2-1.2-0.5-1.7-0.8c-0.5-0.3-1-0.7-1.4-1c-0.4-0.4-0.6-0.7-0.6-1.1
		s0.1-0.7,0.3-1.1c0.2-0.4,0.4-0.7,0.7-1c0.3-0.3,0.6-0.6,0.9-0.8c0.3-0.2,0.7-0.3,1-0.3l4.4,1.7c0.8,0.3,1.6,0.4,2.4,0.5
		s1.6,0.2,2.3,0.2c0.7,0,1.4-0.1,2-0.4c0.6-0.3,1-0.6,1.3-1l1-1.9c-0.1-0.8-0.4-1.4-0.9-1.8s-1.2-0.8-2-1.1
		c-0.8-0.3-1.6-0.6-2.5-0.8c-0.9-0.3-1.7-0.6-2.5-1l-2.8-1.7c-0.9-1.2-1.4-2.9-1.4-5.3c0.3-1.5,0.9-2.7,1.9-3.6c0,0,0.3-0.2,0.8-0.6
		c0.5-0.4,1.3-0.9,2.4-1.6c0.2,0,0.7,0,1.6-0.1c0.9-0.1,2.2-0.2,3.8-0.4c0.7,0,2.5,0.5,5.3,1.5c0.6,0.6,0.8,1.3,0.8,2.3
		c0,0.8-0.2,1.4-0.5,2c-0.4,0.5-0.9,0.8-1.6,0.8c-0.7,0-1.5-0.2-2.4-0.5c-0.9-0.4-1.7-0.5-2.5-0.5c-1.1,0-2,0.1-2.9,0.3
		c-0.9,0.2-1.3,0.6-1.3,1.3c0,1,0.4,1.6,1.3,1.8C509.5,137,513.3,139.9,514.1,144.4z"/>
	<path id="XMLID_90_" d="M544.6,149.2c-1.4,1.4-2.9,2.5-4.6,3.5c-1.7,1-3.4,1.4-5.2,1.4c-1.6,0-3.6-0.3-6.1-0.8
		c-0.9-0.6-1.7-1.2-2.6-2c-0.9-0.8-1.6-1.7-2.3-2.6s-1.2-2-1.7-3.1c-0.4-1.1-0.6-2.3-0.6-3.5c0-0.3,0-0.8,0.1-1.4
		c0-0.6,0.1-1.2,0.2-1.7c0.1-0.6,0.1-1.3,0.2-2.1c0.9-1.4,1.8-2.7,2.7-4.1c1-1.3,2.3-2.5,4.1-3.6c2.8-0.6,4.8-0.9,6-0.9
		c0.6,0,1.2,0,1.7,0.1c0.5,0.1,0.9,0.2,1.4,0.4c0.4,0.2,0.9,0.5,1.3,0.9s1,0.9,1.6,1.5c0.7,0.7,1.2,1.2,1.6,1.5
		c0.4,0.3,0.6,0.5,0.6,0.7c0,3.9-1.2,6.6-3.7,8c-1.1,0.4-2.5,0.8-4.2,1.3c-1.7,0.4-4,0.9-7,1.3c0.6,1.6,1.4,2.8,2.4,3.7
		c1,0.8,2.1,1.2,3.3,1.2c1.8,0,4.2-1.1,6.9-3.3c0.4-0.4,1-0.6,1.6-0.6c0.7,0,1.3,0.3,1.8,0.8s0.8,1.2,0.8,1.9
		C545,148.1,544.9,148.6,544.6,149.2z M537.3,135.5c-0.8-1.3-1.8-2-2.9-2c-0.5,0-1,0.1-1.5,0.2c-0.6,0.1-1.1,0.3-1.7,0.5
		c-0.6,0.2-1.1,0.5-1.6,0.9c-0.5,0.3-0.9,0.7-1.2,1.2l-0.6,1.9c1.5-0.1,2.7-0.2,3.9-0.3c1.1-0.1,2.1-0.2,2.9-0.4
		c0.8-0.2,1.5-0.4,1.9-0.7C536.9,136.5,537.2,136.1,537.3,135.5z"/>
	<path id="XMLID_93_" d="M570.4,129.9c0.7,0.4,1,1.2,1,2.4c0,0.9-0.2,1.7-0.7,2.3c-0.5,0.6-1.1,1-1.9,1c-0.5,0-1-0.1-1.6-0.4
		c-0.5-0.3-1.1-0.4-1.7-0.4c-0.5,0-1,0.1-1.5,0.3c-0.5,0.2-1.1,0.6-1.7,1.3l-1.9,1.9c0,0.3,0,0.6,0,0.9c0,0.3,0,0.6,0,1
		c0,0.5,0,1,0,1.6c0,0.6-0.1,1.2-0.1,1.8l0.6,5.8c-0.1,2-1.1,3-3,3c-1,0-1.7-0.3-2.2-0.9c-0.5-0.6-0.8-1.5-1-2.6
		c-0.2-1.1-0.2-2.4-0.2-3.9c0-1.5,0-3.1,0-4.9c-0.1-2.7-0.2-4-0.2-4v0.1c-0.2-0.6-0.3-1.2-0.4-1.7c-0.1-0.5-0.1-0.9-0.1-1.3
		c0-0.8,0.3-1.4,0.8-1.9c0.6-0.5,1.4-0.7,2.4-0.7c0.7,0,1.5,0.5,2.4,1.6c1-0.8,1.7-1.3,2.3-1.7c0.5-0.4,1-0.7,1.3-0.8
		c0.4-0.2,0.7-0.3,1.1-0.3c0.3,0,0.8,0,1.3,0c0.5,0,0.9,0,1.3,0.1c0.4,0.1,0.8,0.2,1.3,0.3L570.4,129.9z"/>
	<path id="XMLID_95_" d="M627.5,144.2c0.8,0.5,1.2,1.1,1.2,1.9c0,0.4-0.1,0.8-0.3,1.2c-0.2,0.4-0.5,0.8-0.8,1.1
		c-0.3,0.3-0.7,0.6-1.1,0.8c-0.4,0.2-0.8,0.3-1.2,0.3c-0.3-0.1-0.7-0.4-1.2-0.7c-0.5-0.3-0.9-0.7-1.4-1.1c-0.5-0.4-0.9-0.9-1.3-1.4
		c-0.4-0.5-0.7-1-0.9-1.5l-0.4,1.1c-0.8,1.5-2.1,3-3.9,4.4c-2.1,0.4-3.4,0.6-3.7,0.6c-0.8,0-1.8-0.1-3-0.4l-3.5-2.5
		c-1.5-1.5-2.3-3.4-2.3-6c0-0.9,0.1-1.9,0.4-3c0.3-1.1,0.7-2.2,1.2-3.3c0.5-1.1,1.2-2.2,2-3.3c0.8-1.1,1.7-2,2.7-2.9
		c1.2-0.5,2.4-0.9,3.6-1.2c1.2-0.3,2-0.5,2.6-0.6c0.8-0.9,1.8-1.3,2.9-1.3c0.6,0,1.2,0.3,1.7,0.9c0.5,0.6,0.9,1.4,1.3,2.3
		c0.4,0.9,0.7,2,0.9,3.1s0.4,2.2,0.4,3.2l0.8,3.4c0.3,1.1,0.7,2,1.3,2.8C626,142.9,626.7,143.6,627.5,144.2z M617.8,137.1
		c-0.1,0-0.4-1.4-1-4c-0.2,0-0.5,0-1,0s-0.9,0.1-1.5,0.4c-0.6,0.2-1.2,0.6-1.9,1.2s-1.3,1.4-1.9,2.6c-0.9,1.7-1.3,3.3-1.3,5
		c0.7,1.4,1.9,2.5,3.4,3.3c0.5-0.1,0.9-0.3,1.2-0.4c0.3-0.2,0.6-0.4,0.9-0.7c0.3-0.3,0.5-0.7,0.7-1.1c0.2-0.4,0.5-1,0.8-1.7
		c0.6-1,1-1.8,1.2-2.6C617.6,138.2,617.8,137.6,617.8,137.1z"/>
	<path id="XMLID_98_" d="M656.3,128.7c0.1,0.5,0.1,1,0.1,1.5c0,0.5,0,1,0,1.5c0,2-0.2,3.7-0.6,5.3c-0.2,1.1-0.3,2.2-0.4,3.3
		c-0.1,1.1-0.2,2.3-0.3,3.6c0,0.1,0.1,0.5,0.2,1.4c0.1,0.8,0.2,2.1,0.2,3.7c0,0.7-0.3,1.3-0.9,1.6c-0.6,0.4-1.3,0.5-2,0.5
		c-0.9,0-1.6-0.2-2-0.6c-0.4-0.4-0.6-1.4-0.7-2.9c-0.7,0.7-1.4,1.2-2.1,1.6c-0.7,0.4-1.3,0.6-2,0.8c-0.6,0.2-1.2,0.3-1.7,0.3
		c-0.5,0-1,0.1-1.5,0.1c-2.4,0-4.3-0.7-5.5-2.2c-1.2-1.5-1.9-3.5-1.9-6c0-0.3,0-0.6,0-0.9c0-0.3,0-0.7,0.1-1.1
		c0-0.1-0.1-0.3-0.1-0.6c0-0.5,0-1,0-1.4c0-0.5,0.1-1.1,0.2-1.8c0.1-0.7,0.3-1.6,0.6-2.7c0.3-1.1,0.7-2.5,1.2-4.2
		c0.6-0.7,1.3-1,2.2-1c0.7,0,1.4,0.2,1.9,0.6c0.5,0.4,0.8,1,0.8,1.8c0,0.2-0.1,0.6-0.2,1.3c-0.1,0.6-0.3,1.3-0.4,2.1
		s-0.3,1.5-0.4,2.3c-0.1,0.8-0.2,1.4-0.2,1.8v0.3c-0.1,0.5-0.2,0.9-0.2,1.4c0,0.4-0.1,0.9-0.1,1.3c0,1.1,0.2,2,0.5,2.8
		c0.3,0.7,1,1.1,2.1,1.1c0.8,0,1.5-0.2,2.2-0.5c0.7-0.4,1.3-0.8,1.9-1.3c0.6-0.5,1.1-1.1,1.5-1.7c0.4-0.6,0.7-1.2,1-1.8
		c0.2-1.6,0.6-3.7,1.2-6.2v-0.6c0-0.7,0-1.4,0.1-2.1s0.2-1.3,0.4-1.8s0.5-1,0.9-1.3c0.4-0.3,0.9-0.5,1.6-0.5
		C655.1,127.1,655.9,127.6,656.3,128.7z"/>
	<path id="XMLID_100_" d="M680.5,131.8l-3.5,0.3c-0.2,0-0.4,0-0.6,0.1c-0.2,0-0.5,0.1-0.7,0.1c-0.3,0-0.6,0.1-0.9,0.1l0.5,5.8
		c0,0.6,0.1,1.2,0.2,2.1c0.1,0.8,0.2,1.8,0.4,2.9c0,0.3-0.1,0.7-0.1,1c0,0.3,0,0.7,0,1.2c0,0.6,0,1.3,0.1,2.1c0,0.8,0.1,1.6,0.2,2.5
		c-0.8,1.3-1.9,1.9-3.3,1.9c-1.3,0-2.2-0.6-2.7-1.9c0-0.3,0-0.8,0-1.3c0-0.5,0-1,0-1.6c0-0.6,0-1.3,0-2c0-0.7,0-1.5,0-2.3v-0.3
		c0-0.7,0-1.2-0.1-1.5s-0.1-0.8-0.2-1.3c-0.1-0.5-0.2-1.3-0.3-2.3c-0.1-1-0.3-2.5-0.4-4.5l-2.4,0.4c-0.1,0-0.2,0-0.4,0
		c-0.1,0-0.2,0-0.3,0c-0.2,0-0.4,0-0.6,0c-0.2,0-0.3,0-0.4,0c-0.2,0-0.3,0.1-0.4,0.1c-1.4-0.3-2.1-1.3-2.1-3c0-0.6,0.1-1.1,0.2-1.5
		c0.1-0.3,0.4-0.6,0.8-0.8c0.4-0.2,1.1-0.3,1.9-0.4c0.8-0.1,1.9-0.3,3.3-0.5c0-0.7-0.1-1.6-0.2-2.5c-0.1-1-0.2-2-0.2-3.1
		c0-1.7,0.8-4,2.3-6.7c0.4-0.2,0.8-0.4,1.3-0.6c0.4-0.2,0.9-0.4,1.5-0.6c0.6-0.2,1.3-0.4,2.1-0.6c0.8-0.2,1.8-0.4,3-0.5h0.3
		c0.7,0,1.3,0.3,1.7,0.8c0.4,0.6,0.6,1.2,0.6,1.9c0,0.8-0.2,1.4-0.5,1.8c-0.4,0.4-0.8,0.7-1.4,1c-0.6,0.2-1.2,0.4-1.8,0.6
		c-0.7,0.2-1.3,0.4-1.8,0.6c-0.5,0.2-0.8,0.5-0.9,1c-0.1,0.5-0.2,0.9-0.2,1.4c0,0.1,0,0.4,0.1,1.1c0,0.6,0.1,1.2,0.1,1.6
		c0,0.1,0,0.2,0,0.4c0,0.1,0,0.2,0,0.3c0,0.2,0,0.4,0,0.7c0,0.3,0.1,0.7,0.1,1.1l3-0.4c0.3,0,0.6-0.1,0.9-0.1c0.3,0,0.5,0,0.7,0
		c1.1,0,1.9,0.2,2.3,0.6c0.5,0.4,0.7,1,0.7,2C682,130.5,681.5,131.4,680.5,131.8z"/>
	<path id="XMLID_102_" d="M705.8,129.9c0.7,0.4,1,1.2,1,2.4c0,0.9-0.2,1.7-0.7,2.3c-0.5,0.6-1.1,1-1.9,1c-0.5,0-1-0.1-1.6-0.4
		c-0.5-0.3-1.1-0.4-1.7-0.4c-0.5,0-1,0.1-1.5,0.3c-0.5,0.2-1.1,0.6-1.7,1.3l-1.9,1.9c0,0.3,0,0.6,0,0.9c0,0.3,0,0.6,0,1
		c0,0.5,0,1,0,1.6c0,0.6-0.1,1.2-0.1,1.8l0.6,5.8c-0.1,2-1.1,3-3,3c-1,0-1.7-0.3-2.2-0.9c-0.5-0.6-0.8-1.5-1-2.6
		c-0.2-1.1-0.2-2.4-0.2-3.9c0-1.5,0-3.1,0-4.9c-0.1-2.7-0.2-4-0.2-4v0.1c-0.2-0.6-0.3-1.2-0.4-1.7c-0.1-0.5-0.1-0.9-0.1-1.3
		c0-0.8,0.3-1.4,0.8-1.9c0.6-0.5,1.4-0.7,2.4-0.7c0.7,0,1.5,0.5,2.4,1.6c1-0.8,1.7-1.3,2.3-1.7c0.5-0.4,1-0.7,1.3-0.8
		c0.4-0.2,0.7-0.3,1.1-0.3c0.3,0,0.8,0,1.3,0c0.5,0,0.9,0,1.3,0.1c0.4,0.1,0.8,0.2,1.3,0.3L705.8,129.9z"/>
	<path id="XMLID_104_" d="M734.8,128.7c0.1,0.5,0.1,1,0.1,1.5c0,0.5,0,1,0,1.5c0,2-0.2,3.7-0.6,5.3c-0.2,1.1-0.3,2.2-0.4,3.3
		c-0.1,1.1-0.2,2.3-0.3,3.6c0,0.1,0.1,0.5,0.2,1.4c0.1,0.8,0.2,2.1,0.2,3.7c0,0.7-0.3,1.3-0.9,1.6c-0.6,0.4-1.3,0.5-2,0.5
		c-0.9,0-1.6-0.2-2-0.6c-0.4-0.4-0.6-1.4-0.7-2.9c-0.7,0.7-1.4,1.2-2.1,1.6c-0.7,0.4-1.3,0.6-2,0.8c-0.6,0.2-1.2,0.3-1.7,0.3
		c-0.5,0-1,0.1-1.5,0.1c-2.4,0-4.3-0.7-5.5-2.2c-1.2-1.5-1.9-3.5-1.9-6c0-0.3,0-0.6,0-0.9c0-0.3,0-0.7,0.1-1.1
		c0-0.1-0.1-0.3-0.1-0.6c0-0.5,0-1,0-1.4c0-0.5,0.1-1.1,0.2-1.8c0.1-0.7,0.3-1.6,0.6-2.7c0.3-1.1,0.7-2.5,1.2-4.2
		c0.6-0.7,1.3-1,2.2-1c0.7,0,1.4,0.2,1.9,0.6c0.5,0.4,0.8,1,0.8,1.8c0,0.2-0.1,0.6-0.2,1.3c-0.1,0.6-0.3,1.3-0.4,2.1
		s-0.3,1.5-0.4,2.3c-0.1,0.8-0.2,1.4-0.2,1.8v0.3c-0.1,0.5-0.2,0.9-0.2,1.4c0,0.4-0.1,0.9-0.1,1.3c0,1.1,0.2,2,0.5,2.8
		c0.3,0.7,1,1.1,2.1,1.1c0.8,0,1.5-0.2,2.2-0.5c0.7-0.4,1.3-0.8,1.9-1.3c0.6-0.5,1.1-1.1,1.5-1.7c0.4-0.6,0.7-1.2,1-1.8
		c0.2-1.6,0.6-3.7,1.2-6.2v-0.6c0-0.7,0-1.4,0.1-2.1s0.2-1.3,0.4-1.8s0.5-1,0.9-1.3c0.4-0.3,0.9-0.5,1.6-0.5
		C733.6,127.1,734.4,127.6,734.8,128.7z"/>
	<path id="XMLID_106_" d="M759,131.8l-3.5,0.3c-0.2,0-0.4,0-0.6,0.1c-0.2,0-0.5,0.1-0.7,0.1c-0.3,0-0.6,0.1-0.9,0.1l0.5,5.8
		c0,0.6,0.1,1.2,0.2,2.1c0.1,0.8,0.2,1.8,0.4,2.9c0,0.3-0.1,0.7-0.1,1c0,0.3,0,0.7,0,1.2c0,0.6,0,1.3,0.1,2.1c0,0.8,0.1,1.6,0.2,2.5
		c-0.8,1.3-1.9,1.9-3.3,1.9c-1.3,0-2.2-0.6-2.7-1.9c0-0.3,0-0.8,0-1.3c0-0.5,0-1,0-1.6c0-0.6,0-1.3,0-2c0-0.7,0-1.5,0-2.3v-0.3
		c0-0.7,0-1.2-0.1-1.5s-0.1-0.8-0.2-1.3c-0.1-0.5-0.2-1.3-0.3-2.3c-0.1-1-0.3-2.5-0.4-4.5l-2.4,0.4c-0.1,0-0.2,0-0.4,0
		c-0.1,0-0.2,0-0.3,0c-0.2,0-0.4,0-0.6,0c-0.2,0-0.3,0-0.4,0c-0.2,0-0.3,0.1-0.4,0.1c-1.4-0.3-2.1-1.3-2.1-3c0-0.6,0.1-1.1,0.2-1.5
		c0.1-0.3,0.4-0.6,0.8-0.8c0.4-0.2,1.1-0.3,1.9-0.4c0.8-0.1,1.9-0.3,3.3-0.5c0-0.7-0.1-1.6-0.2-2.5c-0.1-1-0.2-2-0.2-3.1
		c0-1.7,0.8-4,2.3-6.7c0.4-0.2,0.8-0.4,1.3-0.6c0.4-0.2,0.9-0.4,1.5-0.6c0.6-0.2,1.3-0.4,2.1-0.6c0.8-0.2,1.8-0.4,3-0.5h0.3
		c0.7,0,1.3,0.3,1.7,0.8c0.4,0.6,0.6,1.2,0.6,1.9c0,0.8-0.2,1.4-0.5,1.8c-0.4,0.4-0.8,0.7-1.4,1c-0.6,0.2-1.2,0.4-1.8,0.6
		c-0.7,0.2-1.3,0.4-1.8,0.6c-0.5,0.2-0.8,0.5-0.9,1c-0.1,0.5-0.2,0.9-0.2,1.4c0,0.1,0,0.4,0.1,1.1c0,0.6,0.1,1.2,0.1,1.6
		c0,0.1,0,0.2,0,0.4c0,0.1,0,0.2,0,0.3c0,0.2,0,0.4,0,0.7c0,0.3,0.1,0.7,0.1,1.1l3-0.4c0.3,0,0.6-0.1,0.9-0.1c0.3,0,0.5,0,0.7,0
		c1.1,0,1.9,0.2,2.3,0.6c0.5,0.4,0.7,1,0.7,2C760.5,130.5,760,131.4,759,131.8z"/>
	<path id="XMLID_108_" d="M789.1,149.2c-1.4,1.4-2.9,2.5-4.6,3.5c-1.7,1-3.4,1.4-5.2,1.4c-1.6,0-3.6-0.3-6.1-0.8
		c-0.9-0.6-1.7-1.2-2.6-2c-0.9-0.8-1.6-1.7-2.3-2.6s-1.2-2-1.7-3.1c-0.4-1.1-0.6-2.3-0.6-3.5c0-0.3,0-0.8,0.1-1.4
		c0-0.6,0.1-1.2,0.2-1.7c0.1-0.6,0.1-1.3,0.2-2.1c0.9-1.4,1.8-2.7,2.7-4.1c1-1.3,2.3-2.5,4.1-3.6c2.8-0.6,4.8-0.9,6-0.9
		c0.6,0,1.2,0,1.7,0.1c0.5,0.1,0.9,0.2,1.4,0.4c0.4,0.2,0.9,0.5,1.3,0.9s1,0.9,1.6,1.5c0.7,0.7,1.2,1.2,1.6,1.5
		c0.4,0.3,0.6,0.5,0.6,0.7c0,3.9-1.2,6.6-3.7,8c-1.1,0.4-2.5,0.8-4.2,1.3c-1.7,0.4-4,0.9-7,1.3c0.6,1.6,1.4,2.8,2.4,3.7
		c1,0.8,2.1,1.2,3.3,1.2c1.8,0,4.2-1.1,6.9-3.3c0.4-0.4,1-0.6,1.6-0.6c0.7,0,1.3,0.3,1.8,0.8s0.8,1.2,0.8,1.9
		C789.6,148.1,789.4,148.6,789.1,149.2z M781.9,135.5c-0.8-1.3-1.8-2-2.9-2c-0.5,0-1,0.1-1.5,0.2c-0.6,0.1-1.1,0.3-1.7,0.5
		c-0.6,0.2-1.1,0.5-1.6,0.9c-0.5,0.3-0.9,0.7-1.2,1.2l-0.6,1.9c1.5-0.1,2.7-0.2,3.9-0.3c1.1-0.1,2.1-0.2,2.9-0.4
		c0.8-0.2,1.5-0.4,1.9-0.7C781.5,136.5,781.8,136.1,781.9,135.5z"/>
	<path id="XMLID_111_" d="M818.5,144.6v0.5c0,0.3,0,0.7,0,1.4c0,0.7,0,1.3-0.2,2c-0.2,0.7-0.4,1.3-0.9,1.8c-0.4,0.5-1.1,0.8-1.9,0.8
		c-1.7,0-2.7-0.7-3-2c0-0.3,0.1-0.5,0.1-0.9c0-0.3,0-0.7,0-1.1c0-0.2,0-0.8,0-1.9c0-1.1,0-2.3-0.1-3.6c-0.1-1.3-0.2-2.5-0.4-3.6
		c-0.2-1.1-0.5-1.9-1-2.2c-1-0.7-1.9-1-2.6-1c-1,0-1.9,0.3-2.6,0.9c-0.7,0.6-1.3,1.8-1.8,3.6c0,0.6-0.1,1.3-0.1,2
		c0,0.7-0.1,1.6-0.2,2.5c0,0.7,0,1.5,0.1,2.4c0,0.9,0.1,1.9,0.2,3c0,0.8-0.3,1.5-1,2c-0.6,0.5-1.4,0.8-2.2,0.8
		c-0.6,0-1.2-0.2-1.5-0.5c-0.4-0.3-0.7-0.8-0.9-1.3c-0.2-0.6-0.3-1.2-0.4-1.8s-0.1-1.3-0.1-1.9c0-0.5,0-1,0.1-1.4
		c0-0.5,0.1-1,0.2-1.5l0.5-6.2l0.5-3.1c-0.1-0.5-0.3-1.1-0.5-1.7c-0.3-0.6-0.4-1.1-0.4-1.4c0-0.7,0.3-1.4,0.9-2
		c0.6-0.6,1.3-0.9,2.2-0.9c0.6,0,1,0.1,1.3,0.4c0.3,0.2,0.8,0.8,1.5,1.7c0.9-0.4,1.5-0.6,2.1-0.7c0.5-0.1,1.1-0.2,1.8-0.2
		c2.2,0,4.2,0.5,5.9,1.6c1.7,1,2.7,2.8,3.2,5.2c0.1,0.9,0.2,1.6,0.4,2.2c0.1,0.6,0.2,1.2,0.3,1.7c0.1,0.6,0.2,1.1,0.3,1.8
		C818.2,142.9,818.3,143.7,818.5,144.6z"/>
</g>
<path id="XMLID_2_" class="st0" d="M135,57c-3.8,0.8-41.1,8.8-58,45.3c-18.2,39.3,3.9,75.2,5.5,77.7"/>
<path id="XMLID_12_" class="st0" d="M184,79c68.3-1,136.7-1.6,205-2c88-0.5,176-0.5,264,0"/>
<polyline id="XMLID_15_" class="st1" points="58.5,171.2 84.3,186.7 95.7,158.7 "/>
</svg>
